<svg width="20" height="27" viewBox="0 0 20 27" fill="none" xmlns="http://www.w3.org/2000/svg">
<path d="M19.9863 17.5261C19.9043 15.4412 19.0135 13.0587 17.9609 11.3021C16.2162 8.12296 16.2984 4.3351 17.5581 1.05839C17.7124 0.656839 17.5117 0.206286 17.1099 0.0520489C16.7081 -0.102293 16.2571 0.0982474 16.1027 0.499847C14.7657 3.97804 14.6423 8.01851 16.279 11.4371C12.7548 13.0481 6.7811 13.0411 3.69188 11.4975C5.35232 8.07697 5.24839 4.01467 3.8973 0.499847C3.74291 0.0982474 3.29199 -0.102137 2.89013 0.0520489C2.48828 0.206286 2.28758 0.656839 2.44192 1.05839C3.69952 4.32965 3.78926 8.11278 2.03918 11.302C0.733823 13.4803 0.0800287 15.8401 0.0136671 17.526C-0.114899 20.7379 0.665591 23.7542 2.27079 26.2489C2.50376 26.611 2.98622 26.7153 3.34801 26.4828C3.71017 26.2502 3.81499 25.7683 3.58218 25.4065C1.80902 22.6507 1.22247 19.1034 1.73668 16.3493C5.51087 16.9325 8.49663 20.1823 9.21122 21.0205V25.8131C9.21122 26.2433 9.56023 26.592 9.99072 26.592C10.4212 26.592 10.7702 26.2433 10.7702 25.8131V21.0199C11.4851 20.1791 14.4715 16.9218 18.2628 16.3464C18.7746 19.084 18.2009 22.6354 16.4177 25.4069C16.1849 25.7687 16.2897 26.2506 16.6518 26.4832C17.0137 26.7158 17.4961 26.6112 17.7291 26.2492C19.3344 23.7544 20.1149 20.738 19.9863 17.5261ZM9.99088 19.5461C8.77184 18.2171 5.85671 15.4665 2.12316 14.8333C2.33944 14.1689 2.61585 13.5131 2.95031 12.8681C6.65025 14.745 13.2577 14.5805 17.0203 12.8107C17.3677 13.4733 17.6534 14.1473 17.876 14.8305C14.1355 15.4581 11.2123 18.2151 9.99088 19.5461Z" fill="black"/>
<path d="M9.99072 9.40514C10.4212 9.40514 10.7702 9.05642 10.7702 8.62626C10.7702 8.1961 10.4212 7.84738 9.99072 7.84738C9.56022 7.84738 9.21122 8.1961 9.21122 8.62626C9.21122 9.05642 9.56022 9.40514 9.99072 9.40514Z" fill="black"/>
</svg>
