<svg width="20" height="20" viewBox="0 0 20 20" fill="none" xmlns="http://www.w3.org/2000/svg">
<path d="M19.3567 6.38779C19.9927 3.20816 20 0.691528 20 0.585938C20 0.430603 19.9384 0.281525 19.8283 0.171661C19.7185 0.0617981 19.5695 0 19.4141 0C19.3085 0 16.7918 0.00732422 13.6122 0.643311C12.4794 0.869751 11.4061 1.14868 10.4015 1.47583C10.3946 1.47781 10.388 1.4801 10.3813 1.48239C9.73099 1.69479 9.10934 1.92749 8.5202 2.17987C7.79968 2.48871 7.12616 2.82761 6.50177 3.19489C6.48285 3.20496 6.46439 3.21594 6.44669 3.228C5.44495 3.82263 4.57047 4.49081 3.83469 5.22659C2.37366 6.68762 1.56906 8.62991 1.56906 10.696C1.56906 12.5655 2.22794 14.3336 3.43567 15.7356L0.171661 18.9998C-0.0572205 19.2287 -0.0572205 19.5996 0.171661 19.8283C0.286102 19.9428 0.435944 20 0.585938 20C0.735931 20 0.885925 19.9428 1.00021 19.8283L4.26437 16.5643C5.6662 17.7719 7.43439 18.4308 9.30389 18.4308C11.3701 18.4308 13.3124 17.6263 14.7734 16.1655C15.5093 15.4295 16.1774 14.5549 16.772 13.5532C16.7841 13.5355 16.795 13.517 16.8051 13.4981C17.1724 12.8735 17.5113 12.2002 17.82 11.4798C18.0728 10.8899 18.3057 10.2676 18.5184 9.61655C18.5202 9.61105 18.522 9.60541 18.5237 9.59991C18.851 8.59482 19.1301 7.52106 19.3567 6.38779ZM13.8194 1.79688C15.9966 1.35986 17.887 1.22833 18.8112 1.18881C18.7717 2.11319 18.6401 4.0036 18.2031 6.18057C18.0389 6.99844 17.82 7.90726 17.5305 8.84628L11.9821 8.84644L15.3906 5.43808C15.6194 5.2092 15.6194 4.8381 15.3906 4.60938C15.1617 4.38049 14.7908 4.38049 14.5619 4.60938L11.1537 8.01773V2.46948C12.0927 2.18002 13.0016 1.96106 13.8194 1.79688ZM15.9445 12.6376H8.19092L10.8102 10.0183L17.1355 10.0182C16.81 10.9027 16.4177 11.792 15.9445 12.6376ZM9.98184 2.86453V9.18945L7.36237 11.8088L7.36221 4.05548C8.20801 3.58231 9.09714 3.19 9.98184 2.86453ZM2.74094 10.696C2.74094 8.94302 3.42361 7.29492 4.66324 6.0553C5.13031 5.58823 5.64468 5.16678 6.19034 4.78653L6.19064 12.9807L4.26743 14.904C3.27927 13.7256 2.74094 12.2522 2.74094 10.696ZM13.9449 15.3369C12.7052 16.5764 11.057 17.2589 9.30389 17.2589C7.7478 17.2589 6.27441 16.7206 5.09598 15.7326L7.01904 13.8095H15.2136C14.8334 14.3553 14.4119 14.8697 13.9449 15.3369Z" fill="black"/>
</svg>
