<svg width="20" height="20" viewBox="0 0 20 20" fill="none" xmlns="http://www.w3.org/2000/svg">
<path fill-rule="evenodd" clip-rule="evenodd" d="M20 10C20 8.31752 18.8696 7 17 7H13.927L13.9548 6.92427C13.9826 6.8492 14.0607 6.64317 14.1367 6.4429L14.1371 6.44176C14.2044 6.26444 14.2699 6.09184 14.2971 6.01891C14.4872 5.50856 14.626 5.09736 14.7382 4.69013C14.9079 4.07463 15 3.52011 15 3C15 1.52799 14.0919 0.613718 12.7483 0.222487C12.1423 0.0460283 11.6148 -9.16993e-05 11 1.36796e-07H10.5205L10.2203 0.373885C9.88112 0.79624 9.21499 1.55743 8.44701 2.435C7.03026 4.05392 5.2669 6.06891 4.57035 7.0834C4.38961 7.02972 4.19817 7.00089 4 7.00089H2C0.89543 7.00089 0 7.89633 0 9.00089V18.0009C0 19.1055 0.89543 20.0009 2 20.0009H4C4.68712 20.0009 5.29331 19.6544 5.65337 19.1266C5.95674 19.3228 6.29522 19.4865 6.66312 19.6182C7.50544 19.9196 8.34085 20.0121 9.0344 19.9994L16 20C18.7551 20 20 15.9436 20 10ZM7.33688 17.7351C6.45197 17.4185 6 16.9022 6 16V9.00089C6 8.7607 6.04443 8.54711 6.14171 8.31998C6.31645 7.912 7.90193 6.10314 9.40467 4.38868C10.1802 3.50389 10.9338 2.64409 11.46 2.01513C11.7114 2.03399 11.9484 2.07263 12.1891 2.14274C12.7622 2.3096 13 2.54903 13 3C13 3.31658 12.9359 3.70232 12.8101 4.15861C12.7161 4.49958 12.5944 4.86037 12.4229 5.32066C12.3986 5.38586 12.3381 5.54541 12.2737 5.71523L12.2733 5.71628C12.1947 5.92342 12.1101 6.14625 12.079 6.23055C11.9489 6.58217 11.8633 6.84107 11.8047 7.07631C11.5555 8.07635 11.8055 9 13 9H17C17.6912 9 18 9.35989 18 10C18 14.7907 17.0151 18 16 18H9L8.96307 18.0006C8.52538 18.0085 7.91062 17.9404 7.33688 17.7351ZM2 18.0009V9.00089H4V18.0009H2Z" fill="#101F26"/>
</svg>
