<svg width="20" height="22" viewBox="0 0 20 22" fill="none" xmlns="http://www.w3.org/2000/svg">
<path fill-rule="evenodd" clip-rule="evenodd" d="M2.07886 2.04466L2.5484 1.10557C2.88719 0.428005 3.57971 0 4.33726 0H15.1012C15.8587 0 16.5513 0.428005 16.89 1.10557L17.3596 2.04466C18.0928 2.20235 18.691 2.76416 18.8787 3.51493L19.3787 5.51493C19.6466 6.58652 18.9951 7.67239 17.9235 7.94029C17.8131 7.96789 17.7006 7.98599 17.5873 7.99445L15.5865 22H3.85193L1.85115 7.99454C0.816094 7.91839 0 7.0545 0 6C0 5.83648 0.0200547 5.67357 0.059715 5.51493L0.559715 3.51493C0.747406 2.76416 1.34565 2.20235 2.07886 2.04466ZM3.87223 8H15.5662L13.8519 20H5.58652L3.87223 8ZM2.5 4H3.33726L4.33726 2H15.1012L16.1012 4H16.9384L17.4384 6H2L2.5 4Z" fill="#101F26"/>
</svg>
