<?xml version="1.0" encoding="UTF-8"?>
<svg width="517px" height="70px" viewBox="0 0 517 70" version="1.1" xmlns="http://www.w3.org/2000/svg" xmlns:xlink="http://www.w3.org/1999/xlink">
    <!-- Generator: sketchtool 52.2 (67145) - http://www.bohemiancoding.com/sketch -->
    <title>CAC20A8A-EFD1-41BD-B294-941CECAB13E9</title>
    <desc>Created with sketchtool.</desc>
    <defs>
        <rect id="path-1" x="0" y="0" width="517" height="70"></rect>
    </defs>
    <g id="Xmas-&amp;-Winter" stroke="none" stroke-width="1" fill="none" fill-rule="evenodd">
        <g id="Xmas-Timebar">
            <g id="Fill-24" transform="translate(-156.000000, 0.000000)">
                <g id="bg" transform="translate(156.000000, 0.000000)">
                    <mask id="mask-2" fill="white">
                        <use xlink:href="#path-1"></use>
                    </mask>
                    <use id="Mask" fill="#C8EBFC" xlink:href="#path-1"></use>
                    <path d="M522.341264,56.7602386 C501.784049,54.1886304 477.03044,52.3238813 448.287925,52.2842475 C378.117789,52.187488 402.54796,65.4320895 326.287738,65.4320895 C276.027743,65.4320895 268.54996,53.6276691 237.1553,53.6276691 C219.589805,53.6276691 209.055784,59.6225667 178.115024,59.6225667 C95.0857646,59.6225667 62.1195464,35 9.10199177,35 C-7.82098333,35 -28.219768,35.9940593 -35,40.471695 L-35,70.849564 L522.341264,70.849564 L522.341264,56.7602386 Z" id="Fill-24" fill="#FFFFFF" mask="url(#mask-2)"></path>
                    <g id="Group-13" mask="url(#mask-2)">
                        <g transform="translate(126.000000, 17.000000)">
                            <g id="Group-5" transform="translate(42.000000, 0.000000)">
                                <polygon id="Fill-1" fill="#FFFFFF" points="11.0280752 5.60164366 3.75128743 21.5230802 18.304863 21.5230802"></polygon>
                                <polygon id="Fill-2" fill="#FFFFFF" points="11.0280752 0.000117537313 5.99814863 11.0053041 16.0580017 11.0053041 11.0282461 0.000117537313"></polygon>
                                <polygon id="Fill-3" fill="#FFFFFF" points="11.0280752 10.9447724 0.500731366 33.9785597 21.555419 33.9785597"></polygon>
                                <polygon id="Fill-4" fill="#FFFFFF" points="10.1734304 44.5568843 11.88272 44.5568843 11.88272 32.6352425 10.1734304 32.6352425"></polygon>
                            </g>
                            <g id="Group-5" transform="translate(9.000000, 31.500000) rotate(11.000000) translate(-9.000000, -31.500000) translate(3.000000, 20.000000)">
                                <polygon id="Fill-1" fill="#FFFFFF" points="5.75377836 2.86306231 1.95719344 11.0006854 9.55036328 11.0006854"></polygon>
                                <polygon id="Fill-2" fill="#FFFFFF" points="5.75377836 6.00746269e-05 3.12946885 5.62493321 8.37808787 5.62493321 5.75386754 6.00746269e-05"></polygon>
                                <polygon id="Fill-3" fill="#FFFFFF" points="5.75377836 5.59399478 0.261251148 17.3668194 11.2463056 17.3668194"></polygon>
                                <polygon id="Fill-4" fill="#FFFFFF" points="5.30787672 22.7735187 6.19968 22.7735187 6.19968 16.6802351 5.30787672 16.6802351"></polygon>
                            </g>
                            <g id="Group-7" transform="translate(80.000000, 28.500000) rotate(-8.000000) translate(-80.000000, -28.500000) translate(66.000000, 14.000000)">
                                <polygon id="Fill-5" fill="#FFFFFF" points="14.4609882 4.54039925 5.11466689 15.1546903 23.8073095 15.1546903"></polygon>
                                <polygon id="Fill-6" fill="#FFFFFF" points="14.4609882 0.805981343 8.0005423 8.14288433 20.9214341 8.14288433"></polygon>
                                <polygon id="Fill-7" fill="#FFFFFF" points="0.939589508 23.4582649 27.9824092 23.4582649 14.4609993 8.10251866"></polygon>
                                <polygon id="Fill-8" fill="#FFFFFF" points="13.3632787 28.2568284 15.5586754 28.2568284 15.5586754 20.3090672 13.3632787 20.3090672"></polygon>
                            </g>
                            <g id="Group-6" transform="translate(26.500000, 34.500000) rotate(-6.000000) translate(-26.500000, -34.500000) translate(17.000000, 20.000000)">
                                <polygon id="Fill-9" fill="#FFFFFF" points="1.38555833e-13 17.1547575 18.6926426 17.1547575 9.34632131 6.54046642"></polygon>
                                <polygon id="Fill-10" fill="#FFFFFF" points="9.34632131 2.80598134 2.88587541 10.1428843 15.8067672 10.1428843"></polygon>
                                <polygon id="Fill-11" fill="#FFFFFF" points="9.34632131 0.943384328 5.95 4.80062313 12.7426426 4.80062313"></polygon>
                                <polygon id="Fill-12" fill="#FFFFFF" points="8.24851148 28.9284701 10.4440197 28.9284701 10.4440197 16.3910448 8.24851148 16.3910448"></polygon>
                            </g>
                        </g>
                    </g>
                    <g id="Group-13" mask="url(#mask-2)">
                        <g transform="translate(57.774616, 28.201279) rotate(13.000000) translate(-57.774616, -28.201279) translate(14.774616, 12.201279)">
                            <polygon id="Fill-1" fill="#FFFFFF" points="78.192223 3.7344291 73.4464918 14.3487201 82.9379541 14.3487201"></polygon>
                            <polygon id="Fill-2" fill="#FFFFFF" points="78.192223 7.83582077e-05 74.9118361 7.3368694 81.4726098 7.3368694 78.1923344 7.83582077e-05"></polygon>
                            <polygon id="Fill-3" fill="#FFFFFF" points="78.192223 7.29651493 71.3265639 22.6523731 85.057882 22.6523731"></polygon>
                            <polygon id="Fill-4" fill="#FFFFFF" points="77.6348459 29.7045896 78.7496 29.7045896 78.7496 21.7568284 77.6348459 21.7568284"></polygon>
                            <g id="Group-2" stroke-width="1" fill="none" transform="translate(15.899483, 17.025721) rotate(-6.000000) translate(-15.899483, -17.025721) translate(1.899483, 3.525721)">
                                <polygon id="Fill-5" fill="#FFFFFF" points="14.4609882 4.54039925 5.11466689 15.1546903 23.8073095 15.1546903"></polygon>
                                <polygon id="Fill-6" fill="#FFFFFF" points="14.4609882 0.805981343 8.0005423 8.14288433 20.9214341 8.14288433"></polygon>
                                <polygon id="Fill-7" fill="#FFFFFF" points="0.939589508 23.4582649 27.9824092 23.4582649 14.4609993 8.10251866"></polygon>
                                <polygon id="Fill-8" fill="#FFFFFF" points="13.3632787 26.2568284 15.5586754 26.2568284 15.5586754 18.3090672 13.3632787 18.3090672"></polygon>
                            </g>
                            <g id="Group-4" stroke-width="1" fill="none" transform="translate(47.250581, 2.199321)">
                                <polygon id="Fill-9" fill="#FFFFFF" points="-2.58992827e-12 17.1547575 18.6926426 17.1547575 9.34632131 6.54046642"></polygon>
                                <polygon id="Fill-10" fill="#FFFFFF" points="9.34632131 2.80598134 2.88587541 10.1428843 15.8067672 10.1428843"></polygon>
                                <polygon id="Fill-11" fill="#FFFFFF" points="9.34632131 0.943384328 5.95 4.80062313 12.7426426 4.80062313"></polygon>
                                <polygon id="Fill-12" fill="#FFFFFF" points="8.24851148 28.9284701 10.4440197 28.9284701 10.4440197 16.3910448 8.24851148 16.3910448"></polygon>
                            </g>
                        </g>
                    </g>
                </g>
            </g>
        </g>
    </g>
</svg>