<?xml version="1.0" encoding="utf-8"?>
<!-- Generator: Adobe Illustrator 16.0.2, SVG Export Plug-In . SVG Version: 6.00 Build 0)  -->
<!DOCTYPE svg PUBLIC "-//W3C//DTD SVG 1.1//EN" "http://www.w3.org/Graphics/SVG/1.1/DTD/svg11.dtd">
<svg version="1.1" id="Слой_3" xmlns="http://www.w3.org/2000/svg" xmlns:xlink="http://www.w3.org/1999/xlink" x="0px" y="0px"
	 width="110px" height="110px" viewBox="0 0 110 110" enable-background="new 0 0 110 110" xml:space="preserve">
<g id="Слой_1">
	<path fill-rule="evenodd" clip-rule="evenodd" fill="#F5BD75" d="M45,9c24.853,0,45,20.146,45,45C90,78.852,69.853,99,45,99
		C20.147,99,0,78.852,0,53.999C0,29.146,20.147,9,45,9z"/>
	<g>
		<g>
			<g>
				<path d="M96.961,18.65H18.095c-0.85,0-1.538,0.696-1.538,1.556s0.688,1.556,1.538,1.556h78.866c0.849,0,1.537-0.696,1.537-1.556
					S97.81,18.65,96.961,18.65z"/>
			</g>
		</g>
		<g>
			<g>
				<path d="M96.961,78.505H18.095c-0.85,0-1.538,0.696-1.538,1.556c0,0.86,0.688,1.556,1.538,1.556h78.866
					c0.849,0,1.537-0.695,1.537-1.556C98.498,79.201,97.81,78.505,96.961,78.505z"/>
			</g>
		</g>
		<g>
			<g>
				<path d="M106.819,85.155h-1.749V18.544c0-3.608-2.9-6.544-6.467-6.544H16.452c-3.566,0-6.466,2.936-6.466,6.544v66.611h-1.75
					c-1.753,0-3.18,1.444-3.18,3.219v3.325c0,2.691,2.164,4.881,4.823,4.881h95.298c2.66,0,4.823-2.189,4.823-4.881v-3.325
					C110,86.6,108.572,85.155,106.819,85.155z M13.06,18.544c0-1.893,1.521-3.433,3.392-3.433h82.153c1.87,0,3.393,1.54,3.393,3.433
					v66.611H13.06V18.544z M106.926,91.699L106.926,91.699c0,0.976-0.785,1.77-1.749,1.77H9.879c-0.964,0-1.749-0.794-1.749-1.77
					v-3.325c0-0.06,0.047-0.107,0.105-0.107h42.831c-0.002,0.036-0.005,0.071-0.005,0.107c0,0.86,0.688,1.556,1.537,1.556h9.858
					c0.849,0,1.537-0.695,1.537-1.556c0-0.036-0.002-0.071-0.004-0.107h42.829c0.06,0,0.106,0.048,0.106,0.107V91.699z"/>
			</g>
		</g>
		<g>
			<g>
				<path d="M72.925,41.658l-4.165-1.053v-6.34c0-1.06-0.516-2.052-1.379-2.652c-0.864-0.6-1.964-0.731-2.941-0.351l-18.861,7.34
					h-7.93c-2.659,0-4.823,2.19-4.823,4.881v6.65c0,2.06,1.268,3.824,3.056,4.54l4.864,14.767c0.433,1.316,1.646,2.2,3.017,2.2
					h4.751c1.02,0,1.984-0.499,2.581-1.336c0.596-0.836,0.759-1.92,0.438-2.898L47.724,55.85l16.715,6.505
					c0.368,0.145,0.756,0.215,1.141,0.215c0.635,0,1.263-0.192,1.801-0.565c0.864-0.601,1.379-1.593,1.379-2.653v-6.34l4.164-1.053
					c1.419-0.358,2.408-1.643,2.408-3.122v-4.054C75.332,43.301,74.343,42.018,72.925,41.658z M35.899,50.134v-6.651
					c0-0.976,0.785-1.77,1.749-1.77h6.678v10.19h-6.678C36.684,51.903,35.899,51.11,35.899,50.134z M48.613,68.389
					c0.006,0.017,0.017,0.052-0.014,0.097c-0.032,0.043-0.068,0.043-0.086,0.043h-4.751c-0.045,0-0.086-0.028-0.1-0.072
					l-4.428-13.442h4.975L48.613,68.389z M65.686,59.351c0,0.019,0,0.057-0.046,0.088c-0.045,0.032-0.081,0.019-0.098,0.013
					L47.4,52.39V41.226l18.142-7.061c0.017-0.007,0.053-0.021,0.098,0.011c0.046,0.032,0.046,0.07,0.046,0.089V59.351z
					 M72.258,48.835c0,0.05-0.032,0.092-0.08,0.104l-3.418,0.864v-5.991l3.418,0.865c0.047,0.012,0.08,0.055,0.08,0.104V48.835z"/>
			</g>
		</g>
		<g>
			<g>
				<path d="M88.583,45.252h-8.215c-0.849,0-1.537,0.696-1.537,1.556s0.688,1.556,1.537,1.556h8.215c0.85,0,1.537-0.696,1.537-1.556
					S89.433,45.252,88.583,45.252z"/>
			</g>
		</g>
		<g>
			<g>
				<path d="M83.386,37.799c-0.38-0.768-1.303-1.079-2.063-0.695l-3.285,1.663c-0.761,0.384-1.068,1.319-0.688,2.087
					c0.268,0.545,0.813,0.86,1.375,0.86c0.23,0,0.466-0.053,0.688-0.165l3.285-1.663C83.458,39.502,83.766,38.568,83.386,37.799z"/>
			</g>
		</g>
		<g>
			<g>
				<path d="M82.698,53.73l-3.286-1.663c-0.76-0.385-1.683-0.073-2.062,0.696c-0.381,0.768-0.073,1.703,0.688,2.087l3.285,1.662
					c0.221,0.112,0.455,0.165,0.687,0.165c0.563,0,1.106-0.314,1.376-0.86C83.766,55.049,83.458,54.114,82.698,53.73z"/>
			</g>
		</g>
		<g>
		</g>
		<g>
		</g>
		<g>
		</g>
		<g>
		</g>
		<g>
		</g>
		<g>
		</g>
		<g>
		</g>
		<g>
		</g>
		<g>
		</g>
		<g>
		</g>
		<g>
		</g>
		<g>
		</g>
		<g>
		</g>
		<g>
		</g>
		<g>
		</g>
	</g>
</g>
<g id="Слой_4">
</g>
</svg>
