<?xml version="1.0" encoding="utf-8"?>
<!-- Generator: Adobe Illustrator 16.0.2, SVG Export Plug-In . SVG Version: 6.00 Build 0)  -->
<!DOCTYPE svg PUBLIC "-//W3C//DTD SVG 1.1//EN" "http://www.w3.org/Graphics/SVG/1.1/DTD/svg11.dtd">
<svg version="1.1" id="Слой_3" xmlns="http://www.w3.org/2000/svg" xmlns:xlink="http://www.w3.org/1999/xlink" x="0px" y="0px"
	 width="110px" height="110px" viewBox="0 0 110 110" enable-background="new 0 0 110 110" xml:space="preserve">
<g id="Слой_1">
	<path fill-rule="evenodd" clip-rule="evenodd" fill="#F5BD75" d="M65,9c24.853,0,45,20.146,45,45C110,78.852,89.853,99,65,99
		c-24.853,0-45-20.148-45-45.001C20,29.146,40.147,9,65,9z"/>
	<g>
		<g>
			<g>
				<path d="M106.17,49.34l-3.059-0.765v-0.465c0-12.851-5.004-24.933-14.092-34.02C79.933,5.004,67.852,0,55,0
					C42.149,0,30.067,5.004,20.98,14.091C11.893,23.178,6.889,35.26,6.889,48.111v0.465L3.83,49.34C1.575,49.904,0,51.921,0,54.245
					v11.843c0,2.324,1.575,4.342,3.83,4.905l3.23,0.808c0.575,2.159,2.547,3.755,4.885,3.755h1.722c2.788,0,5.056-2.269,5.056-5.056
					V49.834c0-2.788-2.268-5.056-5.056-5.056h-1.722c-0.607,0-1.189,0.107-1.729,0.305C11.779,21.738,31.267,3.223,55,3.223
					s43.221,18.516,44.784,41.86c-0.54-0.197-1.122-0.305-1.729-0.305h-1.722c-2.788,0-5.056,2.268-5.056,5.056V70.5
					c0,2.787,2.268,5.056,5.056,5.056h1.722c0.507,0,0.995-0.075,1.457-0.215c-2.332,14.863-15.227,26.27-30.734,26.27h-2.376
					c-0.938-2.03-2.993-3.444-5.374-3.444h-5.166c-3.263,0-5.917,2.654-5.917,5.917S52.599,110,55.861,110h5.166
					c3.009,0,5.498-2.258,5.868-5.166h1.882c18.508,0,33.641-14.722,34.309-33.069l3.084-0.771c2.256-0.563,3.83-2.581,3.83-4.905
					V54.245C110,51.921,108.426,49.904,106.17,49.34z M11.945,48h1.722c1.011,0,1.833,0.823,1.833,1.833V70.5
					c0,1.011-0.822,1.833-1.833,1.833h-1.722c-1.011,0-1.833-0.822-1.833-1.833V60.166c0-0.889-0.721-1.611-1.611-1.611
					s-1.611,0.723-1.611,1.611v8.27l-2.278-0.568c-0.818-0.205-1.389-0.936-1.389-1.779V54.245c0-0.843,0.571-1.574,1.389-1.778
					l2.278-0.569v1.38c0,0.89,0.721,1.611,1.611,1.611s1.611-0.721,1.611-1.611v-3.444C10.111,48.823,10.934,48,11.945,48z
					 M61.027,106.777h-5.166c-1.486,0-2.694-1.209-2.694-2.694s1.208-2.694,2.694-2.694h5.166c1.486,0,2.695,1.209,2.695,2.694
					S62.514,106.777,61.027,106.777z M106.777,66.088c0,0.843-0.57,1.574-1.389,1.779l-2.277,0.568v-8.27
					c0-0.889-0.722-1.611-1.611-1.611c-0.891,0-1.611,0.723-1.611,1.611V70.5c0,1.011-0.822,1.833-1.834,1.833h-1.722
					c-1.011,0-1.833-0.822-1.833-1.833V49.833c0-1.011,0.822-1.833,1.833-1.833h1.722c1.012,0,1.834,0.823,1.834,1.833v3.444
					c0,0.89,0.721,1.611,1.611,1.611c0.89,0,1.611-0.721,1.611-1.611v-1.38l2.277,0.569c0.818,0.204,1.389,0.936,1.389,1.778V66.088
					z"/>
			</g>
		</g>
		<g>
		</g>
		<g>
		</g>
		<g>
		</g>
		<g>
		</g>
		<g>
		</g>
		<g>
		</g>
		<g>
		</g>
		<g>
		</g>
		<g>
		</g>
		<g>
		</g>
		<g>
		</g>
		<g>
		</g>
		<g>
		</g>
		<g>
		</g>
		<g>
		</g>
	</g>
</g>
<g id="Слой_4">
</g>
</svg>
