<?xml version="1.0" encoding="utf-8"?>
<!-- Generator: Adobe Illustrator 16.0.2, SVG Export Plug-In . SVG Version: 6.00 Build 0)  -->
<!DOCTYPE svg PUBLIC "-//W3C//DTD SVG 1.1//EN" "http://www.w3.org/Graphics/SVG/1.1/DTD/svg11.dtd">
<svg version="1.1" id="Слой_3" xmlns="http://www.w3.org/2000/svg" xmlns:xlink="http://www.w3.org/1999/xlink" x="0px" y="0px"
	 width="110px" height="110px" viewBox="0 0 110 110" enable-background="new 0 0 110 110" xml:space="preserve">
<g id="Слой_1">
	<path fill-rule="evenodd" clip-rule="evenodd" fill="#F5BD75" d="M45,9c24.853,0,45,20.146,45,45C90,78.852,69.853,99,45,99
		C20.147,99,0,78.852,0,53.999C0,29.146,20.147,9,45,9z"/>
	<g>
		<g>
			<g>
				<path d="M24,80.723c-1.838,0-3.333,1.495-3.333,3.334c0,1.838,1.495,3.332,3.333,3.332s3.333-1.494,3.333-3.332
					C27.333,82.218,25.838,80.723,24,80.723z"/>
			</g>
		</g>
		<g>
			<g>
				<path d="M92.889,80.723c-1.838,0-3.334,1.495-3.334,3.334c0,1.838,1.496,3.332,3.334,3.332s3.334-1.494,3.334-3.332
					C96.223,82.218,94.727,80.723,92.889,80.723z"/>
			</g>
		</g>
		<g>
			<g>
				<path d="M105.365,55.516l-11.246-3.749L87.056,33.4c-0.999-2.599-3.542-4.345-6.326-4.345H51.61l-0.035-0.4
					c-0.151-1.736-1.579-3.044-3.321-3.044h-5.421v-1.833c0-3.737-3.041-6.778-6.778-6.778s-6.778,3.041-6.778,6.778v1.833h-5.421
					c-1.742,0-3.17,1.309-3.321,3.045l-0.035,0.399H3.333C1.495,29.056,0,30.551,0,32.389v46.5c0,1.838,1.495,3.334,3.333,3.334
					h10.612c-0.108,0.596-0.167,1.207-0.167,1.833c0,5.636,4.586,10.222,10.222,10.222c5.637,0,10.223-4.586,10.223-10.222
					c0-0.626-0.06-1.238-0.168-1.833h48.779c-0.107,0.596-0.168,1.207-0.168,1.833c0,5.636,4.586,10.222,10.223,10.222
					s10.223-4.586,10.223-10.222c0-0.796-0.094-1.57-0.268-2.315l3.41-1.704c2.311-1.155,3.746-3.479,3.746-6.063V61.947
					C110,59.024,108.138,56.44,105.365,55.516z M85.82,39.167l4.723,12.277h-5.104l-4.093-12.277H85.82z M82.042,51.444H68.777
					c-1.01,0-1.832-0.822-1.832-1.833V39.167h11.004l0,0L82.042,51.444z M32.5,23.778L32.5,23.778c0-1.96,1.595-3.555,3.556-3.555
					s3.555,1.595,3.555,3.555v1.833H32.5V23.778z M20.602,65.102l3.145-36.166c0.005-0.058,0.052-0.102,0.11-0.102h5.421v3.556
					c0,0.89,0.721,1.611,1.611,1.611c0.89,0,1.611-0.721,1.611-1.611v-3.556h7.11v3.556c0,0.89,0.722,1.611,1.611,1.611
					c0.89,0,1.611-0.721,1.611-1.611v-3.556h5.421c0.058,0,0.105,0.044,0.11,0.102l3.145,36.167
					c0.001,0.014,0.004,0.049-0.029,0.085s-0.068,0.036-0.082,0.036H20.712c-0.013,0-0.049,0-0.082-0.036
					C20.597,65.15,20.6,65.115,20.602,65.102z M24,91.055c-3.86,0-7-3.139-7-6.999s3.14-7,7-7s7,3.14,7,7S27.86,91.055,24,91.055z
					 M92.889,91.055c-3.859,0-7-3.139-7-6.999s3.141-7,7-7s7,3.14,7,7S96.748,91.055,92.889,91.055z M106.777,65.222h-1.833
					c-0.89,0-1.611,0.722-1.611,1.611s0.722,1.611,1.611,1.611h1.833v5.528c0,1.355-0.753,2.574-1.965,3.182l-3.189,1.594
					c-1.797-2.944-5.039-4.915-8.734-4.915c-3.798,0-7.117,2.084-8.879,5.167h-51.13c-1.763-3.083-5.081-5.167-8.879-5.167
					c-3.798,0-7.117,2.084-8.879,5.167H3.333c-0.061,0-0.111-0.05-0.111-0.111V68.445h8.722c0.89,0,1.611-0.722,1.611-1.611
					c0-0.891-0.722-1.611-1.611-1.611H3.223V32.389c0-0.061,0.05-0.111,0.111-0.111h16.887l-2.83,32.544
					c-0.081,0.928,0.234,1.854,0.863,2.541c0.63,0.688,1.525,1.081,2.458,1.081h30.688c0.932,0,1.827-0.394,2.457-1.081
					c0.63-0.687,0.945-1.613,0.864-2.541l-2.83-32.544h28.839c1.46,0,2.794,0.916,3.318,2.279l0.534,1.387H65.334
					c-0.891,0-1.611,0.721-1.611,1.611v12.055c0,2.788,2.268,5.056,5.055,5.056h23.85l11.72,3.907
					c1.454,0.484,2.431,1.84,2.431,3.372V65.222L106.777,65.222z"/>
			</g>
		</g>
		<g>
			<g>
				<path d="M98.055,65.223H60.166c-0.889,0-1.611,0.721-1.611,1.611c0,0.89,0.723,1.611,1.611,1.611h37.889
					c0.891,0,1.611-0.722,1.611-1.611C99.666,65.943,98.945,65.223,98.055,65.223z"/>
			</g>
		</g>
		<g>
		</g>
		<g>
		</g>
		<g>
		</g>
		<g>
		</g>
		<g>
		</g>
		<g>
		</g>
		<g>
		</g>
		<g>
		</g>
		<g>
		</g>
		<g>
		</g>
		<g>
		</g>
		<g>
		</g>
		<g>
		</g>
		<g>
		</g>
		<g>
		</g>
	</g>
</g>
<g id="Слой_4">
</g>
</svg>
