<?xml version="1.0" encoding="utf-8"?>
<!-- Generator: Adobe Illustrator 16.0.2, SVG Export Plug-In . SVG Version: 6.00 Build 0)  -->
<!DOCTYPE svg PUBLIC "-//W3C//DTD SVG 1.1//EN" "http://www.w3.org/Graphics/SVG/1.1/DTD/svg11.dtd">
<svg version="1.1" id="Слой_3" xmlns="http://www.w3.org/2000/svg" xmlns:xlink="http://www.w3.org/1999/xlink" x="0px" y="0px"
	 width="110px" height="110px" viewBox="0 0 110 110" enable-background="new 0 0 110 110" xml:space="preserve">
<g id="Слой_1">
	<path fill-rule="evenodd" clip-rule="evenodd" fill="#F5BD75" d="M56,17c24.853,0,45,20.146,45,45C101,86.852,80.853,107,56,107
		c-24.853,0-45-20.148-45-45.001C11,37.146,31.147,17,56,17z"/>
	<g>
		<g>
			<g>
				<path d="M92.276,104.746l-3.174-80.944c-0.106-2.724-2.326-4.858-5.052-4.858H71.752v-1.833C71.752,7.676,64.075,0,54.64,0
					S37.529,7.676,37.529,17.111v8.987c-2,0.674-3.444,2.566-3.444,4.791c0,2.788,2.268,5.056,5.056,5.056s5.056-2.268,5.056-5.056
					c0-2.225-1.444-4.117-3.444-4.791v-3.931H63.25c0.891,0,1.611-0.721,1.611-1.611s-0.721-1.611-1.611-1.611H40.751v-1.833
					c0-7.658,6.23-13.889,13.889-13.889c7.659,0,13.889,6.23,13.889,13.889v8.987c-2,0.674-3.444,2.566-3.444,4.791
					c0,2.788,2.268,5.056,5.056,5.056c2.787,0,5.056-2.268,5.056-5.056c0-2.225-1.444-4.117-3.444-4.791v-3.931h12.299
					c0.988,0,1.793,0.774,1.831,1.761l3.175,80.945c0.02,0.502-0.162,0.979-0.511,1.342s-0.818,0.563-1.321,0.563H22.056
					c-0.503,0-0.972-0.199-1.321-0.563c-0.349-0.362-0.53-0.84-0.51-1.342l3.174-80.944c0.039-0.988,0.843-1.761,1.832-1.761h7.021
					c0.89,0,1.611-0.722,1.611-1.611c0-0.89-0.721-1.611-1.611-1.611H25.23c-2.726,0-4.945,2.134-5.052,4.857l-3.174,80.944
					c-0.055,1.387,0.445,2.701,1.408,3.702c0.962,1.001,2.256,1.552,3.644,1.552h65.169c1.388,0,2.683-0.551,3.645-1.552
					C91.831,107.448,92.331,106.133,92.276,104.746z M40.973,30.889c0,1.011-0.822,1.833-1.833,1.833s-1.833-0.822-1.833-1.833
					s0.822-1.833,1.833-1.833S40.973,29.878,40.973,30.889z M71.974,30.889c0,1.011-0.822,1.833-1.833,1.833
					s-1.833-0.822-1.833-1.833s0.822-1.833,1.833-1.833S71.974,29.878,71.974,30.889z"/>
			</g>
		</g>
		<g>
			<g>
				<path d="M74.989,61.284c-0.526-1.62-1.965-2.741-3.665-2.857l-9.344-0.634l-3.49-8.69c-0.635-1.581-2.146-2.603-3.85-2.603
					s-3.215,1.022-3.85,2.603l-3.49,8.69l-9.344,0.634c-1.7,0.116-3.138,1.237-3.665,2.857c-0.526,1.62-0.021,3.373,1.286,4.466
					l7.188,6.004l-2.285,9.083c-0.416,1.652,0.207,3.367,1.585,4.368c1.378,1.002,3.201,1.063,4.644,0.158l7.932-4.98l7.932,4.98
					c0.681,0.427,1.445,0.639,2.207,0.639c0.855,0,1.709-0.267,2.438-0.797c1.378-1.001,2-2.716,1.585-4.367l-2.285-9.083
					l7.187-6.005C75.011,64.657,75.516,62.904,74.989,61.284z M71.638,63.277l-7.964,6.652c-0.475,0.396-0.681,1.03-0.529,1.63
					l2.531,10.063c0.139,0.549-0.201,0.864-0.354,0.976c-0.152,0.11-0.559,0.335-1.036,0.035l-8.79-5.519
					c-0.262-0.164-0.559-0.246-0.856-0.246s-0.595,0.082-0.857,0.246l-8.789,5.519c-0.479,0.3-0.884,0.075-1.037-0.035
					s-0.492-0.427-0.354-0.976l2.531-10.063c0.151-0.6-0.055-1.233-0.529-1.63l-7.963-6.652c-0.434-0.363-0.345-0.818-0.287-0.998
					c0.058-0.179,0.254-0.6,0.818-0.637l10.354-0.703c0.617-0.041,1.156-0.433,1.386-1.007l3.867-9.63
					c0.21-0.524,0.671-0.581,0.859-0.581s0.649,0.057,0.859,0.581l3.867,9.63c0.23,0.574,0.77,0.966,1.387,1.007l10.354,0.703
					c0.563,0.037,0.76,0.458,0.817,0.637C71.982,62.459,72.071,62.914,71.638,63.277z"/>
			</g>
		</g>
		<g>
		</g>
		<g>
		</g>
		<g>
		</g>
		<g>
		</g>
		<g>
		</g>
		<g>
		</g>
		<g>
		</g>
		<g>
		</g>
		<g>
		</g>
		<g>
		</g>
		<g>
		</g>
		<g>
		</g>
		<g>
		</g>
		<g>
		</g>
		<g>
		</g>
	</g>
</g>
<g id="Слой_4">
</g>
</svg>
