<?xml version="1.0" encoding="utf-8"?>
<!-- Generator: Adobe Illustrator 16.0.2, SVG Export Plug-In . SVG Version: 6.00 Build 0)  -->
<!DOCTYPE svg PUBLIC "-//W3C//DTD SVG 1.1//EN" "http://www.w3.org/Graphics/SVG/1.1/DTD/svg11.dtd">
<svg version="1.1" id="Слой_3" xmlns="http://www.w3.org/2000/svg" xmlns:xlink="http://www.w3.org/1999/xlink" x="0px" y="0px"
	 width="110px" height="110px" viewBox="0 0 110 110" enable-background="new 0 0 110 110" xml:space="preserve">
<g id="Слой_1">
	<path fill-rule="evenodd" clip-rule="evenodd" fill="#F5BD75" d="M56,9c24.853,0,45,20.146,45,45C101,78.852,80.853,99,56,99
		c-24.853,0-45-20.148-45-45.001C11,29.146,31.147,9,56,9z"/>
</g>
<g id="Слой_4">
	<g>
		<g>
			<g>
				<path d="M110,19.611c0-0.012-0.002-0.024-0.002-0.037c-0.001-0.048-0.004-0.095-0.01-0.142
					c-0.002-0.017-0.006-0.034-0.008-0.051c-0.007-0.043-0.015-0.086-0.024-0.127c-0.004-0.017-0.008-0.033-0.013-0.049
					c-0.013-0.045-0.026-0.09-0.043-0.134c-0.003-0.008-0.005-0.017-0.008-0.025l-4.371-11.189C105.08,6.729,104.014,6,102.803,6
					h-7.959c-0.867,0-1.57,0.703-1.57,1.571s0.703,1.571,1.57,1.571h7.807l3.479,8.905H73.242l-2.061-8.905h12.146
					c0.868,0,1.571-0.703,1.571-1.571S84.195,6,83.327,6H69.206H53.379H19.782c-1.21,0-2.278,0.729-2.718,1.856l-4.371,11.189
					c-0.003,0.008-0.005,0.017-0.008,0.025c-0.017,0.043-0.031,0.088-0.043,0.134c-0.005,0.017-0.009,0.033-0.013,0.049
					c-0.01,0.042-0.018,0.084-0.024,0.127c-0.002,0.017-0.006,0.034-0.008,0.051c-0.005,0.047-0.009,0.094-0.01,0.142
					c0,0.012-0.002,0.024-0.002,0.037c0,0.002,0,0.004,0,0.006v23.076c0,0.868,0.704,1.571,1.571,1.571
					c0.868,0,1.571-0.703,1.571-1.571V21.188h33.295v23.875c0,0.934,0.55,1.785,1.401,2.167c0.312,0.141,0.644,0.209,0.973,0.209
					c0.571,0,1.135-0.205,1.578-0.597l8.319-7.37l8.319,7.37c0.698,0.62,1.7,0.772,2.552,0.389c0.851-0.383,1.401-1.234,1.401-2.167
					V21.188h33.294v70.453c0,1.127-0.917,2.043-2.044,2.043H76.014c0-0.018-0.002-0.035-0.002-0.053
					c-0.002-0.141-0.007-0.281-0.019-0.422c2.704,0.717,5.593-0.672,6.677-3.33c0.57-1.398,0.562-2.934-0.023-4.325
					c-0.056-0.132-0.116-0.259-0.181-0.384c-0.012-0.023-0.022-0.046-0.035-0.068c-0.063-0.12-0.13-0.236-0.2-0.35
					c-0.014-0.023-0.028-0.045-0.042-0.066c-0.074-0.117-0.152-0.23-0.235-0.342c-0.001-0.002-0.003-0.004-0.004-0.006
					c-0.082-0.108-0.169-0.213-0.259-0.316c-0.017-0.018-0.032-0.037-0.049-0.056c-0.089-0.099-0.181-0.194-0.276-0.286
					c-0.019-0.019-0.038-0.036-0.057-0.054c-0.1-0.094-0.202-0.185-0.309-0.271c-0.004-0.004-0.008-0.006-0.011-0.01
					c-0.105-0.084-0.214-0.164-0.325-0.24c-0.02-0.014-0.04-0.028-0.061-0.042c-0.11-0.075-0.225-0.146-0.342-0.213
					c-0.01-0.006-0.019-0.013-0.028-0.018c0.664-0.575,1.188-1.302,1.529-2.138c0.57-1.398,0.562-2.935-0.023-4.326
					c-0.513-1.217-1.413-2.197-2.566-2.805c-0.165-0.086-0.335-0.166-0.509-0.236l-24.447-9.969l11.38-3.521
					c2.707-0.839,4.232-3.727,3.398-6.437c-0.311-1.012-0.927-1.865-1.723-2.489c-1.186-0.928-2.769-1.348-4.34-1.018
					c-0.007,0.001-0.015,0.003-0.021,0.005c-0.088,0.02-8.811,1.981-17.922,3.758c-0.404,0.079-0.798,0.155-1.187,0.229
					c-0.311,0.06-0.617,0.119-0.917,0.176c-0.086,0.017-0.173,0.033-0.259,0.049c-0.53,0.101-1.044,0.197-1.544,0.29
					c-0.201,0.038-0.4,0.075-0.597,0.111c-11.442,2.108-14.656,2.146-15.548,2.025c-0.003,0-0.007-0.001-0.01-0.002
					c-0.013-0.002-0.027-0.004-0.039-0.006c-0.009-0.001-0.018-0.002-0.026-0.004c-0.006-0.001-0.012-0.002-0.018-0.003
					c-0.056-0.011-0.099-0.021-0.133-0.03l-0.257-0.105l0.321-0.787c0.315-0.773,0.311-1.623-0.013-2.393
					c-0.081-0.192-0.18-0.374-0.294-0.543c-0.343-0.508-0.828-0.903-1.408-1.14l-8.437-3.44C13.85,47.769,13,47.773,12.23,48.097
					c-0.77,0.324-1.368,0.928-1.683,1.702L0.231,75.1c-0.651,1.596,0.118,3.424,1.715,4.076l8.437,3.439
					c0.385,0.157,0.784,0.231,1.176,0.231c1.234,0,2.406-0.735,2.9-1.946l0.077-0.189l1.945,0.793c0.001,0,0.002,0,0.003,0.001
					c1.861,0.759,3.575,1.841,5.059,3.185c0.27,0.244,0.532,0.496,0.786,0.758c0.254,0.261,0.5,0.53,0.737,0.808
					c0.119,0.138,0.235,0.279,0.349,0.421c2.162,2.696,4.997,4.811,8.196,6.116l2.188,0.892h-16.03
					c-1.127,0-2.044-0.917-2.044-2.044v-3.974c0-0.868-0.704-1.571-1.571-1.571c-0.868,0-1.571,0.703-1.571,1.571v3.974
					c0,2.859,2.326,5.186,5.186,5.186h23.734l20.234,8.251c0.696,0.283,1.417,0.418,2.127,0.418c2.229,0,4.348-1.328,5.24-3.518
					c0.366-0.898,0.483-1.836,0.385-2.738c1.053,0.15,2.144,0.012,3.133-0.415c1.006-0.435,1.839-1.126,2.431-1.998h29.76
					c2.859,0,5.186-2.326,5.186-5.186V19.617C110,19.615,110,19.613,110,19.611z M54.627,9.142h13.33l2.061,8.905H52.567
					L54.627,9.142z M49.343,18.046H16.456l3.479-8.905h31.469L49.343,18.046z M70.423,43.364L70.423,43.364l-7.555-6.692
					c-0.449-0.398-1.012-0.597-1.575-0.597s-1.127,0.199-1.576,0.597l-7.554,6.692V21.188h18.26V43.364z M11.555,79.701l-8.41-3.43
					l10.305-25.273l8.41,3.429L11.555,79.701z M74.308,89.18l-1.803-0.734c0-0.001-0.001-0.002-0.002-0.002s-0.001,0-0.002,0
					L72.5,88.442l-18.774-7.655c-0.803-0.327-1.72,0.059-2.047,0.861c-0.328,0.804,0.058,1.721,0.861,2.049l18.775,7.654
					c0.079,0.032,0.154,0.068,0.228,0.106c0.021,0.011,0.04,0.024,0.061,0.036c0.051,0.029,0.103,0.059,0.151,0.091
					c0.023,0.016,0.045,0.034,0.068,0.05c0.043,0.031,0.087,0.062,0.128,0.096c0.024,0.02,0.047,0.042,0.07,0.063
					c0.037,0.033,0.074,0.064,0.108,0.099c0.024,0.024,0.045,0.05,0.068,0.074c0.031,0.034,0.063,0.067,0.094,0.103
					c0.022,0.027,0.042,0.057,0.063,0.085c0.027,0.035,0.055,0.069,0.079,0.106c0.021,0.03,0.039,0.063,0.059,0.094
					c0.022,0.036,0.046,0.071,0.066,0.109c0.019,0.033,0.034,0.068,0.051,0.102c0.018,0.037,0.037,0.073,0.054,0.111
					c0.016,0.035,0.028,0.073,0.043,0.109c0.014,0.037,0.029,0.074,0.042,0.111c0.012,0.039,0.021,0.078,0.032,0.115
					c0.011,0.039,0.022,0.076,0.031,0.115c0.009,0.038,0.014,0.078,0.021,0.117c0.007,0.039,0.015,0.078,0.021,0.117
					c0.005,0.039,0.007,0.079,0.01,0.119c0.004,0.04,0.008,0.08,0.01,0.119c0.001,0.039-0.001,0.08-0.001,0.119
					c-0.001,0.041,0,0.082-0.003,0.123c-0.002,0.039-0.008,0.077-0.013,0.116c-0.004,0.042-0.008,0.083-0.015,0.126
					c-0.006,0.037-0.016,0.076-0.023,0.113c-0.009,0.043-0.017,0.086-0.028,0.127c-0.01,0.037-0.023,0.074-0.035,0.111
					c-0.013,0.043-0.025,0.084-0.041,0.126c-0.014,0.028-0.026,0.058-0.038,0.087c-0.003,0.006-0.005,0.013-0.008,0.02
					c-0.245,0.566-0.698,1.017-1.289,1.271c-0.651,0.281-1.396,0.291-2.045,0.026l-3.327-1.356c-0.015-0.006-0.031-0.01-0.046-0.016
					c-0.016-0.008-0.031-0.016-0.047-0.022l-15.271-6.226c-0.804-0.328-1.72,0.058-2.047,0.861c-0.328,0.803,0.058,1.72,0.861,2.047
					l15.27,6.227c0.017,0.007,0.033,0.012,0.05,0.018c0.015,0.006,0.028,0.015,0.044,0.021c1.281,0.522,1.899,1.991,1.377,3.272
					c-0.523,1.281-1.99,1.899-3.272,1.377l-20.517-8.366c-0.001-0.001-0.001-0.001-0.002-0.001l-9.608-3.918
					c-1.691-0.689-3.262-1.646-4.648-2.824c-0.832-0.707-1.598-1.492-2.283-2.348c-0.676-0.842-1.417-1.628-2.214-2.35
					c-1.755-1.589-3.782-2.869-5.981-3.766c0,0,0,0-0.001,0l-1.948-0.795l3.879-9.514l3.667-8.991l0.271,0.11
					c0.254,0.104,0.618,0.251,1.595,0.288c1.221,0.056,3.24-0.072,6.858-0.583c2.461-0.348,5.48-0.851,9.004-1.499
					c0.087-0.017,0.173-0.032,0.261-0.048c0.165-0.031,0.331-0.062,0.499-0.093c0.13-0.024,0.26-0.048,0.392-0.073
					c0.15-0.027,0.301-0.057,0.452-0.084c0.161-0.031,0.324-0.062,0.488-0.093c0.131-0.024,0.262-0.05,0.394-0.075
					c0.2-0.037,0.403-0.076,0.606-0.115c0.105-0.021,0.208-0.041,0.314-0.061c0.312-0.061,0.628-0.121,0.95-0.184
					c9.08-1.766,17.843-3.732,18.237-3.82c0.039-0.008,0.079-0.013,0.118-0.019c1.009-0.149,1.997,0.434,2.287,1.375
					c0.102,0.331,0.113,0.668,0.049,0.986c-0.141,0.699-0.648,1.302-1.374,1.526l-15.573,4.82c-0.634,0.196-1.076,0.77-1.105,1.432
					c-0.029,0.663,0.362,1.273,0.977,1.523l28.511,11.625c0.621,0.254,1.105,0.732,1.366,1.352c0.26,0.617,0.264,1.3,0.01,1.921
					c-0.253,0.62-0.732,1.106-1.351,1.366c-0.309,0.129-0.634,0.195-0.959,0.197c-0.005,0-0.01-0.001-0.015-0.001
					c-0.076,0-0.152-0.003-0.229-0.01c-0.022-0.003-0.045-0.007-0.067-0.01c-0.058-0.007-0.116-0.014-0.174-0.024
					C76.023,81.02,75.987,81.01,75.95,81c-0.043-0.01-0.087-0.019-0.13-0.031c-0.044-0.014-0.088-0.031-0.132-0.047
					c-0.034-0.012-0.07-0.021-0.104-0.036l-18.776-7.656c-0.804-0.327-1.72,0.058-2.048,0.862c-0.328,0.803,0.058,1.719,0.861,2.047
					l22.765,9.282c0.155,0.063,0.302,0.141,0.438,0.231c0.411,0.27,0.732,0.656,0.927,1.119c0.228,0.541,0.26,1.131,0.094,1.686
					c-0.023,0.08-0.051,0.158-0.083,0.236c-0.032,0.08-0.068,0.157-0.108,0.232c-0.093,0.174-0.205,0.33-0.331,0.475
					c-0.078,0.088-0.162,0.172-0.251,0.248c-0.015,0.012-0.027,0.025-0.042,0.037c-0.573,0.469-1.339,0.67-2.088,0.519
					c-0.151-0.03-0.303-0.074-0.451-0.135L74.308,89.18z"/>
			</g>
		</g>
		<g>
		</g>
		<g>
		</g>
		<g>
		</g>
		<g>
		</g>
		<g>
		</g>
		<g>
		</g>
		<g>
		</g>
		<g>
		</g>
		<g>
		</g>
		<g>
		</g>
		<g>
		</g>
		<g>
		</g>
		<g>
		</g>
		<g>
		</g>
		<g>
		</g>
	</g>
</g>
</svg>
