<?xml version="1.0" encoding="utf-8"?>
<!-- Generator: Adobe Illustrator 16.0.2, SVG Export Plug-In . SVG Version: 6.00 Build 0)  -->
<!DOCTYPE svg PUBLIC "-//W3C//DTD SVG 1.1//EN" "http://www.w3.org/Graphics/SVG/1.1/DTD/svg11.dtd">
<svg version="1.1" id="Слой_1" xmlns="http://www.w3.org/2000/svg" xmlns:xlink="http://www.w3.org/1999/xlink" x="0px" y="0px"
	 width="55px" height="15px" viewBox="0 0 55 15" enable-background="new 0 0 55 15" xml:space="preserve">
<path fill-rule="evenodd" clip-rule="evenodd" fill="#F5BD75" d="M27.5,0C31.643,0,35,3.357,35,7.5c0,4.141-3.357,7.5-7.5,7.5
	c-4.141,0-7.5-3.359-7.5-7.5C20,3.357,23.359,0,27.5,0z"/>
<path fill-rule="evenodd" clip-rule="evenodd" fill="#F5BD75" d="M5.001,2.5C7.762,2.5,10,4.739,10,7.5c0,2.762-2.238,5-4.999,5
	S0,10.262,0,7.5C0,4.739,2.24,2.5,5.001,2.5z"/>
<path fill-rule="evenodd" clip-rule="evenodd" fill="#F5BD75" d="M50,2.5c2.761,0,5,2.239,5,5c0,2.761-2.239,5-5,5
	c-2.762,0-5-2.239-5-5C45,4.739,47.238,2.5,50,2.5z"/>
</svg>
