<svg width="192" height="160" viewBox="0 0 192 160" fill="none" xmlns="http://www.w3.org/2000/svg">
<path d="M89.2881 2.65294C93.6301 0.848759 98.512 0.848761 102.854 2.65294L180.858 35.0648C187.453 37.8055 191.752 44.2463 191.752 51.3889V107.308C191.752 114.451 187.453 120.892 180.858 123.632L102.854 156.044C98.512 157.848 93.6301 157.848 89.2881 156.044L11.2845 123.632C4.68867 120.892 0.390259 114.451 0.390259 107.308V51.3889C0.390259 44.2463 4.68867 37.8055 11.2845 35.0648L89.2881 2.65294Z" fill="#E06CC7"/>
<path d="M122.048 55H79.7706C77.2339 55 75.2046 57.0857 75.2046 59.566V85.8343C75.2046 88.3709 77.2903 90.4002 79.7706 90.4002H108.914L115.509 97.0519C115.791 97.3337 116.129 97.5028 116.524 97.5028C117.313 97.5028 117.989 96.8828 117.989 96.0372V90.4002H122.048C124.585 90.4002 126.614 88.3145 126.614 85.8343V59.566C126.614 57.0293 124.528 55 122.048 55ZM86.2531 77.6043C83.9419 77.6043 82.0254 75.6877 82.0254 73.3766C82.0254 71.0654 83.9419 69.1488 86.2531 69.1488C88.5643 69.1488 90.4808 71.0654 90.4808 73.3766C90.4808 75.6877 88.6206 77.6043 86.2531 77.6043ZM101.078 77.6043C98.7672 77.6043 96.8506 75.6877 96.8506 73.3766C96.8506 71.0654 98.7672 69.1488 101.078 69.1488C103.39 69.1488 105.306 71.0654 105.306 73.3766C105.306 75.6877 103.39 77.6043 101.078 77.6043ZM115.847 77.6043C113.536 77.6043 111.62 75.6877 111.62 73.3766C111.62 71.0654 113.536 69.1488 115.847 69.1488C118.158 69.1488 120.075 71.0654 120.075 73.3766C120.075 75.6877 118.158 77.6043 115.847 77.6043Z" fill="white"/>
<path d="M72.6116 85.9472V76.9844H67.9893C66.3546 76.9844 65.0017 78.3373 65.0017 79.972V97.2211C64.9453 98.9686 66.2982 100.321 67.9893 100.321H70.6387V104.042C70.6387 104.549 71.0896 105 71.597 105C71.8788 105 72.1043 104.887 72.2734 104.718L76.6139 100.378H95.7796C97.4143 100.378 98.7672 99.025 98.7672 97.3902V93.1061H79.7706C75.8247 93.1061 72.6116 89.8931 72.6116 85.9472Z" fill="white"/>
</svg>
