<svg width="192" height="160" viewBox="0 0 192 160" fill="none" xmlns="http://www.w3.org/2000/svg">
<path d="M89.2881 2.65294C93.6301 0.848759 98.512 0.848761 102.854 2.65294L180.858 35.0648C187.453 37.8055 191.752 44.2463 191.752 51.3889V107.308C191.752 114.451 187.453 120.892 180.858 123.632L102.854 156.044C98.512 157.848 93.6301 157.848 89.2881 156.044L11.2845 123.632C4.68867 120.892 0.390259 114.451 0.390259 107.308V51.3889C0.390259 44.2463 4.68867 37.8055 11.2845 35.0648L89.2881 2.65294Z" fill="#E06CC7"/>
<path d="M85.4038 75.1562C86.7838 75.1562 87.9038 74.0362 87.9038 72.6562V62.9062C87.9038 58.5475 91.45 55 95.81 55C100.169 55 103.716 58.5475 103.716 62.9062V72.6562C103.716 74.0362 104.836 75.1562 106.216 75.1562C107.596 75.1562 108.716 74.0362 108.716 72.6562V62.9062C108.716 55.79 102.926 50 95.81 50C88.695 50 82.905 55.79 82.905 62.9062V72.6562C82.9038 74.0362 84.0238 75.1562 85.4038 75.1562Z" fill="white"/>
<path d="M124.488 69.5386H111.216V72.6561C111.216 75.4136 108.974 77.6561 106.216 77.6561C103.46 77.6561 101.216 75.4136 101.216 72.6561V69.5386H90.405V72.6561C90.405 75.4136 88.1625 77.6561 85.405 77.6561C82.6475 77.6561 80.405 75.4136 80.405 72.6561V69.5386H66.9875C66.2975 69.5386 65.8713 70.0823 66.035 70.7523L74.7813 106.375C75.31 108.377 77.4163 110 79.4875 110H111.988C114.06 110 116.165 108.376 116.696 106.375L125.441 70.7523C125.604 70.0811 125.179 69.5386 124.488 69.5386Z" fill="white"/>
</svg>
