<svg width="192" height="160" viewBox="0 0 192 160" fill="none" xmlns="http://www.w3.org/2000/svg">
<path d="M89.2881 2.65294C93.6301 0.848759 98.512 0.848761 102.854 2.65294L180.858 35.0648C187.453 37.8055 191.752 44.2463 191.752 51.3889V107.308C191.752 114.451 187.453 120.892 180.858 123.632L102.854 156.044C98.512 157.848 93.6301 157.848 89.2881 156.044L11.2845 123.632C4.68865 120.892 0.390244 114.451 0.390244 107.308V51.3889C0.390244 44.2463 4.68866 37.8055 11.2845 35.0648L89.2881 2.65294Z" fill="#E06CC7"/>
<path d="M102.426 91.1885H89.8117C79.4461 91.1885 71 99.6345 71 110H121.293C121.238 99.6894 112.792 91.1885 102.426 91.1885Z" fill="white"/>
<path d="M98.3675 82.5781C99.3547 82.5781 100.287 82.9071 101 83.5104H105.552C107.801 81.1521 109.172 78.026 109.172 74.5159C109.172 67.2764 103.303 61.4629 96.1188 61.4629C88.9342 61.4629 83.0658 67.2764 83.0658 74.5159C83.0658 79.3971 85.7532 83.675 89.7569 85.9236C90.1956 84.004 91.8958 82.5781 93.8702 82.5781H98.3675Z" fill="white"/>
<path d="M76.8135 75.6124C76.9781 76.9835 77.6362 78.245 78.5686 79.1773C79.2815 79.8903 80.2139 80.4388 81.2559 80.7678C81.2011 80.5484 81.2011 80.3291 81.2011 80.1645V69.5247C81.2011 69.3053 81.2011 69.0859 81.2559 68.8665C80.2139 69.1408 79.3364 69.6892 78.5686 70.457C78.5137 70.5119 78.404 70.6216 78.3492 70.6764V70.2377C78.3492 69.1956 78.4589 68.1536 78.6234 67.1664C78.7879 66.1243 79.0622 65.1371 79.4461 64.2048C79.7751 63.2176 80.2139 62.2852 80.7623 61.4077C81.2559 60.5302 81.8592 59.6527 82.5174 58.8848C82.5722 58.83 82.6271 58.7203 82.6271 58.6654C83.1207 58.7203 83.6143 58.5558 83.9433 58.2267C87.2888 54.8812 91.6764 53.2358 96.0091 53.2358C100.342 53.2358 104.784 54.8812 108.075 58.2267C108.459 58.6106 108.952 58.7203 109.391 58.6654C109.446 58.7203 109.446 58.83 109.501 58.8848C110.159 59.6527 110.762 60.5302 111.256 61.4077C111.75 62.2852 112.188 63.2176 112.572 64.2048C112.901 65.192 113.175 66.1792 113.395 67.2212C113.559 68.2084 113.669 69.2505 113.669 70.2925V70.7313C113.614 70.6216 113.505 70.5667 113.45 70.5119C112.737 69.7989 111.804 69.2505 110.762 68.9214C110.817 69.1408 110.817 69.3601 110.817 69.5795V80.1645C110.817 80.3839 110.817 80.6033 110.762 80.7678C111.037 80.713 111.311 80.6033 111.585 80.4936V83.9488C111.585 84.3327 111.53 84.7166 111.475 84.9909C111.42 85.2651 111.311 85.4296 111.201 85.5942C111.091 85.7038 110.927 85.8135 110.762 85.8684C110.543 85.9232 110.324 85.9781 110.049 85.9781H109.995H99.9031C99.574 85.4296 99.0256 85.0457 98.3126 85.0457H93.8154C92.8281 85.0457 92.0603 85.8684 92.0603 86.8007C92.1152 87.7879 92.883 88.5558 93.8702 88.5558H98.3675C99.0256 88.5558 99.6289 88.1718 99.9579 87.6234H110.159H110.543C110.927 87.6234 111.256 87.5137 111.585 87.404C112.024 87.2395 112.353 87.0201 112.682 86.691C112.956 86.362 113.175 85.9781 113.34 85.4845C113.45 85.0457 113.559 84.4973 113.559 83.894V79.5064V79.3419C113.614 79.287 113.669 79.2322 113.724 79.1773C114.656 78.245 115.314 76.9835 115.479 75.6124C115.534 75.5576 115.589 75.5576 115.589 75.5027C115.753 75.3382 115.863 75.064 115.863 74.8446V70.2925C115.863 69.1408 115.753 67.989 115.589 66.8921C115.26 65.7404 114.985 64.6435 114.601 63.5466C114.218 62.4497 113.724 61.4077 113.121 60.4205C112.572 59.4333 111.914 58.5009 111.146 57.6234C111.091 57.5137 110.982 57.4589 110.872 57.404C110.982 56.9104 110.817 56.3071 110.433 55.9232C106.484 51.9744 101.329 50 96.1188 50C90.9086 50 85.7532 51.9744 81.7495 55.9232C81.3656 56.3071 81.2011 56.9104 81.3108 57.404C81.2011 57.4589 81.1462 57.5137 81.0366 57.6234C80.2687 58.5009 79.6106 59.4333 79.0622 60.4205C78.5137 61.4077 78.0201 62.4497 77.5813 63.5466C77.1974 64.6435 76.8684 65.7404 76.7038 66.8921C76.4845 67.989 76.4296 69.1408 76.4296 70.2925V74.8446C76.4296 75.1188 76.5393 75.3382 76.7038 75.5027C76.7587 75.5576 76.8135 75.5576 76.8135 75.6124Z" fill="white"/>
</svg>
