<svg width="192" height="160" viewBox="0 0 192 160" fill="none" xmlns="http://www.w3.org/2000/svg">
<path d="M89.2881 2.65294C93.6301 0.848759 98.512 0.848761 102.854 2.65294L180.858 35.0648C187.453 37.8055 191.752 44.2463 191.752 51.3889V107.308C191.752 114.451 187.453 120.892 180.858 123.632L102.854 156.044C98.512 157.848 93.6301 157.848 89.2881 156.044L11.2845 123.632C4.68865 120.892 0.390244 114.451 0.390244 107.308V51.3889C0.390244 44.2463 4.68866 37.8055 11.2845 35.0648L89.2881 2.65294Z" fill="#E06CC7"/>
<path d="M134.075 97.3396H131.604V83.52C131.604 81.903 131.116 80.3166 130.211 78.9744L124.018 69.8019C122.503 67.5647 119.981 66.2223 117.276 66.2223H107.676C106.548 66.2223 105.643 67.1376 105.643 68.2562V97.3398H89.9211C91.416 98.6311 92.443 100.431 92.738 102.465H109.314C109.903 98.428 113.381 95.3059 117.581 95.3059C121.781 95.3059 125.249 98.428 125.839 102.465H134.075C134.635 102.465 135.092 102.007 135.092 101.448V98.3566C135.092 97.7974 134.635 97.3396 134.075 97.3396ZM123.947 80.8048H111.276C110.717 80.8048 110.259 80.3572 110.259 79.7878V72.761C110.259 72.2017 110.717 71.744 111.276 71.744H118.995C119.33 71.744 119.635 71.9067 119.828 72.1712L124.781 79.2082C125.248 79.8794 124.771 80.8048 123.947 80.8048ZM117.581 97.3396C114.083 97.3396 111.256 100.177 111.256 103.675C111.256 107.163 114.083 110 117.581 110C121.069 110 123.906 107.163 123.906 103.675C123.906 100.177 121.069 97.3396 117.581 97.3396ZM117.581 106.838C115.832 106.838 114.418 105.414 114.418 103.675C114.418 101.926 115.832 100.512 117.581 100.512C119.33 100.512 120.744 101.926 120.744 103.675C120.744 105.414 119.33 106.838 117.581 106.838ZM64.8441 97.3396C64.2848 97.3396 63.8272 97.7974 63.8272 98.3565V101.448C63.8272 102.007 64.2848 102.465 64.8441 102.465H76.2131C76.508 100.431 77.5351 98.6311 79.0198 97.3398H64.8441V97.3396ZM84.4704 97.3396C80.9824 97.3396 78.1452 100.177 78.1452 103.675C78.1452 107.163 80.9824 110 84.4704 110C87.9685 110 90.7955 107.163 90.7955 103.675C90.7957 100.177 87.9686 97.3396 84.4704 97.3396ZM84.4704 106.838C82.7213 106.838 81.3078 105.414 81.3078 103.675C81.3078 101.926 82.7213 100.512 84.4704 100.512C86.2194 100.512 87.633 101.926 87.633 103.675C87.633 105.414 86.2194 106.838 84.4704 106.838ZM99.6835 59.9174H87.8974C88.4771 61.636 88.7822 63.4766 88.7822 65.3783C88.7822 74.9779 80.9723 82.7877 71.3727 82.7877C69.6235 82.7877 67.9254 82.5235 66.3288 82.0454V93.2823C66.3288 93.8417 66.7864 94.2993 67.3457 94.2993H101.717C102.277 94.2993 102.734 93.8417 102.734 93.2823V62.9682C102.734 61.2801 101.371 59.9174 99.6835 59.9174ZM71.375 50C62.8836 50 56 56.8835 56 65.3749C56 73.8663 62.8836 80.75 71.375 80.75C79.8665 80.75 86.7502 73.8663 86.7502 65.3749C86.7502 56.8835 79.8665 50 71.375 50ZM71.375 77.2512C64.8161 77.2512 59.4988 71.934 59.4988 65.3749C59.4988 58.8158 64.8161 53.4987 71.375 53.4987C77.9341 53.4987 83.2513 58.8159 83.2513 65.3749C83.2513 71.934 77.9341 77.2512 71.375 77.2512ZM75.9108 67.8831C75.7798 67.8831 75.6456 67.8662 75.5125 67.8305L70.5572 66.4949C69.8919 66.3151 69.4291 65.7114 69.4291 65.0221V57.3953C69.4291 56.5532 70.1124 55.8699 70.9545 55.8699C71.7966 55.8699 72.4799 56.5532 72.4799 57.3953V63.8533L76.3071 64.885C77.1205 65.1044 77.602 65.9417 77.3826 66.7549C77.1989 67.4352 76.5832 67.8831 75.9108 67.8831Z" fill="white"/>
</svg>
