<svg width="184" height="161" viewBox="0 0 184 161" fill="none" xmlns="http://www.w3.org/2000/svg">
<path d="M88.5096 3.37829C92.5252 1.54057 97.04 1.54057 101.056 3.37829L173.194 36.3928C179.294 39.1845 183.27 45.745 183.27 53.0204V109.98C183.27 117.255 179.294 123.816 173.194 126.607L101.056 159.622C97.04 161.459 92.5252 161.459 88.5096 159.622L16.3708 126.607C10.2709 123.816 6.29564 117.255 6.29564 109.98V53.0204C6.29564 45.745 10.2709 39.1845 16.3708 36.3928L88.5096 3.37829Z" fill="#E06CC7"/>
<mask id="mask0" mask-type="alpha" maskUnits="userSpaceOnUse" x="0" y="0" width="179" height="160">
<path d="M83.4615 1.38696C87.5023 -0.462321 92.0455 -0.46232 96.0863 1.38696L168.679 34.6091C174.817 37.4183 178.817 44.0201 178.817 51.3413V108.659C178.817 115.98 174.817 122.582 168.679 125.391L96.0863 158.613C92.0455 160.462 87.5023 160.462 83.4615 158.613L10.869 125.391C4.73068 122.582 0.730453 115.98 0.730453 108.659V51.3413C0.730453 44.0201 4.73069 37.4183 10.869 34.6091L83.4615 1.38696Z" fill="white"/>
</mask>
<g mask="url(#mask0)">
<rect x="-36" y="-5" width="215" height="172" fill="white"/>
<path d="M91.9987 65.9998C96.1408 65.9998 99.4986 62.6419 99.4986 58.4999C99.4986 54.3578 96.1408 51 91.9987 51C87.8566 51 84.4988 54.3578 84.4988 58.4999C84.4988 62.6419 87.8566 65.9998 91.9987 65.9998Z" fill="#2B2A2F"/>
<path d="M106.576 105.574L97.3395 109.038L101.933 110.761C103.909 111.495 106.042 110.478 106.761 108.565C107.144 107.545 107.03 106.476 106.576 105.574Z" fill="#2B2A2F"/>
<path d="M74.5662 92.4871C72.6309 91.7693 70.4666 92.7435 69.7379 94.6823C69.011 96.6214 69.9943 98.782 71.9332 99.5107L75.9788 101.028L86.6596 97.0219L74.5662 92.4871Z" fill="#2B2A2F"/>
<path d="M114.261 94.6826C113.532 92.7435 111.368 91.7695 109.432 92.4874L79.4329 103.737C77.4938 104.466 76.5106 106.626 77.2375 108.565C77.9562 110.477 80.0886 111.495 82.0659 110.761L112.065 99.511C114.005 98.7823 114.988 96.6218 114.261 94.6826Z" fill="#2B2A2F"/>
<path d="M118.249 80.9995H109.317L102.854 68.0726C102.182 66.7304 100.816 65.9658 99.4073 65.9999H91.9993H84.5909C83.1829 65.9658 81.8183 66.7305 81.145 68.0726L74.6816 80.9995H65.7499C63.6791 80.9995 62 82.6786 62 84.7494C62 86.8202 63.6791 88.4993 65.7499 88.4993H76.9996C78.4205 88.4993 79.7187 87.6972 80.354 86.4266L84.4994 78.1358V92.2077L91.999 95.0198L99.4992 92.2069V78.1358L103.645 86.4266C104.28 87.6974 105.578 88.4993 106.999 88.4993H118.249C120.319 88.4993 121.999 86.8202 121.999 84.7494C121.999 82.6786 120.32 80.9995 118.249 80.9995Z" fill="#2B2A2F"/>
</g>
</svg>
