<svg width="184" height="161" viewBox="0 0 184 161" fill="none" xmlns="http://www.w3.org/2000/svg">
<path d="M88.5097 3.37829C92.5252 1.54057 97.04 1.54057 101.056 3.37829L173.194 36.3928C179.294 39.1845 183.27 45.745 183.27 53.0204V109.98C183.27 117.255 179.294 123.816 173.194 126.607L101.056 159.622C97.04 161.459 92.5252 161.459 88.5097 159.622L16.3708 126.607C10.2709 123.816 6.29565 117.255 6.29565 109.98V53.0204C6.29565 45.745 10.2709 39.1845 16.3708 36.3928L88.5097 3.37829Z" fill="#E06CC7"/>
<mask id="mask0" mask-type="alpha" maskUnits="userSpaceOnUse" x="0" y="0" width="179" height="160">
<path d="M83.4615 1.38696C87.5023 -0.462321 92.0456 -0.46232 96.0864 1.38696L168.679 34.6091C174.817 37.4183 178.817 44.0201 178.817 51.3413V108.659C178.817 115.98 174.817 122.582 168.679 125.391L96.0863 158.613C92.0455 160.462 87.5023 160.462 83.4615 158.613L10.869 125.391C4.7307 122.582 0.730469 115.98 0.730469 108.659V51.3413C0.730469 44.0201 4.7307 37.4183 10.869 34.6091L83.4615 1.38696Z" fill="white"/>
</mask>
<g mask="url(#mask0)">
<rect x="-36" y="-5" width="215" height="172" fill="white"/>
<path d="M122.257 61.5865H120.547C120.547 58.3887 120.547 59.0796 120.547 55.8617C120.547 55.2697 120.067 54.7898 119.475 54.7898H116.547C115.955 54.7898 115.475 55.2697 115.475 55.8617C115.475 59.0797 115.475 58.3883 115.475 61.5865H111.732C111.888 59.947 110.681 58.5113 109.081 58.3422C107.436 58.1687 105.977 59.3714 105.805 60.9914L105.742 61.5864H100.583C99.0615 64.8724 95.7768 66.9939 92.1382 66.9939C88.4496 66.9939 85.1927 64.8242 83.6931 61.5864H78.553L78.4901 60.9914C78.3174 59.3594 76.845 58.1696 75.2143 58.3421C73.6168 58.5112 72.407 59.9452 72.5634 61.5866H68.8105C68.8105 58.3888 68.8105 59.0797 68.8105 55.8618C68.8105 55.2698 68.3307 54.7899 67.7387 54.7899H64.8103C64.2183 54.7899 63.7384 55.2698 63.7384 55.8618C63.7384 59.0799 63.7384 58.3884 63.7384 61.5866H62.0289C60.9083 61.5865 60 62.4948 60 63.6154C60 64.7359 60.9083 65.6443 62.0289 65.6443H63.7385C63.7385 68.8421 63.7385 68.1512 63.7385 71.3691C63.7385 71.9611 64.2185 72.441 64.8104 72.441H67.7388C68.3308 72.441 68.8107 71.961 68.8107 71.3691C68.8107 68.1511 68.8107 68.8425 68.8107 65.6443H72.9906C73.1191 66.8583 74.0269 75.4424 74.161 76.7119C74.4303 79.2593 77.6395 80.3364 79.3668 78.3588L83.5537 73.5674V84.9661L72.7203 89.3675C71.4557 89.8813 70.5549 91.0227 70.349 92.3721L68.1876 106.542C67.865 108.657 69.3179 110.633 71.4328 110.955C73.5477 111.278 75.5238 109.825 75.8463 107.71L77.676 95.7162L87.6978 91.6445H96.5941L106.616 95.7162L108.445 107.71C108.768 109.825 110.744 111.278 112.859 110.955C114.974 110.632 116.427 108.657 116.104 106.542L113.943 92.372C113.737 91.0226 112.836 89.8813 111.571 89.3674L100.652 84.9309V73.4652L104.928 78.3587C106.609 80.283 109.857 79.3295 110.134 76.7118C110.268 75.4444 111.176 66.8561 111.304 65.6442H115.475C115.475 68.842 115.475 68.1511 115.475 71.369C115.475 71.961 115.955 72.4409 116.547 72.4409H119.475C120.067 72.4409 120.547 71.9609 120.547 71.369C120.547 68.1509 120.547 68.8424 120.547 65.6442H122.257C123.378 65.6442 124.286 64.7359 124.286 63.6153C124.286 62.4948 123.378 61.5865 122.257 61.5865ZM79.3687 69.3017C79.2081 67.7827 79.1408 67.1477 78.9819 65.6442H82.5646C81.2665 67.1299 80.6848 67.7956 79.3687 69.3017ZM104.926 69.3017C103.445 67.607 105.348 69.7838 101.73 65.6442H105.313C105.013 68.4843 105.087 67.7847 104.926 69.3017Z" fill="#2B2A2F"/>
<path d="M92.1382 64.3805C95.8332 64.3805 98.8285 61.3852 98.8285 57.6902C98.8285 53.9953 95.8332 51 92.1382 51C88.4433 51 85.448 53.9953 85.448 57.6902C85.448 61.3852 88.4433 64.3805 92.1382 64.3805Z" fill="#2B2A2F"/>
</g>
</svg>
