<svg width="184" height="161" viewBox="0 0 184 161" fill="none" xmlns="http://www.w3.org/2000/svg">
<path d="M88.5097 3.37829C92.5252 1.54057 97.04 1.54057 101.056 3.37829L173.194 36.3928C179.294 39.1845 183.27 45.745 183.27 53.0204V109.98C183.27 117.255 179.294 123.816 173.194 126.607L101.056 159.622C97.04 161.459 92.5252 161.459 88.5097 159.622L16.3708 126.607C10.2709 123.816 6.29565 117.255 6.29565 109.98V53.0204C6.29565 45.745 10.2709 39.1845 16.3708 36.3928L88.5097 3.37829Z" fill="#E06CC7"/>
<mask id="mask0" mask-type="alpha" maskUnits="userSpaceOnUse" x="0" y="0" width="179" height="160">
<path d="M83.4615 1.38696C87.5023 -0.462321 92.0456 -0.46232 96.0864 1.38696L168.679 34.6091C174.817 37.4183 178.817 44.0201 178.817 51.3413V108.659C178.817 115.98 174.817 122.582 168.679 125.391L96.0863 158.613C92.0455 160.462 87.5023 160.462 83.4615 158.613L10.869 125.391C4.7307 122.582 0.730469 115.98 0.730469 108.659V51.3413C0.730469 44.0201 4.7307 37.4183 10.869 34.6091L83.4615 1.38696Z" fill="white"/>
</mask>
<g mask="url(#mask0)">
<rect x="-36" y="-5" width="215" height="172" fill="white"/>
<path d="M112.299 84.7417L113.675 83.1973L121.242 74.6999C121.809 74.0634 122.089 73.222 122.017 72.3732C121.946 71.5244 121.527 70.7422 120.862 70.2105C119.502 69.2006 117.592 69.4157 116.491 70.7031L109.728 78.2963C109.546 78.5011 109.29 78.6254 109.016 78.6413C108.742 78.6571 108.473 78.5635 108.268 78.381L102.089 72.877L98.2265 69.438C98.0216 69.2555 97.7525 69.1619 97.4787 69.1778C97.2044 69.1936 96.9484 69.3179 96.7658 69.5228L93.3264 73.3841L64.5489 105.696C63.397 106.938 63.4039 108.86 64.5642 110.094C65.1686 110.695 65.9937 111.021 66.8453 110.996C67.6969 110.97 68.501 110.596 69.0681 109.96L97.2724 78.2851C97.4549 78.0798 97.7115 77.9559 97.9853 77.9401C98.259 77.9242 98.5282 78.0174 98.733 78.1999L104.913 83.7039L106.458 85.0797C108.164 86.599 110.779 86.4477 112.299 84.7417Z" fill="#2B2A2F"/>
<path d="M69.9183 71.9235C71.2783 72.9334 73.1878 72.7183 74.2885 71.4309L81.0515 63.8377C81.234 63.6329 81.4901 63.5085 81.7643 63.4927C82.0381 63.4769 82.3072 63.5705 82.5121 63.753L89.4641 69.9447C89.669 70.1272 89.9381 70.2208 90.2119 70.2049C90.4857 70.1891 90.7422 70.0648 90.9247 69.8599L93.676 66.7701C93.8585 66.5653 93.9521 66.2961 93.9363 66.0224C93.9205 65.7486 93.7961 65.492 93.5913 65.3095L85.8677 58.4311L84.3219 57.0543C82.6159 55.535 80.0006 55.6863 78.4808 57.3923L77.1054 58.9376L69.5379 67.4341C68.9707 68.0706 68.6904 68.9119 68.7626 69.7608C68.8348 70.6096 69.2524 71.3918 69.9183 71.9235Z" fill="#2B2A2F"/>
<path d="M93.6979 105.702C92.546 106.944 92.553 108.866 93.7133 110.1C94.3181 110.7 95.1432 111.025 95.9948 110.998C96.8464 110.971 97.6496 110.596 98.2157 109.96L105.789 101.464L107.164 99.92C107.894 99.1006 108.269 98.0245 108.205 96.929C108.142 95.8329 107.646 94.8076 106.826 94.0776L105.282 92.7022L97.5569 85.8223C97.352 85.6398 97.0829 85.5462 96.8091 85.562C96.5353 85.5783 96.2788 85.7022 96.0967 85.907L93.345 88.9968C93.1625 89.2017 93.0689 89.4708 93.0847 89.7446C93.101 90.0184 93.2249 90.2749 93.4297 90.4575L100.382 96.6482C100.587 96.8307 100.71 97.0873 100.726 97.3611C100.742 97.6348 100.649 97.904 100.466 98.1088L93.6979 105.702Z" fill="#2B2A2F"/>
<path d="M101.009 65.4544C104.421 68.4944 109.652 68.1917 112.692 64.7788C115.731 61.3664 115.429 56.1357 112.016 53.0957C108.604 50.0562 103.373 50.3584 100.333 53.7713C98.8736 55.4103 98.1244 57.5619 98.2511 59.753C98.3777 61.9437 99.3699 63.9947 101.009 65.4544Z" fill="#2B2A2F"/>
<path d="M62.0346 78.9281H70.3094C70.8807 78.9281 71.344 78.4653 71.344 77.894C71.344 77.3227 70.8807 76.8594 70.3094 76.8594H62.0346C61.4633 76.8594 61 77.3227 61 77.894C61 78.4653 61.4633 78.9281 62.0346 78.9281Z" fill="#2B2A2F"/>
<path d="M65.1374 82.0317C65.1374 82.603 65.6007 83.0662 66.172 83.0662H74.4468C75.0181 83.0662 75.4814 82.603 75.4814 82.0317C75.4814 81.4604 75.0181 80.9971 74.4468 80.9971H66.172C65.6007 80.9971 65.1374 81.4604 65.1374 82.0317Z" fill="#2B2A2F"/>
</g>
</svg>
