<svg width="184" height="161" viewBox="0 0 184 161" fill="none" xmlns="http://www.w3.org/2000/svg">
<path d="M88.5097 3.37829C92.5252 1.54057 97.04 1.54057 101.056 3.37829L173.194 36.3928C179.294 39.1845 183.27 45.745 183.27 53.0204V109.98C183.27 117.255 179.294 123.816 173.194 126.607L101.056 159.622C97.04 161.459 92.5252 161.459 88.5097 159.622L16.3708 126.607C10.2709 123.816 6.29565 117.255 6.29565 109.98V53.0204C6.29565 45.745 10.2709 39.1845 16.3708 36.3928L88.5097 3.37829Z" fill="#E06CC7"/>
<mask id="mask0" mask-type="alpha" maskUnits="userSpaceOnUse" x="0" y="0" width="179" height="160">
<path d="M83.4615 1.38696C87.5023 -0.462321 92.0456 -0.46232 96.0864 1.38696L168.679 34.6091C174.817 37.4183 178.817 44.0201 178.817 51.3413V108.659C178.817 115.98 174.817 122.582 168.679 125.391L96.0863 158.613C92.0455 160.462 87.5023 160.462 83.4615 158.613L10.869 125.391C4.7307 122.582 0.730469 115.98 0.730469 108.659V51.3413C0.730469 44.0201 4.7307 37.4183 10.869 34.6091L83.4615 1.38696Z" fill="white"/>
</mask>
<g mask="url(#mask0)">
<rect x="-36" y="-5" width="215" height="172" fill="white"/>
<path d="M89.1583 63.4205C91.7835 63.7235 94.159 61.8345 94.4597 59.2081L84.9411 58.1204C84.6417 60.748 86.5295 63.1211 89.1583 63.4205Z" fill="#2B2A2F"/>
<path d="M94.7212 58.4851L96.9665 58.7549L97.1808 56.9772L94.4786 56.2765C93.8773 54.5354 92.3316 53.1967 90.3798 52.9636C87.6551 52.6369 85.1826 54.5804 84.8559 57.3038L92.025 58.1619L94.7212 58.4851Z" fill="#2B2A2F"/>
<path d="M97.6293 76.0625C93.2299 74.7759 90.5976 71.6974 88.7677 67.7477C87.9901 63.8595 82.0508 61.6285 79.4765 66.0315C77.7792 68.9348 76.1565 71.8832 74.5905 74.8588L83.2379 79.953C84.2239 78.0805 85.2406 76.2258 86.2751 74.3794C88.6494 77.671 91.7812 80.1731 96.1427 81.4502H96.1451L98.6768 110.463L100.515 110.303L97.9903 81.3603C100.001 80.4394 100.374 76.865 97.6293 76.0625Z" fill="#2B2A2F"/>
<path d="M70.0787 80.081L80.2493 62.6749C80.2493 62.6749 78.6491 61.1374 76.5246 60.3042C76.0558 58.311 74.6107 56.6965 72.7228 55.9864V51.8994L73.3987 51.71C71.596 49.4565 67.7635 53.2878 67.7635 53.2878L70.919 52.4036V55.6076C70.8066 55.6017 70.6953 55.5899 70.5817 55.5899C67.2108 55.5899 64.4696 58.3311 64.4696 61.702C64.4696 61.8902 64.4814 62.0748 64.498 62.2595C64.4802 62.4429 64.4696 62.6288 64.4696 62.8158C64.4696 62.8761 64.4767 62.9353 64.479 62.9957C64.4767 63.056 64.4696 63.1152 64.4696 63.1756C64.4696 63.5212 64.5051 63.8585 64.5607 64.1887C64.5051 64.519 64.4696 64.8563 64.4696 65.2019C64.4696 66.5843 64.9371 67.8579 65.7135 68.8829C63.8565 72.0893 61.8751 75.5075 61.1437 76.8012C59.3718 79.9389 68.3104 83.208 70.0787 80.081ZM72.7216 56.4646C74.2248 57.0812 75.4049 58.3275 75.9339 59.8733C75.2332 58.6057 74.0911 57.6233 72.7216 57.1073V56.4646ZM72.7216 57.9417C73.7194 58.3524 74.5716 59.0401 75.1883 59.9088C74.619 59.7928 74.0283 59.7526 73.4354 59.8177C73.2057 59.6946 72.9678 59.5893 72.7216 59.4969V57.9417ZM66.7965 67.0152C66.0911 66.3772 65.5443 65.5653 65.2283 64.6468C65.6662 65.4386 66.2817 66.1156 67.0108 66.6447C66.9398 66.7678 66.8676 66.8909 66.7965 67.0152ZM70.919 60.8486C70.3414 61.2984 69.7851 61.9091 69.2667 62.7211C68.8761 63.4135 68.1269 64.7143 67.2309 66.2636C66.29 65.5688 65.5703 64.5888 65.1999 63.4537C65.9396 61.1859 68.0713 59.5419 70.5817 59.5419C70.6953 59.5419 70.8078 59.549 70.919 59.5561V60.8486ZM70.5817 56.0408C70.6953 56.0408 70.8078 56.0479 70.919 56.0538V56.7285C70.8066 56.7226 70.6965 56.7048 70.5817 56.7048C68.2796 56.7048 66.2698 57.9867 65.2294 59.8721C65.9917 57.6482 68.0997 56.0408 70.5817 56.0408ZM70.5817 57.5144C70.6953 57.5144 70.8066 57.5239 70.919 57.531V59.117C70.8066 59.1111 70.6965 59.0922 70.5817 59.0922C68.1044 59.0922 65.9716 60.5752 65.0129 62.6998C64.9975 62.6134 64.9844 62.527 64.9738 62.4406C65.336 59.6662 67.7091 57.5144 70.5817 57.5144ZM64.9347 65.5096C65.2744 66.3287 65.7881 67.0578 66.4284 67.652C66.2746 67.9171 66.1183 68.1869 65.9609 68.4592C65.3656 67.6153 64.9939 66.6033 64.9347 65.5096Z" fill="#2B2A2F"/>
<path d="M90.6106 108.606C90.6106 108.606 89.9205 108.4 89.047 107.97L88.563 108.86L88.0552 108.601L88.544 107.704C88.3925 107.622 88.2398 107.531 88.0871 107.435L87.648 108.242L87.1414 107.985L87.6125 107.118C87.4752 107.018 87.3391 106.912 87.2054 106.802L86.81 107.532L86.3011 107.272L86.4455 107.008C86.9071 106.678 87.2669 106.173 87.4054 105.454C87.5687 104.592 87.6871 103.983 87.7676 103.555C87.893 102.896 87.9356 102.679 87.9356 102.679C88.0173 102.253 88.1333 101.641 88.2978 100.781H88.2943C88.9772 98.0799 89.659 95.3801 90.3431 92.6768C90.42 92.3714 90.4472 92.0874 90.439 91.8187C90.6461 91.1038 90.5301 90.2907 89.9004 89.5C87.6362 86.6546 85.0524 84.1856 82.0946 82.1439C82.2922 81.7628 82.4923 81.3793 82.6923 80.997L74.0461 75.9016C73.8105 76.3537 73.5726 76.8047 73.3395 77.258C73.1252 77.6746 72.9785 78.0877 72.8791 78.4937C72.0008 80.4561 68.4571 88.1341 63.4256 95.8666L63.2516 95.7542C62.893 96.3057 61.0442 99.2138 60.6536 99.7926C60.6276 99.8352 60.6134 99.8778 60.5885 99.9204L60.4583 100.125L58.3918 103.076L58.4001 103.078C58.3953 103.084 58.3823 103.092 58.3823 103.092L58 103.719C58 103.719 58.0426 103.837 58.1408 103.896L61.2786 105.862L65.3312 108.4L67.019 109.458C67.1173 109.522 67.2179 109.541 67.2416 109.505L67.5848 108.954C67.5895 108.948 67.5872 108.938 67.586 108.929L67.5955 108.938C67.5955 108.938 68.4595 107.958 67.6345 107.138C67.6345 107.138 67.0676 106.694 66.4119 105.977L65.6354 106.629L65.2567 106.204L66.039 105.548C65.9289 105.416 65.8201 105.277 65.7135 105.131L65.0093 105.72L64.6317 105.295L65.388 104.661C65.2957 104.519 65.2069 104.37 65.1229 104.218L64.4885 104.754L64.1086 104.328L64.3394 104.134C64.8897 103.997 65.4082 103.659 65.7999 103.037C66.2675 102.296 66.5989 101.769 66.8308 101.4C67.1883 100.833 67.3078 100.644 67.3067 100.646C67.3149 100.632 67.3256 100.616 67.3339 100.602L67.3469 100.614C67.3469 100.614 67.386 100.539 67.4534 100.413C67.6736 100.064 67.9588 99.608 68.3364 99.0079L68.2346 98.9428C69.778 96.0477 73.0696 89.9095 75.9398 84.8129C76.1872 85.2355 76.5601 85.6178 77.0773 85.9137C79.8789 87.5068 82.3325 89.6385 84.4132 92.0921C83.7777 94.6061 83.1432 97.1188 82.5088 99.6316L82.3751 99.6068C82.2402 100.252 81.5797 103.63 81.4282 104.315C81.4187 104.365 81.4223 104.409 81.4152 104.457L81.3667 104.695L80.5192 108.195H80.5287C80.5251 108.202 80.5156 108.214 80.5156 108.214L80.389 108.937C80.389 108.937 80.4719 109.032 80.5867 109.053L84.2251 109.74L88.924 110.623L90.8804 110.991C90.9953 111.012 91.097 110.995 91.1053 110.954L91.2249 110.316C91.2272 110.308 91.2213 110.301 91.2178 110.292L91.2284 110.296C91.2296 110.295 91.677 109.067 90.6106 108.606Z" fill="#2B2A2F"/>
<path d="M94.4608 73.2575H126.265L119.449 56.1829L110.363 72.2988L103.714 63.9011L96.4457 70.9696L94.4608 73.2575Z" fill="#2B2A2F"/>
</g>
</svg>
