<svg width="184" height="161" viewBox="0 0 184 161" fill="none" xmlns="http://www.w3.org/2000/svg">
<path d="M88.5096 3.37829C92.5252 1.54057 97.04 1.54057 101.056 3.37829L173.194 36.3928C179.294 39.1845 183.27 45.745 183.27 53.0204V109.98C183.27 117.255 179.294 123.816 173.194 126.607L101.056 159.622C97.04 161.459 92.5252 161.459 88.5096 159.622L16.3708 126.607C10.2709 123.816 6.29564 117.255 6.29564 109.98V53.0204C6.29564 45.745 10.2709 39.1845 16.3708 36.3928L88.5096 3.37829Z" fill="#E06CC7"/>
<mask id="mask0" mask-type="alpha" maskUnits="userSpaceOnUse" x="0" y="0" width="179" height="160">
<path d="M83.4615 1.38696C87.5023 -0.462321 92.0455 -0.46232 96.0863 1.38696L168.679 34.6091C174.817 37.4183 178.817 44.0201 178.817 51.3413V108.659C178.817 115.98 174.817 122.582 168.679 125.391L96.0863 158.613C92.0455 160.462 87.5023 160.462 83.4615 158.613L10.869 125.391C4.73068 122.582 0.730453 115.98 0.730453 108.659V51.3413C0.730453 44.0201 4.73069 37.4183 10.869 34.6091L83.4615 1.38696Z" fill="white"/>
</mask>
<g mask="url(#mask0)">
<rect x="-36" y="-5" width="215" height="172" fill="white"/>
<path d="M58 111H126.399V93.9009C80.087 90.1952 58 111 58 111Z" fill="#2B2A2F"/>
<path d="M109.619 82.156V71.1593C111.73 71.4676 113.363 72.9262 113.363 67.8825C113.363 62.3406 108.978 51 108.978 51C108.978 51 104.589 62.3384 104.589 67.8825C104.589 73.0089 106.277 71.4185 108.442 71.1459V82.2475C105.645 82.5201 102.898 82.9355 100.202 83.4448V69.8638L100.526 70.1006C100.769 70.2882 101.057 70.3753 101.35 70.3753C101.765 70.3753 102.174 70.1854 102.44 69.8258C102.898 69.2205 102.775 68.3605 102.174 67.9048L98.9218 65.4656C98.9263 65.4209 98.9397 65.3673 98.9397 65.3204V63.0398C98.9397 62.2758 98.3209 61.666 97.5659 61.666C96.8064 61.666 96.1922 62.2758 96.1922 63.0398V63.424L93.0248 61.0495C92.54 60.6854 91.8677 60.6854 91.3807 61.0495L82.2314 67.907C81.6261 68.3627 81.5055 69.2249 81.9634 69.828C82.4168 70.4356 83.2746 70.554 83.8821 70.1028L84.2016 69.866V77.8091C71.5565 71.2398 58 73.1407 58 73.1407V80.7487C58 80.7487 76.2852 76.7883 93.1722 84.3517C91.0703 82.2364 88.803 80.5387 86.4844 79.1136V68.1438L92.1983 63.8595L97.9144 68.146V83.8893C83.2277 87.0545 70.7032 93.2039 64.7012 97.18C78.242 93.0498 103.458 84.3584 126.399 89.9092V82.6474C120.801 81.7606 115.143 81.7003 109.619 82.156Z" fill="#2B2A2F"/>
</g>
</svg>
