<svg width="184" height="161" viewBox="0 0 184 161" fill="none" xmlns="http://www.w3.org/2000/svg">
<path d="M88.5096 3.37829C92.5252 1.54057 97.04 1.54057 101.056 3.37829L173.194 36.3928C179.294 39.1845 183.27 45.745 183.27 53.0204V109.98C183.27 117.255 179.294 123.816 173.194 126.607L101.056 159.622C97.04 161.459 92.5252 161.459 88.5096 159.622L16.3708 126.607C10.2709 123.816 6.29564 117.255 6.29564 109.98V53.0204C6.29564 45.745 10.2709 39.1845 16.3708 36.3928L88.5096 3.37829Z" fill="#E06CC7"/>
<mask id="mask0" mask-type="alpha" maskUnits="userSpaceOnUse" x="0" y="0" width="179" height="160">
<path d="M83.4615 1.38696C87.5023 -0.462321 92.0455 -0.46232 96.0863 1.38696L168.679 34.6091C174.817 37.4183 178.817 44.0201 178.817 51.3413V108.659C178.817 115.98 174.817 122.582 168.679 125.391L96.0863 158.613C92.0455 160.462 87.5023 160.462 83.4615 158.613L10.869 125.391C4.73068 122.582 0.730453 115.98 0.730453 108.659V51.3413C0.730453 44.0201 4.73069 37.4183 10.869 34.6091L83.4615 1.38696Z" fill="white"/>
</mask>
<g mask="url(#mask0)">
<rect x="-36" y="-5" width="215" height="172" fill="white"/>
<path d="M74.3935 56.7293C73.8184 57.3041 73.8184 58.236 74.3933 58.8107C74.9683 59.3855 75.9002 59.3859 76.4747 58.8109C77.1887 58.097 78.3509 58.097 79.0648 58.8109C79.3523 59.0982 79.7289 59.242 80.1055 59.242C80.4818 59.242 80.8588 59.0982 81.1461 58.8107C81.7208 58.236 81.7208 57.3041 81.1459 56.7293C79.2844 54.8679 76.2551 54.8679 74.3935 56.7293Z" fill="black"/>
<path d="M73.905 55.5444C74.9372 54.5121 76.3097 53.9436 77.7697 53.9436C79.2297 53.9436 80.6022 54.5121 81.6343 55.5444C81.9218 55.8319 82.2984 55.9758 82.6751 55.9758C83.0517 55.9758 83.4285 55.8319 83.7157 55.5446C84.2907 54.9699 84.2907 54.038 83.716 53.4632C82.1279 51.8747 80.016 51 77.7697 51C75.5236 51 73.4117 51.8747 71.8236 53.4632C71.2489 54.038 71.2489 54.9699 71.8238 55.5446C72.3986 56.1192 73.3303 56.1194 73.905 55.5444Z" fill="black"/>
<path d="M111.72 60.1414H106.618V67.2878H113.584V62.0058C113.584 60.9761 112.749 60.1414 111.72 60.1414Z" fill="black"/>
<path d="M97.3943 60.1414H72.8644C71.8347 60.1414 71 60.9761 71 62.0058V67.2878H97.3941V60.1414H97.3943Z" fill="black"/>
<path d="M103.87 60.1414H100.142V67.2878H103.87V60.1414Z" fill="black"/>
<path d="M99.8883 79.3627C97.9152 77.5205 95.197 76.5112 92.2921 76.5112C85.9079 76.5112 80.7139 81.7054 80.7139 88.0896C80.7139 94.4737 85.9079 99.6678 92.2921 99.6678C93.5618 99.6678 94.7834 99.4593 95.9277 99.0797C95.4675 99.1397 95.0044 99.1722 94.541 99.1722C91.816 99.1722 89.0909 98.1351 87.0164 96.0605C83.5901 92.6343 83.5901 87.0595 87.0164 83.633C89.8646 80.7848 94.4988 80.7848 97.3469 83.6326C97.8834 84.169 97.8834 85.0389 97.3471 85.5753C96.8105 86.1118 95.9406 86.1116 95.4044 85.5755C93.6273 83.7981 90.7358 83.7985 88.9594 85.5757C86.6042 87.9306 86.6042 91.7627 88.9594 94.1175C92.0368 97.1957 97.0451 97.1959 100.123 94.1175C102.052 92.1892 103.114 89.625 103.114 86.8977C103.113 84.1698 101.882 81.224 99.8883 79.3627Z" fill="black"/>
<path d="M71 109.136C71 110.165 71.8347 111 72.8644 111H111.72C112.749 111 113.584 110.165 113.584 109.136V70.0352H71V109.136ZM92.2921 73.7636C100.191 73.7636 106.618 80.1901 106.618 88.0893C106.618 95.9883 100.191 102.415 92.2921 102.415C84.3929 102.415 77.9667 95.9881 77.9667 88.0893C77.9667 80.1901 84.3929 73.7636 92.2921 73.7636Z" fill="black"/>
</g>
</svg>
