<svg width="184" height="161" viewBox="0 0 184 161" fill="none" xmlns="http://www.w3.org/2000/svg">
<path d="M88.5096 3.37829C92.5252 1.54057 97.04 1.54057 101.056 3.37829L173.194 36.3928C179.294 39.1845 183.27 45.745 183.27 53.0204V109.98C183.27 117.255 179.294 123.816 173.194 126.607L101.056 159.622C97.04 161.459 92.5252 161.459 88.5096 159.622L16.3708 126.607C10.2709 123.816 6.29564 117.255 6.29564 109.98V53.0204C6.29564 45.745 10.2709 39.1845 16.3708 36.3928L88.5096 3.37829Z" fill="#E06CC7"/>
<mask id="mask0" mask-type="alpha" maskUnits="userSpaceOnUse" x="0" y="0" width="179" height="160">
<path d="M83.4615 1.38696C87.5023 -0.462321 92.0455 -0.46232 96.0863 1.38696L168.679 34.6091C174.817 37.4183 178.817 44.0201 178.817 51.3413V108.659C178.817 115.98 174.817 122.582 168.679 125.391L96.0863 158.613C92.0455 160.462 87.5023 160.462 83.4615 158.613L10.869 125.391C4.73068 122.582 0.730453 115.98 0.730453 108.659V51.3413C0.730453 44.0201 4.73069 37.4183 10.869 34.6091L83.4615 1.38696Z" fill="white"/>
</mask>
<g mask="url(#mask0)">
<rect x="-36" y="-5" width="215" height="172" fill="white"/>
<path d="M103.154 61.3846C106.038 61.3846 108.346 59.0769 108.346 56.1923C108.346 53.3077 106.038 51 103.154 51C100.269 51 97.9615 53.3077 97.9615 56.1923C97.9615 59.0769 100.269 61.3846 103.154 61.3846ZM111.808 82.1538C103.731 82.1538 97.3846 88.5 97.3846 96.5769C97.3846 104.654 103.731 111 111.808 111C119.885 111 126.231 104.654 126.231 96.5769C126.231 88.4999 119.885 82.1538 111.808 82.1538ZM111.808 106.673C106.327 106.673 101.712 102.058 101.712 96.5769C101.712 91.096 106.327 86.4808 111.808 86.4808C117.288 86.4808 121.904 91.096 121.904 96.5769C121.904 102.058 117.288 106.673 111.808 106.673ZM99.6923 76.3846H111.808V71.1923H102.577L97.0962 61.6731C96.2308 60.2308 94.7885 59.3654 92.7692 59.3654C91.3269 59.3654 90.1731 59.9423 89.3077 60.8077L78.6346 71.4808C77.7692 72.3462 77.1923 73.5 77.1923 74.9423C77.1923 76.6731 78.0577 78.4038 79.5 79.2692L89.3077 85.0385V99.4615H94.5V80.7115L88.1538 75.8077L94.7885 69.1731L99.6923 76.3846ZM71.4231 82.1538C63.3462 82.1538 57 88.5 57 96.5769C57 104.654 63.3462 111 71.4231 111C79.5 111 85.8462 104.654 85.8462 96.5769C85.8462 88.4999 79.5 82.1538 71.4231 82.1538ZM71.4231 106.673C65.9423 106.673 61.3269 102.058 61.3269 96.5769C61.3269 91.096 65.9423 86.4808 71.4231 86.4808C76.9038 86.4808 81.5192 91.096 81.5192 96.5769C81.5192 102.058 76.9038 106.673 71.4231 106.673Z" fill="#2B2A2F"/>
</g>
</svg>
