<svg width="192" height="160" viewBox="0 0 192 160" fill="none" xmlns="http://www.w3.org/2000/svg">
<path d="M89.2881 2.65288C93.6301 0.848698 98.512 0.8487 102.854 2.65288L180.858 35.0647C187.453 37.8054 191.752 44.2462 191.752 51.3888V107.308C191.752 114.451 187.453 120.892 180.858 123.632L102.854 156.044C98.512 157.848 93.6301 157.848 89.2881 156.044L11.2845 123.632C4.68865 120.892 0.390244 114.451 0.390244 107.308V51.3888C0.390244 44.2462 4.68866 37.8054 11.2845 35.0647L89.2881 2.65288Z" fill="#E06CC7"/>
<path d="M101.5 45C101.5 45 103.6 53.75 103.6 60.75C103.6 67.4 99.0501 73 92.4 73C85.7499 73 80.5 67.4 80.5 60.75V59.7C73.85 67.75 70 77.9 70 88.75C70 103.1 81.9 115 96.25 115C110.6 115 122.5 103.1 122.5 88.75C122.5 70.9 114.45 55.15 101.5 45ZM96.25 104.5C90.3 104.5 85.75 99.95 85.75 94.35C85.75 89.1 89.25 85.25 94.85 84.2C100.8 83.1501 106.75 80.35 109.9 75.8C111.3 80 112 84.55 112 89.1C112 97.5 105 104.5 96.25 104.5Z" fill="#2B2A2F"/>
</svg>
