<svg width="192" height="160" viewBox="0 0 192 160" fill="none" xmlns="http://www.w3.org/2000/svg">
<path d="M89.2881 2.65288C93.6301 0.848698 98.512 0.8487 102.854 2.65288L180.858 35.0647C187.453 37.8054 191.752 44.2462 191.752 51.3888V107.308C191.752 114.451 187.453 120.892 180.858 123.632L102.854 156.044C98.512 157.848 93.6301 157.848 89.2881 156.044L11.2845 123.632C4.68867 120.892 0.390259 114.451 0.390259 107.308V51.3888C0.390259 44.2462 4.68867 37.8054 11.2845 35.0647L89.2881 2.65288Z" fill="#E06CC7"/>
<path d="M131.485 82.5227L127.719 78.7572C127.39 78.4276 126.943 78.2422 126.477 78.2422C126.01 78.2422 125.563 78.4276 125.234 78.7572L121.468 82.5227C120.782 83.2094 120.782 84.3222 121.468 85.0084C122.154 85.695 123.267 85.695 123.954 85.0084L124.683 84.2796C124.513 87.3306 123.739 90.3596 122.417 93.1108C120.911 96.2447 118.68 99.0489 115.964 101.221C115.206 101.828 115.083 102.934 115.69 103.692C116.037 104.126 116.548 104.352 117.064 104.352C117.449 104.352 117.836 104.226 118.16 103.966C121.285 101.467 123.852 98.2396 125.585 94.6338C127.144 91.3905 128.039 87.8117 128.204 84.2133L128.999 85.0084C129.342 85.3517 129.792 85.5234 130.242 85.5234C130.692 85.5234 131.142 85.3517 131.485 85.0084C132.172 84.3222 132.172 83.2089 131.485 82.5227Z" fill="#2B2A2F"/>
<path d="M105.725 64.2932C104.457 63.0252 103.758 61.3393 103.758 59.5448V51.7578C103.758 50.7874 102.971 50 102 50H75.6397C74.7562 50 73.9945 50.6647 73.8938 51.5633L72.4033 64.9849C72.136 67.3882 72 69.8326 72 72.2482C72 74.3132 72.1584 77.9707 73.6805 82.3566C74.8848 79.9615 76.3867 77.7469 78.1688 75.7401C78.839 74.9857 80.009 74.9559 80.7227 75.6696C81.3819 76.3287 81.4093 77.3853 80.7909 78.0824C75.9487 83.5408 73.8832 90.2328 73.8832 96.2982V108.242C73.8832 109.213 74.6706 110 75.6411 110H102C102.971 110 103.758 109.213 103.758 108.242C103.758 100.682 108.189 96.5971 110.095 94.5335C114.807 89.4276 115.055 83.7289 115.055 81.7601C115.055 76.5137 113.012 71.5799 109.301 67.8697C108.053 66.6232 106.78 65.3493 105.725 64.2932Z" fill="#2B2A2F"/>
</svg>
