<svg width="192" height="160" viewBox="0 0 192 160" fill="none" xmlns="http://www.w3.org/2000/svg">
<path d="M89.2881 2.65288C93.6301 0.848698 98.512 0.8487 102.854 2.65288L180.858 35.0647C187.453 37.8054 191.752 44.2462 191.752 51.3888V107.308C191.752 114.451 187.453 120.892 180.858 123.632L102.854 156.044C98.512 157.848 93.6301 157.848 89.2881 156.044L11.2845 123.632C4.68867 120.892 0.390259 114.451 0.390259 107.308V51.3888C0.390259 44.2462 4.68867 37.8054 11.2845 35.0647L89.2881 2.65288Z" fill="#E06CC7"/>
<path d="M123.647 82.8358C123.19 81.458 123.235 81.7404 123.235 80.4454C123.235 77.2603 121.994 74.2661 119.741 72.0139C119.418 71.6902 119.171 71.2897 119.027 70.8557L118.094 68.0597C117.648 66.7226 117.026 65.4486 116.242 64.2722L115.896 63.7544C114.538 61.7165 113.82 59.3443 113.82 56.8967V51.7578C113.82 50.7874 113.034 50 112.062 50H70.6388C70.3751 50 70.1068 50.06 69.8537 50.1863C68.9862 50.6212 68.6347 51.6768 69.0682 52.5452C69.0682 52.5452 69.6862 53.7793 70.512 55.4305C73.1418 60.6897 74.5316 66.5775 74.5316 72.4588C74.5316 78.4647 73.2943 84.2938 70.8553 89.7815C69.8418 92.0612 67 97.6532 67 105.992V108.242C67 109.213 67.7874 110 68.7578 110H103.946L95.8927 97.9205C95.3539 97.113 95.5727 96.0208 96.3802 95.4829C97.1877 94.9437 98.2799 95.163 98.8178 95.9705L108.17 110H113.945C114.915 110 115.703 109.213 115.703 108.242V105.988C115.703 104.452 116.466 103.026 117.744 102.173C120.003 100.667 121.352 98.1476 121.352 95.4349C121.352 93.6079 121.471 93.5338 122.399 92.1394C124.242 89.375 124.696 85.9825 123.647 82.8358Z" fill="#2B2A2F"/>
</svg>
