<svg width="96" height="77" viewBox="0 0 96 77" fill="none" xmlns="http://www.w3.org/2000/svg"><path d="M51.4028 0.667475C49.2245 -0.222492 46.7755 -0.222491 44.5972 0.667476L5.46532 16.6556C2.15638 18.0076 0 21.1847 0 24.708V52.292C0 55.8153 2.15638 58.9924 5.46532 60.3444L44.5972 76.3325C46.7755 77.2225 49.2245 77.2225 51.4028 76.3325L90.5347 60.3444C93.8436 58.9924 96 55.8153 96 52.292V24.708C96 21.1847 93.8436 18.0076 90.5347 16.6556L51.4028 0.667475Z" fill="#E06CC7"></path><path d="M43.451 49.6275C43.6993 49.8759 44.0392 50.0066 44.366 50.0066C44.6928 50.0066 45.0327 49.8759 45.281 49.6275L54.9934 39.9151C55.2418 39.6667 55.3725 39.3399 55.3725 39C55.3725 38.6602 55.2418 38.3334 54.9934 38.085L45.281 28.3726C44.7712 27.8628 43.9608 27.8628 43.451 28.3726C42.9412 28.8824 42.9412 29.6928 43.451 30.2027L52.2483 39L43.451 47.7974C42.9542 48.3072 42.9542 49.1308 43.451 49.6275Z" fill="white"></path></svg>