<svg width="96" height="77" viewBox="0 0 96 77" fill="none" xmlns="http://www.w3.org/2000/svg"><path d="M44.5972 0.667475C46.7755 -0.222492 49.2245 -0.222491 51.4028 0.667476L90.5347 16.6556C93.8436 18.0076 96 21.1847 96 24.708V52.292C96 55.8153 93.8436 58.9924 90.5347 60.3444L51.4028 76.3325C49.2245 77.2225 46.7755 77.2225 44.5972 76.3325L5.46531 60.3444C2.15637 58.9924 0 55.8153 0 52.292V24.708C0 21.1847 2.15638 18.0076 5.46531 16.6556L44.5972 0.667475Z" fill="#E06CC7"></path><path d="M52.549 49.6275C52.3007 49.8759 51.9608 50.0066 51.634 50.0066C51.3072 50.0066 50.9673 49.8759 50.719 49.6275L41.0066 39.9151C40.7582 39.6667 40.6275 39.3399 40.6275 39C40.6275 38.6602 40.7582 38.3334 41.0066 38.085L50.719 28.3726C51.2288 27.8628 52.0392 27.8628 52.549 28.3726C53.0588 28.8824 53.0588 29.6928 52.549 30.2027L43.7517 39L52.549 47.7974C53.0458 48.3072 53.0458 49.1308 52.549 49.6275Z" fill="white"></path></svg>