<svg width="59" height="59" fill="none" xmlns="http://www.w3.org/2000/svg"><path d="M57.816 29.5c0 15.743-12.722 28.5-28.408 28.5C13.722 58 1 45.243 1 29.5S13.722 1 29.408 1c15.686 0 28.408 12.757 28.408 28.5Z" stroke="#fff" stroke-width="2"/><g clip-path="url(#a)" fill="#fff"><path d="m44.34 26.726-.887-3.575a.54.54 0 0 0 .425-.528v-.576c0-1.252-1.01-2.27-2.253-2.27h-4.04v-1.189c0-.615-.498-1.116-1.11-1.116H15.878c-.612 0-1.109.5-1.109 1.116v9.799c0 .298.24.54.537.54a.538.538 0 0 0 .536-.54v-9.799c0-.02.016-.036.036-.036h20.597c.02 0 .036.017.036.036v9.799c0 .298.24.54.537.54a.538.538 0 0 0 .536-.54v-.613h6.331c.778 0 1.44.515 1.666 1.225h-1.668a.538.538 0 0 0-.536.54v1.153c0 .933.754 1.693 1.68 1.693h.609v2.378h-1.403a3.404 3.404 0 0 0-3.21-2.306c-1.485 0-2.75.965-3.21 2.306h-.26v-4.071c0-.299-.24-.54-.536-.54a.538.538 0 0 0-.536.54v4.07h-11.13a3.404 3.404 0 0 0-3.21-2.305c-1.485 0-2.75.965-3.21 2.305h-3.083a.036.036 0 0 1-.036-.036v-1.188h2.324a.538.538 0 0 0 .537-.54c0-.3-.24-.541-.537-.541h-5.15a.538.538 0 0 0-.536.54c0 .299.24.54.537.54h1.752v1.19c0 .615.497 1.116 1.109 1.116h2.897v.036c0 1.887 1.523 3.422 3.396 3.422 1.874 0 3.398-1.535 3.398-3.422l-.001-.036h12.088v.036c0 1.887 1.523 3.422 3.397 3.422 1.873 0 3.397-1.535 3.397-3.422l-.001-.036h1.753a.538.538 0 0 0 .537-.54v-5.764a2.844 2.844 0 0 0-2.399-2.813Zm-6.756-5.868h4.04c.652 0 1.181.533 1.181 1.189v.036h-5.22v-1.225Zm0 5.835v-3.53h4.766l.877 3.53h-5.643ZM22.171 38.221a2.336 2.336 0 0 1-2.324-2.342 2.336 2.336 0 0 1 2.324-2.341 2.336 2.336 0 0 1 2.325 2.341 2.336 2.336 0 0 1-2.325 2.342Zm18.882 0a2.336 2.336 0 0 1-2.325-2.342 2.336 2.336 0 0 1 2.325-2.341 2.336 2.336 0 0 1 2.324 2.341 2.336 2.336 0 0 1-2.324 2.342Zm4.613-6.917h-.608a.61.61 0 0 1-.608-.612v-.613h1.216v1.225Z"/><path d="M22.171 34.763c-.611 0-1.108.5-1.108 1.116 0 .616.497 1.117 1.108 1.117.611 0 1.109-.5 1.109-1.117 0-.615-.498-1.116-1.109-1.116ZM41.052 34.763c-.611 0-1.109.5-1.109 1.116 0 .616.498 1.117 1.109 1.117s1.108-.5 1.108-1.117c0-.615-.497-1.116-1.108-1.116ZM34.76 32.457h-8.01a.538.538 0 0 0-.537.54c0 .299.24.54.536.54h8.01a.538.538 0 0 0 .537-.54c0-.298-.24-.54-.536-.54ZM21.027 30.151h-6.866a.538.538 0 0 0-.536.54c0 .3.24.541.536.541h6.866a.538.538 0 0 0 .537-.54c0-.299-.24-.54-.537-.54ZM31.133 22.817a.534.534 0 0 0-.759 0l-4.77 4.806-2.481-2.5a.533.533 0 0 0-.759 0 .543.543 0 0 0 0 .764l2.861 2.882a.533.533 0 0 0 .758 0l5.15-5.187a.543.543 0 0 0 0-.765Z"/></g><defs><clipPath id="a"><path fill="#fff" transform="translate(12.48 11.132)" d="M0 0h34.258v34.509H0z"/></clipPath></defs></svg>