<svg width="59" height="59" fill="none" xmlns="http://www.w3.org/2000/svg"><path d="M57.816 29.5c0 15.743-12.722 28.5-28.408 28.5C13.722 58 1 45.243 1 29.5S13.722 1 29.408 1c15.686 0 28.408 12.757 28.408 28.5Z" stroke="#fff" stroke-width="2"/><path d="M21.535 41.66c.958.562 2.14.562 3.098 0a3.066 3.066 0 0 0 4.215-1.13c.856-1.488.355-3.395-1.117-4.26a3.06 3.06 0 0 0-3.098 0 3.066 3.066 0 0 0-4.215 1.13c-.856 1.488-.355 3.395 1.117 4.26Zm3.957-4.645c.219-.082.45-.125.683-.127 1.135 0 2.055.93 2.055 2.077 0 1.147-.92 2.077-2.055 2.077a2.018 2.018 0 0 1-.683-.126 3.129 3.129 0 0 0 0-3.901Zm-.859.59a2.055 2.055 0 0 1 0 2.72 2.055 2.055 0 0 1 0-2.72Zm-1.542-.717c.233.002.464.045.683.127a3.129 3.129 0 0 0 0 3.9c-.219.082-.45.125-.683.127a2.067 2.067 0 0 1-2.055-2.077c0-1.147.92-2.077 2.055-2.077Z" fill="#fff"/><path d="m44.65 24.19-3.448-9.06c-.653-1.713-2.557-2.566-4.252-1.906l-.073.03-17.233 7.219c-1.641.68-2.447 2.556-1.819 4.232l.474 1.278h-1.087c-1.773.002-3.21 1.454-3.212 3.246v11.685c.002 1.791 1.439 3.243 3.212 3.245h21.842c1.773-.002 3.21-1.454 3.212-3.245V29.229a3.226 3.226 0 0 0-.047-.525l.597-.245c1.656-.685 2.47-2.579 1.835-4.27Zm-27.438 2.832h21.842a2.191 2.191 0 0 1 2.171 2.077H15.041a2.191 2.191 0 0 1 2.171-2.077Zm5.165-3.128 3.436-1.736.706 1.785-3.435 1.735-.707-1.784Zm18.86 17.02a2.198 2.198 0 0 1-2.183 2.207H17.212a2.198 2.198 0 0 1-2.184-2.207v-6.622h26.21v6.622Zm0-7.66h-26.21v-3.116h26.21v3.116Zm1.194-5.754-.537.22a3.21 3.21 0 0 0-2.84-1.736H24.778l2.623-1.326A.522.522 0 0 0 27.65 24l-1.09-2.752a.512.512 0 0 0-.707-.272l-4.357 2.203a.522.522 0 0 0-.248.658l.85 2.146h-2.7l-.61-1.64a2.281 2.281 0 0 1 1.25-2.908l17.233-7.218a2.25 2.25 0 0 1 2.972 1.288l3.449 9.06a2.3 2.3 0 0 1-1.26 2.935Z" fill="#fff"/></svg>