<svg width="59" height="59" fill="none" xmlns="http://www.w3.org/2000/svg"><g clip-path="url(#a)"><path d="M43.66 41.29c-3.091-1.835-5.462-2.864-7.573-3.258l.219-.336c.103-.116.155-.29.103-.464l-.485-2.173c.176-.278.342-.566.497-.862 1.93-.735 2.906-1.978 3.07-3.807.848-.05 1.579-.897 1.579-1.853V24.19c0-.952-.676-1.796-1.563-1.852-.114-3.349-1.433-9.915-9.83-9.915-8.398 0-9.717 6.567-9.83 9.915-.841.056-1.563.846-1.563 1.852v4.347c0 .986.776 1.855 1.709 1.855h.776c.286 0 .56-.092.8-.25.293 1.746.941 3.462 1.86 4.917l-.484 2.173c0 .116 0 .29.103.464l.219.336c-2.111.394-4.482 1.423-7.573 3.257-.984.522-1.553 1.623-1.553 2.84v2.493c0 .348.207.58.518.58H44.696c.31 0 .517-.232.517-.58V44.13c0-1.16-.621-2.261-1.554-2.84Zm-13.98-1.326 1.24 3.18h-2.503l1.263-3.18Zm-1.64 4.34h3.271l.303 1.738H27.73l.31-1.739Zm7.075-8.116.207 1.044-.53.813a.5.5 0 0 0-.092.114l-2.154 3.339-.683 1.05-1.397-3.516c1.703-.232 3.22-1.204 4.435-2.595.072-.082.143-.164.213-.248Zm2.022-3.605a13.69 13.69 0 0 0 .651-2.456c.197.134.422.223.664.253-.09.82-.415 1.593-1.315 2.203Zm2.846-8.451v4.347c0 .348-.26.696-.622.696h-.777c-.31 0-.621-.29-.621-.696V24.132c0-.348.259-.696.621-.696h.777c.31 0 .622.29.622.696Zm-10.306-10.55c3.192 0 8.564 1.166 8.795 8.762a1.523 1.523 0 0 0-.613.212c-.63-4.414-4.068-7.815-8.182-7.815-4.113 0-7.551 3.4-8.182 7.814a1.503 1.503 0 0 0-.613-.21c.23-7.596 5.603-8.763 8.795-8.763ZM21.339 28.48c0 .348-.259.696-.621.696h-.777c-.31 0-.622-.29-.622-.696v-4.347c0-.348.26-.696.622-.696h.777c.31 0 .621.29.621.696v4.347Zm1.088-4.463c0-4.463 3.262-8.115 7.25-8.115 3.987 0 7.25 3.651 7.25 8.115v4.057a11.75 11.75 0 0 1-1.17 5.155c-1.235.401-3.014.642-5.562.642-.311 0-.518.232-.518.58 0 .347.207.58.518.58 1.866 0 3.426-.13 4.704-.397l-.095.106c-.26.39-.536.744-.823 1.063-1.22 1.272-2.674 2.042-4.075 2.118a.53.53 0 0 0-.23-.05.452.452 0 0 0-.215.051c-.858-.044-1.736-.348-2.568-.869-.843-.542-1.636-1.324-2.343-2.313l-.155-.174-.03-.01c-1.164-1.708-1.938-3.954-1.938-6.482v-4.057Zm6.46 15.016-1.396 3.516-.683-1.05-2.155-3.339a.949.949 0 0 0-.053-.054l-.568-.873.207-1.044c.07.085.141.167.213.248 1.216 1.392 2.732 2.364 4.435 2.596Zm-13.71 5.098c0-.754.362-1.45.983-1.797 3.301-1.963 5.678-2.948 7.794-3.242l3.09 4.756-.392 2.195H15.176V44.13Zm29 1.912H32.701l-.392-2.195 3.124-4.808c2.11.356 4.528 1.34 7.76 3.236.622.406.984 1.101.984 1.855v1.912Z" fill="#fff"/></g><path d="M57.816 29.5c0 15.743-12.722 28.5-28.408 28.5C13.722 58 1 45.243 1 29.5S13.722 1 29.408 1c15.686 0 28.408 12.757 28.408 28.5Z" stroke="#fff" stroke-width="2"/><defs><clipPath id="a"><path fill="#fff" transform="translate(14.14 12.423)" d="M0 0h31.072v34.779H0z"/></clipPath></defs></svg>