<svg width="93" height="13" fill="none" xmlns="http://www.w3.org/2000/svg"><path d="M12.966 4.913a.696.696 0 0 0-.595-.496L8.62 4.06 7.135.437A.691.691 0 0 0 6.5 0a.69.69 0 0 0-.635.438L4.38 4.061l-3.753.356a.698.698 0 0 0-.594.496.74.74 0 0 0 .202.765l2.836 2.596-.836 3.844a.737.737 0 0 0 .269.745.667.667 0 0 0 .759.034L6.5 10.88l3.235 2.018a.665.665 0 0 0 .76-.034.737.737 0 0 0 .269-.745l-.837-3.844 2.837-2.595a.742.742 0 0 0 .202-.766ZM32.966 4.913a.696.696 0 0 0-.595-.496L28.62 4.06 27.135.437A.691.691 0 0 0 26.5 0a.69.69 0 0 0-.635.438L24.38 4.061l-3.753.356a.698.698 0 0 0-.594.496.74.74 0 0 0 .202.765l2.836 2.596-.836 3.844a.737.737 0 0 0 .269.745.667.667 0 0 0 .759.034L26.5 10.88l3.235 2.018a.665.665 0 0 0 .76-.034.737.737 0 0 0 .269-.745l-.837-3.844 2.837-2.595a.742.742 0 0 0 .202-.766ZM52.966 4.913a.696.696 0 0 0-.595-.496L48.62 4.06 47.135.437A.691.691 0 0 0 46.5 0a.69.69 0 0 0-.635.438L44.38 4.061l-3.753.356a.698.698 0 0 0-.594.496.74.74 0 0 0 .202.765l2.836 2.596-.836 3.844a.737.737 0 0 0 .269.745.667.667 0 0 0 .759.034L46.5 10.88l3.235 2.018a.665.665 0 0 0 .76-.034.737.737 0 0 0 .269-.745l-.837-3.844 2.837-2.595a.742.742 0 0 0 .202-.766ZM72.966 4.913a.696.696 0 0 0-.595-.496L68.62 4.06 67.135.437A.691.691 0 0 0 66.5 0a.69.69 0 0 0-.635.438L64.38 4.061l-3.753.356a.698.698 0 0 0-.594.496.74.74 0 0 0 .202.765l2.836 2.596-.836 3.844a.737.737 0 0 0 .269.745.667.667 0 0 0 .759.034L66.5 10.88l3.235 2.018a.665.665 0 0 0 .76-.034.737.737 0 0 0 .269-.745l-.837-3.844 2.836-2.595a.742.742 0 0 0 .203-.766ZM92.966 4.913a.696.696 0 0 0-.595-.496L88.62 4.06 87.135.437A.691.691 0 0 0 86.5 0a.69.69 0 0 0-.635.438L84.38 4.061l-3.753.356a.698.698 0 0 0-.594.496.74.74 0 0 0 .202.765l2.836 2.596-.836 3.844a.737.737 0 0 0 .269.745.667.667 0 0 0 .759.034L86.5 10.88l3.235 2.018a.665.665 0 0 0 .76-.034.737.737 0 0 0 .269-.745l-.837-3.844 2.836-2.595a.742.742 0 0 0 .203-.766Z" fill="#F9D041"/></svg>