<svg width="30" height="33" viewBox="0 0 30 33" fill="none" xmlns="http://www.w3.org/2000/svg">
<g clip-path="url(#clip0)">
<path d="M26.248 8.80347H3.22592L0.424561 32.5809H29.5757L26.248 8.80347Z" stroke="white" stroke-miterlimit="10" stroke-linecap="round" stroke-linejoin="round"/>
<path d="M8.38696 12.8699V6.55663C8.38696 3.16943 11.1713 0.419434 14.6009 0.419434C18.0304 0.419434 20.8148 3.16943 20.8148 6.55663V12.9537" stroke="white" stroke-miterlimit="10" stroke-linecap="round" stroke-linejoin="round"/>
<path d="M8.30227 14.0769C8.83205 14.0769 9.26152 13.6528 9.26152 13.1295C9.26152 12.6063 8.83205 12.1821 8.30227 12.1821C7.77249 12.1821 7.34302 12.6063 7.34302 13.1295C7.34302 13.6528 7.77249 14.0769 8.30227 14.0769Z" fill="#FDFDFF"/>
<path d="M20.8235 14.0769C21.3533 14.0769 21.7828 13.6528 21.7828 13.1295C21.7828 12.6063 21.3533 12.1821 20.8235 12.1821C20.2937 12.1821 19.8643 12.6063 19.8643 13.1295C19.8643 13.6528 20.2937 14.0769 20.8235 14.0769Z" fill="#FDFDFF"/>
</g>
<defs>
<clipPath id="clip0">
<rect width="30" height="33" fill="white"/>
</clipPath>
</defs>
</svg>
