<svg width="255" height="255" viewBox="0 0 255 255" fill="none" xmlns="http://www.w3.org/2000/svg">
<rect width="255" height="255" rx="20" fill="#F04D4D"/>
<g clip-path="url(#clip0)">
<path d="M147.811 200.817H108.151C96.0107 200.817 86.168 190.909 86.168 178.686V77.3138C86.168 65.0914 96.0107 55.1826 108.151 55.1826H147.826C159.967 55.1826 169.809 65.0914 169.809 77.3138V178.701C169.795 190.909 159.952 200.817 147.811 200.817Z" stroke="white" stroke-width="4" stroke-miterlimit="10" stroke-linecap="round" stroke-linejoin="round"/>
<path d="M86.168 73.2832H169.795" stroke="white" stroke-width="4" stroke-miterlimit="10" stroke-linecap="round" stroke-linejoin="round"/>
<path d="M86.168 178.832H169.795" stroke="white" stroke-width="4" stroke-miterlimit="10" stroke-linecap="round" stroke-linejoin="round"/>
<path d="M119.902 188.93H137.073" stroke="white" stroke-width="4" stroke-miterlimit="10" stroke-linecap="round" stroke-linejoin="round"/>
<path d="M154.85 85.0837L98.1931 159.771" stroke="white" stroke-width="4" stroke-miterlimit="10" stroke-linecap="round" stroke-linejoin="round"/>
<path d="M158.146 100.231L116 155.77" stroke="white" stroke-width="4" stroke-miterlimit="10" stroke-linecap="round" stroke-linejoin="round"/>
<path d="M126.522 104.799L94.9268 146.443" stroke="white" stroke-width="4" stroke-miterlimit="10" stroke-linecap="round" stroke-linejoin="round"/>
</g>
<defs>
<clipPath id="clip0">
<rect width="87.963" height="150" fill="white" transform="translate(84 53)"/>
</clipPath>
</defs>
</svg>
