<svg width="255" height="255" viewBox="0 0 255 255" fill="none" xmlns="http://www.w3.org/2000/svg">
<rect width="255" height="255" rx="20" fill="#F04D4D"/>
<g clip-path="url(#clip0)">
<path d="M105.874 133.127V150.974C105.874 159.427 112.659 166.268 121.041 166.268H195.771" stroke="white" stroke-width="4" stroke-miterlimit="10" stroke-linecap="round" stroke-linejoin="round"/>
<path d="M195.771 79.2393H105.874" stroke="white" stroke-width="4" stroke-miterlimit="10" stroke-linecap="round" stroke-linejoin="round"/>
<path d="M61.7249 157.171V123.361C61.7249 116.569 65.1418 110.199 70.9431 106.183L96.9019 88.262C102.433 84.4448 109.734 83.7507 115.978 86.4526L141.887 97.706C146.779 99.8378 148.844 105.341 146.484 109.926C144.198 114.314 138.667 116.197 133.972 114.165L113.421 105.316C113.421 105.316 108.603 116.098 102.04 123.981C95.4761 131.863 84.9549 130.624 84.9549 130.624" stroke="white" stroke-width="4" stroke-miterlimit="10" stroke-linecap="round" stroke-linejoin="round"/>
<path d="M174.507 141.604C184.839 141.604 193.214 133.159 193.214 122.741C193.214 112.323 184.839 103.878 174.507 103.878C164.176 103.878 155.8 112.323 155.8 122.741C155.8 133.159 164.176 141.604 174.507 141.604Z" stroke="white" stroke-width="4" stroke-miterlimit="10" stroke-linecap="round" stroke-linejoin="round"/>
<path d="M126.671 147.38C129.902 147.38 132.521 144.739 132.521 141.48C132.521 138.222 129.902 135.581 126.671 135.581C123.439 135.581 120.82 138.222 120.82 141.48C120.82 144.739 123.439 147.38 126.671 147.38Z" stroke="white" stroke-width="4" stroke-miterlimit="10" stroke-linecap="round" stroke-linejoin="round"/>
<path d="M96.7543 157.171H48.2292V167.433H96.7543V157.171Z" stroke="white" stroke-width="4" stroke-miterlimit="10" stroke-linecap="round" stroke-linejoin="round"/>
</g>
<defs>
<clipPath id="clip0">
<rect width="150" height="90.6475" fill="white" transform="translate(47 78)"/>
</clipPath>
</defs>
</svg>
