<svg width="130" height="130" viewBox="0 0 130 130" fill="none" xmlns="http://www.w3.org/2000/svg">
<circle cx="65" cy="65" r="65" fill="#F04D4D"/>
<path d="M91.9374 72.9285C90.1304 72.9285 88.3716 72.3264 86.7814 71.1704C83.9866 69.1475 82.0833 65.6795 81.6737 61.9226L80.734 53.1082C80.3967 50.0016 78.8307 47.3043 76.4214 45.7389C74.3253 44.3662 71.8677 44.029 69.4825 44.7756L58.8574 48.1472C55.7976 49.1105 52.4727 48.7252 49.7261 47.0634C47.1481 45.4981 45.4375 42.9934 44.9316 40.0312C44.7388 38.8993 44.5702 37.4062 44.3774 35.6722C44.0642 32.6619 43.6546 28.9049 42.8836 25.9668C42.1367 23.101 41.1971 21.4874 40.1852 21.3911C39.5347 21.3188 39.0287 20.7409 39.101 20.0906C39.1733 19.4404 39.7515 18.9346 40.402 19.0069C45.052 19.4404 45.9917 28.3029 46.7626 35.4314C46.9554 37.1172 47.0999 38.5863 47.2927 39.6218C47.7023 41.9097 49.0033 43.8123 50.9789 45.0164C53.0751 46.2928 55.7494 46.6059 58.1105 45.8593L68.7356 42.4877C71.8196 41.5244 74.9999 41.9579 77.7224 43.74C80.734 45.7148 82.6856 49.0382 83.0952 52.8674L84.0348 61.6818C84.3721 64.7403 85.9382 67.6302 88.1547 69.2438C89.2389 70.0385 90.9977 70.8814 93.142 70.3998C93.9612 70.2312 94.9731 69.9663 96.0332 69.7014C101.406 68.3286 108.754 66.4261 113.38 69.316C113.934 69.6773 114.103 70.4238 113.766 70.9778C113.429 71.5317 112.658 71.7002 112.103 71.3631C108.369 69.027 101.31 70.8333 96.6356 72.0374C95.5514 72.3264 94.5154 72.5913 93.648 72.7599C93.0939 72.8803 92.5156 72.9285 91.9374 72.9285Z" fill="white"/>
<path d="M84.1072 89.0639C82.3002 89.0639 80.5414 88.4618 78.9512 87.3058C76.1564 85.2829 74.2531 81.8149 73.8435 78.058L72.9038 69.2437C72.5665 66.137 71.0005 63.4397 68.5912 61.8743C66.495 60.5016 64.0375 60.1644 61.6523 60.911L51.0272 64.2826C47.9674 65.2459 44.6425 64.8606 41.8959 63.1989C39.3179 61.6335 37.6073 59.1289 37.1014 56.1667C36.9086 55.0348 36.74 53.5416 36.5472 51.8077C36.234 48.7973 35.8244 45.0404 35.0534 42.1022C34.3306 39.2123 33.3669 37.5987 32.355 37.5024C31.7045 37.4302 31.1985 36.8522 31.2708 36.2019C31.3431 35.5517 31.9213 35.046 32.5718 35.1182C37.2218 35.5276 38.1855 44.3901 38.9565 51.5187C39.1493 53.2045 39.2938 54.6735 39.4866 55.7091C39.8962 57.997 41.1972 59.8995 43.1728 61.1036C45.2689 62.38 47.9433 62.6931 50.3044 61.9466L60.9295 58.5749C64.0135 57.6116 67.1938 58.0451 69.9163 59.8273C72.9279 61.8021 74.8795 65.1255 75.2891 68.9547L76.2287 77.769C76.566 80.8275 78.1321 83.7175 80.3486 85.331C81.4328 86.1258 83.1916 86.9687 85.3359 86.487C86.1551 86.3184 87.167 86.0535 88.2271 85.7886C93.5999 84.4159 100.948 82.5133 105.574 85.4033C106.128 85.7645 106.297 86.5111 105.96 87.065C105.598 87.6189 104.851 87.7875 104.297 87.4503C100.563 85.1143 93.5035 86.9205 88.8294 88.1247C87.7452 88.4137 86.7092 88.6786 85.8419 88.8471C85.2636 89.0157 84.6854 89.0639 84.1072 89.0639Z" fill="white"/>
<path d="M75.8433 104.959C74.0363 104.959 72.2775 104.357 70.6873 103.201C67.8925 101.178 65.9891 97.7098 65.5796 93.9529L64.6399 85.1386C64.3026 82.0319 62.7366 79.3346 60.3272 77.7692C58.2311 76.3965 55.7736 76.0593 53.3884 76.8059L42.7633 80.1775C39.7035 81.1408 36.3786 80.7555 33.632 79.0938C31.054 77.5284 29.3434 75.0238 28.8374 72.0616C28.6447 70.9297 28.476 69.4365 28.2833 67.7026C27.9701 64.6922 27.5605 60.9353 26.7895 57.9972C26.0426 55.1313 25.103 53.5177 24.0911 53.4214C23.4406 53.3492 22.9346 52.7712 23.0069 52.1209C23.0792 51.4466 23.6574 50.965 24.3079 51.0372C28.9579 51.4707 29.8975 60.3332 30.6685 67.4617C30.8613 69.1475 31.0058 70.6166 31.1986 71.6522C31.6082 73.94 32.9092 75.8426 34.8848 77.0467C36.9809 78.3231 39.6553 78.6362 42.0164 77.8896L52.6415 74.518C55.7254 73.5547 58.9057 73.9882 61.6283 75.7703C64.6399 77.7451 66.5915 81.0686 67.0011 84.8977L67.9407 93.7121C68.278 96.7706 69.8441 99.6606 72.0606 101.274C73.1448 102.069 74.9036 102.912 77.0479 102.43C77.8671 102.262 78.879 101.997 79.9391 101.732C85.3119 100.359 92.6603 98.4564 97.2862 101.346C97.8403 101.708 98.009 102.454 97.6717 103.008C97.3103 103.562 96.5634 103.731 96.0093 103.393C92.2748 101.057 85.2155 102.864 80.5414 104.068C79.4572 104.357 78.4212 104.622 77.5539 104.79C76.9997 104.911 76.4215 104.959 75.8433 104.959Z" fill="white"/>
</svg>
