<svg width="133" height="130" viewBox="0 0 133 130" fill="none" xmlns="http://www.w3.org/2000/svg">
<circle cx="68" cy="65" r="65" fill="#F04D4D"/>
<path d="M115.099 97.0607C113.833 95.5997 112.019 96.1985 110.562 96.7014C108.939 97.2523 107.793 97.5637 106.814 96.8691C105.692 96.0787 104.26 95.0249 102.445 93.6597C99.5325 91.4802 95.9274 88.7498 91.3913 85.5883C83.6799 80.2234 70.8354 66.6673 68.2331 63.889C68.1854 53.686 66.2754 26.1188 65.1772 19.724C64.6042 16.4427 62.933 13.9758 60.1874 12.3711C57.7761 10.958 54.5769 10.2156 50.4228 10.1198C43.0456 9.92815 1.59959 10.024 1.19372 10.024C0.525237 10.024 0 10.5748 0 11.2215C0 11.8921 0.525237 12.419 1.19372 12.419C1.59959 12.419 43.0217 12.2993 50.3512 12.5148C57.991 12.7304 61.9541 15.1494 62.8136 20.1311C63.7925 25.8793 65.8218 54.165 65.8218 64.3441C65.8218 76.3673 68.1854 81.6844 69.5701 83.816C69.9282 84.3429 70.2624 84.9417 70.5728 85.5644C70.5728 85.5883 70.5967 85.6123 70.5967 85.6362C71.9575 88.3427 72.8409 91.6958 72.9125 94.5459C72.9841 97.1805 73.8914 104.964 77.0428 106.138C78.2842 106.593 79.5973 107.647 79.9077 108.413C79.9316 108.461 79.9316 108.509 79.9555 108.533C78.5946 108.916 73.4616 107.671 72.5783 106.713C72.2679 106.378 71.8143 105.683 71.289 104.869C69.7611 102.521 67.4691 98.9768 63.8641 96.6535C62.5271 95.7913 61.0469 95.0728 59.6144 94.3782C57.2986 93.2525 54.9112 92.1029 54.4576 90.8096C54.3621 90.5222 54.2666 90.0671 54.6724 89.2767C55.1977 88.175 55.8423 87.2649 56.463 86.3787C58.3014 83.7441 60.0442 81.2772 57.5135 75.8404C57.1076 75.0021 56.6779 74.0681 56.2004 73.0861C53.1206 66.6673 48.489 56.9673 47.152 47.7223C45.8628 38.8845 47.343 32.1065 47.8205 30.2383L52.1895 28.8731C52.8102 28.6815 53.1684 28.0109 52.9774 27.3642C52.7864 26.7415 52.1179 26.3823 51.4733 26.5739L4.48839 41.3275C3.86766 41.5191 3.50954 42.1897 3.70054 42.8364C3.86766 43.3393 4.32127 43.6747 4.84651 43.6747C4.96588 43.6747 5.08525 43.6507 5.20463 43.6267L28.6971 36.2499L44.7646 47.8181C44.7646 47.89 44.7884 47.9858 44.7884 48.0576C46.1254 57.2068 50.4944 66.6433 53.622 73.1819C48.0831 69.6372 37.2441 62.1646 31.5859 55.0033C28.8642 51.5544 24.2325 51.4586 19.3144 51.3868C18.9085 51.3868 18.5027 51.3628 18.0968 51.3628C11.5791 51.2191 4.89426 51.3628 4.82263 51.3628C4.15415 51.3868 3.65279 51.9137 3.65279 52.5843C3.67666 53.2549 4.22577 53.7818 4.87038 53.7579C4.94201 53.7579 11.5552 53.6142 18.0252 53.7579C18.4311 53.7579 18.8608 53.7818 19.2667 53.7818C23.7789 53.8537 27.6943 53.9255 29.7237 56.4883C37.2441 66.0446 52.9774 75.6728 55.5319 77.2056C57.2748 81.1335 56.2243 82.6184 54.5531 85.0135C53.9085 85.9236 53.1922 86.9535 52.5715 88.2229C51.9985 89.4204 51.8791 90.5461 52.2611 91.6C53.049 93.8513 55.7707 95.1686 58.6356 96.5577C59.9964 97.2284 61.4289 97.899 62.6226 98.6893C65.7979 100.749 67.9227 104.03 69.3313 106.21C69.9282 107.144 70.4296 107.886 70.8593 108.365C72.1724 109.802 76.6369 111 79.287 111C79.6212 111 79.9077 110.976 80.1703 110.952C81.1253 110.808 81.7938 110.425 82.1042 109.779C82.4384 109.108 82.4623 108.341 82.1519 107.551C81.5073 105.898 79.478 104.509 77.8784 103.911C76.8518 103.527 75.4193 99.0247 75.2999 94.498C75.2522 92.6059 74.8702 90.5222 74.2733 88.5103C76.5892 90.4264 78.714 92.7975 78.6185 94.5219C78.4991 96.8691 78.5946 99.7671 80.3852 101.492C81.5312 102.617 83.2501 103.096 85.4466 102.905C85.8286 102.881 86.2344 102.833 86.6164 102.809C91.0332 102.426 96.5004 101.947 99.2699 103.671C101.371 104.988 103.878 105.659 106.289 105.659C108.151 105.659 109.966 105.252 111.541 104.438C114.12 103.096 115.6 101.611 115.91 100.007C116.101 99.2881 116.054 98.1864 115.099 97.0607ZM31.562 35.3398L45.2182 31.0526C44.6691 33.6393 43.9767 38.4534 44.4542 44.6087L31.562 35.3398ZM113.618 99.5516C113.475 100.342 112.305 101.372 110.515 102.306C107.674 103.791 103.591 103.503 100.607 101.611C97.1689 99.4558 91.5107 99.9587 86.497 100.39C86.0912 100.414 85.7092 100.462 85.3272 100.486C83.8231 100.605 82.7726 100.366 82.1042 99.7432C81.2685 98.9289 80.9343 97.3002 81.0537 94.5938C81.2685 90.139 74.3211 85.3488 72.626 84.2471C72.2918 83.6244 71.9575 83.0256 71.5994 82.4747C70.6922 81.0856 68.6629 76.99 68.3047 67.4098C72.8648 72.1999 83.3218 82.858 90.0305 87.5283C94.5427 90.6659 98.1239 93.3723 101.013 95.5279C102.851 96.917 104.307 97.9948 105.453 98.8091C107.507 100.222 109.703 99.4797 111.326 98.9528C112.138 98.6654 113.069 98.354 113.284 98.6175C113.642 99.0486 113.666 99.336 113.618 99.5516Z" fill="white"/>
</svg>
