<svg width="130" height="130" viewBox="0 0 130 130" fill="none" xmlns="http://www.w3.org/2000/svg">
<circle cx="65" cy="65" r="65" fill="#F04D4D"/>
<mask id="mask0" mask-type="alpha" maskUnits="userSpaceOnUse" x="0" y="0" width="130" height="130">
<circle cx="65" cy="65" r="65" fill="#F04D4D"/>
</mask>
<g mask="url(#mask0)">
<path d="M67.1131 115.33C61.4373 115.33 56.5566 113.391 53.0451 109.71C49.2465 105.743 47.2368 99.8811 47.2368 92.7404C47.2368 82.9771 50.9029 75.5279 54.7898 67.6599C57.6388 61.8636 60.5981 55.869 62.2766 48.53C65.8322 32.9704 65.9868 10.0717 65.9868 9.10202V9.07998C65.9868 8.46289 66.4948 7.97803 67.091 7.97803C67.7094 7.97803 68.1953 8.48493 68.1953 9.07998C68.1953 10.2481 68.107 35.7914 71.243 47.5602C73.4956 56.0233 76.7642 62.7011 79.6352 68.5855C83.5663 76.6518 86.9674 83.6162 86.9674 92.6963C86.9674 99.8149 84.9576 105.677 81.1591 109.666C77.6476 113.391 72.7889 115.33 67.1131 115.33ZM66.8923 33.0365C66.3402 38.4801 65.5451 44.1001 64.4188 49.0148C62.6962 56.5963 59.6706 62.7231 56.7554 68.6296C52.9789 76.2772 49.4232 83.484 49.4232 92.7404C49.4232 105.325 56.2032 113.127 67.091 113.127C77.9788 113.127 84.7589 105.325 84.7589 92.7404C84.7589 84.1672 81.4683 77.4012 77.6476 69.5993C74.7324 63.6267 71.4197 56.8387 69.1229 48.1773C68.0628 44.1883 67.3561 38.6564 66.8923 33.0365Z" fill="white"/>
<path d="M144.896 69.0483H87.0115C86.2385 69.0483 85.7085 69.8197 85.9956 70.547V70.569C86.0839 70.8115 95.6246 95.5834 86.4815 110.416C83.4337 115.374 78.5751 118.702 71.9938 120.333C68.5707 121.193 64.9929 121.193 61.5698 120.333C55.0106 118.702 50.1519 115.374 47.1042 110.416C37.9611 95.6054 47.4797 70.8335 47.5901 70.569V70.547C47.8772 69.8417 47.3472 69.0704 46.5742 69.0704H-2.91784C-3.51413 69.0483 -4 69.5332 -4 70.1503V70.1723C-4 70.7674 -3.51413 71.2743 -2.91784 71.2743H44.9841C44.167 73.6545 42.621 78.6133 41.6935 84.6079C39.9708 95.6936 41.1855 105.016 45.227 111.562C49.3348 118.218 56.159 122.78 65.8984 123C77.1837 123.264 84.273 118.218 88.3807 111.562C92.4223 105.016 93.6369 95.6936 91.9143 84.6079C90.9867 78.5913 89.4408 73.6325 88.6237 71.2743H144.918C145.514 71.2743 146.022 70.7894 146.022 70.1723V70.1503C146 69.5332 145.514 69.0483 144.896 69.0483Z" fill="white"/>
</g>
</svg>
