<svg width="130" height="138" viewBox="0 0 130 138" fill="none" xmlns="http://www.w3.org/2000/svg">
<circle cx="65" cy="65" r="65" fill="#F04D4D"/>
<path d="M89.0062 40.8626H83.2241V16.3263C83.2241 15.5836 82.6433 15 81.904 15H50.723C49.9837 15 49.4029 15.5836 49.4029 16.3263V40.8626H42.9871C42.2478 40.8626 41.667 41.4462 41.667 42.1889V96.2485C41.667 109.326 52.0167 119.989 64.9274 120.44L65.0066 136.674C65.0066 137.416 65.6138 138 66.3267 138C67.066 138 67.6468 137.39 67.6468 136.674L67.5676 120.44C80.2407 119.75 90.3528 109.167 90.3528 96.2485V42.1889C90.3264 41.4727 89.7455 40.8626 89.0062 40.8626ZM52.0431 17.6526H80.6103V40.8626H52.0431V17.6526ZM87.6861 96.2485C87.6861 108.132 78.0493 117.814 66.2211 117.814H65.7723C53.944 117.814 44.3072 108.132 44.3072 96.2485V43.5152H50.723H81.9304H87.7125V96.2485H87.6861Z" fill="white"/>
<path d="M59.6204 20.7825C58.8811 20.7825 58.3003 21.366 58.3003 22.1088V36.4327C58.3003 37.1754 58.8811 37.759 59.6204 37.759C60.3597 37.759 60.9405 37.1754 60.9405 36.4327V22.1088C60.9405 21.366 60.3597 20.7825 59.6204 20.7825Z" fill="white"/>
<path d="M72.5579 20.7825C71.8186 20.7825 71.2378 21.366 71.2378 22.1088V36.4327C71.2378 37.1754 71.8186 37.759 72.5579 37.759C73.2972 37.759 73.878 37.1754 73.878 36.4327V22.1088C73.878 21.366 73.2972 20.7825 72.5579 20.7825Z" fill="white"/>
<path d="M65.7723 92.7205C62.1816 92.7205 59.251 95.6648 59.251 99.2723C59.251 102.88 62.1816 105.824 65.7723 105.824C69.363 105.824 72.2937 102.88 72.2937 99.2723C72.2937 95.6648 69.363 92.7205 65.7723 92.7205ZM65.7723 103.172C63.6338 103.172 61.8912 101.421 61.8912 99.2723C61.8912 97.1237 63.6602 95.373 65.7723 95.373C67.8845 95.373 69.6535 97.1237 69.6535 99.2723C69.6535 101.421 67.9109 103.172 65.7723 103.172Z" fill="white"/>
</svg>
