<svg width="272" height="34" viewBox="0 0 272 34" fill="none" xmlns="http://www.w3.org/2000/svg">
<path d="M6.25598 32.9998H11.454L15.18 12.2078C15.502 10.3218 15.778 8.48184 16.008 6.22784H16.238C16.422 8.43584 16.652 10.2298 16.974 12.1618L20.424 32.9998H25.668L31.418 0.799843H26.864L23.782 21.5458C23.552 23.2938 23.322 24.9958 23.046 27.8018H22.862C22.678 25.3638 22.494 23.6618 22.264 22.0058L18.906 0.799843H13.478L9.70598 22.1898C9.42998 23.7538 9.24598 25.3638 9.06198 27.6638H8.87798C8.73998 25.3178 8.50998 23.1558 8.27998 21.4998L5.33598 0.799843H0.781982L6.25598 32.9998Z" fill="white"/>
<path d="M44.137 33.4598C50.761 33.4598 53.383 28.8598 53.383 16.8538C53.383 4.89384 50.807 0.339844 44.229 0.339844C37.605 0.339844 34.983 4.93985 34.983 16.9458C34.983 28.9518 37.513 33.4598 44.137 33.4598ZM44.229 29.4578C40.687 29.4578 39.583 26.3298 39.583 16.8538C39.583 7.33184 40.641 4.34184 44.137 4.34184C47.679 4.34184 48.783 7.46985 48.783 16.9458C48.783 26.4678 47.725 29.4578 44.229 29.4578Z" fill="white"/>
<path d="M58.0024 32.9998H62.5104L64.0744 15.7038C64.1664 14.3238 64.2124 12.8978 64.2124 11.5178C64.2124 9.95384 64.1664 8.43584 64.1204 6.96384H64.3504C64.7184 9.63184 65.2244 12.4378 65.7304 15.0598L69.2264 32.9998H73.8264L77.4604 15.1058C78.0124 12.4378 78.4264 9.67784 78.8404 6.96384H79.0704C79.0244 8.57384 78.9784 10.2758 78.9784 11.9778C78.9784 13.2198 79.0244 14.4618 79.1164 15.7038L80.6344 32.9998H85.0964L82.1064 0.799843H76.7244L72.6304 21.7758C72.2164 24.0298 71.8944 26.1918 71.6644 28.3078H71.4344C71.2964 26.1458 70.9744 24.0298 70.5604 21.7758L66.4664 0.799843H61.0844L58.0024 32.9998Z" fill="white"/>
<path d="M104.111 32.9998H108.757L101.443 0.799843H96.0153L88.5633 32.9998H93.1173L94.9113 24.2138H102.317L104.111 32.9998ZM97.4873 11.3798C97.9013 9.30984 98.2233 7.33184 98.4993 5.26184H98.7293C99.0053 7.33184 99.3273 9.30984 99.7413 11.3798L101.673 20.5798H95.5553L97.4873 11.3798Z" fill="white"/>
<path d="M113.716 32.9998H117.948V16.2098C117.948 14.3698 117.856 13.1738 116.936 5.95185H117.166C117.718 8.11385 118.546 11.1958 119.604 14.0478L126.274 32.9998H131.472V0.799843H127.194V17.5898C127.194 19.7058 127.424 22.4658 128.252 27.9858H128.022C127.47 25.8238 126.734 23.1558 125.722 20.2578L118.868 0.799843H113.716V32.9998Z" fill="white"/>
<path d="M153.359 33.4598C158.879 33.4598 162.329 29.7338 162.329 23.7998C162.329 19.7518 160.213 16.7618 155.521 13.8638C152.025 11.6558 150.967 10.3218 150.967 8.02184C150.967 5.62984 152.393 4.24985 154.831 4.24985C156.487 4.24985 158.511 4.93985 160.213 6.13584L161.823 2.59384C159.477 1.16784 156.855 0.339844 154.463 0.339844C149.587 0.339844 146.413 3.32984 146.413 8.02184C146.413 11.9778 148.161 14.6458 152.623 17.3598C156.579 19.7518 157.729 21.4078 157.729 24.2598C157.729 27.4798 156.027 29.5038 153.175 29.5038C151.197 29.5038 148.851 28.5838 146.827 27.0658L145.539 30.9298C147.839 32.5398 150.691 33.4598 153.359 33.4598Z" fill="white"/>
<path d="M180.735 0.799843V14.5078H172.271V0.799843H167.809V32.9998H172.271V18.4178H180.735V32.9998H185.197V0.799843H180.735Z" fill="white"/>
<path d="M205.707 32.9998H210.353L203.039 0.799843H197.611L190.159 32.9998H194.713L196.507 24.2138H203.913L205.707 32.9998ZM199.083 11.3798C199.497 9.30984 199.819 7.33184 200.095 5.26184H200.325C200.601 7.33184 200.923 9.30984 201.337 11.3798L203.269 20.5798H197.151L199.083 11.3798Z" fill="white"/>
<path d="M218.577 32.9998H223.637L231.181 0.799843H226.535L222.349 21.5458C221.889 23.7078 221.567 26.0998 221.245 28.4458H221.015C220.785 26.0998 220.509 23.7078 220.049 21.5458L215.771 0.799843H211.125L218.577 32.9998Z" fill="white"/>
<path d="M240.56 29.0898V18.3258H249.668V14.5998H240.56V4.70985H250.128V0.799843H236.098V32.9998H250.312V29.0898H240.56Z" fill="white"/>
<path d="M263.067 19.0158C267.299 19.0158 271.209 16.7618 271.209 9.67784C271.209 2.59384 267.299 0.339844 263.067 0.339844C258.927 0.339844 254.925 2.59384 254.925 9.67784C254.925 16.7618 258.835 19.0158 263.067 19.0158ZM263.205 16.8538C260.307 16.8538 257.225 15.5658 257.225 9.67784C257.225 3.78984 260.307 2.50184 263.205 2.50184C266.057 2.50184 268.955 3.97384 268.955 9.67784C268.955 15.3818 266.057 16.8538 263.205 16.8538ZM260.445 14.2778H262.423V10.5518H262.883L264.033 14.2778H266.195L264.769 10.1378C265.597 9.63184 266.195 8.75784 266.195 7.51584C266.195 5.72184 265.275 4.66384 263.159 4.66384H260.445V14.2778ZM262.423 8.80384V6.50384H263.067C263.803 6.50384 264.125 6.82585 264.125 7.60784C264.125 8.38984 263.757 8.80384 262.929 8.80384H262.423Z" fill="white"/>
</svg>
