<svg width="177" height="23" viewBox="0 0 177 23" fill="none" xmlns="http://www.w3.org/2000/svg">
<path d="M4.08001 22H7.47001L9.90001 8.43995C10.11 7.20995 10.29 6.00995 10.44 4.53995H10.59C10.71 5.97995 10.86 7.14995 11.07 8.40995L13.32 22H16.74L20.49 0.999951H17.52L15.51 14.53C15.36 15.67 15.21 16.78 15.03 18.61H14.91C14.79 17.02 14.67 15.91 14.52 14.83L12.33 0.999951H8.79001L6.33001 14.95C6.15001 15.97 6.03001 17.02 5.91001 18.52H5.79001C5.70001 16.99 5.55001 15.58 5.40001 14.5L3.48001 0.999951H0.51001L4.08001 22Z" fill="#272727"/>
<path d="M28.785 22.3C33.105 22.3 34.815 19.3 34.815 11.47C34.815 3.66995 33.135 0.699951 28.845 0.699951C24.525 0.699951 22.815 3.69995 22.815 11.53C22.815 19.36 24.465 22.3 28.785 22.3ZM28.845 19.69C26.535 19.69 25.815 17.65 25.815 11.47C25.815 5.25995 26.505 3.30995 28.785 3.30995C31.095 3.30995 31.815 5.34995 31.815 11.53C31.815 17.74 31.125 19.69 28.845 19.69Z" fill="#272727"/>
<path d="M37.8277 22H40.7677L41.7877 10.72C41.8477 9.81995 41.8777 8.88995 41.8777 7.98995C41.8777 6.96995 41.8477 5.97995 41.8177 5.01995H41.9677C42.2077 6.75995 42.5377 8.58995 42.8677 10.3L45.1477 22H48.1477L50.5177 10.33C50.8777 8.58995 51.1477 6.78995 51.4177 5.01995H51.5677C51.5377 6.06995 51.5077 7.17995 51.5077 8.28995C51.5077 9.09995 51.5377 9.90995 51.5977 10.72L52.5877 22H55.4977L53.5477 0.999951H50.0377L47.3677 14.68C47.0977 16.15 46.8877 17.56 46.7377 18.94H46.5877C46.4977 17.53 46.2877 16.15 46.0177 14.68L43.3477 0.999951H39.8377L37.8277 22Z" fill="#272727"/>
<path d="M67.8987 22H70.9287L66.1587 0.999951H62.6187L57.7587 22H60.7287L61.8987 16.27H66.7287L67.8987 22ZM63.5787 7.89995C63.8487 6.54995 64.0587 5.25995 64.2387 3.90995H64.3887C64.5687 5.25995 64.7787 6.54995 65.0487 7.89995L66.3087 13.9H62.3187L63.5787 7.89995Z" fill="#272727"/>
<path d="M74.1626 22H76.9226V11.05C76.9226 9.84995 76.8626 9.06995 76.2626 4.35995H76.4126C76.7726 5.76995 77.3126 7.77995 78.0026 9.63995L82.3526 22H85.7426V0.999951H82.9526V11.95C82.9526 13.33 83.1026 15.13 83.6426 18.73H83.4926C83.1326 17.32 82.6526 15.58 81.9926 13.69L77.5226 0.999951H74.1626V22Z" fill="#272727"/>
<path d="M100.017 22.3C103.617 22.3 105.867 19.87 105.867 16C105.867 13.36 104.487 11.41 101.427 9.51995C99.1467 8.07995 98.4567 7.20995 98.4567 5.70995C98.4567 4.14995 99.3867 3.24995 100.977 3.24995C102.057 3.24995 103.377 3.69995 104.487 4.47995L105.537 2.16995C104.007 1.23995 102.297 0.699951 100.737 0.699951C97.5567 0.699951 95.4867 2.64995 95.4867 5.70995C95.4867 8.28995 96.6267 10.03 99.5367 11.8C102.117 13.36 102.867 14.44 102.867 16.3C102.867 18.4 101.757 19.72 99.8967 19.72C98.6067 19.72 97.0767 19.12 95.7567 18.13L94.9167 20.65C96.4167 21.7 98.2767 22.3 100.017 22.3Z" fill="#272727"/>
<path d="M117.871 0.999951V9.93995H112.351V0.999951H109.441V22H112.351V12.49H117.871V22H120.781V0.999951H117.871Z" fill="#272727"/>
<path d="M134.156 22H137.186L132.417 0.999951H128.876L124.016 22H126.986L128.156 16.27H132.986L134.156 22ZM129.837 7.89995C130.107 6.54995 130.316 5.25995 130.496 3.90995H130.646C130.826 5.25995 131.036 6.54995 131.307 7.89995L132.566 13.9H128.576L129.837 7.89995Z" fill="#272727"/>
<path d="M142.55 22H145.85L150.77 0.999951H147.74L145.01 14.53C144.71 15.94 144.5 17.5 144.29 19.03H144.14C143.99 17.5 143.81 15.94 143.51 14.53L140.72 0.999951H137.69L142.55 22Z" fill="#272727"/>
<path d="M156.887 19.45V12.43H162.827V9.99995H156.887V3.54995H163.127V0.999951H153.977V22H163.247V19.45H156.887Z" fill="#272727"/>
<path d="M171.566 12.88C174.326 12.88 176.876 11.41 176.876 6.78995C176.876 2.16995 174.326 0.699951 171.566 0.699951C168.866 0.699951 166.256 2.16995 166.256 6.78995C166.256 11.41 168.806 12.88 171.566 12.88ZM171.656 11.47C169.766 11.47 167.756 10.63 167.756 6.78995C167.756 2.94995 169.766 2.10995 171.656 2.10995C173.516 2.10995 175.406 3.06995 175.406 6.78995C175.406 10.51 173.516 11.47 171.656 11.47ZM169.856 9.78995H171.146V7.35995H171.446L172.196 9.78995H173.606L172.676 7.08995C173.216 6.75995 173.606 6.18995 173.606 5.37995C173.606 4.20995 173.006 3.51995 171.626 3.51995H169.856V9.78995ZM171.146 6.21995V4.71995H171.566C172.046 4.71995 172.256 4.92995 172.256 5.43995C172.256 5.94995 172.016 6.21995 171.476 6.21995H171.146Z" fill="#272727"/>
</svg>
