<svg width="264" height="16" viewBox="0 0 264 16" fill="none" xmlns="http://www.w3.org/2000/svg">
<path d="M191.817 7.06404C188.056 8.94412 187.9 12.8612 187.586 15.0547C188.213 14.2713 189.645 12.1006 191.346 10.8243C193.227 9.41415 194.793 9.57083 195.577 9.88419V14.5846L201.687 8.47408L195.577 1.89355V6.12396C195.42 5.96728 194.378 5.78337 191.817 7.06404Z" fill="#C4C4C4"/>
<path d="M0.51123 12.6446V8.1521C0.51123 7.77333 0.726565 7.42546 1.02126 7.1875C1.40569 6.87708 1.9113 6.37403 2.39138 5.65392C2.96774 4.78938 3.39686 3.31751 3.63644 2.25381C3.74384 1.77692 4.15978 1.42358 4.64862 1.42358H4.68164C5.23393 1.42358 5.68164 1.8713 5.68164 2.42358V4.65392C5.68164 5.20621 6.12936 5.65392 6.68164 5.65392H9.58945C10.2343 5.65392 10.7106 6.25525 10.5629 6.88296L9.15331 12.8736C9.04702 13.3253 8.64394 13.6446 8.17989 13.6446H1.51123C0.958946 13.6446 0.51123 13.1968 0.51123 12.6446Z" fill="#C4C4C4"/>
<path d="M23.2191 12.9536H17.3949V4.229H19.5863V11.2896H23.2191V12.9536ZM26.1957 12.9536H24.1449V6.37354H26.1957V12.9536ZM26.2543 5.43604H24.0863V3.83643H26.2543V5.43604ZM34.3519 12.9536H31.9144L30.1332 10.0884L29.8168 10.5161V12.9536H27.766V3.83643H29.8168V8.9458L31.7621 6.37354H34.182L31.8793 9.20947L34.3519 12.9536ZM38.3656 13.1294C37.1234 13.1294 36.1703 12.8325 35.5062 12.2388C34.8461 11.645 34.516 10.7993 34.516 9.70166C34.516 8.62744 34.8246 7.77002 35.4418 7.12939C36.059 6.48877 36.9222 6.16846 38.0316 6.16846C39.0394 6.16846 39.7972 6.43994 40.3051 6.98291C40.8129 7.52588 41.0668 8.30322 41.0668 9.31494V10.0532H36.5726C36.5922 10.3579 36.6566 10.6138 36.766 10.8208C36.8754 11.0239 37.0199 11.186 37.1996 11.3071C37.3754 11.4282 37.5804 11.5161 37.8148 11.5708C38.0492 11.6216 38.3051 11.647 38.5824 11.647C38.8207 11.647 39.0551 11.6216 39.2855 11.5708C39.516 11.5161 39.7269 11.4458 39.9183 11.3599C40.0863 11.2856 40.2406 11.2056 40.3812 11.1196C40.5258 11.0337 40.6429 10.9575 40.7328 10.8911H40.9496V12.5845C40.7816 12.6509 40.6273 12.7134 40.4867 12.772C40.35 12.8267 40.1605 12.8833 39.9183 12.9419C39.6957 13.0005 39.4652 13.0454 39.2269 13.0767C38.9926 13.1118 38.7054 13.1294 38.3656 13.1294ZM39.0453 8.81689C39.0336 8.3833 38.932 8.05322 38.7406 7.82666C38.5531 7.6001 38.264 7.48682 37.8734 7.48682C37.475 7.48682 37.1625 7.60596 36.9359 7.84424C36.7133 8.08252 36.5902 8.40674 36.5668 8.81689H39.0453Z" fill="#C4C4C4"/>
<path d="M100.664 13.1699C99.3555 13.1699 98.3164 12.7754 97.5469 11.9863C96.7773 11.1934 96.3926 10.0801 96.3926 8.64648C96.3926 7.26367 96.7773 6.16211 97.5469 5.3418C98.3203 4.51758 99.3613 4.10547 100.67 4.10547C101.018 4.10547 101.33 4.125 101.607 4.16406C101.885 4.20312 102.15 4.25781 102.404 4.32812C102.604 4.38672 102.82 4.4668 103.055 4.56836C103.289 4.66992 103.479 4.75781 103.623 4.83203V6.91211H103.4C103.295 6.81836 103.162 6.70703 103.002 6.57812C102.842 6.44531 102.66 6.31641 102.457 6.19141C102.254 6.06641 102.029 5.96094 101.783 5.875C101.541 5.78516 101.287 5.74023 101.021 5.74023C100.705 5.74023 100.414 5.79102 100.148 5.89258C99.8867 5.99023 99.6367 6.16211 99.3984 6.4082C99.1797 6.63086 99 6.93164 98.8594 7.31055C98.7227 7.68945 98.6543 8.13672 98.6543 8.65234C98.6543 9.19531 98.7266 9.65234 98.8711 10.0234C99.0156 10.3906 99.2051 10.6875 99.4395 10.9141C99.666 11.1328 99.918 11.291 100.195 11.3887C100.477 11.4863 100.756 11.5352 101.033 11.5352C101.322 11.5352 101.598 11.4883 101.859 11.3945C102.121 11.2969 102.342 11.1895 102.521 11.0723C102.717 10.9512 102.889 10.8281 103.037 10.7031C103.186 10.5781 103.314 10.4668 103.424 10.3691H103.623V12.4199C103.463 12.4941 103.277 12.5801 103.066 12.6777C102.855 12.7715 102.639 12.8516 102.416 12.918C102.143 13 101.887 13.0625 101.648 13.1055C101.41 13.1484 101.082 13.1699 100.664 13.1699ZM111.117 9.71289C111.117 10.7949 110.82 11.6484 110.227 12.2734C109.637 12.8945 108.801 13.2051 107.719 13.2051C106.645 13.2051 105.809 12.8945 105.211 12.2734C104.617 11.6484 104.32 10.7949 104.32 9.71289C104.32 8.61914 104.617 7.76367 105.211 7.14648C105.809 6.52539 106.645 6.21484 107.719 6.21484C108.797 6.21484 109.633 6.52734 110.227 7.15234C110.82 7.77344 111.117 8.62695 111.117 9.71289ZM109.014 9.72461C109.014 9.33398 108.98 9.00977 108.914 8.75195C108.852 8.49023 108.764 8.28125 108.65 8.125C108.529 7.96094 108.393 7.84766 108.24 7.78516C108.088 7.71875 107.914 7.68555 107.719 7.68555C107.535 7.68555 107.369 7.71484 107.221 7.77344C107.072 7.82812 106.936 7.93555 106.811 8.0957C106.693 8.24805 106.6 8.45703 106.529 8.72266C106.459 8.98828 106.424 9.32227 106.424 9.72461C106.424 10.127 106.457 10.4531 106.523 10.7031C106.59 10.9492 106.676 11.1465 106.781 11.2949C106.891 11.4473 107.027 11.5586 107.191 11.6289C107.355 11.6992 107.537 11.7344 107.736 11.7344C107.9 11.7344 108.066 11.6992 108.234 11.6289C108.406 11.5586 108.543 11.4531 108.645 11.3125C108.766 11.1445 108.857 10.9434 108.92 10.709C108.982 10.4707 109.014 10.1426 109.014 9.72461ZM120.07 13V9.71289C120.07 9.38867 120.064 9.11523 120.053 8.89258C120.041 8.66992 120.006 8.48828 119.947 8.34766C119.889 8.20703 119.797 8.10547 119.672 8.04297C119.551 7.97656 119.379 7.94336 119.156 7.94336C119 7.94336 118.846 7.97852 118.693 8.04883C118.541 8.11523 118.375 8.21094 118.195 8.33594V13H116.133V9.71289C116.133 9.39258 116.125 9.12109 116.109 8.89844C116.098 8.67188 116.062 8.48828 116.004 8.34766C115.945 8.20703 115.854 8.10547 115.729 8.04297C115.607 7.97656 115.438 7.94336 115.219 7.94336C115.051 7.94336 114.887 7.98242 114.727 8.06055C114.566 8.13867 114.41 8.23047 114.258 8.33594V13H112.207V6.41992H114.258V7.14648C114.594 6.86133 114.91 6.63867 115.207 6.47852C115.504 6.31836 115.838 6.23828 116.209 6.23828C116.611 6.23828 116.965 6.33398 117.27 6.52539C117.574 6.7168 117.807 7.00195 117.967 7.38086C118.361 7.01367 118.732 6.73242 119.08 6.53711C119.432 6.33789 119.787 6.23828 120.146 6.23828C120.451 6.23828 120.725 6.28711 120.967 6.38477C121.209 6.48242 121.414 6.62891 121.582 6.82422C121.766 7.03516 121.902 7.28711 121.992 7.58008C122.086 7.86914 122.133 8.24805 122.133 8.7168V13H120.07ZM131.52 13V9.71289C131.52 9.38867 131.514 9.11523 131.502 8.89258C131.49 8.66992 131.455 8.48828 131.396 8.34766C131.338 8.20703 131.246 8.10547 131.121 8.04297C131 7.97656 130.828 7.94336 130.605 7.94336C130.449 7.94336 130.295 7.97852 130.143 8.04883C129.99 8.11523 129.824 8.21094 129.645 8.33594V13H127.582V9.71289C127.582 9.39258 127.574 9.12109 127.559 8.89844C127.547 8.67188 127.512 8.48828 127.453 8.34766C127.395 8.20703 127.303 8.10547 127.178 8.04297C127.057 7.97656 126.887 7.94336 126.668 7.94336C126.5 7.94336 126.336 7.98242 126.176 8.06055C126.016 8.13867 125.859 8.23047 125.707 8.33594V13H123.656V6.41992H125.707V7.14648C126.043 6.86133 126.359 6.63867 126.656 6.47852C126.953 6.31836 127.287 6.23828 127.658 6.23828C128.061 6.23828 128.414 6.33398 128.719 6.52539C129.023 6.7168 129.256 7.00195 129.416 7.38086C129.811 7.01367 130.182 6.73242 130.529 6.53711C130.881 6.33789 131.236 6.23828 131.596 6.23828C131.9 6.23828 132.174 6.28711 132.416 6.38477C132.658 6.48242 132.863 6.62891 133.031 6.82422C133.215 7.03516 133.352 7.28711 133.441 7.58008C133.535 7.86914 133.582 8.24805 133.582 8.7168V13H131.52ZM138.475 13.1758C137.232 13.1758 136.279 12.8789 135.615 12.2852C134.955 11.6914 134.625 10.8457 134.625 9.74805C134.625 8.67383 134.934 7.81641 135.551 7.17578C136.168 6.53516 137.031 6.21484 138.141 6.21484C139.148 6.21484 139.906 6.48633 140.414 7.0293C140.922 7.57227 141.176 8.34961 141.176 9.36133V10.0996H136.682C136.701 10.4043 136.766 10.6602 136.875 10.8672C136.984 11.0703 137.129 11.2324 137.309 11.3535C137.484 11.4746 137.689 11.5625 137.924 11.6172C138.158 11.668 138.414 11.6934 138.691 11.6934C138.93 11.6934 139.164 11.668 139.395 11.6172C139.625 11.5625 139.836 11.4922 140.027 11.4062C140.195 11.332 140.35 11.252 140.49 11.166C140.635 11.0801 140.752 11.0039 140.842 10.9375H141.059V12.6309C140.891 12.6973 140.736 12.7598 140.596 12.8184C140.459 12.873 140.27 12.9297 140.027 12.9883C139.805 13.0469 139.574 13.0918 139.336 13.123C139.102 13.1582 138.814 13.1758 138.475 13.1758ZM139.154 8.86328C139.143 8.42969 139.041 8.09961 138.85 7.87305C138.662 7.64648 138.373 7.5332 137.982 7.5332C137.584 7.5332 137.271 7.65234 137.045 7.89062C136.822 8.12891 136.699 8.45312 136.676 8.86328H139.154ZM148.395 13H146.332V9.73633C146.332 9.4707 146.32 9.20703 146.297 8.94531C146.277 8.67969 146.238 8.48438 146.18 8.35938C146.109 8.21094 146.008 8.10547 145.875 8.04297C145.742 7.97656 145.564 7.94336 145.342 7.94336C145.174 7.94336 145.004 7.97461 144.832 8.03711C144.66 8.09961 144.477 8.19922 144.281 8.33594V13H142.23V6.41992H144.281V7.14648C144.617 6.86133 144.943 6.63867 145.26 6.47852C145.58 6.31836 145.934 6.23828 146.32 6.23828C146.992 6.23828 147.506 6.45117 147.861 6.87695C148.217 7.29883 148.395 7.91211 148.395 8.7168V13ZM152.438 13.1289C151.602 13.1289 150.992 12.957 150.609 12.6133C150.23 12.2695 150.041 11.707 150.041 10.9258V7.84961H149.256V6.41992H150.041V4.53906H152.092V6.41992H154.066V7.84961H152.092V10.1816C152.092 10.4121 152.094 10.6133 152.098 10.7852C152.102 10.957 152.133 11.1113 152.191 11.248C152.246 11.3848 152.342 11.4941 152.479 11.5762C152.619 11.6543 152.822 11.6934 153.088 11.6934C153.197 11.6934 153.34 11.6699 153.516 11.623C153.695 11.5762 153.82 11.5332 153.891 11.4941H154.066V12.9414C153.844 13 153.607 13.0449 153.357 13.0762C153.107 13.1113 152.801 13.1289 152.438 13.1289Z" fill="#C4C4C4"/>
<path d="M210.925 14.0518C210.257 14.0518 209.67 13.9873 209.162 13.8584C208.658 13.7295 208.189 13.5693 207.755 13.3779V11.3037H207.955C208.392 11.6748 208.875 11.96 209.402 12.1592C209.929 12.3584 210.441 12.458 210.937 12.458C211.062 12.458 211.226 12.4443 211.429 12.417C211.636 12.3896 211.802 12.3467 211.927 12.2881C212.08 12.2217 212.209 12.1299 212.314 12.0127C212.42 11.8916 212.472 11.7334 212.472 11.5381C212.472 11.3193 212.386 11.1416 212.214 11.0049C212.043 10.8682 211.838 10.7686 211.599 10.7061C211.302 10.6279 210.984 10.5537 210.644 10.4834C210.308 10.4131 209.994 10.3271 209.701 10.2256C209.025 9.9873 208.541 9.66699 208.248 9.26465C207.955 8.8623 207.808 8.3584 207.808 7.75293C207.808 6.93652 208.154 6.27637 208.845 5.77246C209.537 5.26465 210.4 5.01074 211.435 5.01074C211.955 5.01074 212.47 5.06348 212.982 5.16895C213.498 5.27441 213.959 5.41699 214.365 5.59668V7.58887H214.172C213.847 7.31152 213.451 7.07715 212.982 6.88574C212.517 6.69434 212.039 6.59863 211.547 6.59863C211.355 6.59863 211.183 6.6123 211.031 6.63965C210.879 6.66699 210.718 6.71973 210.55 6.79785C210.414 6.86035 210.295 6.9541 210.193 7.0791C210.095 7.2002 210.047 7.33691 210.047 7.48926C210.047 7.71191 210.125 7.88965 210.281 8.02246C210.441 8.15137 210.748 8.26855 211.201 8.37402C211.494 8.44043 211.775 8.50488 212.045 8.56738C212.318 8.62988 212.609 8.71582 212.918 8.8252C213.523 9.04395 213.972 9.33887 214.265 9.70996C214.562 10.0771 214.711 10.5635 214.711 11.1689C214.711 12.0361 214.369 12.7334 213.685 13.2607C213.005 13.7881 212.086 14.0518 210.925 14.0518ZM221.882 13.8936H219.82V10.6299C219.82 10.3643 219.808 10.1006 219.785 9.83887C219.765 9.57324 219.726 9.37793 219.668 9.25293C219.597 9.10449 219.496 8.99902 219.363 8.93652C219.23 8.87012 219.052 8.83691 218.83 8.83691C218.662 8.83691 218.492 8.86816 218.32 8.93066C218.148 8.99316 217.964 9.09277 217.769 9.22949V13.8936H215.718V4.77637H217.769V8.04004C218.105 7.75488 218.431 7.53223 218.748 7.37207C219.068 7.21191 219.422 7.13184 219.808 7.13184C220.48 7.13184 220.994 7.34473 221.349 7.77051C221.705 8.19238 221.882 8.80566 221.882 9.61035V13.8936ZM227.033 12.1768V10.8057C226.685 10.8408 226.404 10.8721 226.189 10.8994C225.974 10.9229 225.763 10.9717 225.556 11.0459C225.377 11.1084 225.236 11.2041 225.134 11.333C225.037 11.458 224.988 11.626 224.988 11.8369C224.988 12.1455 225.07 12.3584 225.234 12.4756C225.402 12.5889 225.648 12.6455 225.972 12.6455C226.152 12.6455 226.336 12.6045 226.523 12.5225C226.711 12.4404 226.88 12.3252 227.033 12.1768ZM227.033 13.1963C226.892 13.3135 226.765 13.4189 226.652 13.5127C226.543 13.6064 226.394 13.7002 226.207 13.7939C226.023 13.8838 225.843 13.9521 225.668 13.999C225.496 14.0459 225.254 14.0693 224.941 14.0693C224.359 14.0693 223.875 13.874 223.488 13.4834C223.105 13.0928 222.914 12.6006 222.914 12.0068C222.914 11.5186 223.011 11.124 223.207 10.8232C223.402 10.5225 223.683 10.2842 224.05 10.1084C224.422 9.92871 224.865 9.80371 225.38 9.7334C225.896 9.66309 226.451 9.6084 227.045 9.56934V9.53418C227.045 9.1709 226.91 8.9209 226.64 8.78418C226.375 8.64355 225.974 8.57324 225.439 8.57324C225.197 8.57324 224.914 8.61816 224.589 8.70801C224.265 8.79395 223.949 8.90527 223.64 9.04199H223.464V7.4541C223.668 7.39551 223.996 7.32715 224.449 7.24902C224.902 7.16699 225.359 7.12598 225.82 7.12598C226.953 7.12598 227.777 7.31543 228.293 7.69434C228.812 8.06934 229.072 8.64355 229.072 9.41699V13.8936H227.033V13.1963ZM235.007 9.25293H234.838C234.759 9.22559 234.646 9.20605 234.498 9.19434C234.349 9.17871 234.185 9.1709 234.005 9.1709C233.791 9.1709 233.564 9.20215 233.326 9.26465C233.091 9.32715 232.863 9.40137 232.64 9.4873V13.8936H230.589V7.31348H232.64V8.25684C232.734 8.1709 232.863 8.06348 233.027 7.93457C233.195 7.80176 233.347 7.69629 233.484 7.61816C233.632 7.52832 233.804 7.45215 234 7.38965C234.199 7.32324 234.386 7.29004 234.562 7.29004C234.629 7.29004 234.703 7.29199 234.785 7.2959C234.867 7.2998 234.941 7.30566 235.007 7.31348V9.25293ZM239.162 14.0693C237.92 14.0693 236.966 13.7725 236.302 13.1787C235.642 12.585 235.312 11.7393 235.312 10.6416C235.312 9.56738 235.621 8.70996 236.238 8.06934C236.855 7.42871 237.718 7.1084 238.828 7.1084C239.836 7.1084 240.593 7.37988 241.101 7.92285C241.609 8.46582 241.863 9.24316 241.863 10.2549V10.9932H237.369C237.388 11.2979 237.453 11.5537 237.562 11.7607C237.672 11.9639 237.816 12.126 237.996 12.2471C238.172 12.3682 238.377 12.4561 238.611 12.5107C238.845 12.5615 239.101 12.5869 239.379 12.5869C239.617 12.5869 239.851 12.5615 240.082 12.5107C240.312 12.4561 240.523 12.3857 240.714 12.2998C240.882 12.2256 241.037 12.1455 241.177 12.0596C241.322 11.9736 241.439 11.8975 241.529 11.8311H241.746V13.5244C241.578 13.5908 241.423 13.6533 241.283 13.7119C241.146 13.7666 240.957 13.8232 240.714 13.8818C240.492 13.9404 240.261 13.9854 240.023 14.0166C239.789 14.0518 239.502 14.0693 239.162 14.0693ZM239.841 9.75684C239.83 9.32324 239.728 8.99316 239.537 8.7666C239.349 8.54004 239.06 8.42676 238.67 8.42676C238.271 8.42676 237.959 8.5459 237.732 8.78418C237.509 9.02246 237.386 9.34668 237.363 9.75684H239.841Z" fill="#C4C4C4"/>
<path d="M87.8783 3.77368H78.5974C78.0451 3.77368 77.5974 4.2214 77.5974 4.77368V11.2344C77.5974 11.7866 78.0451 12.2344 78.5974 12.2344H79.2268C79.6573 12.2344 80.0394 12.5098 80.1755 12.9181L80.8877 15.0546L82.0214 12.7871C82.1908 12.4484 82.537 12.2344 82.9158 12.2344H87.8783C88.4306 12.2344 88.8783 11.7866 88.8783 11.2344V4.77368C88.8783 4.2214 88.4306 3.77368 87.8783 3.77368Z" fill="#C4C4C4"/>
</svg>
