<svg width="145" height="115" viewBox="0 0 145 115" fill="none" xmlns="http://www.w3.org/2000/svg">
<path d="M83.0289 73.1754C83.8805 73.1754 84.3063 73.1754 85.1578 72.75C87.7126 71.0482 90.6931 71.0482 93.6736 71.0482C103.467 71.0482 112.408 67.6447 120.924 62.9649C124.33 60.8377 127.311 58.7105 129.866 55.7324C136.678 48.5 140.936 39.9912 143.491 30.6316C145.194 24.6754 144.343 19.1447 140.085 14.4649C136.678 11.0614 132.846 8.08333 127.737 6.80701C120.498 5.10526 112.834 5.5307 105.596 7.65789C89.4157 12.3377 74.5131 18.7193 59.6105 26.3772C58.7589 26.8026 57.9073 28.0789 56.2042 26.8026C57.9073 22.1228 59.6105 17.8684 61.3136 13.1886C63.0168 8.9342 65.9973 5.10526 66.8489 0V0C64.2942 3.82894 61.3136 7.23245 60.0363 11.4868C57.4815 17.443 54.501 22.9737 52.3721 28.9298C51.5205 31.057 50.2431 32.7588 48.54 34.4605C44.2821 38.2894 40.0242 42.1184 35.7663 45.5219C34.9147 46.3728 34.0631 47.2237 32.7858 47.2237C27.6763 47.6491 22.9926 48.9254 17.8831 49.3508C13.1995 49.3508 8.08999 49.7763 3.40631 50.2017C2.12895 50.2017 0 50.2017 0 51.9035C0 53.6052 2.12895 53.1798 3.40631 53.1798C8.08999 52.3289 13.1995 52.7544 17.8831 53.6052C19.1605 53.6052 20.4379 54.0307 21.7152 54.8815C24.27 56.5833 24.27 57.4342 22.5668 59.5614C20.0121 62.9649 17.4574 66.3684 15.3284 70.1973C11.0705 77.0043 8.08999 84.6622 4.68368 92.3201C2.98052 96.5745 1.27737 100.829 0.851578 105.509C6.34475e-08 111.89 3.40631 114.868 9.79315 114.017C11.0705 114.017 11.9221 113.592 13.1995 113.592C23.4184 110.614 33.6373 108.912 43.8563 105.934C45.1336 105.509 46.411 105.509 47.2626 104.232C47.6884 104.232 47.6884 104.232 48.1142 104.232C56.2042 102.956 64.72 102.105 72.3842 99.1271C75.7905 98.7017 79.1968 98.2763 82.6031 97.8508C85.5836 97.4254 88.5641 96.9999 91.1189 99.1271C91.5447 99.5526 92.822 99.5526 93.6736 99.5526C97.0799 99.5526 100.912 99.978 104.318 99.5526C116.666 98.2762 129.014 97.4254 141.362 98.7017C142.214 98.7017 142.639 98.7017 143.065 97.8508C140.936 96.1491 140.936 96.1491 139.233 96.1491C129.014 94.4473 119.221 95.2982 109.002 96.5745C105.17 96.9999 100.912 97.8508 97.0799 97.8508C95.8026 97.8508 94.0994 98.2763 93.6736 96.5745C92.822 94.0219 91.1189 94.4473 89.4157 94.8727C86.861 95.2982 84.732 96.1491 82.1773 95.2982C78.771 94.4473 75.3647 94.8727 71.9584 95.7236C67.7005 95.7236 63.0168 96.1491 58.7589 96.5745C53.6494 96.9999 49.3915 99.1271 44.7079 100.829C43.4305 100.829 41.7273 101.254 40.45 102.105C37.0437 104.232 33.6373 105.083 29.8052 106.36C25.9731 107.21 21.7152 108.487 17.8831 109.763C14.051 111.039 10.6447 111.89 6.38684 111.89C2.98052 111.465 1.70316 110.189 2.12895 106.785C2.55473 103.807 2.98052 101.254 3.8321 98.2763C8.51578 85.9385 14.051 74.4517 21.7152 63.8157C22.9926 62.5394 23.4184 59.5614 25.9731 60.4122C28.1021 61.2631 27.6763 63.8157 27.2505 65.9429C26.8247 72.3245 28.1021 79.1315 26.3989 85.5131C25.9731 86.7894 25.9731 88.9166 27.6763 89.342C29.3795 90.1929 29.8052 88.0657 30.231 86.7894C30.231 86.364 30.6568 86.364 30.6568 85.9385C36.6179 72.75 42.5789 59.5614 48.54 46.7982C48.9658 46.3728 49.8173 45.9473 50.2431 45.5219C51.9463 44.671 54.0752 42.9693 56.2042 42.5438L55.7784 42.9693C54.9268 44.2456 54.0752 45.9473 54.0752 48.0745C55.7784 48.0745 55.7784 45.5219 57.4815 45.9473C57.9073 45.9473 58.3331 45.9473 58.7589 45.9473C59.1847 45.9473 59.1847 45.9473 59.1847 45.9473C60.8878 42.5438 57.0557 40.4166 54.0752 40.4166C52.7979 40.4166 51.5205 40.8421 50.2431 41.2675C50.6689 39.9912 51.5205 38.2894 51.9463 37.0131C54.501 34.0351 56.63 31.9079 59.1847 30.6316C68.1263 25.5263 77.9194 21.6974 87.7126 17.443C97.5057 13.1886 107.725 9.35964 118.369 8.50877C123.053 8.08333 127.311 8.50877 131.569 10.2105C140.936 14.8903 146.046 21.6974 141.788 32.7587C139.233 39.9912 135.401 46.7982 130.291 52.7543C124.756 58.7105 117.944 62.9649 110.279 65.9429C109.428 66.3684 108.15 66.7938 106.873 65.9429C107.299 65.5175 107.299 64.6666 107.725 64.2412C108.576 61.6886 107.725 59.9868 105.17 60.4122C100.486 60.8377 95.8026 60.4122 91.9705 62.5394C88.5641 64.2412 85.1578 65.5175 81.3257 65.9429C79.1968 65.9429 78.3452 65.9429 77.9194 63.8157C77.4936 59.9868 75.7905 58.7105 71.9584 58.7105C69.4036 58.7105 66.4231 59.1359 63.8684 59.9868C60.8879 61.2631 57.9073 62.9649 55.3526 62.5394C51.9463 62.114 51.5205 63.8157 50.2431 65.5175C48.9658 67.6447 48.1142 70.1973 47.2626 72.75C46.8368 73.6008 46.411 74.4517 47.6884 74.8771C49.3915 73.6008 49.8173 71.4736 50.6689 69.3464C52.7979 65.9429 53.6494 65.5175 56.63 68.4956C58.3331 69.7719 58.3331 71.0482 57.4815 72.75C57.0557 74.0263 55.7784 75.3026 57.4815 76.1535C58.7589 76.5789 59.6105 75.3026 60.4621 74.0263C62.1652 71.0482 64.72 68.921 64.72 65.5175C64.72 65.0921 65.1457 64.6666 65.1457 64.2412C66.4231 61.6886 70.2552 60.4122 72.81 61.6886C74.9389 62.5394 74.9389 64.6666 73.6615 68.0701C72.3842 70.6228 70.2552 72.75 68.5521 74.8771C68.1263 75.3026 67.7005 76.1535 68.1263 76.5789C68.5521 77.4298 69.4036 77.0043 69.8294 76.5789C71.5326 75.3026 72.8099 74.0263 74.0873 72.3245C75.7905 70.1973 77.9194 68.4956 81.3257 68.921C81.3257 70.1973 80.8999 70.6228 80.4742 71.0482C80.4742 72.3245 80.8999 73.1754 83.0289 73.1754ZM22.141 51.9035C23.8442 50.6272 25.9731 51.0526 28.1021 51.0526C26.3989 55.307 25.5474 55.307 22.141 51.9035ZM43.4305 52.7543C42.5789 55.307 41.3015 57.4342 40.45 59.9868C37.8952 65.0921 35.7663 70.1973 33.6373 75.3026C32.7858 77.4298 31.9342 79.1315 30.6568 80.8333C30.231 80.8333 30.231 80.8333 29.8052 80.4078C30.6568 77.0043 30.231 74.0263 30.6568 70.6228C30.6568 66.7938 30.6568 62.9649 28.9537 59.5614C28.1021 57.8596 28.5279 56.5833 29.8052 55.307C32.7858 51.9035 35.7663 48.9254 40.8758 48.9254C41.3015 48.9254 41.3015 48.9254 41.7273 48.9254C42.5789 49.3508 43.4305 49.7763 43.8563 49.7763C43.8563 50.6272 43.8563 51.0526 43.4305 52.7543ZM42.5789 46.3728C41.7273 46.3728 40.8758 46.3728 40.0242 45.9473C42.1531 42.9693 45.1336 40.4166 48.1142 38.7149C48.1142 40.4166 48.1142 41.693 48.1142 42.5438C45.9852 43.8201 44.2821 45.0965 42.5789 46.3728ZM97.9315 68.0701C96.6541 69.3464 95.3768 68.921 94.0994 68.921C95.3768 67.2193 96.2283 66.7938 97.9315 67.6447C97.9315 67.2193 98.3573 68.0701 97.9315 68.0701ZM102.615 61.2631C103.467 61.2631 104.318 61.2631 104.744 62.114C105.17 63.3903 104.318 63.8157 103.467 64.2412C102.615 64.6666 101.764 65.0921 100.486 64.6666C97.5057 62.9649 94.951 64.6666 92.3962 65.9429C91.1189 66.7938 89.8415 68.0701 86.861 67.2193C92.3962 63.8157 97.5057 62.114 102.615 61.2631ZM61.3136 65.0921C60.8878 65.9429 60.0363 65.9429 59.1847 65.5175C58.7589 65.0921 58.3331 64.6666 58.3331 64.2412C58.3331 63.3903 59.1847 62.9649 60.0363 62.9649C60.8878 62.5394 61.7394 62.5394 62.591 62.5394C62.1652 63.8157 61.7394 64.6666 61.3136 65.0921Z" fill="#272727"/>
</svg>
