<svg xmlns="http://www.w3.org/2000/svg" xmlns:xlink="http://www.w3.org/1999/xlink" width="137.521" height="143.384" viewBox="0 0 137.521 143.384">
  <defs>
    <linearGradient id="linear-gradient" x1="0.181" y1="12.172" x2="0.966" y2="-0.358" gradientUnits="objectBoundingBox">
      <stop offset="0" stop-color="#e30613"/>
      <stop offset="0.669" stop-color="#a90f09"/>
      <stop offset="1" stop-color="#8f1003"/>
    </linearGradient>
    <linearGradient id="linear-gradient-2" x1="0.15" y1="12.358" x2="0.958" y2="-0.781" xlink:href="#linear-gradient"/>
    <linearGradient id="linear-gradient-3" x1="0.121" y1="12.985" x2="0.955" y2="-1.229" xlink:href="#linear-gradient"/>
    <linearGradient id="linear-gradient-4" x1="0.089" y1="13.991" x2="0.962" y2="-1.708" xlink:href="#linear-gradient"/>
    <linearGradient id="linear-gradient-5" x1="-0.142" y1="11.583" x2="0.826" y2="-5.374" xlink:href="#linear-gradient"/>
    <linearGradient id="linear-gradient-6" x1="0.012" y1="9.952" x2="0.772" y2="-4.03" xlink:href="#linear-gradient"/>
    <linearGradient id="linear-gradient-7" x1="0.034" y1="10.152" x2="0.785" y2="-3.692" xlink:href="#linear-gradient"/>
    <linearGradient id="linear-gradient-8" x1="-0.054" y1="12.932" x2="0.871" y2="-4.346" xlink:href="#linear-gradient"/>
    <linearGradient id="linear-gradient-9" x1="0.488" y1="1.512" x2="0.566" y2="0.316" xlink:href="#linear-gradient"/>
    <linearGradient id="linear-gradient-10" x1="-0.825" y1="20.94" x2="1.293" y2="-9.38" xlink:href="#linear-gradient"/>
    <linearGradient id="linear-gradient-11" x1="0.002" y1="4.848" x2="1.002" y2="4.848" xlink:href="#linear-gradient"/>
    <linearGradient id="linear-gradient-12" x1="-1.672" y1="30.391" x2="1.601" y2="-16.468" xlink:href="#linear-gradient"/>
    <linearGradient id="linear-gradient-13" x1="-1.108" y1="39.096" x2="2.166" y2="-7.636" xlink:href="#linear-gradient"/>
    <linearGradient id="linear-gradient-14" x1="-0.002" y1="10.156" x2="1.001" y2="10.156" xlink:href="#linear-gradient"/>
    <linearGradient id="linear-gradient-15" x1="0.849" y1="0.439" x2="-0.026" y2="1.484" xlink:href="#linear-gradient"/>
    <linearGradient id="linear-gradient-16" x1="0.059" y1="6.303" x2="1.009" y2="6.401" xlink:href="#linear-gradient"/>
  </defs>
  <g id="geneva-institute" transform="translate(-1145.8 -544.875)">
    <g id="Group_214" data-name="Group 214" transform="translate(1160.142 544.875)">
      <path id="Path_394" data-name="Path 394" d="M1823.274,872.514h-8.34v-8.347a2.969,2.969,0,0,0-2.967-2.967h-7.694a2.969,2.969,0,0,0-2.967,2.967v8.339h-8.34a2.969,2.969,0,0,0-2.967,2.967v7.694a2.969,2.969,0,0,0,2.967,2.967h8.34v8.339a2.969,2.969,0,0,0,2.967,2.967h7.694a2.969,2.969,0,0,0,2.967-2.967v-8.339h8.34a2.969,2.969,0,0,0,2.967-2.967v-7.694A2.967,2.967,0,0,0,1823.274,872.514Z" transform="translate(-1754.828 -836.887)" fill="#0070b3"/>
      <path id="Path_395" data-name="Path 395" d="M2223.105,1046.5s-.976,14.335-19.831,17.309c-15.119,2.383-18.232,11.1-13.958,20.93,0,0-.63-6.61,3.566-11.022,5.9-6.218,16.026-3.6,24.32-9.377C2226.31,1057.991,2223.105,1046.5,2223.105,1046.5Z" transform="translate(-2121.831 -1007.944)" fill="#0070b3"/>
      <g id="Group_213" data-name="Group 213" transform="translate(78.807 37.38)">
        <path id="Path_396" data-name="Path 396" d="M2474.493,1040.685a7.656,7.656,0,0,0,1.083-1.591l-9.523-7.894-1.053,1.676Z" transform="translate(-2456.753 -1031.2)" fill="url(#linear-gradient)"/>
        <path id="Path_397" data-name="Path 397" d="M2445.755,1085.547c.484-.515.745-.723,1.314-1.368l-9.231-7.679-1.038,1.66Z" transform="translate(-2430.721 -1073.018)" fill="url(#linear-gradient-2)"/>
        <path id="Path_398" data-name="Path 398" d="M2409.809,1123.863c.538-.377,1.053-.776,1.537-1.191l-8.924-7.171-1.022,1.629Z" transform="translate(-2398.042 -1109.021)" fill="url(#linear-gradient-3)"/>
        <path id="Path_399" data-name="Path 399" d="M2365.217,1154.271a10.449,10.449,0,0,0,1.99-.815l-8.5-6.756-1.007,1.614Z" transform="translate(-2357.7 -1137.822)" fill="url(#linear-gradient-4)"/>
      </g>
      <path id="Path_400" data-name="Path 400" d="M2234.623,1458a18.036,18.036,0,0,0-.523,1.768l6.948,5.242,1.622-.93Z" transform="translate(-2164.793 -1387.815)" fill="url(#linear-gradient-5)"/>
      <path id="Path_401" data-name="Path 401" d="M2252.061,1416.1a8.433,8.433,0,0,0-.961,1.46l9.3,7.041,1.621-.937Z" transform="translate(-2180.487 -1349.136)" fill="url(#linear-gradient-6)"/>
      <path id="Path_402" data-name="Path 402" d="M2283.16,1385.1a15.82,15.82,0,0,0-1.561,1.046l10.139,7.54.915-1.5Z" transform="translate(-2208.642 -1320.518)" fill="url(#linear-gradient-7)"/>
      <path id="Path_403" data-name="Path 403" d="M2327.4,1364.784l8.155,6.2.815-1.6-6.91-5.281A17.69,17.69,0,0,0,2327.4,1364.784Z" transform="translate(-2250.923 -1301.132)" fill="url(#linear-gradient-8)"/>
      <path id="Path_404" data-name="Path 404" d="M1427.341,554.231a96.964,96.964,0,0,0-83.111,0L1332.5,559.7l.677,4.158c.338,2.252,8.8,56.432,50.191,79.122l2.367,1.307,2.483-1.307c11.291-7.148,13.013-9.585,17.248-12.913,1.99-1.56,3.6-1.468,7.217-3.305,11.307-5.749,6.964-16.687,4.8-19.8.984,8.1-3.2,14.058-12.021,15.434-5.5.861-7.663.523-12.713,4.589a63.069,63.069,0,0,1-7.018,4.95c-28.754-17.348-38.907-53.581-41.5-65.7a96.7,96.7,0,0,1,83.111,0c-.461,2.06-1.476,6.072-2.052,8.071a6.161,6.161,0,0,1-4.066,4.427c-16.495,6.38-9.954,20.968-9.954,20.968.177-7.21,5.972-14.281,13.6-15.111,6.741-.738,9.415-3.636,10.3-6.718a148.306,148.306,0,0,0,3.9-18.163Z" transform="translate(-1332.492 -544.875)" fill="url(#linear-gradient-9)"/>
      <path id="Path_405" data-name="Path 405" d="M2117.72,1438.06a1.96,1.96,0,1,1-1.96-1.96A1.959,1.959,0,0,1,2117.72,1438.06Z" transform="translate(-2053.74 -1367.598)" fill="url(#linear-gradient-10)"/>
      <path id="Path_406" data-name="Path 406" d="M2506.219,1359.1a2.045,2.045,0,1,1-1.814-2.252A2.034,2.034,0,0,1,2506.219,1359.1Z" transform="translate(-2412.231 -1294.429)" fill="url(#linear-gradient-11)"/>
      <path id="Path_407" data-name="Path 407" d="M2148.537,1503.768a1.268,1.268,0,1,1-1.268-1.268A1.269,1.269,0,0,1,2148.537,1503.768Z" transform="translate(-2083.465 -1428.895)" fill="url(#linear-gradient-12)"/>
      <path id="Path_408" data-name="Path 408" d="M2300.736,1224.776a1.268,1.268,0,1,1-1.268-1.276A1.269,1.269,0,0,1,2300.736,1224.776Z" transform="translate(-2223.967 -1171.339)" fill="url(#linear-gradient-13)"/>
      <path id="Path_409" data-name="Path 409" d="M2559.411,1324.6a1.28,1.28,0,0,1-1.4,1.13,1.268,1.268,0,1,1,1.4-1.13Z" transform="translate(-2462.764 -1263.375)" fill="url(#linear-gradient-14)"/>
      <path id="Path_410" data-name="Path 410" d="M1344.129,744.233,1332.4,737.7l.676,4.158c.338,2.252,8.8,56.432,50.191,79.122l2.367,1.307V809.935C1356.881,792.6,1346.727,756.355,1344.129,744.233Z" transform="translate(-1332.4 -722.879)" fill="url(#linear-gradient-15)"/>
      <path id="Path_411" data-name="Path 411" d="M1344.129,554.231,1332.4,559.7l11.729,6.533a96.7,96.7,0,0,1,83.111,0l11.729-6.533-11.729-5.465A96.964,96.964,0,0,0,1344.129,554.231Z" transform="translate(-1332.4 -544.875)" fill="url(#linear-gradient-16)"/>
    </g>
    <g id="Group_215" data-name="Group 215" transform="translate(1148.336 649.583)">
      <path id="Path_412" data-name="Path 412" d="M1194.695,1987.992h4.55v8.731a12.9,12.9,0,0,1-4.058,2.029,15.838,15.838,0,0,1-4.642.707,12.572,12.572,0,0,1-6.026-1.43,10.642,10.642,0,0,1-4.2-3.966,11.561,11.561,0,0,1,0-11.468,10.572,10.572,0,0,1,4.227-3.966,12.841,12.841,0,0,1,6.088-1.43,13.283,13.283,0,0,1,5.134.953,10.23,10.23,0,0,1,3.874,2.767l-3.2,2.951a7.383,7.383,0,0,0-5.565-2.429,7.565,7.565,0,0,0-3.659.861,6.16,6.16,0,0,0-2.49,2.429,7.64,7.64,0,0,0,0,7.163,6.308,6.308,0,0,0,2.475,2.445,7.33,7.33,0,0,0,3.613.876,8.06,8.06,0,0,0,3.874-.922Z" transform="translate(-1178.8 -1971.389)" fill="#e30613"/>
      <path id="Path_413" data-name="Path 413" d="M1521.464,1999.525v4H1504.8V1982h16.264v4H1509.75v4.673h9.992v3.874h-9.992v4.981Z" transform="translate(-1479.743 -1975.82)" fill="#e30613"/>
      <path id="Path_414" data-name="Path 414" d="M1792.938,1982v21.522h-4.089l-10.73-13.067v13.067H1773.2V1982h4.12l10.7,13.067V1982Z" transform="translate(-1727.513 -1975.82)" fill="#e30613"/>
      <path id="Path_415" data-name="Path 415" d="M2113.064,1925.3v4H2096.4V1907.78h16.264v4H2101.35v4.673h9.992v3.874h-9.992v4.981Zm-15.034-23.7h5.165l4.151,4.427h-3.751Z" transform="translate(-2025.871 -1901.6)" fill="#e30613"/>
      <path id="Path_416" data-name="Path 416" d="M2347.52,1982l-9.315,21.522h-4.919L2324,1982h5.38l6.549,15.373,6.64-15.373Z" transform="translate(-2235.978 -1975.82)" fill="#e30613"/>
      <path id="Path_417" data-name="Path 417" d="M2669.865,1999.525v4H2653.2V1982h16.265v4H2658.15v4.673h9.992v3.874h-9.992v4.981Z" transform="translate(-2539.875 -1975.82)" fill="#e30613"/>
    </g>
    <g id="Group_216" data-name="Group 216" transform="translate(1145.8 684.078)">
      <path id="Path_418" data-name="Path 418" d="M1145.8,2351.4h.93v4.035h-.93Z" transform="translate(-1145.8 -2351.323)" fill="#9d9d9c"/>
      <path id="Path_419" data-name="Path 419" d="M1181.6,2351.4v4.035h-.769l-2.014-2.452v2.452h-.922V2351.4h.769l2.006,2.452V2351.4Z" transform="translate(-1175.433 -2351.323)" fill="#9d9d9c"/>
      <path id="Path_420" data-name="Path 420" d="M1242.615,2354.451a2.061,2.061,0,0,1-.715-.338l.315-.707a2.1,2.1,0,0,0,.615.308,2.323,2.323,0,0,0,.715.115,1.185,1.185,0,0,0,.592-.115.366.366,0,0,0,.192-.315.288.288,0,0,0-.115-.238.868.868,0,0,0-.292-.154c-.115-.039-.277-.077-.476-.124a5,5,0,0,1-.753-.223,1.212,1.212,0,0,1-.507-.354.956.956,0,0,1-.208-.646,1.114,1.114,0,0,1,.192-.638,1.251,1.251,0,0,1,.576-.453,2.271,2.271,0,0,1,.938-.169,3.084,3.084,0,0,1,.753.092,2.237,2.237,0,0,1,.646.269l-.292.708a2.293,2.293,0,0,0-1.114-.315,1.035,1.035,0,0,0-.577.13.384.384,0,0,0-.184.331.324.324,0,0,0,.215.308,3.48,3.48,0,0,0,.661.2c.307.077.561.146.753.215a1.428,1.428,0,0,1,.507.346.937.937,0,0,1,.208.638,1.089,1.089,0,0,1-.192.63,1.339,1.339,0,0,1-.577.453,2.3,2.3,0,0,1-.938.169A3.14,3.14,0,0,1,1242.615,2354.451Z" transform="translate(-1234.514 -2350.401)" fill="#9d9d9c"/>
      <path id="Path_421" data-name="Path 421" d="M1295.991,2352.161H1294.7v-.761h3.52v.761h-1.291v3.275H1296v-3.275Z" transform="translate(-1283.255 -2351.323)" fill="#9d9d9c"/>
      <path id="Path_422" data-name="Path 422" d="M1354.5,2351.4h.93v4.035h-.93Z" transform="translate(-1338.459 -2351.323)" fill="#9d9d9c"/>
      <path id="Path_423" data-name="Path 423" d="M1381.891,2352.161H1380.6v-.761h3.52v.761h-1.291v3.275h-.93v-3.275Z" transform="translate(-1362.553 -2351.323)" fill="#9d9d9c"/>
      <path id="Path_424" data-name="Path 424" d="M1439.484,2354.928a1.834,1.834,0,0,1-.484-1.368v-2.26h.93v2.229q0,1.084.9,1.083a.836.836,0,0,0,.669-.261,1.223,1.223,0,0,0,.231-.823V2351.3h.922v2.26a1.845,1.845,0,0,1-.484,1.368,1.81,1.81,0,0,1-1.345.477A1.792,1.792,0,0,1,1439.484,2354.928Z" transform="translate(-1416.464 -2351.231)" fill="#9d9d9c"/>
      <path id="Path_425" data-name="Path 425" d="M1500.591,2352.161H1499.3v-.761h3.52v.761h-1.291v3.275h-.93v-3.275Z" transform="translate(-1472.129 -2351.323)" fill="#9d9d9c"/>
      <path id="Path_426" data-name="Path 426" d="M1591.405,2351.4v4.035h-.769l-2.014-2.452v2.452h-.922V2351.4h.769l2.006,2.452V2351.4Z" transform="translate(-1553.735 -2351.323)" fill="#9d9d9c"/>
      <path id="Path_427" data-name="Path 427" d="M1652.19,2354.567h-1.875l-.354.869H1649l1.8-4.036h.922l1.806,4.036h-.984Zm-.3-.708-.638-1.545-.638,1.545Z" transform="translate(-1610.323 -2351.323)" fill="#9d9d9c"/>
      <path id="Path_428" data-name="Path 428" d="M1713.591,2352.161H1712.3v-.761h3.52v.761h-1.291v3.275h-.93v-3.275Z" transform="translate(-1668.758 -2351.323)" fill="#9d9d9c"/>
      <path id="Path_429" data-name="Path 429" d="M1772.1,2351.4h.93v4.035h-.93Z" transform="translate(-1723.961 -2351.323)" fill="#9d9d9c"/>
      <path id="Path_430" data-name="Path 430" d="M1801.876,2354.4a2.053,2.053,0,0,1,0-3.628,2.509,2.509,0,0,1,2.26,0,2.052,2.052,0,0,1,.792.746,2.026,2.026,0,0,1,.292,1.068,2.028,2.028,0,0,1-1.084,1.814,2.317,2.317,0,0,1-1.13.269A2.235,2.235,0,0,1,1801.876,2354.4Zm1.783-.684a1.137,1.137,0,0,0,.453-.461,1.366,1.366,0,0,0,.161-.669,1.345,1.345,0,0,0-.161-.668,1.243,1.243,0,0,0-.453-.461,1.37,1.37,0,0,0-1.291,0,1.138,1.138,0,0,0-.454.461,1.364,1.364,0,0,0-.161.668,1.344,1.344,0,0,0,.161.669,1.241,1.241,0,0,0,.454.461,1.372,1.372,0,0,0,1.291,0Z" transform="translate(-1750.455 -2350.493)" fill="#9d9d9c"/>
      <path id="Path_431" data-name="Path 431" d="M1878.7,2351.4v4.035h-.769l-2.006-2.452v2.452H1875V2351.4h.769l2.006,2.452V2351.4Z" transform="translate(-1818.952 -2351.323)" fill="#9d9d9c"/>
      <path id="Path_432" data-name="Path 432" d="M1939.382,2354.567h-1.875l-.354.869h-.953l1.8-4.036h.922l1.806,4.036h-.984Zm-.292-.708-.638-1.545-.638,1.545Z" transform="translate(-1875.448 -2351.323)" fill="#9d9d9c"/>
      <path id="Path_433" data-name="Path 433" d="M2008,2351.4h.938v3.274h2.021v.761H2008Z" transform="translate(-1941.729 -2351.323)" fill="#9d9d9c"/>
      <path id="Path_434" data-name="Path 434" d="M2089.5,2351.4h1.837a2.557,2.557,0,0,1,1.161.254,1.849,1.849,0,0,1,.784.707,2.176,2.176,0,0,1,0,2.122,1.847,1.847,0,0,1-.784.707,2.554,2.554,0,0,1-1.161.254H2089.5Zm1.791,3.267a1.376,1.376,0,0,0,.968-.338,1.339,1.339,0,0,0,0-1.83,1.362,1.362,0,0,0-.968-.338h-.853v2.506Z" transform="translate(-2016.965 -2351.323)" fill="#9d9d9c"/>
      <path id="Path_435" data-name="Path 435" d="M2162.121,2354.682v.754H2159V2351.4h3.052v.754h-2.122v.876h1.875v.723h-1.875v.937h2.191Z" transform="translate(-2081.123 -2351.323)" fill="#9d9d9c"/>
      <path id="Path_436" data-name="Path 436" d="M2245.408,2351.4h.93v3.274h2.022v.761H2245.4V2351.4Z" transform="translate(-2160.883 -2351.323)" fill="#9d9d9c"/>
      <path id="Path_437" data-name="Path 437" d="M2295.09,2354.567h-1.875l-.354.869h-.961l1.8-4.036h.923l1.806,4.036h-.984Zm-.3-.708-.638-1.545-.637,1.545Z" transform="translate(-2203.808 -2351.323)" fill="#9d9d9c"/>
      <path id="Path_438" data-name="Path 438" d="M2394.975,2355.436l-.776-1.122h-.861v1.122h-.937V2351.4h1.745a2.316,2.316,0,0,1,.93.177,1.371,1.371,0,0,1,.607.507,1.432,1.432,0,0,1,.216.777,1.35,1.35,0,0,1-.216.776,1.375,1.375,0,0,1-.615.5l.907,1.3Zm-.238-3.1a.972.972,0,0,0-.638-.184h-.761v1.406h.761a.973.973,0,0,0,.638-.184.715.715,0,0,0,0-1.038Z" transform="translate(-2296.583 -2351.323)" fill="#9d9d9c"/>
      <path id="Path_439" data-name="Path 439" d="M2458.128,2354.682v.754H2455V2351.4h3.052v.754h-2.121v.876h1.875v.723h-1.875v.937h2.2Z" transform="translate(-2354.372 -2351.323)" fill="#9d9d9c"/>
      <path id="Path_440" data-name="Path 440" d="M2510.569,2354.313a1.973,1.973,0,0,1-.784-.746,2.072,2.072,0,0,1,.784-2.9,2.5,2.5,0,0,1,2.067-.084,1.9,1.9,0,0,1,.715.53l-.6.553a1.285,1.285,0,0,0-1.015-.469,1.349,1.349,0,0,0-.669.161,1.209,1.209,0,0,0-.461.461,1.306,1.306,0,0,0-.162.669,1.346,1.346,0,0,0,.162.669,1.209,1.209,0,0,0,.461.461,1.344,1.344,0,0,0,.669.162,1.3,1.3,0,0,0,1.015-.477l.6.553a1.914,1.914,0,0,1-.715.538,2.373,2.373,0,0,1-.953.184A2.317,2.317,0,0,1,2510.569,2354.313Z" transform="translate(-2404.683 -2350.401)" fill="#9d9d9c"/>
      <path id="Path_441" data-name="Path 441" d="M2578.906,2351.4v4.035h-.938v-1.653h-1.829v1.653h-.938V2351.4h.938v1.591h1.829V2351.4Z" transform="translate(-2465.333 -2351.323)" fill="#9d9d9c"/>
      <path id="Path_442" data-name="Path 442" d="M2646.429,2354.682v.754H2643.3V2351.4h3.051v.754h-2.122v.876h1.876v.723h-1.876v.937h2.2Z" transform="translate(-2528.199 -2351.323)" fill="#9d9d9c"/>
      <path id="Path_443" data-name="Path 443" d="M2703.675,2355.436l-.776-1.122h-.862v1.122h-.937V2351.4h1.745a2.315,2.315,0,0,1,.93.177,1.373,1.373,0,0,1,.607.507,1.436,1.436,0,0,1,.215.777,1.355,1.355,0,0,1-.215.776,1.376,1.376,0,0,1-.615.5l.907,1.3Zm-.239-3.1a.969.969,0,0,0-.638-.184h-.761v1.406h.761a.97.97,0,0,0,.638-.184.715.715,0,0,0,0-1.038Z" transform="translate(-2581.556 -2351.323)" fill="#9d9d9c"/>
      <path id="Path_444" data-name="Path 444" d="M2761.569,2354.313a1.973,1.973,0,0,1-.784-.746,2.071,2.071,0,0,1,.784-2.9,2.5,2.5,0,0,1,2.068-.084,1.892,1.892,0,0,1,.715.53l-.6.553a1.284,1.284,0,0,0-1.014-.469,1.347,1.347,0,0,0-.669.161,1.209,1.209,0,0,0-.461.461,1.306,1.306,0,0,0-.161.669,1.343,1.343,0,0,0,.161.669,1.207,1.207,0,0,0,.461.461,1.342,1.342,0,0,0,.669.162,1.294,1.294,0,0,0,1.014-.477l.6.553a1.911,1.911,0,0,1-.715.538,2.378,2.378,0,0,1-.953.184A2.318,2.318,0,0,1,2761.569,2354.313Z" transform="translate(-2636.391 -2350.401)" fill="#9d9d9c"/>
      <path id="Path_445" data-name="Path 445" d="M2829.9,2351.4v4.035h-.938v-1.653h-1.829v1.653h-.938V2351.4h.938v1.591h1.829V2351.4Z" transform="translate(-2697.041 -2351.323)" fill="#9d9d9c"/>
      <path id="Path_446" data-name="Path 446" d="M2897.428,2354.682v.754H2894.3V2351.4h3.052v.754h-2.122v.876h1.876v.723h-1.876v.937h2.2Z" transform="translate(-2759.907 -2351.323)" fill="#9d9d9c"/>
    </g>
  </g>
</svg>
