<svg xmlns="http://www.w3.org/2000/svg" width="314" height="93.858" viewBox="0 0 314 93.858">
  <g id="arthrostraplogo-logo" transform="translate(-105.2 -37.1)">
    <path id="Path_82" data-name="Path 82" d="M291.08,53.851a20.95,20.95,0,0,0-4.62-.257l4.364,9.583c.428.941.856,1.8,1.369,2.738a20.615,20.615,0,0,1,1.968,4.962c1.027,7.187-4.107,7.529-6.417,7.957a6.8,6.8,0,0,1-3.422-.342c-.086-.086-.257-.086-.342-.171h0s-2.995-1.369-2.31-3.593c0-.086.086-.171.086-.257a11.5,11.5,0,0,0,.6-2.31c0-.257.086-.513.086-.856a9.459,9.459,0,0,0-.685-5.3c-1.027-2.4-2.481-5.989-4.021-9.925a21.288,21.288,0,0,0-11.294,15.657l-.685,4.021A21.491,21.491,0,0,0,273.968,96.2c.77-2.4,1.54-4.535,1.968-5.989a10.591,10.591,0,0,0-.086-3.679c-.171-.513-.342-1.2-.6-2.139-1.2-4.877,1.369-4.962,1.626-3.765v.086c0,1.626,2.909,4.535,3.337,4.877a5.983,5.983,0,0,1,1.112,1.454,1.651,1.651,0,0,1,.257.856c.257,1.283-.77,1.454-2.225,3.251a35.807,35.807,0,0,0-2.567,6.674,16.44,16.44,0,0,0,3.337,1.455l2.995-8.043c.086-.171.086-.257.171-.428a6.291,6.291,0,0,0-1.369-5.818l-.086-.086c-1.2-1.2-4.706-3.936-2.224-5.3,3.251-1.8,2.909,1.626,7.1,1.283s8.984-4.107,9.839.257-4.535,6.759-5.219,7.786c-.171.257-2.4,5.732-4.706,11.379a21.455,21.455,0,0,0,21.475-18.053l.6-4.021a21.918,21.918,0,0,0,.257-3.337A21.073,21.073,0,0,0,291.08,53.851Zm6.759,25.582h0v.086c-.171.342-.171.428-.513-.086a4.145,4.145,0,0,0-2.481-1.454c-.856-.086-.257-.77.171-1.8a8.919,8.919,0,0,0,.171-6.674c-.257-.77-.171-.941.171-.684h0C300.577,72.332,298.267,78.578,297.839,79.433ZM276.963,97.914l-2.738-1.8A12.635,12.635,0,0,0,276.963,97.914Z" transform="translate(-23.148 -2.377)" fill="#fff"/>
    <g id="Group_44" data-name="Group 44" transform="translate(105.2 37.1)">
      <path id="Path_83" data-name="Path 83" d="M129.67,43.356a.844.844,0,0,0-.77-.856l-7.615.257a.981.981,0,0,0-.941.77L105.2,95.632a.63.63,0,0,0,.684.684l7.1-.257c.342,0,.513-.086.6-.257a1.875,1.875,0,0,0,.257-.684l2.567-10.609,7.786-.342.513,11.379c0,.428.257.684.77.684l7.187-.257c.6-.086.856-.342.856-.856ZM118.376,77.322l4.791-19.764.941,19.593Z" transform="translate(-105.2 -37.88)" fill="#fff"/>
      <path id="Path_84" data-name="Path 84" d="M165.928,56.471a27.912,27.912,0,0,0-3.166-.171,7.7,7.7,0,0,0-4.107,1.283,24.937,24.937,0,0,0-4.278,3.508L154.8,57.5c0-.6-.342-.856-.941-.856l-6.674.257c-.513,0-.77.342-.856.856L141.8,97.8c0,.428.257.6.77.684l6.93-.257a.937.937,0,0,0,.856-.941l3.422-30.373a14.641,14.641,0,0,1,7.529-1.8l3.679.428c.513,0,.856-.342,1.027-.941a46.976,46.976,0,0,0,.77-7.1C166.7,56.813,166.441,56.471,165.928,56.471Z" transform="translate(-110.486 -39.873)" fill="#fff"/>
      <path id="Path_85" data-name="Path 85" d="M195.419,54.857l-8.043.257c.257-2.31.684-4.791,1.112-7.358a.834.834,0,0,0-.941-.856l-6.588.257c-.342,0-.6.086-.684.257-.171.171-.513,2.823-1.027,7.871L176,55.37a.767.767,0,0,0-.856.856l-.941,5.561a.767.767,0,0,0,.856.856l3.422-.171c-1.8,13.347-2.738,21.646-2.738,24.9s.856,5.732,2.567,7.358,4.278,2.481,7.871,2.481a24.5,24.5,0,0,0,5.134-.342,4.826,4.826,0,0,0,1.711-.6,3.981,3.981,0,0,0,.257-.77l.684-5.989c0-.6-.257-.856-.684-.856a7.981,7.981,0,0,0-2.053.6,11.434,11.434,0,0,1-3.422.513c-2.31,0-3.422-1.369-3.422-4.021,0-1.454.77-9.24,2.31-23.272l7.871-.342c.513,0,.77-.342.856-.856l.941-5.476C196.189,55.2,195.932,54.943,195.419,54.857Z" transform="translate(-115.165 -38.515)" fill="#fff"/>
      <path id="Path_86" data-name="Path 86" d="M230.289,59.773c-1.027-4.192-3.422-6.331-7.272-6.331a14.423,14.423,0,0,0-9.5,3.936l2.139-19.336c0-.513-.342-.856-.941-.941l-6.759.257a.842.842,0,0,0-.684.257,2.9,2.9,0,0,0-.257.684L200.6,94.938c0,.428.257.6.77.684l6.93-.257a.937.937,0,0,0,.856-.941L212.835,62a11.215,11.215,0,0,1,4.278-.856,5.6,5.6,0,0,1,3.422,1.027q1.283,1.027,1.283,3.85a10.908,10.908,0,0,1-.086,1.626l-3.166,27.293c0,.428.257.6.77.684l6.93-.257a.937.937,0,0,0,.856-.941l3.337-28.919a20.181,20.181,0,0,0,.086-2.481A14.643,14.643,0,0,0,230.289,59.773Z" transform="translate(-118.977 -37.1)" fill="#fff"/>
      <path id="Path_87" data-name="Path 87" d="M263.128,56.471a27.913,27.913,0,0,0-3.166-.171,7.7,7.7,0,0,0-4.107,1.283,24.939,24.939,0,0,0-4.278,3.508L252,57.5c0-.6-.342-.856-.941-.856l-6.674.257c-.513,0-.77.342-.856.856L239,97.8c0,.428.257.6.77.684l6.93-.257a.937.937,0,0,0,.856-.941l3.422-30.373a14.641,14.641,0,0,1,7.529-1.8l3.679.428c.513,0,.856-.342,1.027-.941a46.975,46.975,0,0,0,.77-7.1C263.812,56.813,263.555,56.471,263.128,56.471Z" transform="translate(-124.523 -39.873)" fill="#fff"/>
      <path id="Path_88" data-name="Path 88" d="M335.006,56.542a31.878,31.878,0,0,0-5.561-.342c-3.679,0-6.5,1.027-8.385,2.995a10.454,10.454,0,0,0-2.909,7.786,16.465,16.465,0,0,0,.684,4.363,21.241,21.241,0,0,0,1.369,3.679c.428.856,1.027,2.053,1.8,3.508s1.54,2.909,2.225,4.278a9.724,9.724,0,0,1,1.027,4.449c0,2.225-1.369,3.337-4.192,3.337a11.285,11.285,0,0,1-2.652-.428,9.614,9.614,0,0,0-2.053-.342c-.342,0-.6.257-.6.856L314.9,97.1a1,1,0,0,0,.171.6,9.958,9.958,0,0,0,1.968.513,24.864,24.864,0,0,0,4.877.342q6.16,0,9.24-2.823c2.053-1.882,3.08-4.535,3.08-8.042a17.324,17.324,0,0,0-1.968-7.529c-.428-.856-1.2-2.31-2.4-4.363a27.643,27.643,0,0,1-2.4-5.39,11.072,11.072,0,0,1-.513-3.166,2.836,2.836,0,0,1,.941-2.225,3.99,3.99,0,0,1,2.567-.77l3.936.171c.428,0,.6-.342.6-.941l.77-6.16C335.862,56.97,335.52,56.713,335.006,56.542Z" transform="translate(-135.484 -39.858)" fill="#fff"/>
      <path id="Path_89" data-name="Path 89" d="M365.519,54.857l-8.043.257c.342-2.31.685-4.791,1.112-7.358a.834.834,0,0,0-.941-.856l-6.588.257c-.342,0-.6.086-.684.257-.171.171-.513,2.823-1.027,7.871l-3.251.086a.767.767,0,0,0-.856.856l-.941,5.561a.767.767,0,0,0,.856.856l3.422-.171c-1.8,13.347-2.738,21.646-2.738,24.9s.856,5.732,2.567,7.358,4.278,2.481,7.871,2.481a24.5,24.5,0,0,0,5.134-.342,4.826,4.826,0,0,0,1.711-.6,3.985,3.985,0,0,0,.257-.77l.684-5.989c0-.6-.257-.856-.684-.856a7.98,7.98,0,0,0-2.053.6,9.243,9.243,0,0,1-3.422.513c-2.31,0-3.422-1.369-3.422-4.021,0-1.454.77-9.24,2.31-23.272l7.871-.342c.513,0,.77-.342.856-.856l.941-5.476C366.289,55.2,366.032,54.943,365.519,54.857Z" transform="translate(-139.729 -38.515)" fill="#fff"/>
      <path id="Path_90" data-name="Path 90" d="M395.1,56.471a27.914,27.914,0,0,0-3.166-.171,8.2,8.2,0,0,0-4.192,1.283,24.941,24.941,0,0,0-4.278,3.508l.428-3.593c0-.6-.342-.856-.941-.856l-6.759.257c-.513,0-.77.342-.856.856L370.8,97.8c0,.428.257.6.77.684l6.93-.257a.937.937,0,0,0,.856-.941l3.422-30.373a14.641,14.641,0,0,1,7.529-1.8l3.679.428c.513,0,.856-.342,1.027-.941a46.977,46.977,0,0,0,.77-7.1C395.869,56.813,395.612,56.471,395.1,56.471Z" transform="translate(-143.556 -39.873)" fill="#fff"/>
      <path id="Path_91" data-name="Path 91" d="M429.848,56.557l-6.759.257a.808.808,0,0,0-.856.856l-.428,4.706a12.13,12.13,0,0,0-2.823-4.535A6.949,6.949,0,0,0,414.1,56.3a8.785,8.785,0,0,0-7.1,3.422,14.974,14.974,0,0,0-2.225,3.679,23.547,23.547,0,0,0-1.54,4.278c-.342,1.369-.856,3.422-1.369,6.075a52.355,52.355,0,0,0-.77,9.754,28.324,28.324,0,0,0,1.2,9.069,11.166,11.166,0,0,0,1.711,3.166,7.643,7.643,0,0,0,2.738,2.139,9.612,9.612,0,0,0,4.021.856,6.743,6.743,0,0,0,4.192-1.454,12.868,12.868,0,0,0,3.422-4.107l-.684,4.706c0,.428.257.6.77.684l6.93-.257c.513,0,.856-.342.941-.941l4.449-39.7C430.7,56.9,430.361,56.642,429.848,56.557ZM419.324,81.8c-.6,3.593-1.283,5.9-2.053,7.1a3.65,3.65,0,0,1-3.166,1.8c-2.909,0-4.449-2.738-4.449-8.214a52.825,52.825,0,0,1,1.369-11.55,13.516,13.516,0,0,1,1.8-4.706,3.553,3.553,0,0,1,3.166-1.8,3.185,3.185,0,0,1,2.909,1.454,12.932,12.932,0,0,1,.77,1.54,5.592,5.592,0,0,1,.342,1.8c.086.684.086,1.283.171,1.711v3.08A51.839,51.839,0,0,1,419.324,81.8Z" transform="translate(-147.932 -39.873)" fill="#fff"/>
      <path id="Path_92" data-name="Path 92" d="M465.659,62.36a10.11,10.11,0,0,0-1.711-3.166,7.643,7.643,0,0,0-2.738-2.139,9.319,9.319,0,0,0-4.021-.856A6.743,6.743,0,0,0,453,57.654a14.689,14.689,0,0,0-3.508,4.192l.684-4.62c0-.428-.257-.684-.77-.684l-6.93.257c-.513,0-.77.342-.856.856L435.2,114.123c0,.6.342.856.941.856l6.759-.257a.767.767,0,0,0,.856-.856l2.053-21.817a13.153,13.153,0,0,0,2.909,4.877c1.112,1.112,2.995,1.626,5.561,1.626a8.348,8.348,0,0,0,6.674-3.422,14.978,14.978,0,0,0,2.225-3.679,23.552,23.552,0,0,0,1.54-4.278c.428-1.369.856-3.422,1.369-6.075a52.36,52.36,0,0,0,.77-9.754A25.881,25.881,0,0,0,465.659,62.36Zm-8.812,21.561a14.037,14.037,0,0,1-1.8,4.791,3.553,3.553,0,0,1-3.166,1.8,3.081,3.081,0,0,1-2.909-1.54,11.144,11.144,0,0,1-.685-1.454,5.594,5.594,0,0,1-.342-1.8,8.829,8.829,0,0,0-.171-1.711V81.012a52.962,52.962,0,0,1,.856-7.786q.9-5.39,2.053-7.187a3.568,3.568,0,0,1,3.166-1.711c2.909,0,4.449,2.738,4.449,8.214A60.859,60.859,0,0,1,456.846,83.921Z" transform="translate(-152.857 -39.858)" fill="#fff"/>
    </g>
    <g id="Group_47" data-name="Group 47" transform="translate(256.468 101.526)">
      <g id="Group_46" data-name="Group 46" transform="translate(0 0)">
        <g id="Group_45" data-name="Group 45">
          <path id="Path_93" data-name="Path 93" d="M286.021,112.742l-.77,5.989a9.951,9.951,0,0,0-.513,1.369L282,119.33l.77-6.5c0-.086,0-.257.086-.257.086-.086.086-.086.257-.086l2.652-.086C285.936,112.4,286.021,112.486,286.021,112.742Z" transform="translate(-282 -112.4)" fill="#fff"/>
        </g>
      </g>
    </g>
    <g id="Group_48" data-name="Group 48" transform="translate(254.585 101.44)">
      <path id="Path_94" data-name="Path 94" d="M291.094,121.113a6.113,6.113,0,0,0-.684-1.283,3.424,3.424,0,0,0-1.027-.856,4.178,4.178,0,0,0-1.626-.342,2.543,2.543,0,0,0-1.711.684,6.189,6.189,0,0,0-1.455,1.968l.342-2.652.77-5.989c0-.257-.086-.342-.342-.342l-2.652.086c-.171,0-.171,0-.257.086,0,.086-.086.171-.086.257l-.77,6.5-1.8,15.657a.227.227,0,0,0,.257.257l2.738-.086a.368.368,0,0,0,.342-.342l.171-1.968a5.458,5.458,0,0,0,1.112,1.882,3.046,3.046,0,0,0,2.139.6,3.16,3.16,0,0,0,2.567-1.283,5.931,5.931,0,0,0,.856-1.455,13.578,13.578,0,0,0,.6-1.711,18.187,18.187,0,0,0,.513-2.4,22.885,22.885,0,0,0,.342-3.85A9.783,9.783,0,0,0,291.094,121.113Zm-3.422,8.47a7.935,7.935,0,0,1-.684,1.882,1.337,1.337,0,0,1-1.283.684,1.085,1.085,0,0,1-1.112-.6,4.179,4.179,0,0,1-.257-.6c-.086-.171-.086-.428-.171-.684,0-.257-.086-.513-.086-.684v-1.2a19.06,19.06,0,0,1,.342-3.08,7.843,7.843,0,0,1,.856-2.823,1.474,1.474,0,0,1,1.2-.684c1.112,0,1.711,1.112,1.711,3.251A22.311,22.311,0,0,1,287.671,129.583Z" transform="translate(-279.8 -112.3)" fill="#26a285"/>
      <path id="Path_95" data-name="Path 95" d="M306.88,120l-2.652.086c-.171,0-.257.086-.342.342l-3.251,11.294-1.027-11.379c0-.257-.086-.342-.342-.342l-2.652.086c-.257,0-.342.086-.342.342l2.139,15.657-2.31,6.588a.227.227,0,0,0,.257.257l2.738-.086a.437.437,0,0,0,.428-.342l7.786-22.074C307.223,120.086,307.137,120,306.88,120Z" transform="translate(-282.154 -113.412)" fill="#26a285"/>
      <path id="Path_96" data-name="Path 96" d="M325.566,115.583a4.652,4.652,0,0,0-3.508-1.283c-1.54,0-2.738,0-3.593.086s-1.283.171-1.369.171c-.086.086-.086.086-.086.257l-2.31,20.449a.227.227,0,0,0,.257.257l3.337-.086a10.533,10.533,0,0,0,2.481-.257,5.2,5.2,0,0,0,3.251-1.711,9.5,9.5,0,0,0,1.626-4.364,54.138,54.138,0,0,0,.941-9.839A4.739,4.739,0,0,0,325.566,115.583ZM323,124.4c-.171,1.968-.428,3.508-.6,4.62a3.67,3.67,0,0,1-1.112,2.31,5.071,5.071,0,0,1-2.823.77l1.626-14.716H321.2a2.013,2.013,0,0,1,1.455.513,2.316,2.316,0,0,1,.513,1.626A24.575,24.575,0,0,1,323,124.4Z" transform="translate(-284.84 -112.589)" fill="#26a285"/>
      <path id="Path_97" data-name="Path 97" d="M339.7,119.886c-.257,0-.684-.086-1.283-.086a3.024,3.024,0,0,0-1.626.513,7.68,7.68,0,0,0-1.626,1.369l.171-1.369a.313.313,0,0,0-.342-.342l-2.652.086a.313.313,0,0,0-.342.342l-1.8,15.743a.227.227,0,0,0,.257.257l2.738-.086c.171,0,.257-.171.342-.342l1.369-11.893a6.089,6.089,0,0,1,2.909-.685l1.454.171c.257,0,.342-.086.428-.342a25.841,25.841,0,0,0,.342-2.738C340.039,120.057,339.868,119.971,339.7,119.886Z" transform="translate(-287.078 -113.383)" fill="#26a285"/>
      <path id="Path_98" data-name="Path 98" d="M345.265,134.8a2.064,2.064,0,0,0-1.455-.6,2.5,2.5,0,0,0-1.626.684,1.968,1.968,0,0,0-.684,1.54,2.324,2.324,0,0,0,.513,1.454,2.019,2.019,0,0,0,1.369.6,2.691,2.691,0,0,0,1.626-.684,1.968,1.968,0,0,0,.685-1.54A2.24,2.24,0,0,0,345.265,134.8Z" transform="translate(-288.71 -115.463)" fill="#26a285"/>
      <path id="Path_99" data-name="Path 99" d="M365.81,114.471a2.258,2.258,0,0,1-.6-.086,12.792,12.792,0,0,0-2.139-.086,6.944,6.944,0,0,0-2.995.6,5.283,5.283,0,0,0-1.968,1.711,12.128,12.128,0,0,0-1.283,4.192,53.987,53.987,0,0,0-1.027,9.668,5.406,5.406,0,0,0,1.112,3.679,3.863,3.863,0,0,0,3.251,1.369,13.062,13.062,0,0,0,2.567-.257l1.283-.257a.375.375,0,0,0,.086-.257l.342-2.481c0-.257-.086-.342-.257-.342-.086,0-.6.086-1.454.171s-1.369.171-1.711.171c-1.2,0-1.711-.685-1.711-1.968a39.833,39.833,0,0,1,.342-4.791,40.865,40.865,0,0,1,.685-4.962,5.228,5.228,0,0,1,1.027-2.481,2.737,2.737,0,0,1,1.968-.684,7.391,7.391,0,0,1,1.283.086,5.837,5.837,0,0,0,1.027.086c.171,0,.257-.086.257-.342l.342-2.481A.915.915,0,0,1,365.81,114.471Z" transform="translate(-290.775 -112.589)" fill="#26a285"/>
      <path id="Path_100" data-name="Path 100" d="M377.4,119.886c-.257,0-.685-.086-1.2-.086a3.024,3.024,0,0,0-1.626.513,10.854,10.854,0,0,0-1.711,1.369l.171-1.369c0-.257-.086-.342-.342-.342l-2.652.086c-.171,0-.257.086-.342.342l-1.8,15.743a.227.227,0,0,0,.257.257l2.738-.086a.368.368,0,0,0,.342-.342l1.369-11.893a6.089,6.089,0,0,1,2.909-.685l1.455.171c.257,0,.342-.086.428-.342a13.7,13.7,0,0,0,.342-2.738C377.654,120.057,377.568,119.971,377.4,119.886Z" transform="translate(-292.523 -113.383)" fill="#26a285"/>
      <path id="Path_101" data-name="Path 101" d="M391.265,119.971l-2.738.086a.313.313,0,0,0-.342.342l-1.455,12.663a4.352,4.352,0,0,1-1.711.342,1.571,1.571,0,0,1-1.283-.428,2.2,2.2,0,0,1-.428-1.54v-.684l1.2-10.695a.227.227,0,0,0-.257-.257l-2.738.086a.313.313,0,0,0-.342.342l-1.283,11.294c0,.342-.086.6-.086.77a4.976,4.976,0,0,0,.77,2.823,2.56,2.56,0,0,0,2.31,1.112,5.56,5.56,0,0,0,3.679-1.455l-.086,1.027c0,.257.086.342.342.342l2.652-.086a.313.313,0,0,0,.342-.342l1.711-15.657A.375.375,0,0,0,391.265,119.971Z" transform="translate(-294.241 -113.383)" fill="#26a285"/>
      <path id="Path_102" data-name="Path 102" d="M399.691,119.076l-2.652.086a.313.313,0,0,0-.342.342l-1.8,15.743c0,.171.086.257.342.257l2.738-.086a.314.314,0,0,0,.257-.086c0-.086.086-.171.086-.257l1.8-15.572C400.119,119.161,399.948,119.076,399.691,119.076Zm.6-4.962a1.807,1.807,0,0,0-1.369-.513,2.481,2.481,0,0,0-1.54.684,2.109,2.109,0,0,0-.684,1.454,1.943,1.943,0,0,0,.513,1.369,1.806,1.806,0,0,0,1.369.513,2.481,2.481,0,0,0,1.54-.684,2.109,2.109,0,0,0,.684-1.454A1.806,1.806,0,0,0,400.29,114.113Z" transform="translate(-296.422 -112.488)" fill="#26a285"/>
      <path id="Path_103" data-name="Path 103" d="M409.986,119.971a13.471,13.471,0,0,0-2.139-.171A4.2,4.2,0,0,0,404.6,121a4.137,4.137,0,0,0-1.112,3.08,6.394,6.394,0,0,0,.257,1.711,9.17,9.17,0,0,0,.513,1.454c.171.342.428.77.684,1.369a15.952,15.952,0,0,1,.856,1.711,4.21,4.21,0,0,1,.428,1.711c0,.856-.6,1.283-1.626,1.283a5.125,5.125,0,0,1-1.027-.171c-.428-.086-.685-.171-.77-.171-.171,0-.257.086-.257.342L402.2,135.8a.314.314,0,0,0,.086.257c.086.086.342.086.77.171a10.9,10.9,0,0,0,1.882.171,4.9,4.9,0,0,0,3.593-1.112,4.256,4.256,0,0,0,1.2-3.166,7.062,7.062,0,0,0-.77-2.995c-.171-.342-.513-.941-.941-1.711a10.922,10.922,0,0,1-.941-2.139,3.325,3.325,0,0,1-.171-1.283,1.307,1.307,0,0,1,.342-.856,1.623,1.623,0,0,1,1.027-.342l1.54.086c.171,0,.257-.086.257-.342l.257-2.4A.371.371,0,0,0,409.986,119.971Z" transform="translate(-297.476 -113.383)" fill="#26a285"/>
      <path id="Path_104" data-name="Path 104" d="M423.011,121.169a3.474,3.474,0,0,0-2.995-1.369c-3.422,0-5.476,2.225-6.16,6.759a28.067,28.067,0,0,0-.257,3.422,14.589,14.589,0,0,0,.086,2.139,15.452,15.452,0,0,0,.428,1.626,5.343,5.343,0,0,0,.856,1.369,3.256,3.256,0,0,0,1.369.941,6.176,6.176,0,0,0,2.4.342,10.626,10.626,0,0,0,3.166-.513c.086,0,.171-.086.257-.171a.375.375,0,0,0,.086-.257l.257-2.4c0-.171,0-.257-.086-.342a.314.314,0,0,0-.257-.086,5.405,5.405,0,0,0-1.112.342,7.289,7.289,0,0,1-1.968.342,1.677,1.677,0,0,1-1.626-.856,4.744,4.744,0,0,1-.513-2.4v-.513l6.674-.257a.391.391,0,0,0,.428-.342,34.457,34.457,0,0,0,.257-4.192A6.3,6.3,0,0,0,423.011,121.169Zm-2.31,5.647c-.086,0-.171.086-.257.086l-3.508.171.086-.856c.257-1.711.77-2.738,1.369-3.166a2.266,2.266,0,0,1,1.2-.257,1,1,0,0,1,1.027.856,2.5,2.5,0,0,1,.171.77c0,.257.086.684.086,1.283S420.872,126.645,420.7,126.816Z" transform="translate(-299.123 -113.383)" fill="#26a285"/>
    </g>
  </g>
</svg>
