<?xml version="1.0" encoding="utf-8"?>
<!-- Generator: Adobe Illustrator 24.2.1, SVG Export Plug-In . SVG Version: 6.00 Build 0)  -->
<svg version="1.1" id="Warstwa_1" xmlns="http://www.w3.org/2000/svg" xmlns:xlink="http://www.w3.org/1999/xlink" x="0px" y="0px"
	 viewBox="0 0 124.9 128.6" style="enable-background:new 0 0 124.9 128.6;" xml:space="preserve">
<style type="text/css">
	.st0{fill:#25A285;}
	.st1{fill:#FFFFFF;}
</style>
<g id="Group_199" transform="translate(-460 -3611.038)">
	<g transform="matrix(1, 0, 0, 1, 460, 3611.04)">
		<circle id="Ellipse_19-2" class="st0" cx="60" cy="68.6" r="60"/>
	</g>
	<g id="Group_167" transform="translate(434.134 -334)">
		<path id="icon-natural" class="st1" d="M149.1,3958.6c-1-3.2-2.3-6.3-3.9-9.2c-0.4-0.6-1.1-0.9-1.8-0.8c-3.1,0.8-6.1,2-9,3.5
			c-6.4,3.3-10.9,7.8-12.9,12.9c-1.7,4.3-2,9.5-0.7,15.2c-2.5-3-5.5-5.7-8.7-7.9c-2.1-4.3-4.6-8.3-7.5-12.1
			c-1.3-1.7-3.9,0.4-2.5,2.2c2.2,2.9,4.3,6,6,9.3l-14.8-3l-14.1-20.1c1.4,0,2.8,0.2,4.1,0.4c4.8,1.1,9.2,3.5,12.7,6.9
			c1.6,1.4,3.7-1.2,2.1-2.6c-4-3.8-8.9-6.4-14.2-7.6c-7.5-1.5-16.1,0.5-25.1,5.8c-4.1,2.4-7.9,5.3-11.4,8.5
			c-0.6,0.6-0.7,1.6-0.2,2.3c2,4.2,4.5,8.3,7.3,12c2.3,3,4.8,5.8,7.7,8.3c-0.8,0.7-1.5,1.4-2.2,2.1c-3.8,3.9-6.7,8.5-8.6,13.6
			c-1.7,4.5-2.6,9.3-2.7,14.2c-0.1,8,2.1,15.8,6.5,22.5c4.1,6.4,10,11.4,17,14.5c1.9,0.8,3.2-2.3,1.2-3.2c-2.5-1.1-4.9-2.4-7-4.1
			c0.7-4.7-0.3-9.4-2.8-13.5c-0.5-0.8,1-4.2,1.9-6.1c1-2,1.8-4,2.4-6.1c0.6-1.9-0.1-3.9-1.6-5.1c-1.2-0.8-2.5-1.4-3.9-1.8
			c-0.7-0.2-1.5-0.5-2.1-0.9c-0.7-0.6-1.8-2.9-2.8-4.7c-0.8-1.8-1.8-3.5-3-5.1c2.2-5.5,5.7-10.4,10.3-14.2c4,3,8.7,4.8,13.7,5.3
			c-5.7,4.7-7.6,10.6-4.9,16.4c3.1,6.7,9.5,5.6,15.1,4.7c1-0.2,2-0.3,2.9-0.5c0.4,0,0.5,0.1,0.5,0.1c1.2,1.2,1.2,6.7,1.2,10.7
			c0,5.6-0.1,10.8,1.9,13.5c0.9,1.3,2.5,2.1,4.1,2.1c1.1,0,2.2-0.3,3.2-0.8c4.9-2.2,10-8.8,9.2-14.1c-0.7-4.6-1.1-7.6-0.1-10.1
			c1-2.3,3.3-4.4,8-7c0.6,2.7,0.8,5.5,0.8,8.2c0,9.5-3.7,18.6-10.3,25.4c-7.2,7.5-17.5,11.2-27.8,10.1c-2.1-0.2-2.4,3.2-0.4,3.4
			c11.3,1.2,22.5-2.8,30.4-11c15.5-16.2,15-41.9-1.2-57.5c-1.4-1.4-3-2.6-4.6-3.8c2.1-1.6,3.7-3,4.6-3.8c3.9,2.9,7.2,6.5,9.9,10.5
			c6.7,9.9,9.4,22,7.5,33.8c-3.9,24.6-26.1,41.4-49.6,37.3c-11.5-2-21.6-8.6-28-18.3c-6.7-9.9-9.4-22-7.5-33.8
			c0.2-0.9-0.4-1.7-1.3-1.9c-0.9-0.2-1.7,0.4-1.9,1.3c0,0,0,0,0,0c-2.1,12.7,0.8,25.7,8.1,36.3c7,10.4,17.8,17.5,30.2,19.7
			c12.2,2.1,24.7-0.9,34.6-8.5c10.1-7.7,16.9-19.1,18.8-31.7c1.5-9.2,0.4-18.7-3.2-27.4c2.6-0.8,5.1-1.8,7.5-3.1
			c6.4-3.3,10.9-7.8,12.9-12.9S151.3,3965.8,149.1,3958.6L149.1,3958.6z M54.7,4005.5c1.2,2.4,2.4,4.7,3.5,5.7
			c1,0.7,2.1,1.2,3.3,1.5c3.2,1,3.5,1.5,3.2,2.8c-0.5,1.9-1.3,3.7-2.1,5.4c-1.7,3.6-3.3,7-1.8,9.5c1.7,2.7,2.5,5.9,2.5,9.1
			c-9.8-9.5-13.6-23.6-10-36.8C53.8,4003.6,54.3,4004.6,54.7,4005.5L54.7,4005.5z M133.4,3972l-4.6-11.8c2.1-2,4.5-3.7,7.1-5
			c1.7-0.9,3.4-1.6,5.1-2.3L133.4,3972z M144,3954.3c0.8,1.8,1.5,3.6,2,5.5c0.8,2.7,1.3,5.4,1.5,8.2l-10.8,4.7L144,3954.3z
			 M124.5,3966.4c0.5-1.2,1.1-2.3,1.8-3.3l5.3,13.4l-4.7,11.8c-0.8-1.8-1.5-3.7-2.1-5.6C123.5,3978.3,122.3,3971.8,124.5,3966.4
			L124.5,3966.4z M135,3987.2c-1.6,0.8-3.3,1.6-5,2.2l4.9-12.3l12.5-5.4c-0.2,1.5-0.5,2.9-1.1,4.3
			C144.1,3981.5,138.9,3985.1,135,3987.2L135,3987.2z M76.3,3986.2c-0.6-0.1-1.1-0.3-1.7-0.4l18-13.8l14.8,3
			C102,3979.4,88.9,3988.8,76.3,3986.2L76.3,3986.2z M59.9,3975.5c-3.2-3.7-6-7.7-8.3-12l18.9,3.9L59.9,3975.5z M63.2,3952.8
			l7.9,11.3l-19-3.9C55.6,3957.3,59.3,3954.8,63.2,3952.8z M75.8,3965l-9.6-13.7c2.9-1.3,6-2.2,9.1-2.6l13.2,18.9L75.8,3965z
			 M74.8,3968.3l13.5,2.8L71,3984.4c-3.2-1.6-6.2-3.8-8.8-6.4L74.8,3968.3z M118.9,4001.6c-5.9,3.3-8.7,5.9-10.1,9
			c-1.5,3.4-0.9,7-0.2,12c0.4,3-2.9,8.5-7.3,10.4c-1.6,0.7-2.8,0.6-3.4-0.3c-1.3-1.8-1.3-7.1-1.2-11.4c0-5.9,0.1-11.1-2.3-13.2
			c-0.8-0.8-2-1.1-3.1-1c-1,0.1-2.1,0.3-3.1,0.5c-6,1-9.7,1.4-11.7-2.8c-3.2-6.8,3.2-11.9,6.1-13.7c0.6-0.4,1.1-0.8,1.6-1.3
			c7-0.9,13.6-4,19.5-8C111.1,3986.4,116.4,3993.4,118.9,4001.6z"/>
	</g>
</g>
</svg>
