<?xml version="1.0" encoding="utf-8"?>
<!-- Generator: Adobe Illustrator 24.2.1, SVG Export Plug-In . SVG Version: 6.00 Build 0)  -->
<svg version="1.1" id="Warstwa_1" xmlns="http://www.w3.org/2000/svg" xmlns:xlink="http://www.w3.org/1999/xlink" x="0px" y="0px"
	 viewBox="0 0 136 120" style="enable-background:new 0 0 136 120;" xml:space="preserve">
<style type="text/css">
	.st0{fill:#26A285;}
	.st1{fill:#FFFFFF;}
</style>
<g id="Group_166" transform="translate(-31 -4122)">
	<g transform="matrix(1, 0, 0, 1, 31, 4122)">
		<circle id="Ellipse_9-2" class="st0" cx="70" cy="60" r="60"/>
	</g>
	<g id="icon-active" transform="translate(36 4149.119)">
		<path id="Path_304" class="st1" d="M77.9,26c-0.8-0.7-2.1-0.6-2.8,0.2l-7.1,8.4c-1.5-0.8-3.2-1.3-4.9-1.3c-0.3,0-0.5,0-0.8,0
			l-1.4,0.1L47.1,1.9h1.5c4.1,0,7.4-3.3,7.4-7.4C56-8,53.9-10,51.4-10H37.2c-2.5,0-4.6,2-4.6,4.6c0,4.1,3.3,7.4,7.4,7.4h2.8l3.8,8.6
			L35.2,21.7c-12-7.9-28.2-4.5-36,7.6s-4.5,28.2,7.6,36c12,7.9,28.2,4.5,36-7.6c1.1-1.7,2-3.5,2.7-5.4L63,53.6
			c5.6,0,10.1-4.5,10.1-10.1c0-2.3-0.8-4.5-2.2-6.3l7.1-8.4C78.8,28,78.7,26.7,77.9,26L77.9,26z M40-2c-1.9,0-3.4-1.5-3.4-3.4
			c0-0.3,0.3-0.6,0.6-0.6h14.2C51.7-6,52-5.8,52-5.4C52-3.6,50.4-2,48.6-2H40z M35.6,26.9c2.5,2.2,4.5,4.9,5.8,8l-15.1,1.1
			L35.6,26.9z M21,65.5C8.9,65.5-1,55.6-1,43.5c0-12.2,9.9-22.1,22-22.1c4,0,7.9,1.1,11.3,3.1l-12.2,12c-3.8,0.5-6.6,4-6.1,7.8
			c0.4,3.3,3.2,5.9,6.5,6.1L41.4,52C37.9,60.2,29.9,65.5,21,65.5L21,65.5z M24,43.5c0,1.7-1.4,3-3,3c-1.7,0-3-1.4-3-3
			c0-1.7,1.4-3,3-3C22.7,40.4,24,41.8,24,43.5L24,43.5z M42.6,48.1l-15.5-1.1c1.2-2.1,1.2-4.8,0-6.9l15.5-1.1
			C43.2,41.9,43.2,45,42.6,48.1L42.6,48.1z M54.5,49l-7.9-0.6c0.6-3.2,0.6-6.6,0-9.8l7.9-0.6C52.4,41.3,52.4,45.6,54.5,49L54.5,49z
			 M45.5,34.6c-1.5-4-3.9-7.6-7.1-10.5l9.8-9.6l8.4,19.3L45.5,34.6z M63,49.6c-3.4,0-6.1-2.7-6.1-6.1s2.7-6.1,6.1-6.1
			c0.8,0,1.5,0.1,2.2,0.4l-3.8,4.4c-0.7,0.8-0.6,2.1,0.2,2.8s2.1,0.6,2.8-0.2l3.8-4.4c1.7,2.9,0.8,6.7-2.2,8.4
			C65.2,49.3,64.1,49.6,63,49.6L63,49.6z"/>
		<path id="Path_305" class="st1" d="M105,17.4c-2.6,0-5.2,0.4-7.7,1.2L87.6-6h11.3c0.3,0,0.6,0.3,0.6,0.6C99.5-3.6,98-2,96.1-2
			c-1.1,0-2,0.9-2,2c0,1.1,0.9,2,2,2c4.1,0,7.4-3.3,7.4-7.4c0-2.5-2.1-4.6-4.6-4.6H84.7c-1.1,0-2,0.9-2,2c0,0.2,0,0.5,0.1,0.7
			l6.5,16.7l-8.2,9.7c-0.7,0.8-0.6,2.1,0.2,2.8c0.8,0.7,2.1,0.6,2.8-0.2l6.8-8l2.5,6.4C80.6,26.4,75.3,42,81.6,54.9
			c6.3,12.9,21.9,18.3,34.8,11.9c12.9-6.3,18.3-21.9,11.9-34.8C124,23.1,114.9,17.4,105,17.4L105,17.4z M105,65.5
			c-12.2,0-22-9.9-22-22.1c0-8.3,4.7-15.9,12.1-19.6l5.5,14.2c-3,2.4-3.4,6.8-1,9.8s6.8,3.4,9.8,1c3-2.4,3.4-6.8,1-9.8
			c-1.5-1.8-3.8-2.8-6.2-2.5l-5.5-14.2c11.7-3.5,23.9,3.2,27.4,14.9c3.5,11.7-3.2,23.9-14.9,27.4C109.2,65.2,107.1,65.5,105,65.5
			L105,65.5z M101.9,43.5c0-1.7,1.4-3,3-3c1.7,0,3,1.4,3,3c0,1.7-1.4,3-3,3C103.3,46.5,101.9,45.1,101.9,43.5L101.9,43.5z"/>
	</g>
</g>
</svg>
