<svg xmlns="http://www.w3.org/2000/svg" width="89.858" height="67.392" viewBox="0 0 89.858 67.392">
  <g id="Group_90" data-name="Group 90" transform="translate(-215.387 -7463.121)">
    <path id="Path_138" data-name="Path 138" d="M89.633,21.261c.51.235.957-.059,1.4-.235,5.294-2.113,10.525-4.166,15.819-6.279a4.805,4.805,0,0,1,2.679-.587,8.661,8.661,0,0,1-2.679,1.291c-.893.411-2.169.411-1.914,1.878.064.528-.829.646-1.339.88-3.381,1.291-6.7,2.641-10.014,4.108-3.508,1.526-6.506,3.228-7.335,7.1-.383,1.819-1.658,3.462-2.807,5.105a11.537,11.537,0,0,1-4.082,3.58,45.932,45.932,0,0,0-9.7,6.455,1.673,1.673,0,0,1-.829.469.459.459,0,0,1-.638-.469,2.668,2.668,0,0,1,.7-1.467c4.21-6.338,8.739-12.441,15.436-16.959.574-.411,1.276-.822,1.212-1.584l.128.059-.064-.059c-1.021.822-2.36,1.115-3.444,1.819-2.488,1.643-5.549,2.289-8.037,3.873-2.551,1.584-5.358,2.817-7.846,4.46-.893.587-1.467,1.467-2.3,2.113-.51.411-1.084.822-1.786.352a1.282,1.282,0,0,1-.51-1.584c.446-1.819,1.34-3.521,1.786-5.4a52.558,52.558,0,0,0-4.656,4.4c-1.786,2.23-3.636,4.577-4.337,7.453-.191.822-.51,2.054-1.467,1.819-1.212-.352-.447-1.467-.255-2.347.446-2.23,1.977-4.225,1.85-6.572,1.276-1.056,1.595-2.641,2.3-3.99s.829-2.993,2.3-3.99c.128-.059.191-.235.319-.352.319-.235.7-.469,1.084-.117a.668.668,0,0,1,.128.822c-.446,1-.957,1.937-1.4,2.934-.255.587-.383,1.174-.574,1.76-.064.235-.064.469.255.528a1.262,1.262,0,0,0,.447-.117c1.85-1.76,3.763-3.462,4.529-5.927.255-.939.51-1.937.829-2.875a.632.632,0,0,1,.7-.528.875.875,0,0,1,.7.587c.319.763,0,1.467-.128,2.406,1.4-.763,1.786-2.054,2.743-2.817.638-.528,1.212-1.7,2.169-1.056,1.021.7-.191,1.467-.446,2.171-.191.411-.255.88-.829,1.056-.255,0-.51-.059-.7-.059a17.413,17.413,0,0,0-3.7,5.575c1.34-1.819,3.126-3.4,3.636-5.634.255.059.574.059.829.117-.893,2.817-3.062,5.047-4.465,7.629.829.411,1.021-.176,1.276-.469,2.551-2.817,5.358-5.457,7.463-8.626.957-1.408,1.786-2.934,2.679-4.4a3.389,3.389,0,0,1,.765-.88c.128-.117.446-.059.7.059a.443.443,0,0,1,.191.411c.064.646-.446,1.115-.7,1.7-.319.763-.893,1.408-.064,2.347.638.7-.383,1.526-.51,2.465,1.339-.469,1.914-1.643,2.934-2.347.638-.469,1.084-1.232,2.169-.646.447.235.765-.117,1.021-.411a13.964,13.964,0,0,0,1.212-1.467c.829-1.115,1.4-2.113,3.125-2.641,1.4-.469,2.615-2.054,3.317-3.58,1.531-3.051,2.743-6.22,4.018-9.389A28.23,28.23,0,0,1,96.777.9c.191-.293.446-.7.957-.528s.446.587.383,1A25.151,25.151,0,0,1,93.2,13.75a19.063,19.063,0,0,0-3.572,7.511l-.064.117ZM72.092,41.272c2.615-1.526,5.167-3.051,7.782-4.519A7.473,7.473,0,0,0,83,33.878c1.084-1.937,1.85-4.049,2.743-6.1.128-.352.638-.763,0-1.174C78.279,32.176,75.727,35.345,72.092,41.272ZM89.186,17.916a7.8,7.8,0,0,0-2.424,2.817,3.923,3.923,0,0,1-2.3,2.23c-.7.176-1.658.646-1.212,1.35.319.528,1.148-.235,1.658-.469,1.084-.587,2.551-.822,3.062-2.171A32.261,32.261,0,0,1,89.186,17.916ZM72.73,27.834c-.7.7-1.148,1.115-1.595,1.584-.191.176-.638.352-.383.7s.574,0,.829-.117C72.6,29.653,72.73,28.89,72.73,27.834Z" transform="translate(195.712 7462.792)" fill="#0f3c55" fill-rule="evenodd"/>
    <path id="Path_139" data-name="Path 139" d="M12.888,34.773c.51-.352.383-1,.765-1.408a1.076,1.076,0,0,1,1.084-.411c.51.117.574.528.574.939a26.453,26.453,0,0,1-.7,5.927c-1.276,5.164-2.551,10.328-3.891,15.492-.255,1-.574,1.937.893,2.465.638.235.446.939-.128.939-2.041,0-2.041,1.584-2.1,2.582-.191,2.347-1.212,4.46-1.914,6.631a3.336,3.336,0,0,1-2.1,2.406,2.186,2.186,0,0,0-1.595,1.819c-.383,1.467-.829,2.993-1.276,4.46a3,3,0,0,1-.574,1.467c-.191.235-.446.528-.765.469-.383-.059-.51-.352-.638-.646a5.646,5.646,0,0,1-.128-3.4c.574-2.641,1.276-5.223.7-7.922-.383-1.056.191-2,.829-2.875A10.523,10.523,0,0,0,3.64,59.655c1.148-5.105,2.807-10.093,4.337-15.081,1.4-4.695,3.125-9.331,4.784-14.025a24.4,24.4,0,0,1,2.3-5.047c.319-.469.7-.763,1.212-.411.446.293.128.646,0,1C14.93,28.964,13.463,31.722,12.888,34.773Zm-.064,4.166c-1.914,6.044-3.253,12.089-4.848,18.016,0,.059-.064.176-.064.235.064.293-.446.822.191.88.51.059.638-.411.765-.763.191-.646.383-1.35.51-2,.574-2.289,1.021-4.636,1.658-6.925A41.559,41.559,0,0,0,12.825,38.94ZM8.168,60.359a2.422,2.422,0,0,0-1.85,1.76c-.51,1.937-1.021,3.99-1.531,5.986-.064.352-.383.822.128,1,.574.176.829-.352,1.021-.822C6.893,65.816,7.339,63.176,8.168,60.359Zm-2.934-.646c.128,0,.255.059.383.059,1.148-4.4,2.3-8.8,3.444-13.262a2.975,2.975,0,0,1-.319-.059C7.53,50.852,6.382,55.254,5.234,59.713Zm-1.786,7.8a11.672,11.672,0,0,0,1.084-4.4A8.919,8.919,0,0,0,3.448,67.518Zm-.829,3.4a1.023,1.023,0,0,0,.128-.411.2.2,0,0,0-.064-.117,1.023,1.023,0,0,0-.128.411C2.491,70.8,2.555,70.863,2.619,70.922Zm7.654-27.64-.128-.059V43.4Zm1.212-4.929v.176l.128-.176Z" transform="translate(215.201 7451.956)" fill="#0f3c55" fill-rule="evenodd"/>
    <path id="Path_140" data-name="Path 140" d="M40.475,40.18c-1.339,5.105-2.743,10.211-3.955,15.375-.765,3.286-2.36,6.4-2.934,9.741a2,2,0,0,1-.255.646c-.191.352-.446.763-.893.587a.9.9,0,0,1-.638-.939c0-.7,0-1.408.064-2.054a18.488,18.488,0,0,1,.51-2.7c1.977-7.746,3.955-15.551,6.06-23.3.829-3.051,1.914-6.044,2.934-9.037.064-.117.128-.293.191-.411.319-.7.574-1.819,1.467-1.526,1.148.352.064,1.291-.064,1.937-.191.763-.638,1.408-.829,2.171-.255.763-.7,1.584.128,2.347.638.646.446,1.467.446,2.23a60.654,60.654,0,0,1-1.339,9.565c-.574,2.758-1.084,5.575-1.595,8.392-.064.293-.064.7.255.822.446.176.446-.293.574-.528A21.466,21.466,0,0,0,42.771,48.4c.957-3.58,1.977-7.159,2.934-10.739a5.353,5.353,0,0,1,.957-2.113c.255-.352.446-.7.957-.469a.747.747,0,0,1,.383,1c-.638,2.113-1.212,4.343-2.041,6.4-.638,1.526-1.021,3.11-1.531,4.636-.957,2.875-1.786,5.751-2.615,8.626-.191.7-.7,1.584.893,1.76.765.117.064.88-.191,1.291-.255.469-.51,1.056-1.276.88-.829-.176-.957-.822-.957-1.467a6.8,6.8,0,0,1,.191-1.115c.064-.411,0-.763-.574-.822-1.276-.059-1.339-.939-1.4-1.819a11.556,11.556,0,0,1,.191-3.638c.638-3.228,1.339-6.455,1.977-9.741a4.093,4.093,0,0,0,.064-.88ZM36.01,52.21c-.064.059-.128.117-.128.176a6.36,6.36,0,0,0-.255,1.056c-.064.176.128.176.191,0a6.359,6.359,0,0,0,.255-1.056C36.074,52.328,36.01,52.269,36.01,52.21Z" transform="translate(203.59 7451.604)" fill="#0f3c55" fill-rule="evenodd"/>
    <path id="Path_141" data-name="Path 141" d="M22.445,86.765a3.676,3.676,0,0,1,.319-1.115c.191-.411.51-.88,1.084-.763.638.176.383.7.319,1.115a16.788,16.788,0,0,0-.064,1.819c0,.587-.319,1.115-1.021,1.056-.893,0-.957-.646-.893-1.291a2.366,2.366,0,0,1,.255-.822Z" transform="translate(207.239 7427.344)" fill="#0f3c55" fill-rule="evenodd"/>
  </g>
</svg>
