<svg xmlns="http://www.w3.org/2000/svg" viewBox="0 0 73 64.4" xmlns:v="https://vecta.io/nano"><circle cx="36.5" cy="32.2" r="30.2" fill="#e8ecef"/><path d="M31.2 23.4a5.34 5.34 0 0 1 5.3-5.3 5.34 5.34 0 0 1 5.3 5.3v4.3h4.3v-4.3c0-5.3-4.3-9.6-9.6-9.6s-9.6 4.3-9.6 9.6v4.3h4.3v-4.3h0zm-2-1.4H29c-.2-.1-.4-.2-.5-.4s-.1-.4-.1-.6c1.1-3.4 4.2-5.8 7.8-5.9.5 0 .8.3.8.8 0 .2-.1.4-.2.6s-.3.2-.6.3c-2.9.1-5.4 2-6.3 4.8 0 .2-.4.4-.7.4h0zm17.1 7.1H26.7a3.8 3.8 0 0 0-3.8 3.8v12a3.8 3.8 0 0 0 3.8 3.8h19.5a3.8 3.8 0 0 0 3.8-3.8v-12c.1-2.1-1.6-3.8-3.7-3.8h0zm-18.7 4.3c-.1 0-.3.1-.3.3v10.9c0 .5-.4.9-.9.9s-.9-.4-.9-.9V33.7c0-1.2.9-2.1 2.1-2.1.5 0 .9.4.9.9s-.4.9-.9.9h0zM38.1 39v3.3a1.58 1.58 0 0 1-1.6 1.6 1.58 1.58 0 0 1-1.6-1.6V39c-.7-.5-1.1-1.3-1.1-2.2a2.69 2.69 0 1 1 5.4 0c0 .9-.4 1.7-1.1 2.2" fill="#2b5999"/></svg>