<svg width="120" height="120" viewBox="0 0 120 120" fill="none" xmlns="http://www.w3.org/2000/svg">
<mask id="mask0" mask-type="alpha" maskUnits="userSpaceOnUse" x="0" y="0" width="120" height="120">
<rect x="1" y="1" width="118" height="118" fill="#C4C4C4" stroke="#2D3036" stroke-width="2"/>
</mask>
<g mask="url(#mask0)">
<rect x="-43.0774" y="-33.0771" width="206.154" height="165.385" fill="#FFF25B"/>
<path d="M71.4905 61.4948C71.371 61.674 71.371 61.8533 71.3112 62.0924C71.2514 62.8693 71.8491 63.5864 72.626 63.6462C73.4029 63.706 74.12 63.1083 74.1798 62.3314C74.1798 62.1521 74.1798 61.9729 74.2396 61.674C74.2396 61.3752 74.2396 61.1959 74.2396 61.0166C74.2396 59.2835 73.9408 57.6102 73.4029 55.9966C72.6857 53.9049 71.4307 52.0522 69.9366 50.4984C68.084 48.6458 65.813 47.331 63.2432 46.6138C62.048 46.315 60.7332 46.1357 59.4782 46.1357C59.0598 46.1357 58.6415 46.1357 58.1634 46.1955C57.7451 46.2553 57.3267 46.315 56.9084 46.3748C56.1315 46.4943 55.5936 47.2712 55.7729 47.9884C55.8924 48.7653 56.6693 49.3032 57.3865 49.1239C57.7451 49.0641 58.0439 49.0044 58.4025 49.0044C58.4622 49.0044 58.522 49.0044 58.5817 49.0044C58.8806 49.0044 59.1794 48.9446 59.4782 48.9446C62.7651 48.9446 65.813 50.2594 67.9645 52.4706C70.1159 54.622 71.4307 57.5504 71.4905 60.8374V60.9569C71.4905 61.1959 71.4905 61.3752 71.4905 61.4948Z" fill="#6AAF08"/>
<path d="M79.3791 62.8097C79.3194 63.5866 79.917 64.3038 80.6939 64.3636C81.4708 64.4233 82.188 63.8257 82.2477 63.0488C82.3075 62.3914 82.3075 61.734 82.3075 61.0766C82.3075 59.7618 82.188 58.5068 82.0087 57.2518C81.2318 52.4708 78.901 48.1679 75.6141 44.8809C71.849 41.1159 66.829 38.6656 61.271 38.2473C60.6734 38.1875 60.016 38.1875 59.4184 38.1875C58.761 38.1875 58.1036 38.1875 57.4462 38.2473C56.7888 38.307 56.1315 38.3668 55.4741 38.4863C54.6971 38.6058 54.1593 39.3828 54.3386 40.0999C54.4581 40.8768 55.235 41.4147 55.9522 41.2354C56.3705 41.1756 56.7291 41.1159 57.1474 41.0561C57.3267 41.0561 57.506 40.9963 57.6853 40.9963C58.2829 40.9366 58.8805 40.9366 59.4184 40.9366C61.4503 40.9366 63.3627 41.2354 65.2154 41.7733C68.4426 42.7295 71.3112 44.4626 73.6419 46.7933C75.5543 48.7057 77.1082 51.0365 78.1241 53.5465C79.0206 55.8175 79.5584 58.3275 79.5584 60.9571C79.5584 61.1364 79.5584 61.3754 79.5584 61.5547C79.4389 62.0328 79.3791 62.3914 79.3791 62.8097Z" fill="#6AAF08"/>
<path d="M81.4112 39.1437C75.7338 33.4662 67.9646 30 59.3588 30C58.4624 30 57.5659 30.0598 56.6695 30.1195C55.773 30.1793 54.8766 30.2988 53.9802 30.4781C53.2032 30.5976 52.6654 31.3745 52.8447 32.0917C52.9642 32.8686 53.7411 33.4065 54.4583 33.2272C54.8766 33.1674 55.2352 33.1077 55.6535 33.0479C56.0719 32.9881 56.4902 32.9284 56.9085 32.9284C57.7452 32.8686 58.5221 32.8088 59.3588 32.8088C67.128 32.8088 74.18 35.9763 79.3195 41.0561C84.3994 46.1359 87.5668 53.1879 87.5668 61.0168C87.5668 61.4352 87.5668 61.9133 87.5668 62.3316C87.5668 62.6902 87.507 63.0488 87.507 63.4671C87.4473 64.244 88.0449 64.9612 88.8218 65.0209C89.5987 65.0807 90.3159 64.4831 90.3756 63.7062C90.4354 62.8097 90.4952 61.9133 90.4952 61.0766C90.4952 52.5305 87.0289 44.7614 81.4112 39.1437Z" fill="#6AAF08"/>
<path d="M88.2839 75.3597L77.7059 69.6823C74.1799 67.7698 74.0604 69.0249 70.3551 72.9692C69.4586 73.9254 67.7853 76.4354 65.8131 75.9573C61.6895 74.9414 53.9801 68.9053 51.4701 66.1563C50.2748 64.8415 45.1352 58.5664 45.0754 56.5345C44.9559 53.4268 51.7689 51.873 49.5576 45.9565L44.8364 35.3785C40.414 25.2188 28.0431 41.4743 29.0591 49.0641C31.6886 67.7698 64.4983 98.0098 82.7857 88.0294C86.8496 85.7584 92.3477 77.81 88.2839 75.3597Z" fill="#2D3036"/>
</g>
</svg>
