<svg width="120" height="120" viewBox="0 0 120 120" fill="none" xmlns="http://www.w3.org/2000/svg">
<mask id="mask0" mask-type="alpha" maskUnits="userSpaceOnUse" x="0" y="0" width="120" height="120">
<rect x="1" y="1" width="118" height="118" fill="#C4C4C4" stroke="#2D3036" stroke-width="2"/>
</mask>
<g mask="url(#mask0)">
<rect x="-43.0774" y="-33.0771" width="206.154" height="165.385" fill="#FFF25B"/>
<path d="M69.4409 55.0038C69.3611 54.3415 69.1094 53.7376 68.7226 53.2332L71.3785 36.7508C71.4773 36.1375 71.0839 35.5528 70.4787 35.413L70.4491 35.4063C69.8439 35.2665 69.2341 35.6197 69.054 36.2142L64.2158 52.1925C63.0234 52.792 62.1957 54.0141 62.1957 55.4375C62.1957 57.4472 63.83 59.0825 65.8397 59.0825C66.2141 59.0825 66.5683 59.0094 66.9084 58.9042L77.0161 64.1568C77.5722 64.4458 78.2568 64.2654 78.598 63.7397L78.6133 63.7162C78.9546 63.1907 78.8411 62.4919 78.3508 62.1015L69.4409 55.0038ZM64.0398 55.4375C64.0398 54.4452 64.8474 53.6375 65.8398 53.6375C66.8329 53.6375 67.6406 54.4452 67.6406 55.4375C67.6406 56.4306 66.8329 57.2383 65.8398 57.2383C64.8474 57.2383 64.0398 56.4307 64.0398 55.4375ZM93.2772 55.4375C93.2772 67.6379 85.2709 77.9991 74.2378 81.5552L74.2373 77.6483C83.1994 74.2482 89.589 65.5768 89.589 55.4375C89.589 42.3423 78.9348 31.6882 65.8398 31.6882C52.7446 31.6882 42.0905 42.3423 42.0905 55.4375C42.0905 56.7511 42.2025 58.0386 42.4087 59.295H38.6789C38.5006 58.0338 38.4023 56.7471 38.4023 55.4375C38.4023 40.3082 50.7105 28 65.8398 28C80.9691 28 93.2772 40.3082 93.2772 55.4375ZM70.6228 74.988L62.1768 66.6341C61.642 66.0992 60.9136 65.8041 60.1667 65.8041H55.9067V64.209C55.9067 63.0195 54.9387 62.0607 53.7491 62.0607H29.1487C27.9593 62.0607 27.0003 63.0195 27.0003 64.209V78.5929H71.4712V77.0256C71.4711 76.2604 71.1667 75.5227 70.6228 74.988ZM66.9437 75.2647H58.7651C58.5807 75.2647 58.4332 75.1171 58.4332 74.9326V68.6166C58.4332 68.4322 58.5806 68.2845 58.7651 68.2845H60.3234C60.4064 68.2845 60.4986 68.3216 60.5631 68.3768L67.1743 74.6931C67.3955 74.8956 67.2479 75.2647 66.9437 75.2647ZM71.472 79.7814V84.54C71.472 85.7271 70.5097 86.6895 69.3226 86.6895H67.0227C66.6072 83.8378 64.1496 81.6455 61.1835 81.6455C58.2243 81.6455 55.7668 83.8378 55.3513 86.6895H43.694C43.2784 83.8378 40.8209 81.6455 37.8618 81.6455C34.9027 81.6455 32.4451 83.8378 32.0296 86.6895H29.1495C27.9623 86.6893 27 85.7271 27 84.5401V79.7814H71.472ZM61.1901 83.0835C58.7283 83.0835 56.7274 85.0752 56.7274 87.537C56.7274 89.999 58.7283 92 61.1901 92C63.652 92 65.6436 89.999 65.6436 87.537C65.6436 85.0752 63.652 83.0835 61.1901 83.0835ZM61.1901 89.7686C59.9546 89.7686 58.9587 88.7728 58.9587 87.5371C58.9587 86.3108 59.9545 85.3058 61.1901 85.3058C62.4164 85.3058 63.4123 86.3107 63.4123 87.5371C63.4123 88.7728 62.4164 89.7686 61.1901 89.7686ZM37.8621 83.0835C35.4003 83.0835 33.3993 85.0752 33.3993 87.537C33.3993 89.999 35.4003 92 37.8621 92C40.324 92 42.3157 89.999 42.3157 87.537C42.3157 85.0752 40.324 83.0835 37.8621 83.0835ZM37.8621 89.7686C36.6266 89.7686 35.6308 88.7728 35.6308 87.5371C35.6308 86.3108 36.6266 85.3058 37.8621 85.3058C39.0885 85.3058 40.0934 86.3107 40.0934 87.5371C40.0934 88.7728 39.0885 89.7686 37.8621 89.7686Z" fill="#2D3036"/>
<path d="M69.441 55.004C69.3612 54.3417 69.1095 53.7378 68.7227 53.2334L71.3786 36.751C71.4774 36.1377 71.084 35.553 70.4788 35.4132L70.4492 35.4065C69.844 35.2667 69.2342 35.6199 69.0541 36.2144L64.2159 52.1927C63.0235 52.7922 62.1958 54.0143 62.1958 55.4377C62.1958 57.4474 63.8301 59.0827 65.8398 59.0827C66.2142 59.0827 66.5684 59.0096 66.9085 58.9044L77.0162 64.157C77.5723 64.446 78.2569 64.2656 78.5981 63.7399L78.6134 63.7164C78.9547 63.1909 78.8412 62.4921 78.3509 62.1017L69.441 55.004ZM64.0399 55.4377C64.0399 54.4454 64.8475 53.6377 65.8399 53.6377C66.833 53.6377 67.6407 54.4454 67.6407 55.4377C67.6407 56.4308 66.833 57.2385 65.8399 57.2385C64.8475 57.2385 64.0399 56.4309 64.0399 55.4377Z" fill="#6AAF08"/>
</g>
</svg>
