<svg width="120" height="120" viewBox="0 0 120 120" fill="none" xmlns="http://www.w3.org/2000/svg">
<mask id="mask0" mask-type="alpha" maskUnits="userSpaceOnUse" x="0" y="0" width="120" height="120">
<rect x="1" y="1" width="118" height="118" fill="#C4C4C4" stroke="#2D3036" stroke-width="2"/>
</mask>
<g mask="url(#mask0)">
<rect x="-43.0774" y="-33.0771" width="206.154" height="165.385" fill="#FFF25B"/>
<path d="M51.9813 88.6598C51.9813 89.3969 52.5844 90 53.3215 90H73.1293C73.8664 90 74.4695 89.3969 74.4695 88.6598V85.5908H51.9813V88.6598Z" fill="#2D3036"/>
<path d="M51.5324 51.6373L51.5391 41.8338C51.5391 40.7014 51.9679 39.6426 52.752 38.8519C53.6231 37.9808 54.8695 37.4849 56.1829 37.4849C57.2081 37.4849 58.1931 37.7999 58.957 38.3627C59.8818 39.0462 60.458 40.0782 60.5786 41.2575C60.5786 41.2843 61.108 46.3971 61.5837 50.9739C64.9141 49.0172 67.1589 45.3987 67.1589 41.2575C67.1589 35.0391 62.1198 30 55.9014 30C49.6829 30 44.6438 35.0391 44.6438 41.2575C44.6371 45.9214 47.4783 49.9285 51.5324 51.6373Z" fill="#6AAF08"/>
<path d="M77.9808 64.4292C77.9808 63.1225 77.1432 61.9632 75.8968 61.5611C72.1778 60.3482 64.6728 57.9292 63.5269 57.7014C63.1717 57.6344 62.8233 57.6009 62.4882 57.6009C61.5836 57.6009 60.7929 57.8488 60.3172 58.2709H60.3104C60.3104 58.2709 60.3104 58.2709 60.3104 58.2642C60.3037 58.2106 58.575 41.4919 58.575 41.4651C58.4342 40.1249 57.3219 39.4883 56.176 39.4883C54.8761 39.4883 53.5359 40.3058 53.5425 41.8269L53.5291 68.9188C53.5291 69.2403 53.2946 69.5084 52.9729 69.5554C52.9662 69.5554 52.9662 69.5554 52.9595 69.5554C52.9328 69.5621 52.8993 69.5621 52.8724 69.5621C52.8657 69.5621 52.859 69.5621 52.8523 69.5621C51.941 69.5353 49.8838 69.5084 47.8802 66.607C47.6122 66.2249 47.371 65.8766 47.1498 65.5548C46.4529 64.5564 45.5215 64.1276 44.6437 64.1276C43.1025 64.1276 41.7154 65.461 42.0504 67.4513C42.5329 70.3527 45.7091 77.1139 51.9678 83.453H74.4561L76.7276 79.6134C77.5385 78.2531 77.9673 76.6985 77.9673 75.1103L77.9808 64.4292Z" fill="#2D3036"/>
</g>
</svg>
