<svg width="120" height="120" viewBox="0 0 120 120" fill="none" xmlns="http://www.w3.org/2000/svg">
<mask id="mask0" mask-type="alpha" maskUnits="userSpaceOnUse" x="0" y="0" width="120" height="120">
<rect x="1" y="1" width="118" height="118" fill="#C4C4C4" stroke="#2D3036" stroke-width="2"/>
</mask>
<g mask="url(#mask0)">
<rect x="-43.0774" y="-33.0771" width="206.154" height="165.385" fill="#FFF25B"/>
<path d="M86.5104 58.1295L59.9537 31.5702C58.9074 30.5238 57.5365 30 56.1657 30C54.7948 30 53.4226 30.5238 52.3776 31.5702L37.8341 46.111C35.7415 48.2036 35.7415 51.6617 37.8341 53.7544L40.2446 56.2308H45.8048L40.6149 50.9736C40.2513 50.6087 40.1975 50.1522 40.1975 49.9313C40.1975 49.7105 40.2513 49.2701 40.6149 48.9065L42.5352 47.0455L51.6612 56.2308H60.4156L46.9117 42.6596L55.1571 34.3819C55.5206 34.0183 55.9448 33.9496 56.1657 33.9496C56.3865 33.9496 56.8107 33.9954 57.1743 34.3577L83.7323 60.913C84.0973 61.2779 84.1525 61.6981 84.1525 61.9203C84.1525 62.1411 84.0582 62.564 83.6933 62.9289L82.1878 64.3981V69.9583L86.4754 65.7097C88.5667 63.613 88.6044 60.2222 86.5104 58.1295Z" fill="#6AAF08"/>
<path d="M74.0501 58.7207H36.4888C33.5303 58.7207 31 61.1042 31 64.0627V78.2696H79.341V64.0627C79.341 61.1042 77.0086 58.7207 74.0501 58.7207ZM44.1269 73.4325C43.0778 73.4325 42.1285 73.0151 41.4282 72.3418C40.728 73.0151 39.7773 73.4325 38.7309 73.4325C36.579 73.4325 34.8325 71.6887 34.8325 69.5327C34.8325 67.3795 36.5777 65.6343 38.7309 65.6343C39.7786 65.6343 40.7293 66.0504 41.4282 66.7237C42.1285 66.0504 43.0778 65.6343 44.1269 65.6343C46.2801 65.6343 48.0253 67.3795 48.0253 69.5327C48.0253 71.6887 46.2801 73.4325 44.1269 73.4325Z" fill="#2D3036"/>
<path d="M31 84.6271C31 87.5856 33.529 90.0001 36.4888 90.0001H74.0501C77.0086 90.0001 79.3423 87.5856 79.3423 84.6271V84.312H31V84.6271Z" fill="#2D3036"/>
</g>
</svg>
