<?xml version="1.0" encoding="utf-8"?>
<!-- Generator: Adobe Illustrator 24.2.1, SVG Export Plug-In . SVG Version: 6.00 Build 0)  -->
<svg version="1.1" id="Warstwa_1" xmlns="http://www.w3.org/2000/svg" xmlns:xlink="http://www.w3.org/1999/xlink" x="0px" y="0px"
	 viewBox="0 0 120 120" style="enable-background:new 0 0 120 120;" xml:space="preserve">
<style type="text/css">
	.st0{fill:#25A285;}
	.st1{fill:#FFFFFF;}
</style>
<g id="Group_168" transform="translate(-584 -3860)">
	<g transform="matrix(1, 0, 0, 1, 584, 3860)">
		<circle id="Ellipse_17-2" class="st0" cx="60" cy="60" r="60"/>
	</g>
	<g id="icon-magnetic" transform="translate(600.615 3881.186)">
		<path id="Path_306" class="st1" d="M99.8,38.6c0-1-0.8-1.8-1.7-1.8c0,0,0,0,0,0h-7.5l1.7-1.8c0.7-0.7,0.7-1.8,0-2.5
			c-0.6-0.7-1.7-0.7-2.4-0.1c0,0,0,0-0.1,0.1l-4.2,4.3H73.9v-2.6C88.8,26.7,97.7,14.4,97.7,1c0-1-0.7-1.8-1.7-1.8
			c-1,0-1.8,0.7-1.8,1.7c0,0,0,0.1,0,0.1c0,11.5-7.5,22.2-20.3,29.2v-0.5c0-1.2-0.3-2.3-0.9-3.3c2.4-3.3,3.6-7.3,3.7-11.4
			c0-6.8-3.6-13.2-10.1-17.9C60.2-7.5,51.8-10,42.9-10S25.5-7.5,19.2-2.9C12.7,1.9,9.1,8.2,9.1,15c0,3.8,1.1,7.5,3.2,10.7
			c-0.9,1.1-1.4,2.5-1.4,4c-5.3-3-10-7-13.6-11.9h2.7c1,0,1.8-0.8,1.8-1.8s-0.8-1.8-1.8-1.8h-5c-2.2-4-3.4-8.6-3.4-13.2
			c0-1-0.8-1.8-1.7-1.8c0,0,0,0,0,0c-1,0-1.8,0.8-1.7,1.8c0,0,0,0,0,0c0,5.2,1.3,10.3,3.8,14.9c0,0,0,0.1,0,0.1v6.4
			c0,1,0.7,1.8,1.7,1.8s1.8-0.7,1.8-1.7c0,0,0-0.1,0-0.1v-1.2c4.2,5.2,9.5,9.5,15.5,12.6v3H-2.4l1.7-1.8c0.7-0.7,0.7-1.8,0-2.5
			c-0.6-0.7-1.7-0.7-2.4-0.1c0,0,0,0-0.1,0.1l-4.2,4.3h-5.9c-1,0-1.8,0.8-1.8,1.8c0,1,0.8,1.8,1.8,1.8h6.4l3.6,3.7
			c0.6,0.7,1.7,0.7,2.4,0.1c0,0,0,0,0.1-0.1c0.7-0.7,0.7-1.8,0-2.5l-1.1-1.2h12.7v4.3C-3.4,52.3-12,64.4-12,77.4
			c0,1,0.8,1.8,1.7,1.8c0,0,0,0,0,0c1,0,1.8-0.8,1.7-1.8c0,0,0,0,0,0c0-11.2,7.2-21.8,19.4-28.7c0.2,0.9,0.5,1.7,1.1,2.5
			c-1.9,3.1-3,6.7-3,10.4c0,2.1,0.3,4.1,1,6.1c0.3,0.9,1.3,1.4,2.2,1.1c0,0,0,0,0,0c0.9-0.3,1.4-1.4,1.1-2.3
			c-0.5-1.6-0.8-3.2-0.8-4.9c0-2.9,0.8-5.8,2.3-8.2h0c0.6,0.2,1.2,0.3,1.9,0.3h4.4c8.6,11.7,25.1,14.3,36.8,5.7
			c2.2-1.6,4.1-3.5,5.7-5.7H68c0.9,0,1.8-0.2,2.6-0.6c1.6,2.6,2.5,5.5,2.5,8.6c0,5.5-3,10.8-8.4,14.8c-6,4.2-13,6.5-20.3,6.6l-3.9-4
			c-0.6-0.7-1.7-0.7-2.4-0.1c0,0,0,0-0.1,0.1c-0.7,0.7-0.7,1.8,0,2.5l1.3,1.3c-9.3-0.7-17.6-4.5-22.5-10.3c-0.6-0.7-1.7-0.8-2.4-0.2
			c0,0,0,0-0.1,0c-0.7,0.7-0.8,1.8-0.2,2.5c5.6,6.6,14.9,10.8,25.3,11.5l-1.5,1.6c-0.7,0.7-0.7,1.8,0,2.5c0.7,0.7,1.7,0.7,2.4,0.1
			c0,0,0,0,0.1-0.1l3.9-4.1c8-0.1,15.8-2.7,22.4-7.3c6.3-4.7,9.8-11,9.8-17.7c0-4-1.2-7.8-3.5-11.1c0.4-0.7,0.6-1.5,0.7-2.2
			c6,3.1,11.1,7.6,15,13L87.7,67c-0.2,1,0.4,1.9,1.3,2.1c0.1,0,0.2,0,0.4,0c0.8,0,1.5-0.6,1.7-1.4l0.4-2.1c1.8,3.6,2.7,7.6,2.7,11.7
			c0,1,0.7,1.8,1.7,1.8c1,0,1.8-0.7,1.8-1.7c0,0,0-0.1,0-0.1c0-4.7-1.1-9.3-3.2-13.6l2,0.4c0.9,0.2,1.9-0.4,2.1-1.3c0,0,0,0,0,0
			c0.2-1-0.4-1.9-1.3-2.1l-5.1-1.1C87.5,53,81.2,47.7,73.9,44.2v-3.8h12.2l3.6,3.7c0.7,0.7,1.7,0.7,2.4,0.1c0,0,0,0,0.1-0.1
			c0.7-0.7,0.7-1.8,0-2.5l-1.1-1.2H98C99,40.4,99.8,39.6,99.8,38.6C99.8,38.6,99.8,38.6,99.8,38.6L99.8,38.6z M38.1,20.5
			c0.7,0.7,1.7,0.7,2.4,0.1c0,0,0,0,0.1-0.1l3.8-3.9c5.6,0.5,10.9,3,14.7,7.1H25.7c3.6-3.8,8.4-6.3,13.6-7l-1.2,1.3
			C37.4,18.6,37.4,19.8,38.1,20.5L38.1,20.5z M15.3,49.5c-0.6-0.5-1-1.2-1-2V29.7c0-0.9,0.4-1.7,1.2-2.2c0.4-0.2,0.8-0.4,1.3-0.4
			h23.9v3.7c0,1,0.7,1.8,1.7,1.8c1,0,1.8-0.7,1.8-1.7c0,0,0-0.1,0-0.1v-3.7H68c0.6,0,1.2,0.2,1.6,0.6c0.5,0.5,0.8,1.2,0.8,1.9v17.8
			c0,0.6-0.2,1.3-0.7,1.7C69.3,49.7,68.7,50,68,50H44.1V38.3c0-1-0.7-1.8-1.7-1.8c-1,0-1.8,0.7-1.8,1.7c0,0,0,0.1,0,0.1V50H16.8
			C16.3,50,15.7,49.9,15.3,49.5z M42.9-6.4c16.7,0,30.3,9.6,30.3,21.5c0,3.2-1,6.4-2.9,9.1c0,0,0,0,0,0c-0.7-0.3-1.5-0.5-2.3-0.5
			h-4.4c-4.5-6.2-11.5-10-19.1-10.7l-4-4.1c-0.6-0.7-1.7-0.7-2.4-0.1c0,0,0,0-0.1,0.1c-0.7,0.7-0.7,1.8,0,2.5l1.6,1.6
			c-7.4,0.7-14.2,4.6-18.6,10.6h-4.4c-0.5,0-1,0.1-1.5,0.2h0c-1.7-2.6-2.7-5.7-2.7-8.8C12.5,3.2,26.1-6.4,42.9-6.4L42.9-6.4z
			 M42.4,60.8c-6.3,0-12.4-2.6-16.7-7.2h33.4C54.7,58.2,48.7,60.8,42.4,60.8L42.4,60.8z"/>
		<path id="Path_307" class="st1" d="M20.8,44.1c0.6,0.3,1.2,0.3,1.8,0c0.2-0.1,0.4-0.3,0.4-0.6V38l3.1,5.7c0.3,0.5,0.9,0.8,1.4,0.7
			c0.3,0,0.6-0.1,0.9-0.2c0.2-0.1,0.4-0.3,0.4-0.6V33.2c0-0.2-0.1-0.5-0.4-0.6c-0.6-0.3-1.2-0.3-1.8,0c-0.2,0.1-0.4,0.3-0.4,0.6v5.6
			l-2.6-5.1c-0.2-0.4-0.4-0.8-0.8-1.1c-0.3-0.2-0.7-0.2-1.1-0.2c-0.3,0-0.6,0.1-0.9,0.2c-0.2,0.1-0.4,0.3-0.4,0.6v10.4
			C20.4,43.8,20.6,44,20.8,44.1z"/>
		<path id="Path_308" class="st1" d="M62.2,42c-0.3,0.2-0.7,0.3-1.1,0.3c-0.6,0-1.2-0.2-1.7-0.6c-0.2-0.2-0.4-0.3-0.6-0.4
			c-0.2-0.1-0.3-0.2-0.5-0.2c-0.3,0-0.6,0.2-0.8,0.5c-0.2,0.3-0.3,0.6-0.3,0.9c0,0.5,0.4,1,1.2,1.5c0.8,0.5,1.8,0.7,2.8,0.7
			c1.1,0.1,2.1-0.3,3-0.9c0.8-0.7,1.2-1.6,1.1-2.6c0-0.6-0.1-1.2-0.4-1.7c-0.2-0.5-0.6-0.9-1-1.2c-0.4-0.3-0.8-0.5-1.3-0.8
			c-0.4-0.2-0.8-0.4-1.3-0.6c-0.3-0.1-0.7-0.3-1-0.5C60.2,36,60,35.8,60,35.5c0-0.3,0.2-0.5,0.4-0.7c0.4-0.2,0.8-0.3,1.2-0.3
			c0.5,0,1,0.1,1.4,0.3c0.3,0.1,0.5,0.3,0.8,0.3c0.3,0,0.6-0.2,0.7-0.5c0.2-0.3,0.3-0.6,0.3-0.9c0-0.3-0.1-0.6-0.4-0.8
			c-0.3-0.2-0.6-0.4-0.9-0.5c-0.3-0.1-0.7-0.2-1-0.2c-0.3,0-0.6-0.1-0.9-0.1c-1.1,0-2.1,0.3-3,0.9c-0.8,0.6-1.3,1.6-1.2,2.6
			c0,0.7,0.2,1.3,0.5,1.8c0.3,0.5,0.8,0.9,1.3,1.2c0.5,0.3,1,0.5,1.5,0.8c0.5,0.2,0.9,0.4,1.3,0.7c0.3,0.2,0.5,0.6,0.5,0.9
			C62.7,41.5,62.5,41.9,62.2,42z"/>
	</g>
</g>
</svg>
