<?xml version="1.0" encoding="utf-8"?>
<!-- Generator: Adobe Illustrator 24.2.1, SVG Export Plug-In . SVG Version: 6.00 Build 0)  -->
<svg version="1.1" id="Warstwa_1" xmlns="http://www.w3.org/2000/svg" xmlns:xlink="http://www.w3.org/1999/xlink" x="0px" y="0px"
	 viewBox="0 0 120 120" style="enable-background:new 0 0 120 120;" xml:space="preserve">
<style type="text/css">
	.st0{fill:#26A285;}
	.st1{fill:#FFFFFF;}
</style>
<g id="Group_170" transform="translate(-583 -4246)">
	<g transform="matrix(1, 0, 0, 1, 583, 4246)">
		<path id="Path_374-2" class="st0" d="M60,0c33.1,0,60,26.9,60,60s-26.9,60-60,60S0,93.1,0,60S26.9,0,60,0z"/>
	</g>
	<g id="Group_169" transform="translate(599.362 4257.336)">
		<g id="icon-bone-joint" transform="translate(0 0)">
			<g id="Group_144" transform="translate(32.927 59.673)">
				<g id="Group_143">
					<path id="Path_309" class="st1" d="M-7.9-10L-7.9-10c-3.5,0-6.5,2.5-7,5.9C-15-3.7-15-3.3-15-2.9h4.7c0-0.1,0-0.3,0-0.4
						c0.2-1.2,1.2-2,2.3-2h0c0.6,0,1.2,0.2,1.6,0.7c0.3,0.3,0.6,0.8,0.6,1.2L-0.9-4C-1.4-7.5-4.4-10-7.9-10z"/>
				</g>
			</g>
			<g id="Group_146" transform="translate(71.632 51.869)">
				<g id="Group_145">
					<path id="Path_310" class="st1" d="M-5.6-10c0,0.1,0,0.2,0,0.4c-0.2,1.1-1.2,2-2.4,2c-0.6,0-1.2-0.2-1.7-0.7
						c-0.3-0.3-0.6-0.8-0.6-1.2L-15-8.9c0.5,3.4,3.5,6,7,6h0c3.5,0,6.4-2.5,7-5.9c0.1-0.4,0.1-0.8,0.1-1.2L-5.6-10L-5.6-10z"/>
				</g>
			</g>
			<g id="Group_148" transform="translate(83.722 10.023)">
				<g id="Group_147">
					<path id="Path_311" class="st1" d="M2.5-9.3c-0.9-0.9-2.4-1-3.3-0.1c0,0,0,0,0,0l-0.1,0.1L-14.3,4.1c-0.9,0.9-0.9,2.4,0,3.4
						c0.9,0.9,2.4,0.9,3.3,0.1l0.1-0.1L2.5-5.9C3.4-6.8,3.4-8.3,2.5-9.3z"/>
				</g>
			</g>
			<g id="Group_150" transform="translate(77.048 28.482)">
				<g id="Group_149">
					<path id="Path_312" class="st1" d="M-9.3-9.3c-0.9-0.9-2.4-0.9-3.4,0c0,0,0,0,0,0l-1.7,1.7c-0.9,0.9-1,2.4-0.1,3.4
						c0.9,0.9,2.4,1,3.4,0.1c0,0,0,0,0.1-0.1L-9.3-6C-8.4-6.9-8.4-8.4-9.3-9.3C-9.3-9.3-9.3-9.3-9.3-9.3z"/>
				</g>
			</g>
			<g id="Group_152" transform="translate(16.722 90.471)">
				<g id="Group_151">
					<path id="Path_313" class="st1" d="M2.5-9.3c-0.9-0.9-2.4-0.9-3.3,0c0,0,0,0,0,0l0,0L-14.3,4.1c-0.9,0.9-0.9,2.4,0,3.4
						c0.9,0.9,2.4,0.9,3.3,0.1c0,0,0,0,0.1-0.1L2.5-6C3.4-6.9,3.4-8.4,2.5-9.3z"/>
				</g>
			</g>
			<g id="Group_154" transform="translate(35.177 83.768)">
				<g id="Group_153">
					<path id="Path_314" class="st1" d="M-9.3-9.3c-0.9-0.9-2.4-0.9-3.4,0c0,0,0,0,0,0l-1.7,1.7c-0.9,0.9-0.9,2.4,0.1,3.4
						c0.9,0.9,2.4,0.9,3.3,0L-9.3-6C-8.4-6.9-8.4-8.4-9.3-9.3C-9.3-9.3-9.3-9.3-9.3-9.3z"/>
				</g>
			</g>
			<g id="Group_156" transform="translate(0 0)">
				<g id="Group_155" transform="translate(0 0)">
					<path id="Path_315" class="st1" d="M102.9,7.4L86.2-9.3c-0.9-0.9-2.4-0.9-3.3,0c0,0,0,0,0,0L69.7,3.8
						c-25.1-14-56.8-5.1-70.9,20c-8.8,15.8-8.8,35,0,50.8l-13.1,13.1c-0.9,0.9-0.9,2.4,0,3.3L2.4,108c0.9,0.9,2.4,0.9,3.3,0
						c0,0,0,0,0,0l13.1-13.1c25.1,14,56.8,5,70.9-20.1c8.8-15.8,8.8-35,0-50.8l13.1-13.2C103.9,9.9,103.9,8.4,102.9,7.4z M4.1,102.9
						L-9.3,89.5l21.8-21.8c0.4-0.4,0.7-1,0.7-1.7v-9.3c0-0.7,0.1-1.3,0.1-2c1.1-6.5,7.2-10.8,13.6-9.7c2.4,0.4,4.7,1.6,6.4,3.3
						c1.8,1.8,2.9,4.1,3.3,6.5c0.2,1,1,1.8,2,2c2.5,0.4,4.8,1.5,6.5,3.3c2.2,2.2,3.5,5.2,3.5,8.4c0,0.7-0.1,1.4-0.2,2.1
						c-0.1,0.4-0.2,0.8-0.3,1.1c-0.1,0.3-0.1,0.6-0.2,0.9c-1.5,4-5,6.8-9.1,7.5c-0.7,0.1-1.3,0.2-2,0.2h-9.3c-0.6,0-1.2,0.2-1.7,0.7
						L4.1,102.9z M77.8,82.8L77.8,82.8C63.2,97.5,40.7,101,22.4,91.4l6.2-6.1h8.3c0.9,0,1.8-0.1,2.7-0.2h0c1.5-0.2,2.9-0.7,4.3-1.3
						c5.9-2.7,9.6-8.6,9.6-15v-0.1c-0.1-7.5-5.1-14-12.4-15.9c-2.3-8.9-11.4-14.2-20.2-11.9c-6.3,1.6-11.1,6.9-12.2,13.3
						c-0.1,0.9-0.2,1.8-0.2,2.7v8.3l-6.2,6.2c-12.1-23.2-3.1-51.8,20.1-64c13.7-7.2,30.1-7.2,43.9,0l-6.2,6.1h-8.3
						c-0.9,0-1.8,0.1-2.8,0.2c-1.5,0.2-2.9,0.7-4.3,1.3c-5.9,2.7-9.6,8.6-9.6,15v0.1c0.1,7.5,5.1,14,12.4,15.9
						c1.9,7.3,8.4,12.3,15.9,12.4h0.1c8.1,0,15-5.9,16.3-13.9c0.1-0.9,0.2-1.8,0.2-2.7v-8.3l6.2-6.2C95.9,45.7,92.5,68.2,77.8,82.8
						L77.8,82.8z M76.1,30.9c-0.4,0.4-0.7,1-0.7,1.7v9.3c0,0.7-0.1,1.3-0.1,2c-0.3,1.9-1.1,3.7-2.3,5.3c-0.1,0.1-0.2,0.3-0.3,0.4
						c-0.3,0.3-0.5,0.6-0.8,0.8c-0.2,0.2-0.4,0.4-0.6,0.6s-0.5,0.3-0.7,0.5c-0.3,0.2-0.6,0.5-1,0.7c-0.2,0.1-0.4,0.2-0.6,0.3
						c-0.4,0.2-0.8,0.4-1.2,0.6c-0.2,0.1-0.4,0.1-0.5,0.1c-0.5,0.2-1,0.3-1.5,0.4c-0.2,0-0.5,0-0.7,0.1c-0.5,0.1-0.9,0.1-1.4,0.1
						c-3.1,0-6.2-1.2-8.4-3.5c-1.8-1.8-2.9-4.1-3.3-6.5c-0.2-1-1-1.8-2-2c-2.5-0.4-4.8-1.5-6.5-3.3c-4.6-4.6-4.6-12.1,0-16.8
						c1.7-1.7,4-2.9,6.4-3.3c0.7-0.1,1.3-0.2,2-0.2h9.3c0.6,0,1.2-0.2,1.7-0.7L84.5-4.3L97.9,9.1L76.1,30.9z"/>
				</g>
			</g>
		</g>
	</g>
</g>
</svg>
