<svg xmlns="http://www.w3.org/2000/svg" viewBox="0 0 440.05 238.64"><title>free-delivery-mobile</title><g id="Layer_2" data-name="Layer 2"><g id="Layer_1-2" class="car" data-name="Layer 1" fill="white"><path d="M439.45,117.3C438,97.9,429.78,81.45,421.1,65.23c-3.44-6.44-9.16-9.54-17.67-9.43-19.37.25-38.67.08-58,.08h-5.49L319.31,166.24c1.48-1,2.47-1.6,3.41-2.29,30.69-22.44,71.62-13.52,79.82,17.4,2.22,8.36,2.21,8.37,12.09,8.35,4.46,0,9,.6,12.73-3.88l12.69-67.91C439.84,117.71,439.46,117.55,439.45,117.3ZM351.89,103l6.46-34.57h17.56c8.66,0,17.37-.23,25.94.14,2.48.1,5.69,1.25,6.64,3,5.3,10,10,20.25,15.4,31.41Z"/><path d="M349.47,164.31c-17.94,2.9-34.82,18.6-38.48,35.81s6.53,33.47,23.49,37.32c1.38.31,2.68.8,4,1.2h11a13,13,0,0,1,2.34-1c23.26-5.06,39.71-23.88,39-44.66C390.18,173.11,372.17,160.64,349.47,164.31Zm-2.19,53.85c-10.33,0-16.81-7.55-14.94-17.32s11.3-17.15,21.64-17.11,16.72,7.56,14.85,17.36S357.72,218.2,347.28,218.16Z"/><path d="M122,163.45c-19.75-.77-39.24,12.49-46.78,31.83-6.59,16.89,1.89,35.46,18.8,41.17,2.18.74,4.37,1.46,6.55,2.19h11a32.55,32.55,0,0,1,3.44-1.09c19.6-3.92,36.82-21.07,38.58-38.43C155.54,179.35,142.15,164.24,122,163.45Zm-11.64,54.71c-10.45,0-16.93-7.29-15.12-17.09s11-17.31,21.34-17.34,17,7.51,15.26,17.13S120.64,218.12,110.31,218.16Z"/><path d="M203.14,69.12h-4.76l-3,16.14h4.76c4,0,6.74-2.82,7.71-8S207.17,69.12,203.14,69.12Z"/><path d="M329.6,27.35C332,14.86,330.86,4.74,318.11,0h-237c-.48,2-1,4.07-1.43,6.11-1.06,5.62-2.25,12-3.47,18.51H14.15c-6.56,0-12.81,5-14,11.2S3.41,47,10,47H123.77c6.56,0,10.93,5,9.78,11.2-1,5.39-5.89,9.88-11.46,11H53.44c-6.56,0-12.81,5-14,11.2s3.22,11.2,9.78,11.2h32c6.55,0,10.93,5,9.78,11.2-1,5.39-5.89,9.88-11.46,11H17c-6.56,0-12.81,5-14,11.2s3.23,11.2,9.78,11.2H55.43c-1.06,5.71-2.13,11.5-3.34,18-.68,3.67-1.66,5.52-6.19,7.12-4.15,1.47-7.69,5.56-11.5,8.5l-1.58,8.49c2.34,8,8.47,10.52,17.67,10.59,9,.06,14.49-1.15,20.81-10.37,13.57-19.78,33.79-28.73,56.55-26.66,21.06,1.91,33.69,13.25,38,32.16.78,3.46,2,4.74,6.11,4.72,40.51-.16,81-.1,121.47-.1h5.51c.57-2.24,1.19-4.19,1.56-6.15C310.17,130.76,319.69,79.05,329.6,27.35ZM180.06,69.12H163.6l-2.24,12H176.2l-2,10.76H159.34l-4.48,24H143.4L154.23,58h27.92Zm22.65,46.76-5.4-19.45h-4l-3.63,19.45H178.18L189,58h16.38c11.21,0,16.5,7.11,14.22,19.28-1.47,7.86-5.37,13.65-11,16.72l6.56,21.93Zm47.85,0H220.62L231.45,58h29.13l-2.09,11.17H240.82l-2.24,12h16l-2,10.76H236.56l-2.39,12.82h18.47Zm37.76,0H258.38L269.21,58h29.13l-2.09,11.17H278.58l-2.24,12H292.4l-2,10.76H274.33l-2.4,12.82h18.48Z"/></g></g></svg>