<svg width="597" height="101" viewBox="0 0 597 101" fill="none" xmlns="http://www.w3.org/2000/svg">
<path d="M594.257 75.6597C593.723 76.1953 595.326 77.2663 592.654 77.8018C591.585 77.8018 591.585 77.2663 591.585 77.2663C593.723 77.2663 594.792 76.7308 594.257 75.6597C593.188 74.5887 592.654 72.9821 591.585 71.911C593.188 69.2334 592.654 67.0912 585.17 65.4846C580.894 63.8781 580.359 61.2004 570.738 60.6649C569.134 60.6649 566.462 60.6649 565.927 60.1293C565.927 59.5938 566.462 59.0583 566.462 59.0583C569.134 58.5228 572.341 57.9872 575.549 58.5228C579.825 57.9872 577.687 56.9162 577.687 55.8451C583.567 53.703 583.032 51.5609 585.705 48.8832C585.705 48.8832 583.567 48.8832 582.497 48.8832C582.497 48.3477 582.497 47.8121 582.497 47.8121C584.636 47.8121 588.377 47.2766 585.17 46.7411C578.221 45.67 584.636 45.1345 584.636 44.599C584.101 42.9924 582.497 41.9213 575.549 41.9213C579.29 40.3147 568.6 40.3147 571.272 38.7081C572.341 36.566 568.6 38.1726 566.462 38.1726C561.651 36.566 571.272 37.1015 571.272 36.0305C573.41 36.0305 575.014 36.0305 576.083 35.4949C583.567 34.9594 577.152 33.8884 578.221 32.8173C580.359 32.2818 583.567 31.7462 578.221 31.7462C571.272 31.2107 563.789 31.2107 556.84 31.2107C555.771 31.2107 555.236 30.6752 554.167 30.6752C552.564 30.1396 550.426 30.6752 548.822 30.1396C550.96 30.1396 553.098 30.6752 554.167 30.6752C554.702 30.1396 555.771 29.6041 556.305 29.6041C555.236 27.462 551.495 25.8554 547.753 24.2488C540.804 21.5712 534.924 18.358 524.234 16.7514C519.957 14.6093 514.077 15.1448 511.405 13.5382C507.663 12.4671 503.921 11.3961 498.576 11.3961C497.507 11.3961 496.972 10.8606 495.903 10.8606C489.489 9.25396 480.402 8.71843 472.384 7.64737C455.279 6.04078 439.778 2.8276 421.069 2.29207C411.447 0.149948 398.619 1.22101 387.928 0.149948C384.186 0.149948 384.186 0.685479 383.117 1.22101C380.979 1.22101 378.841 -0.921112 376.168 1.22101C374.03 1.22101 371.358 1.22101 369.219 1.22101C366.012 1.22101 362.805 1.22101 359.598 0.685479C348.907 0.685479 338.217 -0.385582 327.526 0.149948C323.25 0.685479 319.508 1.75654 315.766 1.22101C306.145 0.149949 296.523 0.685479 287.436 1.22101C285.833 1.22101 284.229 1.22101 282.625 1.22101C266.589 1.22101 252.157 3.36313 236.121 2.8276C232.379 3.36313 227.569 2.8276 223.827 3.36313C217.947 4.43419 211.533 4.96972 205.118 5.50525C200.842 5.50525 197.1 5.50525 193.359 6.04078C185.875 6.57631 178.392 6.57631 170.374 7.11184C167.167 7.11184 164.494 7.11184 161.821 6.57631C160.752 6.04078 159.683 4.96972 156.476 5.50525C152.734 6.57631 158.08 7.11184 158.614 7.64737C152.734 8.71843 146.32 8.71843 139.905 9.25396C138.302 8.1829 134.56 7.64737 130.284 7.64737C124.939 7.64737 119.593 8.1829 115.852 9.78949C120.662 9.25396 125.473 8.71843 130.284 8.1829C130.818 8.71843 131.887 8.71843 132.422 9.25396C113.179 10.325 96.6084 12.4671 78.9689 14.6093C76.2962 14.6093 73.6236 14.0737 71.4854 14.0737C69.3473 14.0737 68.2782 13.5382 66.6746 14.6093C65.071 15.1448 68.2782 15.6803 69.3473 16.2159C66.1401 16.7514 63.4674 16.7514 60.7948 17.2869C51.1732 17.2869 47.4315 17.8224 50.6387 19.429C48.5006 20.5001 46.3624 20.5001 44.2243 21.0356C39.9481 21.5712 32.9992 21.5712 41.5517 23.1778H42.6207H43.1553C42.6207 23.1778 42.0862 23.1778 41.5517 23.1778C37.8099 24.2488 34.0682 25.3199 31.3956 26.3909C28.1884 26.9265 23.3776 26.3909 23.3776 27.9975C23.3776 28.5331 27.1193 28.5331 29.2574 28.5331C28.7229 29.0686 28.1884 29.6041 27.6538 30.6752C23.9121 30.6752 22.3085 31.7462 20.1704 32.2818C16.9632 33.8884 12.1524 34.9594 7.87618 36.0305C11.6179 35.4949 14.8251 35.4949 18.5668 34.9594C19.1013 34.9594 19.6359 35.4949 20.7049 35.4949C15.3596 37.1015 6.80711 36.566 4.13446 38.7081C1.99633 39.2437 -1.74539 39.2437 0.927267 40.3147C3.06539 40.8503 6.27258 40.3147 8.41071 39.7792C12.1524 39.2437 16.4287 39.2437 20.1704 38.7081C21.2395 38.7081 21.774 38.7081 22.8431 38.7081C23.9121 38.7081 27.6538 38.7081 24.4467 39.2437C21.2395 40.3147 17.4977 40.8503 16.4287 41.9213H15.8941C13.2215 42.4568 10.5488 42.9924 13.2215 44.0634C16.4287 45.1345 19.6359 43.5279 22.8431 44.0634C24.9812 44.599 27.1193 45.1345 29.792 45.67C29.2574 45.67 28.7229 45.67 27.6538 45.67C21.774 46.2056 16.9632 47.2766 24.9812 48.8832C26.5848 49.4187 28.1884 50.4898 29.792 51.0253V51.5609C25.5157 51.5609 22.3085 52.0964 18.5668 52.6319C11.0834 53.1674 17.4977 54.2385 18.5668 54.774C16.4287 54.774 12.1524 54.774 13.756 55.8451C15.3596 56.9162 19.1013 56.3806 21.2395 55.3096C22.8431 55.3096 24.4467 54.774 26.0502 54.774H27.1193H28.1884C39.4135 55.8451 52.2423 54.774 63.4674 56.3806C63.4674 56.9162 63.4674 56.9162 64.002 57.4517C63.4674 57.4517 63.4674 57.9872 63.4674 57.9872C60.2603 58.5228 53.3113 57.9872 55.984 60.1293C58.1221 60.6649 58.6567 62.807 63.4674 60.6649C64.5365 60.6649 65.6056 60.6649 66.6746 60.6649C77.3653 60.6649 80.5725 64.4136 91.2631 64.4136C88.5904 65.4846 85.3832 64.9491 80.0379 66.0202C88.5904 64.9491 89.125 67.6268 95.5393 67.0912C100.885 67.0912 107.299 66.5557 110.506 68.6978C111.041 69.2334 112.644 69.2334 114.248 69.2334C113.179 69.2334 111.575 68.6978 110.506 68.6978C110.506 68.6978 109.972 69.2334 109.437 69.2334C104.626 69.2334 98.7465 68.6978 93.9357 70.3044C99.2811 70.3044 103.557 70.3044 107.834 70.3044C108.368 70.3044 108.903 70.84 108.903 70.84C107.299 71.3755 103.557 71.911 106.764 72.9821C111.041 74.0531 113.179 72.4465 116.386 72.4465C117.99 72.4465 119.593 72.4465 120.662 72.4465C120.662 72.4465 120.662 72.4465 121.197 72.4465H120.662C120.662 74.5887 127.611 72.9821 130.284 73.5176C130.818 74.0531 128.146 74.5887 126.008 74.5887C122.8 74.5887 119.059 74.5887 117.99 75.1242C115.317 76.7308 115.852 76.7308 111.575 77.2663C109.437 77.2663 107.299 77.8018 105.161 77.8018C104.626 77.8018 104.626 78.3374 105.695 78.3374C105.695 78.3374 106.23 78.8729 106.764 78.8729C106.23 78.8729 105.695 78.8729 105.161 78.8729C100.885 79.4084 97.1429 78.3374 93.4012 78.8729C85.3832 79.4084 77.3653 79.4084 69.3473 79.944C69.3473 79.944 69.3473 79.944 69.3473 80.4795C77.3653 80.4795 85.3832 80.4795 93.4012 80.4795C98.212 80.4795 103.023 79.944 107.834 80.4795C108.903 81.5506 103.557 81.5506 105.695 82.6216C108.368 82.6216 111.575 82.6216 114.782 82.6216C115.852 82.6216 116.386 83.1571 117.455 83.1571C119.059 83.6927 120.662 84.2282 122.8 84.7637C122.266 85.2993 119.059 86.3703 122.8 86.3703C131.887 86.3703 137.233 88.5125 145.251 89.048C143.647 90.119 141.509 90.119 139.905 90.119C130.818 89.5835 121.197 89.5835 112.11 90.6546C121.197 90.119 129.215 91.7256 137.767 92.2612C138.836 92.2612 140.44 92.7967 142.578 93.3322C137.767 93.3322 132.957 93.3322 128.68 93.3322V93.8678C135.629 93.8678 142.578 93.8678 149.527 93.8678C150.062 93.8678 150.596 94.4033 150.596 94.4033C147.389 95.4743 142.578 96.5454 151.665 96.5454C153.803 96.5454 155.941 96.5454 158.614 96.5454C167.167 99.2231 179.995 100.294 188.548 98.6875C189.617 99.2231 190.686 99.7586 193.359 99.7586C196.031 99.7586 198.704 99.7586 201.377 99.7586C205.118 99.7586 208.86 99.7586 212.602 99.7586C215.274 100.294 217.947 99.7586 221.154 99.7586C230.241 100.294 239.328 99.7586 248.415 100.294H248.95C256.433 100.294 263.917 100.294 273.004 100.294C268.193 98.6875 263.917 100.294 261.244 99.2231C262.848 98.6875 264.451 98.6875 266.055 98.152C273.004 98.152 279.953 97.6165 286.902 97.6165C288.505 98.152 283.694 99.2231 287.436 99.2231C290.643 99.2231 291.712 98.152 292.247 97.6165C307.748 99.2231 323.25 98.6875 339.286 97.6165C341.424 97.6165 344.096 97.6165 346.235 97.6165C353.184 98.152 360.132 98.152 367.081 97.6165C371.892 97.0809 376.703 97.0809 381.514 97.0809C383.652 97.0809 386.324 97.0809 390.601 96.5454C402.36 96.5454 413.586 96.5454 424.811 96.5454C425.88 96.5454 425.88 96.5454 425.88 96.0099H426.414C425.88 96.0099 425.345 96.5454 424.811 96.5454C430.691 96.5454 436.57 97.0809 441.916 96.0099C451.003 96.0099 461.159 97.0809 470.246 96.0099C475.591 96.0099 480.402 96.5454 485.747 96.0099C486.282 96.0099 487.351 96.5454 487.885 96.5454C498.042 96.0099 508.732 96.5454 518.888 96.0099C529.579 96.0099 540.27 96.0099 550.96 96.0099C554.702 95.4743 559.513 96.0099 563.254 95.4743C568.065 94.9388 573.41 95.4743 577.687 93.8678C591.585 92.2612 594.257 89.048 593.723 85.2993C597.999 82.0861 597.999 78.8729 594.257 75.6597ZM123.87 69.7689C123.335 69.7689 123.335 69.7689 122.8 69.7689C122.8 69.7689 123.335 69.7689 123.87 69.7689ZM208.325 8.71843C208.86 8.71843 209.395 8.71843 209.929 9.25396C209.395 8.71843 208.86 8.71843 208.325 8.71843ZM263.382 86.9059C262.848 86.9059 262.313 86.9059 261.779 86.9059C261.779 86.3703 262.313 86.3703 263.382 86.9059C262.848 86.3703 263.382 86.3703 263.382 86.9059ZM250.019 81.015C249.484 81.015 248.95 81.015 248.95 81.5506C248.95 81.5506 249.484 81.015 250.019 81.015ZM406.637 39.7792C406.102 39.7792 405.568 39.7792 405.568 40.3147C405.568 40.3147 406.102 40.3147 406.637 39.7792ZM367.081 46.7411C367.081 46.2056 367.081 46.2056 367.081 46.7411C367.616 46.7411 367.616 46.7411 368.15 46.7411C367.616 46.2056 367.616 46.2056 367.081 46.7411ZM382.583 42.9924C382.583 42.9924 383.117 42.9924 382.583 42.9924C382.048 42.9924 382.583 42.9924 382.583 42.9924ZM366.547 49.4187C365.478 48.8832 363.34 48.8832 361.736 48.8832C363.34 48.8832 364.943 49.4187 366.547 49.4187ZM328.061 38.7081C329.13 38.7081 330.733 38.7081 331.802 38.7081C330.733 38.1726 329.664 38.7081 328.061 38.7081ZM320.043 49.4187C320.577 49.4187 320.577 49.4187 320.043 49.4187C320.577 49.9543 320.043 49.4187 320.043 49.4187ZM335.544 53.703C335.009 53.703 333.94 53.1674 333.406 53.703C334.475 53.1674 335.009 53.1674 335.544 53.703ZM252.692 47.8121C252.157 47.8121 252.157 47.8121 251.623 47.2766C252.157 47.8121 252.692 47.2766 252.692 47.8121C253.226 47.8121 252.692 47.8121 252.692 47.8121ZM315.766 66.5557C315.766 66.5557 316.301 66.5557 315.766 66.5557C315.232 66.5557 315.766 66.5557 315.766 66.5557ZM444.054 36.0305C444.588 36.0305 444.588 36.0305 444.054 36.0305C444.588 36.0305 444.588 36.0305 444.054 36.0305ZM188.013 36.566C187.479 36.566 187.479 37.1015 186.41 37.1015C185.875 37.1015 185.875 37.1015 185.341 37.1015C186.41 37.1015 187.479 37.1015 188.013 36.566ZM250.019 58.5228C249.484 58.5228 249.484 58.5228 248.95 58.5228C248.95 58.5228 249.484 58.5228 250.019 58.5228ZM320.043 59.0583C320.043 59.0583 320.043 59.5938 320.043 59.0583C319.508 59.0583 319.508 59.0583 318.973 59.0583C319.508 59.0583 320.043 59.0583 320.043 59.0583ZM275.676 69.2334C276.746 69.2334 277.28 68.6978 278.884 68.6978C279.418 68.6978 279.953 68.6978 280.487 68.6978C279.418 68.6978 277.815 68.6978 276.746 69.2334C276.211 69.2334 275.676 69.2334 275.676 69.2334ZM411.982 56.3806C411.982 56.3806 411.982 56.9162 411.982 56.3806C411.982 56.3806 411.982 56.9162 411.982 56.3806C411.447 56.3806 411.982 56.3806 411.982 56.3806ZM362.271 22.1067C362.805 21.5712 363.34 21.5712 363.874 21.5712C362.805 21.5712 362.271 21.5712 362.805 22.1067H362.271ZM331.268 26.9265H331.802C331.802 26.9265 331.802 26.9265 331.268 26.9265ZM164.494 32.2818C162.356 33.3528 159.683 32.8173 159.683 32.2818C161.287 32.8173 162.89 32.8173 164.494 32.2818ZM144.182 32.8173H143.647H144.182ZM232.914 50.4898C232.379 50.4898 232.379 50.4898 231.845 51.0253H231.31C231.845 50.4898 231.845 50.4898 232.914 50.4898ZM415.189 59.0583H414.655C415.189 59.0583 415.189 59.0583 415.189 59.0583ZM458.486 31.2107C459.021 31.2107 459.021 31.2107 459.555 31.2107C459.021 31.2107 459.021 31.2107 458.486 31.2107ZM439.778 25.3199C440.312 25.3199 440.847 25.3199 441.916 25.3199C441.381 25.3199 440.847 25.3199 439.778 25.3199ZM394.877 23.1778C395.411 23.1778 394.877 23.1778 394.877 23.1778V23.1778ZM289.574 62.2715C289.04 62.2715 289.04 62.2715 289.574 62.2715V62.2715ZM353.184 68.1623C354.253 68.1623 355.856 68.1623 356.925 68.1623C355.856 68.1623 354.787 68.1623 353.718 68.6978C353.718 68.1623 353.184 68.1623 353.184 68.1623ZM184.806 28.5331C184.806 28.5331 184.806 27.9975 184.806 28.5331C184.806 27.9975 184.806 28.5331 184.806 28.5331ZM193.359 53.1674C193.893 53.1674 193.359 53.1674 193.359 53.1674V53.1674ZM245.208 59.5938C245.208 60.1293 245.208 60.1293 245.208 59.5938V59.5938ZM465.435 74.5887C465.435 74.5887 465.435 74.0531 465.435 74.5887C465.435 74.0531 465.435 74.5887 465.435 74.5887ZM512.474 36.0305C513.008 36.0305 513.008 36.0305 513.543 36.0305C513.008 36.0305 512.474 36.0305 512.474 36.0305ZM231.845 23.1778C232.379 23.1778 232.914 23.1778 232.914 23.1778C232.914 23.1778 232.379 23.1778 231.845 23.1778ZM139.905 25.8554C137.233 25.8554 134.56 25.8554 131.887 25.8554C134.56 26.3909 137.233 26.9265 139.905 25.8554ZM150.596 47.2766C151.131 47.2766 151.665 47.2766 152.2 47.2766C151.665 47.2766 151.131 47.2766 150.596 47.2766ZM459.021 68.6978C459.021 68.6978 459.555 68.6978 459.021 68.6978V68.6978ZM497.507 32.2818C499.645 32.8173 501.783 32.8173 504.456 32.8173C502.318 33.3528 500.18 32.8173 497.507 32.2818ZM416.258 13.5382H416.793C416.793 13.5382 416.793 13.5382 416.258 13.5382ZM369.754 11.3961C371.358 11.3961 373.496 11.3961 375.099 11.3961C373.496 11.9316 371.892 11.9316 369.754 11.3961ZM222.758 63.3425C218.482 63.3425 213.671 63.3425 209.395 63.8781C211.533 63.3425 214.205 63.3425 217.413 63.3425C219.551 63.3425 221.154 63.3425 222.758 63.3425ZM192.824 74.0531C192.29 74.0531 192.29 74.0531 192.824 74.0531V74.0531ZM476.66 85.2993C477.195 85.8348 478.798 85.2993 479.867 85.8348C479.333 85.8348 478.798 85.8348 478.264 85.8348C477.729 85.8348 477.195 85.8348 476.66 85.2993ZM508.198 55.3096H507.663H508.198ZM517.285 31.2107C516.75 31.2107 516.75 31.2107 517.285 31.2107V31.2107ZM500.18 29.0686C500.714 29.0686 500.714 29.0686 500.18 29.0686C501.249 29.0686 502.318 29.0686 502.852 29.0686C502.318 29.0686 501.249 29.0686 500.18 29.0686ZM99.2811 24.7843C98.7465 24.2488 97.6775 23.7133 96.6084 23.1778C98.7465 22.6422 100.885 22.6422 103.557 22.1067C101.954 23.1778 100.35 23.7133 99.2811 24.7843ZM556.305 83.6927C556.84 83.6927 557.375 83.6927 557.909 83.6927C560.047 83.1571 560.582 83.6927 561.116 84.2282C559.513 83.6927 557.909 83.1571 556.305 83.6927ZM504.99 29.0686C504.99 29.0686 505.525 29.0686 504.99 29.0686C505.525 29.0686 505.525 29.0686 504.99 29.0686ZM523.699 62.2715C524.234 62.2715 523.699 62.2715 523.699 62.2715C524.234 62.2715 524.234 62.2715 523.699 62.2715C524.234 62.2715 524.234 62.2715 523.699 62.2715ZM80.5725 19.9646C81.107 19.429 81.107 19.9646 81.6415 19.9646C81.107 19.9646 80.5725 19.9646 80.5725 19.9646ZM41.0171 45.1345C39.9481 44.599 40.4826 44.0634 42.0862 43.5279C41.5517 44.0634 41.0171 44.599 41.0171 45.1345ZM177.323 10.325C176.788 10.325 176.788 10.325 177.323 10.325C176.788 10.325 177.323 10.325 177.323 10.325ZM128.146 68.6978C128.146 68.6978 128.146 69.2334 128.146 68.6978C128.146 69.2334 128.146 68.6978 128.146 68.6978ZM565.927 63.3425C565.927 63.3425 565.927 62.807 565.927 63.3425C565.927 62.807 565.927 63.3425 565.927 63.3425ZM550.426 60.6649C551.495 60.6649 553.098 60.6649 554.167 60.6649C552.564 60.1293 551.495 60.6649 550.426 60.6649ZM221.154 99.7586C221.689 99.7586 222.223 99.7586 221.689 99.7586H221.154ZM252.157 98.6875C252.157 98.152 252.692 98.152 252.157 98.6875C252.692 98.6875 252.692 98.6875 252.692 98.6875C252.692 98.6875 252.692 98.6875 252.157 98.6875Z" fill="white"/>
<path d="M86.9917 11.9347C92.337 11.9347 95.5442 11.3992 98.7514 10.3281C92.8716 10.3281 89.6644 10.8637 86.9917 11.9347Z" fill="white"/>
<path d="M578.759 38.717C578.225 39.2525 579.829 39.2525 580.898 39.2525C581.967 39.2525 583.57 38.717 584.105 38.717C584.639 38.1815 583.57 38.1815 579.829 38.717C579.829 37.646 579.294 38.1815 578.759 38.717Z" fill="white"/>
</svg>
