<svg width="613" height="121" viewBox="0 0 613 121" fill="none" xmlns="http://www.w3.org/2000/svg">
<g clip-path="url(#clip0)">
<path d="M611.428 48.2905C611.952 46.6253 614.571 44.4051 610.904 42.74C604.093 39.4097 596.234 36.0794 585.755 33.3042C583.136 32.7492 580.516 32.1941 577.896 32.1941C574.229 31.084 570.561 30.529 566.37 29.4189C563.226 28.8638 560.083 28.8638 556.415 28.3088C555.367 28.3088 554.319 28.8638 553.271 28.8638C551.176 28.3088 548.556 28.3088 546.984 27.7538C545.936 27.7538 544.365 27.7538 543.317 27.7538C538.077 26.6437 531.79 27.1987 526.027 27.1987C520.788 26.0886 515.548 26.6437 510.309 26.6437C507.165 26.6437 504.022 27.1987 500.878 27.1987C500.354 27.1987 499.83 27.1987 498.783 27.1987C498.783 26.6437 498.259 26.0886 497.211 26.0886V25.5336C496.687 24.4235 496.687 23.8684 497.211 23.3134C499.83 19.9831 501.926 16.6528 497.735 12.7675C494.067 9.99228 493.019 9.43724 483.589 10.5473C483.065 10.5473 481.493 10.5473 481.493 9.99228C479.397 7.21705 471.538 6.10696 466.299 4.44183C461.059 4.44183 456.344 3.33173 451.105 3.88678C448.485 1.6666 442.722 2.22164 437.483 1.6666C433.815 0.556504 428.052 1.6666 423.86 0.556504C420.193 0.556504 416.001 0.556504 412.334 0.556504C411.286 0.556504 409.714 0.556504 408.666 0.556504C408.142 0.556504 407.618 0.556504 406.571 0.556504C406.047 0.556504 405.523 0.556504 404.475 0.556504C401.331 0.556504 398.188 0.556504 395.044 0.556504C387.185 1.11155 379.85 -1.10863 371.991 0.556504C369.371 0.556504 368.324 2.22164 364.656 1.6666C355.749 0.556504 347.366 1.11155 338.983 2.77669C333.22 2.77669 325.361 1.6666 325.361 5.55192C323.789 5.55192 322.741 5.55192 321.17 5.55192C318.026 4.99687 314.882 4.44183 311.739 3.88678C309.119 3.88678 306.5 4.44183 303.88 4.44183C301.784 4.44183 299.688 4.44183 298.117 4.99687C296.545 6.10696 289.21 3.88678 290.782 6.66201C290.782 7.21705 290.782 7.7721 290.782 7.7721C283.971 8.88219 275.588 7.7721 269.3 9.99228C268.776 9.99228 268.253 9.99228 267.729 9.99228C265.633 9.99228 263.537 9.99228 261.965 10.5473C248.343 11.1024 235.769 12.2125 223.194 13.3226C222.671 13.3226 222.147 13.3226 221.623 13.3226C220.051 13.3226 219.003 13.3226 217.431 13.3226C214.812 12.7675 213.24 13.3226 211.668 13.8776C207.476 14.4327 203.809 14.9877 200.141 15.5427C198.046 15.5427 195.95 15.5427 194.378 16.0978C190.187 16.6528 185.995 16.0978 182.852 17.2079C181.28 17.2079 180.232 17.2079 178.66 17.2079C169.229 17.7629 159.799 18.873 151.416 19.9831C150.892 19.9831 150.368 19.9831 149.32 19.9831C146.7 20.5382 144.081 20.5382 141.985 21.0932C138.841 21.0932 137.794 22.2033 134.126 22.2033C133.078 22.2033 131.506 22.2033 130.459 22.2033C126.267 22.7583 123.123 23.3134 126.267 24.9785C125.743 24.9785 125.219 25.5336 124.171 25.5336C122.076 25.5336 119.456 24.9785 116.836 25.5336C108.453 26.0886 100.594 26.6437 93.2594 28.3088C88.0201 29.4189 81.7329 29.4189 75.9696 31.6391C84.3525 31.084 90.1158 30.529 95.3551 29.4189C97.9748 29.9739 97.9747 31.084 99.0226 32.1941C95.879 32.1941 92.7354 33.3042 89.5918 33.8593C87.4961 34.4143 84.3525 33.3042 82.7807 34.4143C80.1611 34.4143 78.0653 34.4143 76.4936 34.9693C69.1585 34.9693 73.35 37.7446 68.6346 38.2996C66.0149 38.2996 62.3474 38.2996 62.3474 39.4097C62.3474 42.1849 57.1081 42.74 51.3448 43.295C49.2491 44.4051 47.1534 44.4051 45.5816 44.4051C41.9141 44.4051 40.3423 45.5152 37.7226 45.5152C35.1029 46.0703 30.9115 45.5152 29.3397 47.1804C36.1508 48.2905 42.438 47.1804 49.2491 47.1804C49.2491 48.8455 43.4859 49.4005 41.9141 50.5106C38.2465 51.0657 36.6747 51.6207 35.6269 52.7308C33.0072 53.2859 30.3876 53.8409 27.7679 54.396C27.244 54.396 26.72 54.396 25.6722 54.396C22.0047 54.951 18.8611 55.506 14.6696 56.6161C19.385 56.6161 22.0047 56.6161 24.1004 56.0611C26.1961 56.0611 28.8158 56.0611 26.1961 57.1712C24.1004 57.7262 22.0047 58.2813 19.9089 58.2813C14.6696 58.8363 10.4782 59.9464 5.23883 61.0565C9.43029 61.6116 12.5739 62.1666 15.7175 62.1666C17.8132 61.6116 18.8611 61.6116 19.385 62.1666C17.8132 62.1666 16.7653 61.6116 15.7175 62.1666C21.4807 62.7216 15.1935 63.2767 15.7175 64.3868C15.1935 64.3868 14.1457 64.9418 13.6217 64.9418C8.38242 64.9418 3.66704 65.4969 -0.524414 66.607C5.23883 66.0519 11.526 66.0519 17.8132 66.0519C19.9089 66.0519 21.4807 66.0519 23.5764 65.4969C27.7679 65.4969 31.4354 64.9418 35.6269 64.9418C38.7705 65.4969 41.9141 64.9418 45.0576 64.9418C47.1534 64.9418 48.7252 65.4969 50.8209 64.9418C52.3927 64.9418 53.4406 65.4969 55.0123 65.4969C55.5363 65.4969 55.5363 65.4969 56.0602 65.4969H55.5363V66.0519C53.4406 66.0519 51.8688 66.0519 49.773 66.0519C44.0098 66.607 50.297 67.162 49.773 68.2721C45.5816 68.2721 41.3901 67.7171 35.6269 68.8271C42.438 69.3822 49.2491 68.8271 51.8688 71.0473C48.7252 71.6024 44.5337 71.0473 43.4859 72.7125C41.9141 72.7125 45.0576 72.7125 47.1534 73.2675C47.6773 73.2675 48.2012 73.8226 48.7252 73.8226C46.6294 73.8226 44.5337 73.8226 42.9619 74.3776C38.7705 74.3776 34.579 75.4877 29.8636 75.4877C27.244 75.4877 24.6243 75.4877 24.6243 76.5978C24.6243 77.1528 26.1961 77.7079 27.7679 77.7079C36.1508 76.5978 44.5337 78.2629 52.9166 77.1528C54.4884 77.1528 56.0602 77.1528 56.5841 77.7079C48.2012 78.818 38.7705 78.818 29.8636 79.9281C27.7679 79.9281 25.6722 80.4831 22.0047 81.0382C26.1961 81.0382 28.2918 81.0382 30.9115 80.4831C31.4354 80.4831 32.4833 80.4831 33.5311 80.4831C41.3901 79.9281 48.7252 79.373 56.5841 78.818C56.5841 79.373 56.5841 79.9281 55.0123 79.9281C52.9166 79.9281 50.8209 80.4831 48.2012 81.0382C51.3448 81.5932 54.4884 81.0382 56.5841 82.1483C52.3927 82.1483 47.6773 82.7033 42.9619 83.2583C43.4859 83.2583 43.4859 83.8134 44.0098 83.8134C44.0098 83.8134 44.5337 83.8134 45.0576 83.8134C51.3448 84.9235 58.1559 84.3684 64.4431 83.8134C63.3953 84.9235 73.8739 85.4785 63.3953 86.5886C69.6824 86.5886 73.8739 86.0336 77.5414 84.9235C79.1132 84.9235 80.685 84.9235 81.7329 85.4785C80.1611 85.4785 79.1132 86.0336 77.5414 86.0336C74.3978 87.1437 69.6824 87.1437 66.5388 88.2538C64.4431 88.2538 61.2995 88.2538 61.2995 88.2538C59.7277 91.584 51.3448 90.4739 47.1534 91.584C48.7252 94.3593 56.5841 92.6941 60.2517 93.8042C59.2038 94.9143 54.4884 93.8042 54.4884 94.9143C52.9166 95.4694 50.8209 96.0244 49.2491 96.5794C44.0098 96.0244 42.9619 97.1345 45.0576 98.7996C44.5337 98.7996 44.0098 98.7996 43.4859 98.7996C36.1508 98.2446 29.3397 99.3547 22.0047 99.3547C28.2918 99.9097 35.1029 99.3547 41.3901 100.465C42.438 100.465 44.0098 100.465 45.0576 100.465C47.1534 101.02 44.5337 102.685 49.2491 102.685C53.9645 102.685 58.1559 102.13 62.8713 102.13C68.6346 102.685 74.3978 101.575 80.1611 101.575C80.685 101.575 81.2089 101.575 81.7329 101.575C82.2568 102.13 78.5893 102.13 78.0653 103.24C80.685 103.24 82.7807 103.24 83.8286 102.685C88.0201 102.685 91.6876 103.24 95.3551 103.24C93.2594 103.795 91.6876 103.795 89.5918 104.35C89.0679 104.35 88.02 103.795 87.4961 103.795C84.8765 104.35 81.2089 103.795 78.0653 104.35C77.0175 104.35 76.4936 104.35 75.4457 104.35C67.5867 104.35 67.5867 104.35 68.1106 105.46C73.35 107.125 78.5893 106.015 83.8286 106.57C86.4483 107.125 89.0679 107.68 91.6876 108.79C93.7833 109.346 91.6876 109.901 91.1636 109.901C84.8765 109.901 77.5414 109.345 71.2542 110.456C74.3978 112.121 79.1132 110.456 81.7329 111.566C82.2568 112.121 83.3047 112.676 83.8286 113.231C78.5893 113.786 72.826 113.231 67.5867 113.786C69.6824 114.896 71.7782 114.896 73.8739 114.896C77.0175 114.341 80.685 114.341 83.8286 114.896C85.9243 115.451 77.5414 114.896 81.7329 116.561C79.1132 116.561 76.4935 116.561 73.8739 116.561C78.5893 117.116 82.7807 117.116 87.4961 117.671C88.02 117.671 88.544 117.671 89.5918 117.671C97.4508 117.671 105.31 117.671 113.169 117.671C114.741 117.671 115.788 118.226 117.36 118.226C120.504 118.226 123.123 119.336 126.791 118.781C132.554 119.336 138.317 119.891 144.081 119.891C147.224 119.891 150.368 119.891 154.035 119.891C157.179 121.001 160.323 120.446 163.99 120.446C169.229 120.446 173.945 120.446 179.184 120.446C183.9 120.446 188.615 121.001 192.806 119.891C199.094 119.891 206.429 121.001 213.24 119.891C215.859 119.891 218.479 119.891 220.575 119.891C222.147 118.781 224.242 119.336 226.338 119.336C230.529 119.336 235.245 119.336 239.436 119.336C242.58 118.781 245.724 119.336 248.867 118.781C249.391 118.781 249.915 118.781 250.439 118.781C250.963 118.781 250.963 118.781 251.487 118.781C257.25 118.226 263.537 119.336 268.777 117.671C270.872 117.671 273.492 117.671 275.588 117.671C279.255 117.671 282.923 118.226 286.066 117.116C290.782 117.116 294.973 117.116 299.688 117.116C305.452 117.116 311.739 117.671 316.978 116.561C322.218 116.561 327.457 116.561 332.172 116.561C336.364 116.006 341.603 116.561 345.794 116.006C356.273 116.006 366.228 116.006 376.706 116.006C380.898 116.006 385.613 116.006 389.805 116.006C411.81 116.006 434.339 116.006 456.344 116.006C467.871 116.006 479.397 116.006 490.924 116.006C493.543 116.006 496.163 116.006 498.783 116.006C502.974 117.116 507.165 116.561 511.357 116.561C515.548 116.561 520.264 116.561 524.455 116.561C528.647 117.671 533.362 117.116 538.077 117.116C548.556 117.116 559.559 117.671 568.989 114.896C570.037 114.896 571.609 114.896 572.657 114.896C575.277 114.896 577.896 113.786 580.516 113.786C583.136 113.231 585.231 112.676 586.279 111.566C593.614 110.456 592.566 107.68 593.614 105.46C598.854 101.575 592.566 97.6895 595.71 93.8042V93.2492C596.234 91.584 594.662 89.3638 592.042 87.6987C592.042 87.6987 592.042 87.1437 591.518 87.1437C592.042 86.0336 590.995 85.4785 589.423 84.3684C589.423 83.2583 590.471 82.1483 587.851 81.0382C583.136 79.9281 578.42 78.2629 574.229 77.1528C573.181 77.1528 571.609 76.5978 570.561 76.5978C569.513 76.5978 567.942 76.0427 566.894 76.0427C564.798 75.4877 562.702 74.9327 561.13 74.3776V73.8226C559.559 72.1574 565.846 71.6024 566.894 70.4923C567.942 70.4923 569.513 69.9372 570.561 69.9372C578.42 69.9372 586.279 70.4923 593.614 69.3822C595.71 68.2721 597.806 68.2721 600.949 68.8271C601.473 68.8271 602.521 68.2721 603.045 68.2721C606.712 68.2721 607.236 67.162 606.712 66.0519C606.712 65.4969 606.712 64.9418 606.712 64.9418C606.712 64.3868 608.808 63.8317 606.712 63.8317C615.619 58.2813 613 53.2859 611.428 48.2905ZM299.688 114.341C300.736 114.341 301.26 114.341 302.308 114.341C301.784 114.341 301.784 114.341 301.26 114.341C300.212 114.341 300.212 114.341 299.688 114.341ZM97.4508 117.116C101.118 117.116 105.31 117.116 108.977 117.116C104.786 116.561 101.118 116.561 97.4508 117.116ZM111.073 106.015C111.073 106.015 110.549 106.015 111.073 106.015C110.549 106.015 111.073 106.015 111.073 106.015ZM568.989 89.9189C569.513 89.9189 569.513 89.9189 570.037 90.4739C569.513 89.9189 569.513 89.9189 568.989 89.9189ZM95.879 97.1345C95.879 96.5794 96.403 96.5794 95.879 97.1345C95.879 96.5794 95.879 96.5794 95.879 97.1345ZM111.597 91.029C112.121 91.029 113.169 91.029 113.693 91.029C112.645 91.029 112.121 91.029 111.597 91.029ZM248.343 24.4235C247.819 24.4235 247.819 24.4235 248.343 24.4235C247.819 24.4235 247.819 24.4235 248.343 24.4235C247.819 24.4235 247.819 24.4235 248.343 24.4235ZM548.556 38.8547C548.556 38.8547 549.08 38.8547 548.556 38.8547C549.08 38.8547 549.08 38.8547 548.556 38.8547C549.08 38.8547 549.08 38.8547 548.556 38.8547ZM155.083 38.2996C154.035 38.2996 152.988 38.8547 150.892 38.8547C152.988 38.8547 154.035 38.2996 155.083 38.2996ZM178.136 91.584C178.66 91.584 178.66 91.584 178.136 91.584C178.66 91.584 178.136 91.584 178.136 91.584ZM509.261 78.2629C509.261 77.7079 509.261 77.7079 509.261 78.2629C509.261 77.7079 509.261 77.7079 509.261 78.2629C509.261 77.7079 509.261 77.7079 509.261 78.2629ZM250.439 51.6207C249.915 51.6207 249.391 51.6207 249.391 51.6207C249.915 51.6207 249.915 51.6207 249.915 51.6207H250.439ZM153.512 57.1712C154.035 57.1712 154.035 57.1712 154.559 57.1712C154.035 57.7262 153.512 57.1712 153.512 57.1712ZM305.976 36.0794C305.976 36.0794 305.976 35.5244 305.976 36.0794C305.452 35.5244 305.452 35.5244 305.976 36.0794C305.976 35.5244 305.976 36.0794 305.976 36.0794ZM247.295 66.607C247.295 66.607 246.771 66.607 247.295 66.607C246.771 66.607 247.295 66.607 247.295 66.607ZM377.754 54.396C378.278 54.396 378.802 54.396 379.326 54.396C378.802 54.396 378.278 54.396 377.754 54.396ZM341.079 50.5106C340.555 50.5106 340.031 50.5106 339.507 50.5106C340.031 50.5106 340.555 50.5106 341.079 50.5106ZM308.071 47.7354C307.024 47.7354 306.5 47.7354 305.452 47.7354C305.976 47.7354 307.024 48.2905 308.071 47.7354ZM341.079 39.4097H341.603H341.079ZM280.827 67.162C279.255 67.162 277.683 67.162 276.635 66.607C278.207 67.162 279.255 67.7171 280.827 67.162ZM325.361 41.0749C325.361 41.6299 325.361 42.1849 324.313 42.1849C324.837 41.6299 325.361 41.6299 325.361 41.0749ZM299.165 45.5152C298.641 45.5152 298.117 45.5152 297.593 45.5152C297.593 45.5152 297.593 45.5152 298.117 45.5152C298.641 44.9602 299.165 44.9602 299.165 45.5152ZM268.253 77.1528C268.253 77.7079 268.253 77.1528 268.253 77.1528C267.729 77.7079 268.253 77.7079 268.253 77.1528C267.729 77.7079 267.729 77.7079 268.253 77.1528ZM363.084 41.0749C362.56 41.0749 362.56 41.0749 362.036 41.0749C362.56 41.0749 362.56 41.0749 363.084 41.0749ZM334.792 35.5244C334.792 34.9693 334.792 34.9693 334.792 35.5244C335.316 35.5244 334.792 35.5244 334.792 35.5244ZM308.071 76.0427C308.071 76.0427 307.547 75.4877 308.071 76.0427C307.547 75.4877 307.547 76.0427 308.071 76.0427ZM375.135 29.4189C375.659 29.4189 375.659 29.4189 376.182 29.4189C375.659 29.4189 375.659 29.4189 375.135 29.4189ZM158.227 72.1574C158.751 72.1574 158.751 72.1574 159.275 72.7125C158.751 72.7125 158.227 72.7125 157.703 72.7125L158.227 72.1574ZM287.638 78.818C287.114 78.818 287.114 78.818 286.59 78.818C287.114 78.818 287.638 78.818 287.638 78.818ZM289.21 77.1528C288.686 77.1528 288.686 77.1528 289.21 77.1528C288.162 76.5978 287.638 76.5978 287.114 77.1528C287.114 77.1528 287.114 77.1528 286.59 77.1528C286.59 77.1528 286.59 77.1528 287.114 77.1528H288.162H289.21C288.686 77.1528 288.686 77.1528 289.21 77.1528C288.686 77.1528 289.21 77.1528 289.21 77.1528ZM366.228 81.0382C366.228 81.5932 365.704 81.5932 366.228 81.5932C366.228 81.5932 366.228 81.5932 366.228 81.0382ZM321.694 29.9739C322.218 29.4189 321.17 28.8638 319.598 28.8638C320.122 28.8638 321.17 29.4189 321.694 29.9739ZM265.109 52.1758C265.109 51.6207 264.585 51.6207 265.109 52.1758C265.109 51.6207 265.109 51.6207 265.109 52.1758C265.109 51.6207 265.109 52.1758 265.109 52.1758ZM226.862 57.7262C226.338 57.1712 224.766 57.1712 223.194 56.6161C224.242 57.1712 225.29 57.7262 226.862 57.7262ZM172.897 78.2629C173.421 78.2629 173.945 78.2629 174.469 78.2629C173.945 78.818 173.945 78.818 172.897 78.2629ZM268.253 84.3684C267.205 84.9235 264.061 85.4785 262.489 84.3684C261.965 84.3684 260.918 84.3684 260.394 84.3684C263.013 84.9235 265.633 84.9235 268.253 84.3684ZM416.525 46.0703C417.049 46.0703 417.573 46.6253 418.097 46.6253C417.573 46.0703 417.573 46.0703 416.525 46.0703ZM120.504 73.2675H121.028C121.028 73.2675 121.028 73.2675 120.504 73.2675ZM143.557 78.818C144.605 78.818 145.129 78.2629 145.129 78.2629C145.129 78.2629 144.081 78.818 143.557 78.818ZM471.538 78.818C473.11 78.818 474.682 78.818 476.253 78.818C474.682 78.2629 473.11 78.818 471.538 78.818ZM412.858 37.1895C412.858 37.1895 412.334 37.1895 412.858 37.1895C412.334 37.1895 412.858 37.1895 412.858 37.1895ZM329.553 22.7583C329.029 22.7583 329.029 22.7583 329.553 22.7583C329.029 22.7583 329.029 22.7583 329.553 22.7583ZM294.449 29.9739C293.925 29.9739 293.925 29.9739 293.401 29.9739C293.925 29.9739 293.925 29.9739 294.449 29.9739ZM285.018 32.7492C284.494 32.7492 285.018 32.7492 285.018 32.7492C284.494 32.7492 284.494 32.7492 285.018 32.7492C284.494 32.7492 284.494 32.7492 285.018 32.7492ZM163.466 47.1804C162.942 47.1804 163.466 47.1804 163.466 47.1804C162.942 47.1804 162.942 47.1804 163.466 47.1804ZM163.466 83.8134C166.61 83.8134 169.229 83.8134 172.373 83.8134C169.229 83.8134 166.086 83.2583 163.466 83.8134ZM368.324 95.4694C368.324 94.9143 368.324 94.9143 368.324 95.4694H368.847C368.847 95.4694 368.324 94.9143 368.324 95.4694ZM385.613 93.8042C385.089 93.8042 385.089 93.8042 385.613 93.8042V93.8042ZM397.14 27.1987C397.664 27.1987 398.188 27.1987 398.712 27.1987C398.188 27.1987 397.664 27.1987 397.14 27.1987ZM215.335 42.74H215.859C215.859 43.295 215.859 43.295 215.335 42.74C215.335 43.295 215.335 43.295 215.335 42.74ZM166.086 93.2492C165.562 93.8042 165.038 93.2492 164.514 93.8042C164.514 93.2492 163.99 93.2492 163.466 93.2492C164.514 93.2492 165.562 93.2492 166.086 93.2492ZM309.119 89.9189C308.595 89.9189 308.595 89.9189 309.119 89.9189C308.595 89.3638 308.595 89.3638 309.119 89.9189C308.595 89.9189 309.119 89.9189 309.119 89.9189ZM404.475 98.2446C404.475 98.2446 404.475 98.7996 404.475 98.2446C404.475 98.7996 404.475 98.2446 404.475 98.2446ZM450.057 83.2583C450.581 83.2583 450.581 83.2583 450.057 83.2583C450.581 83.2583 450.581 83.2583 451.105 83.2583C451.105 83.2583 450.581 83.2583 450.057 83.2583ZM352.606 18.318C354.177 18.318 355.749 18.318 356.797 17.7629C355.225 18.318 354.177 18.318 352.606 18.318ZM268.777 25.5336C267.729 24.9785 268.253 24.9785 267.729 24.9785C268.253 24.9785 268.777 25.5336 268.777 24.9785V25.5336ZM236.293 37.1895C236.293 37.1895 236.817 37.1895 236.293 37.1895C236.817 37.1895 236.817 37.1895 236.293 37.1895ZM182.852 29.9739L183.376 29.4189H183.9C183.376 29.9739 183.376 29.9739 182.852 29.9739ZM312.263 92.6941C311.739 92.6941 311.739 92.6941 312.263 92.6941C312.263 92.6941 311.739 92.6941 312.263 92.6941ZM476.777 88.8088C476.253 88.8088 476.253 88.8088 476.777 88.8088C476.253 88.2538 476.253 88.2538 476.777 88.8088ZM238.388 91.584C238.388 92.1391 238.388 92.1391 238.388 91.584C238.388 92.1391 238.388 92.1391 238.388 91.584ZM275.064 101.575C277.683 101.02 278.731 101.02 279.255 101.575C278.207 101.575 276.635 101.575 275.064 101.575ZM375.659 100.465C376.183 101.02 376.706 100.465 377.23 100.465C376.706 101.02 376.183 100.465 375.659 100.465ZM546.984 103.24C547.508 103.24 548.032 103.24 548.032 103.795C548.032 103.795 547.508 103.24 546.984 103.24ZM552.747 44.4051C553.271 44.4051 553.795 44.4051 554.319 44.4051C553.795 44.4051 552.747 44.4051 552.224 44.9602C552.224 44.9602 552.747 44.9602 552.747 44.4051ZM308.071 12.7675C308.071 12.7675 308.595 12.7675 308.071 12.7675C308.595 12.7675 308.071 12.7675 308.071 12.7675ZM234.197 32.7492C233.673 32.7492 233.673 32.7492 233.149 32.7492C233.673 32.7492 233.673 32.7492 234.197 32.7492ZM179.708 22.2033C179.184 22.2033 178.66 22.2033 178.136 22.2033C179.184 21.6482 179.184 22.2033 179.708 22.2033C180.232 22.2033 180.232 22.2033 179.708 22.2033ZM114.741 102.13C115.265 102.685 115.265 102.685 114.741 102.13C114.741 102.685 114.741 102.685 114.741 102.13C114.741 102.685 115.265 102.685 114.741 102.13ZM527.599 105.46C528.123 105.46 528.647 105.46 529.171 106.015C528.123 106.015 527.599 106.015 526.551 106.015C526.551 106.015 527.599 106.015 527.599 105.46ZM550.128 104.905C551.176 104.905 552.224 104.35 553.271 104.35C552.224 104.35 551.176 104.905 550.128 104.905ZM542.793 36.0794H542.269C542.793 36.0794 543.317 36.0794 543.841 36.0794C542.793 36.0794 542.793 36.0794 542.793 36.0794ZM492.495 37.1895C493.019 37.1895 493.019 37.1895 493.543 37.1895C493.019 37.1895 493.019 37.1895 492.495 37.1895ZM414.43 19.4281C414.43 19.4281 414.43 18.873 414.43 19.4281C414.43 18.873 414.43 19.4281 414.43 19.4281ZM255.678 19.4281H255.154C255.678 19.4281 255.678 19.4281 255.678 19.4281ZM234.197 17.7629C233.673 17.7629 233.149 17.7629 232.101 17.7629C233.149 17.7629 233.673 17.7629 234.197 17.7629ZM240.484 21.0932C239.96 21.0932 239.96 21.0932 240.484 21.0932C239.96 21.0932 239.96 21.0932 240.484 21.0932C239.96 21.0932 240.484 21.0932 240.484 21.0932ZM146.176 29.4189C146.176 29.4189 146.7 29.4189 146.176 29.4189C146.7 29.4189 146.7 29.4189 146.176 29.4189ZM124.171 41.0749C124.171 41.0749 123.647 41.0749 123.123 41.0749C123.647 41.0749 123.647 41.0749 124.171 41.0749ZM154.035 108.79C154.035 108.235 154.035 108.235 154.035 108.79C154.559 108.79 154.559 108.79 154.559 108.79C154.559 108.79 154.035 108.235 154.035 108.79ZM460.536 109.345C461.583 109.345 462.107 109.346 462.631 108.79C462.107 108.79 461.583 108.79 460.536 109.345ZM466.299 108.235C466.299 108.235 465.775 108.235 465.251 108.235C465.775 108.235 466.299 108.235 466.299 108.235ZM348.414 6.10696C347.89 5.55192 347.89 5.55192 348.414 6.10696C347.89 5.55192 348.414 5.55192 348.414 6.10696C348.414 5.55192 348.414 5.55192 348.414 6.10696ZM91.6876 86.5886C91.6876 86.5886 91.1636 86.5886 91.6876 86.5886V86.5886ZM108.453 101.575C108.977 101.575 108.977 102.13 108.453 101.575C108.977 102.13 108.977 102.13 108.453 101.575C108.977 102.13 108.453 102.13 108.453 101.575ZM176.564 118.226C177.088 118.226 177.088 118.226 177.612 118.226C177.088 118.781 177.088 118.781 176.564 118.226C176.564 118.781 176.564 118.781 176.564 118.226ZM215.335 115.451C214.812 115.451 215.335 115.451 215.335 115.451C214.812 115.451 214.812 115.451 215.335 115.451C214.812 115.451 215.335 115.451 215.335 115.451ZM562.702 82.7033C562.702 82.7033 563.226 82.7033 562.702 82.7033C563.226 82.7033 563.226 82.7033 562.702 82.7033C563.226 82.7033 562.702 82.7033 562.702 82.7033ZM513.453 27.1987C512.929 27.1987 512.405 27.1987 512.405 27.7538C512.405 27.7538 512.405 27.1987 513.453 27.1987C512.929 27.1987 512.929 27.1987 513.453 27.1987ZM453.724 6.66201C452.677 6.10696 452.153 5.55192 451.629 6.10696C451.629 6.10696 451.629 6.10696 451.105 5.55192C453.2 6.10696 453.724 6.10696 453.724 6.66201ZM381.422 4.44183C380.898 4.44183 380.898 4.44183 380.374 4.44183C380.898 4.44183 380.898 3.88678 381.422 4.44183C381.422 3.88678 381.422 3.88678 381.422 4.44183ZM45.0576 64.3868C45.0576 64.3868 45.5816 64.3868 45.0576 64.3868C45.5816 64.3868 45.5816 64.3868 45.0576 64.3868ZM41.3901 75.4877C41.3901 76.0427 41.3901 76.0427 41.3901 75.4877C41.3901 76.0427 41.3901 76.0427 41.3901 75.4877C41.3901 76.0427 41.3901 76.0427 41.3901 75.4877ZM88.02 86.0336C88.02 86.5886 88.02 86.5886 88.02 87.1437C88.02 86.5886 88.544 86.0336 88.02 86.0336ZM93.2594 113.231C92.7354 113.231 92.7354 113.231 92.7354 113.231H93.2594ZM115.265 109.901C115.265 109.345 114.741 109.345 114.741 109.345C114.741 109.345 114.741 109.901 115.265 109.901C116.312 109.901 116.836 109.901 117.36 109.901C116.836 109.901 115.788 109.901 115.265 109.901ZM143.557 118.226C144.081 118.226 144.081 118.226 144.605 118.226C144.605 118.781 144.081 118.226 143.557 118.226ZM171.325 120.446C170.801 120.446 170.801 120.446 171.325 120.446C170.801 120.446 170.801 120.446 171.325 120.446ZM403.427 114.896C403.951 114.896 403.951 114.896 403.427 114.896C403.951 114.896 403.951 114.896 404.475 114.896C404.475 115.451 403.951 114.896 403.427 114.896ZM491.448 112.676C491.448 113.231 491.448 113.231 491.448 112.676C491.448 113.231 491.448 112.676 491.448 112.676ZM531.79 116.561C532.314 116.561 532.314 116.561 532.314 116.561H531.79ZM586.279 86.0336C586.803 86.0336 586.279 85.4785 586.279 86.0336C586.803 86.0336 586.803 86.0336 586.279 86.0336ZM568.465 67.162H568.989C568.465 67.162 568.465 67.7171 568.465 67.162Z" fill="white"/>
<path d="M151.415 18.3186C156.131 17.7636 160.322 17.2085 165.037 16.6535C159.798 16.0984 155.083 16.6535 151.415 17.2085C146.176 17.2085 141.984 17.7636 137.793 18.3186C130.458 19.9838 122.599 20.5388 116.836 22.204C123.647 21.6489 130.982 20.5388 137.793 19.9838C143.032 19.9838 146.7 18.8737 151.415 18.3186Z" fill="white"/>
<path d="M279.254 7.2185C279.254 6.66345 277.683 6.66345 276.111 6.66345C275.587 6.66345 274.015 7.2185 274.015 7.2185C274.015 7.77354 275.063 7.77354 276.635 7.77354C278.207 7.77354 279.778 7.77354 279.254 7.2185Z" fill="white"/>
<path d="M194.373 14.4311C193.849 14.4311 193.325 13.8761 192.277 13.8761C191.229 13.8761 190.181 14.4311 189.133 14.4311C188.609 14.9862 189.133 14.9862 190.181 14.9862C191.753 14.9862 192.801 14.4311 194.373 14.4311Z" fill="white"/>
<path d="M211.67 13.8774C213.766 13.8774 215.338 13.3223 217.433 13.3223C212.718 11.1022 213.242 13.3223 211.67 13.8774Z" fill="white"/>
</g>
<defs>
<clipPath id="clip0">
<rect width="613" height="121" fill="white"/>
</clipPath>
</defs>
</svg>
