<svg width="480" height="126" viewBox="0 0 480 126" fill="none" xmlns="http://www.w3.org/2000/svg">
<mask id="mask0" mask-type="alpha" maskUnits="userSpaceOnUse" x="0" y="0" width="480" height="126">
<rect width="480" height="126" fill="#C4C4C4"/>
</mask>
<g mask="url(#mask0)">
<path d="M558.428 50.2905C558.952 48.6253 561.571 46.4051 557.904 44.74C551.093 41.4097 543.234 38.0795 532.755 35.3042C530.136 34.7492 527.516 34.1941 524.896 34.1941C521.229 33.084 517.561 32.529 513.37 31.4189C510.226 30.8639 507.083 30.8639 503.415 30.3088C502.367 30.3088 501.319 30.8639 500.271 30.8639C498.176 30.3088 495.556 30.3088 493.984 29.7538C492.936 29.7538 491.365 29.7538 490.317 29.7538C485.077 28.6437 478.79 29.1987 473.027 29.1987C467.788 28.0886 462.548 28.6437 457.309 28.6437C454.165 28.6437 451.022 29.1987 447.878 29.1987C447.354 29.1987 446.83 29.1987 445.783 29.1987C445.783 28.6437 445.259 28.0886 444.211 28.0886V27.5336C443.687 26.4235 443.687 25.8684 444.211 25.3134C446.83 21.9831 448.926 18.6529 444.735 14.7675C441.067 11.9923 440.019 11.4373 430.589 12.5473C430.065 12.5473 428.493 12.5473 428.493 11.9923C426.397 9.21707 418.538 8.10698 413.299 6.44184C408.059 6.44184 403.344 5.33175 398.105 5.8868C395.485 3.66661 389.722 4.22166 384.483 3.66661C380.815 2.55652 375.052 3.66661 370.86 2.55652C367.193 2.55652 363.001 2.55652 359.334 2.55652C358.286 2.55652 356.714 2.55652 355.666 2.55652C355.142 2.55652 354.618 2.55652 353.571 2.55652C353.047 2.55652 352.523 2.55652 351.475 2.55652C348.331 2.55652 345.188 2.55652 342.044 2.55652C334.185 3.11157 326.85 0.891382 318.991 2.55652C316.371 2.55652 315.324 4.22166 311.656 3.66661C302.749 2.55652 294.366 3.11157 285.983 4.7767C280.22 4.7767 272.361 3.66661 272.361 7.55193C270.789 7.55193 269.741 7.55193 268.17 7.55193C265.026 6.99689 261.882 6.44184 258.739 5.8868C256.119 5.8868 253.5 6.44184 250.88 6.44184C248.784 6.44184 246.688 6.44184 245.117 6.99689C243.545 8.10698 236.21 5.88679 237.782 8.66202C237.782 9.21707 237.782 9.77212 237.782 9.77212C230.971 10.8822 222.588 9.77212 216.3 11.9923C215.776 11.9923 215.253 11.9923 214.729 11.9923C212.633 11.9923 210.537 11.9923 208.965 12.5473C195.343 13.1024 182.769 14.2125 170.194 15.3226C169.671 15.3226 169.147 15.3226 168.623 15.3226C167.051 15.3226 166.003 15.3226 164.431 15.3226C161.812 14.7675 160.24 15.3226 158.668 15.8776C154.476 16.4327 150.809 16.9877 147.141 17.5428C145.046 17.5428 142.95 17.5428 141.378 18.0978C137.187 18.6529 132.995 18.0978 129.852 19.2079C128.28 19.2079 127.232 19.2079 125.66 19.2079C116.229 19.7629 106.799 20.873 98.4158 21.9831C97.8919 21.9831 97.3679 21.9831 96.3201 21.9831C93.7004 22.5382 91.0807 22.5382 88.985 23.0932C85.8414 23.0932 84.7936 24.2033 81.126 24.2033C80.0782 24.2033 78.5064 24.2033 77.4585 24.2033C73.2671 24.7584 70.1235 25.3134 73.2671 26.9785C72.7431 26.9785 72.2192 27.5336 71.1713 27.5336C69.0756 27.5336 66.456 26.9785 63.8363 27.5336C55.4534 28.0886 47.5944 28.6437 40.2594 30.3088C35.0201 31.4189 28.7329 31.4189 22.9696 33.6391C31.3525 33.084 37.1158 32.529 42.3551 31.4189C44.9748 31.974 44.9747 33.084 46.0226 34.1941C42.879 34.1941 39.7354 35.3042 36.5918 35.8593C34.4961 36.4143 31.3525 35.3042 29.7807 36.4143C27.1611 36.4143 25.0653 36.4143 23.4936 36.9694C16.1585 36.9694 20.35 39.7446 15.6346 40.2996C13.0149 40.2996 9.3474 40.2996 9.3474 41.4097C9.3474 44.185 4.10808 44.74 -1.65517 45.2951C-3.7509 46.4051 -5.84663 46.4051 -7.41842 46.4051C-11.0859 46.4051 -12.6577 47.5152 -15.2774 47.5152C-17.8971 48.0703 -22.0885 47.5152 -23.6603 49.1804C-16.8492 50.2905 -10.562 49.1804 -3.7509 49.1804C-3.7509 50.8455 -9.51415 51.4006 -11.0859 52.5107C-14.7535 53.0657 -16.3253 53.6207 -17.3731 54.7308C-19.9928 55.2859 -22.6124 55.8409 -25.2321 56.396C-25.756 56.396 -26.28 56.396 -27.3278 56.396C-30.9953 56.951 -34.1389 57.5061 -38.3304 58.6162C-33.615 58.6162 -30.9953 58.6162 -28.8996 58.0611C-26.8039 58.0611 -24.1842 58.0611 -26.8039 59.1712C-28.8996 59.7262 -30.9953 60.2813 -33.0911 60.2813C-38.3304 60.8363 -42.5218 61.9464 -47.7612 63.0565C-43.5697 63.6116 -40.4261 64.1666 -37.2825 64.1666C-35.1868 63.6116 -34.1389 63.6116 -33.615 64.1666C-35.1868 64.1666 -36.2347 63.6116 -37.2825 64.1666C-31.5193 64.7217 -37.8065 65.2767 -37.2825 66.3868C-37.8065 66.3868 -38.8543 66.9418 -39.3783 66.9418C-44.6176 66.9418 -49.333 67.4969 -53.5244 68.607C-47.7612 68.0519 -41.474 68.0519 -35.1868 68.0519C-33.0911 68.0519 -31.5193 68.0519 -29.4236 67.4969C-25.2321 67.4969 -21.5646 66.9418 -17.3731 66.9418C-14.2295 67.4969 -11.0859 66.9418 -7.94235 66.9418C-5.84663 66.9418 -4.27483 67.4969 -2.1791 66.9418C-0.607307 66.9418 0.440552 67.4969 2.01235 67.4969C2.53628 67.4969 2.53629 67.4969 3.06021 67.4969H2.53628V68.0519C0.440552 68.0519 -1.13124 68.0519 -3.22697 68.0519C-8.99022 68.607 -2.70304 69.162 -3.22697 70.2721C-7.41842 70.2721 -11.6099 69.7171 -17.3731 70.8272C-10.562 71.3822 -3.7509 70.8272 -1.13124 73.0473C-4.27483 73.6024 -8.46629 73.0473 -9.51415 74.7125C-11.0859 74.7125 -7.94236 74.7125 -5.84663 75.2675C-5.3227 75.2675 -4.79876 75.8226 -4.27483 75.8226C-6.37056 75.8226 -8.46629 75.8226 -10.0381 76.3776C-14.2295 76.3776 -18.421 77.4877 -23.1364 77.4877C-25.756 77.4877 -28.3757 77.4877 -28.3757 78.5978C-28.3757 79.1529 -26.8039 79.7079 -25.2321 79.7079C-16.8492 78.5978 -8.46629 80.2629 -0.0833778 79.1529C1.48842 79.1529 3.06021 79.1529 3.58414 79.7079C-4.79876 80.818 -14.2295 80.818 -23.1364 81.9281C-25.2321 81.9281 -27.3278 82.4831 -30.9953 83.0382C-26.8039 83.0382 -24.7082 83.0382 -22.0885 82.4831C-21.5646 82.4831 -20.5167 82.4831 -19.4689 82.4831C-11.6099 81.9281 -4.27483 81.373 3.58414 80.818C3.58414 81.373 3.58414 81.9281 2.01235 81.9281C-0.0833817 81.9281 -2.1791 82.4831 -4.79876 83.0382C-1.65517 83.5932 1.48842 83.0382 3.58414 84.1483C-0.607307 84.1483 -5.3227 84.7033 -10.0381 85.2584C-9.51415 85.2584 -9.51415 85.8134 -8.99022 85.8134C-8.99022 85.8134 -8.46629 85.8134 -7.94235 85.8134C-1.65517 86.9235 5.15594 86.3684 11.4431 85.8134C10.3953 86.9235 20.8739 87.4785 10.3953 88.5886C16.6824 88.5886 20.8739 88.0336 24.5414 86.9235C26.1132 86.9235 27.685 86.9235 28.7329 87.4785C27.1611 87.4785 26.1132 88.0336 24.5414 88.0336C21.3978 89.1437 16.6824 89.1437 13.5388 90.2538C11.4431 90.2538 8.29953 90.2538 8.29953 90.2538C6.72773 93.584 -1.65517 92.474 -5.84663 93.584C-4.27483 96.3593 3.58414 94.6941 7.25167 95.8042C6.2038 96.9143 1.48841 95.8042 1.48841 96.9143C-0.0833817 97.4694 -2.1791 98.0244 -3.7509 98.5795C-8.99022 98.0244 -10.0381 99.1345 -7.94235 100.8C-8.46629 100.8 -8.99022 100.8 -9.51415 100.8C-16.8492 100.245 -23.6603 101.355 -30.9953 101.355C-24.7082 101.91 -17.8971 101.355 -11.6099 102.465C-10.562 102.465 -8.99022 102.465 -7.94235 102.465C-5.84663 103.02 -8.46629 104.685 -3.7509 104.685C0.964485 104.685 5.15594 104.13 9.87133 104.13C15.6346 104.685 21.3978 103.575 27.1611 103.575C27.685 103.575 28.2089 103.575 28.7329 103.575C29.2568 104.13 25.5893 104.13 25.0653 105.24C27.685 105.24 29.7807 105.24 30.8286 104.685C35.0201 104.685 38.6876 105.24 42.3551 105.24C40.2594 105.795 38.6876 105.795 36.5918 106.35C36.0679 106.35 35.02 105.795 34.4961 105.795C31.8765 106.35 28.2089 105.795 25.0653 106.35C24.0175 106.35 23.4936 106.35 22.4457 106.35C14.5867 106.35 14.5867 106.35 15.1106 107.46C20.35 109.125 25.5893 108.015 30.8286 108.57C33.4483 109.125 36.0679 109.68 38.6876 110.79C40.7833 111.346 38.6876 111.901 38.1636 111.901C31.8765 111.901 24.5414 111.346 18.2542 112.456C21.3978 114.121 26.1132 112.456 28.7329 113.566C29.2568 114.121 30.3047 114.676 30.8286 115.231C25.5893 115.786 19.826 115.231 14.5867 115.786C16.6824 116.896 18.7782 116.896 20.8739 116.896C24.0175 116.341 27.685 116.341 30.8286 116.896C32.9243 117.451 24.5414 116.896 28.7329 118.561C26.1132 118.561 23.4935 118.561 20.8739 118.561C25.5893 119.116 29.7807 119.116 34.4961 119.671C35.02 119.671 35.544 119.671 36.5918 119.671C44.4508 119.671 52.3098 119.671 60.1688 119.671C61.7406 119.671 62.7884 120.226 64.3602 120.226C67.5038 120.226 70.1235 121.336 73.791 120.781C79.5542 121.336 85.3175 121.891 91.0807 121.891C94.2243 121.891 97.3679 121.891 101.035 121.891C104.179 123.001 107.323 122.446 110.99 122.446C116.229 122.446 120.945 122.446 126.184 122.446C130.9 122.446 135.615 123.001 139.806 121.891C146.094 121.891 153.429 123.001 160.24 121.891C162.859 121.891 165.479 121.891 167.575 121.891C169.147 120.781 171.242 121.336 173.338 121.336C177.529 121.336 182.245 121.336 186.436 121.336C189.58 120.781 192.724 121.336 195.867 120.781C196.391 120.781 196.915 120.781 197.439 120.781C197.963 120.781 197.963 120.781 198.487 120.781C204.25 120.226 210.537 121.336 215.777 119.671C217.872 119.671 220.492 119.671 222.588 119.671C226.255 119.671 229.923 120.226 233.066 119.116C237.782 119.116 241.973 119.116 246.688 119.116C252.452 119.116 258.739 119.671 263.978 118.561C269.218 118.561 274.457 118.561 279.172 118.561C283.364 118.006 288.603 118.561 292.794 118.006C303.273 118.006 313.228 118.006 323.706 118.006C327.898 118.006 332.613 118.006 336.805 118.006C358.81 118.006 381.339 118.006 403.344 118.006C414.871 118.006 426.397 118.006 437.924 118.006C440.543 118.006 443.163 118.006 445.783 118.006C449.974 119.116 454.165 118.561 458.357 118.561C462.548 118.561 467.264 118.561 471.455 118.561C475.647 119.671 480.362 119.116 485.077 119.116C495.556 119.116 506.559 119.671 515.989 116.896C517.037 116.896 518.609 116.896 519.657 116.896C522.277 116.896 524.896 115.786 527.516 115.786C530.136 115.231 532.231 114.676 533.279 113.566C540.614 112.456 539.566 109.68 540.614 107.46C545.854 103.575 539.566 99.6896 542.71 95.8042V95.2492C543.234 93.584 541.662 91.3639 539.042 89.6987C539.042 89.6987 539.042 89.1437 538.518 89.1437C539.042 88.0336 537.995 87.4785 536.423 86.3684C536.423 85.2584 537.471 84.1483 534.851 83.0382C530.136 81.9281 525.42 80.2629 521.229 79.1529C520.181 79.1529 518.609 78.5978 517.561 78.5978C516.513 78.5978 514.942 78.0428 513.894 78.0428C511.798 77.4877 509.702 76.9327 508.13 76.3776V75.8226C506.559 74.1574 512.846 73.6024 513.894 72.4923C514.942 72.4923 516.513 71.9373 517.561 71.9373C525.42 71.9373 533.279 72.4923 540.614 71.3822C542.71 70.2721 544.806 70.2721 547.949 70.8272C548.473 70.8272 549.521 70.2721 550.045 70.2721C553.712 70.2721 554.236 69.162 553.712 68.0519C553.712 67.4969 553.712 66.9418 553.712 66.9418C553.712 66.3868 555.808 65.8317 553.712 65.8317C562.619 60.2813 560 55.2859 558.428 50.2905ZM246.688 116.341C247.736 116.341 248.26 116.341 249.308 116.341C248.784 116.341 248.784 116.341 248.26 116.341C247.212 116.341 247.212 116.341 246.688 116.341ZM44.4508 119.116C48.1183 119.116 52.3098 119.116 55.9773 119.116C51.7859 118.561 48.1183 118.561 44.4508 119.116ZM58.073 108.015C58.073 108.015 57.5491 108.015 58.073 108.015C57.5491 108.015 58.073 108.015 58.073 108.015ZM515.989 91.9189C516.513 91.9189 516.513 91.9189 517.037 92.474C516.513 91.9189 516.513 91.9189 515.989 91.9189ZM42.879 99.1345C42.879 98.5795 43.403 98.5795 42.879 99.1345C42.879 98.5795 42.879 98.5795 42.879 99.1345ZM58.597 93.029C59.1209 93.029 60.1688 93.029 60.6927 93.029C59.6448 93.029 59.1209 93.029 58.597 93.029ZM195.343 26.4235C194.819 26.4235 194.819 26.4235 195.343 26.4235C194.819 26.4235 194.819 26.4235 195.343 26.4235C194.819 26.4235 194.819 26.4235 195.343 26.4235ZM495.556 40.8547C495.556 40.8547 496.08 40.8547 495.556 40.8547C496.08 40.8547 496.08 40.8547 495.556 40.8547C496.08 40.8547 496.08 40.8547 495.556 40.8547ZM102.083 40.2996C101.035 40.2996 99.9876 40.8547 97.8919 40.8547C99.9876 40.8547 101.035 40.2996 102.083 40.2996ZM125.136 93.584C125.66 93.584 125.66 93.584 125.136 93.584C125.66 93.584 125.136 93.584 125.136 93.584ZM456.261 80.2629C456.261 79.7079 456.261 79.7079 456.261 80.2629C456.261 79.7079 456.261 79.7079 456.261 80.2629C456.261 79.7079 456.261 79.7079 456.261 80.2629ZM197.439 53.6207C196.915 53.6207 196.391 53.6207 196.391 53.6207C196.915 53.6207 196.915 53.6207 196.915 53.6207H197.439ZM100.512 59.1712C101.035 59.1712 101.035 59.1712 101.559 59.1712C101.035 59.7262 100.512 59.1712 100.512 59.1712ZM252.976 38.0795C252.976 38.0795 252.976 37.5244 252.976 38.0795C252.452 37.5244 252.452 37.5244 252.976 38.0795C252.976 37.5244 252.976 38.0795 252.976 38.0795ZM194.295 68.607C194.295 68.607 193.771 68.607 194.295 68.607C193.771 68.607 194.295 68.607 194.295 68.607ZM324.754 56.396C325.278 56.396 325.802 56.396 326.326 56.396C325.802 56.396 325.278 56.396 324.754 56.396ZM288.079 52.5107C287.555 52.5107 287.031 52.5107 286.507 52.5107C287.031 52.5107 287.555 52.5107 288.079 52.5107ZM255.071 49.7354C254.024 49.7354 253.5 49.7354 252.452 49.7354C252.976 49.7354 254.024 50.2905 255.071 49.7354ZM288.079 41.4097H288.603H288.079ZM227.827 69.162C226.255 69.162 224.683 69.162 223.635 68.607C225.207 69.162 226.255 69.7171 227.827 69.162ZM272.361 43.0749C272.361 43.6299 272.361 44.185 271.313 44.185C271.837 43.6299 272.361 43.6299 272.361 43.0749ZM246.165 47.5152C245.641 47.5152 245.117 47.5152 244.593 47.5152C244.593 47.5152 244.593 47.5152 245.117 47.5152C245.641 46.9602 246.165 46.9602 246.165 47.5152ZM215.253 79.1529C215.253 79.7079 215.253 79.1529 215.253 79.1529C214.729 79.7079 215.253 79.7079 215.253 79.1529C214.729 79.7079 214.729 79.7079 215.253 79.1529ZM310.084 43.0749C309.56 43.0749 309.56 43.0749 309.036 43.0749C309.56 43.0749 309.56 43.0749 310.084 43.0749ZM281.792 37.5244C281.792 36.9694 281.792 36.9694 281.792 37.5244C282.316 37.5244 281.792 37.5244 281.792 37.5244ZM255.071 78.0428C255.071 78.0428 254.547 77.4877 255.071 78.0428C254.547 77.4877 254.547 78.0428 255.071 78.0428ZM322.135 31.4189C322.659 31.4189 322.659 31.4189 323.182 31.4189C322.659 31.4189 322.659 31.4189 322.135 31.4189ZM105.227 74.1574C105.751 74.1574 105.751 74.1574 106.275 74.7125C105.751 74.7125 105.227 74.7125 104.703 74.7125L105.227 74.1574ZM234.638 80.818C234.114 80.818 234.114 80.818 233.59 80.818C234.114 80.818 234.638 80.818 234.638 80.818ZM236.21 79.1529C235.686 79.1529 235.686 79.1529 236.21 79.1529C235.162 78.5978 234.638 78.5978 234.114 79.1529C234.114 79.1529 234.114 79.1529 233.59 79.1529C233.59 79.1529 233.59 79.1529 234.114 79.1529H235.162H236.21C235.686 79.1529 235.686 79.1529 236.21 79.1529C235.686 79.1529 236.21 79.1529 236.21 79.1529ZM313.228 83.0382C313.228 83.5932 312.704 83.5932 313.228 83.5932C313.228 83.5932 313.228 83.5932 313.228 83.0382ZM268.694 31.974C269.218 31.4189 268.17 30.8639 266.598 30.8639C267.122 30.8639 268.17 31.4189 268.694 31.974ZM212.109 54.1758C212.109 53.6207 211.585 53.6207 212.109 54.1758C212.109 53.6207 212.109 53.6207 212.109 54.1758C212.109 53.6207 212.109 54.1758 212.109 54.1758ZM173.862 59.7262C173.338 59.1712 171.766 59.1712 170.194 58.6162C171.242 59.1712 172.29 59.7262 173.862 59.7262ZM119.897 80.2629C120.421 80.2629 120.945 80.2629 121.469 80.2629C120.945 80.818 120.945 80.818 119.897 80.2629ZM215.253 86.3684C214.205 86.9235 211.061 87.4785 209.489 86.3684C208.965 86.3684 207.918 86.3684 207.394 86.3684C210.013 86.9235 212.633 86.9235 215.253 86.3684ZM363.525 48.0703C364.049 48.0703 364.573 48.6253 365.097 48.6253C364.573 48.0703 364.573 48.0703 363.525 48.0703ZM67.5038 75.2675H68.0277C68.0277 75.2675 68.0277 75.2675 67.5038 75.2675ZM90.5568 80.818C91.6047 80.818 92.1286 80.2629 92.1286 80.2629C92.1286 80.2629 91.0807 80.818 90.5568 80.818ZM418.538 80.818C420.11 80.818 421.682 80.818 423.253 80.818C421.682 80.2629 420.11 80.818 418.538 80.818ZM359.858 39.1895C359.858 39.1895 359.334 39.1895 359.858 39.1895C359.334 39.1895 359.858 39.1895 359.858 39.1895ZM276.553 24.7584C276.029 24.7584 276.029 24.7584 276.553 24.7584C276.029 24.7584 276.029 24.7584 276.553 24.7584ZM241.449 31.974C240.925 31.974 240.925 31.974 240.401 31.974C240.925 31.974 240.925 31.974 241.449 31.974ZM232.018 34.7492C231.494 34.7492 232.018 34.7492 232.018 34.7492C231.494 34.7492 231.494 34.7492 232.018 34.7492C231.494 34.7492 231.494 34.7492 232.018 34.7492ZM110.466 49.1804C109.942 49.1804 110.466 49.1804 110.466 49.1804C109.942 49.1804 109.942 49.1804 110.466 49.1804ZM110.466 85.8134C113.61 85.8134 116.229 85.8134 119.373 85.8134C116.229 85.8134 113.086 85.2584 110.466 85.8134ZM315.324 97.4694C315.324 96.9143 315.324 96.9143 315.324 97.4694H315.847C315.847 97.4694 315.324 96.9143 315.324 97.4694ZM332.613 95.8042C332.089 95.8042 332.089 95.8042 332.613 95.8042V95.8042ZM344.14 29.1987C344.664 29.1987 345.188 29.1987 345.712 29.1987C345.188 29.1987 344.664 29.1987 344.14 29.1987ZM162.335 44.74H162.859C162.859 45.2951 162.859 45.2951 162.335 44.74C162.335 45.2951 162.335 45.2951 162.335 44.74ZM113.086 95.2492C112.562 95.8042 112.038 95.2492 111.514 95.8042C111.514 95.2492 110.99 95.2492 110.466 95.2492C111.514 95.2492 112.562 95.2492 113.086 95.2492ZM256.119 91.9189C255.595 91.9189 255.595 91.9189 256.119 91.9189C255.595 91.3639 255.595 91.3639 256.119 91.9189C255.595 91.9189 256.119 91.9189 256.119 91.9189ZM351.475 100.245C351.475 100.245 351.475 100.8 351.475 100.245C351.475 100.8 351.475 100.245 351.475 100.245ZM397.057 85.2584C397.581 85.2584 397.581 85.2584 397.057 85.2584C397.581 85.2584 397.581 85.2584 398.105 85.2584C398.105 85.2584 397.581 85.2584 397.057 85.2584ZM299.606 20.318C301.177 20.318 302.749 20.318 303.797 19.7629C302.225 20.318 301.177 20.318 299.606 20.318ZM215.777 27.5336C214.729 26.9785 215.253 26.9785 214.729 26.9785C215.253 26.9785 215.777 27.5336 215.777 26.9785V27.5336ZM183.293 39.1895C183.293 39.1895 183.817 39.1895 183.293 39.1895C183.817 39.1895 183.817 39.1895 183.293 39.1895ZM129.852 31.974L130.376 31.4189H130.9C130.376 31.974 130.376 31.974 129.852 31.974ZM259.263 94.6941C258.739 94.6941 258.739 94.6941 259.263 94.6941C259.263 94.6941 258.739 94.6941 259.263 94.6941ZM423.777 90.8088C423.253 90.8088 423.253 90.8088 423.777 90.8088C423.253 90.2538 423.253 90.2538 423.777 90.8088ZM185.388 93.584C185.388 94.1391 185.388 94.1391 185.388 93.584C185.388 94.1391 185.388 94.1391 185.388 93.584ZM222.064 103.575C224.683 103.02 225.731 103.02 226.255 103.575C225.207 103.575 223.635 103.575 222.064 103.575ZM322.659 102.465C323.183 103.02 323.706 102.465 324.23 102.465C323.706 103.02 323.183 102.465 322.659 102.465ZM493.984 105.24C494.508 105.24 495.032 105.24 495.032 105.795C495.032 105.795 494.508 105.24 493.984 105.24ZM499.747 46.4051C500.271 46.4051 500.795 46.4051 501.319 46.4051C500.795 46.4051 499.747 46.4051 499.224 46.9602C499.224 46.9602 499.747 46.9602 499.747 46.4051ZM255.071 14.7675C255.071 14.7675 255.595 14.7675 255.071 14.7675C255.595 14.7675 255.071 14.7675 255.071 14.7675ZM181.197 34.7492C180.673 34.7492 180.673 34.7492 180.149 34.7492C180.673 34.7492 180.673 34.7492 181.197 34.7492ZM126.708 24.2033C126.184 24.2033 125.66 24.2033 125.136 24.2033C126.184 23.6483 126.184 24.2033 126.708 24.2033C127.232 24.2033 127.232 24.2033 126.708 24.2033ZM61.7406 104.13C62.2645 104.685 62.2645 104.685 61.7406 104.13C61.7406 104.685 61.7406 104.685 61.7406 104.13C61.7406 104.685 62.2645 104.685 61.7406 104.13ZM474.599 107.46C475.123 107.46 475.647 107.46 476.171 108.015C475.123 108.015 474.599 108.015 473.551 108.015C473.551 108.015 474.599 108.015 474.599 107.46ZM497.128 106.905C498.176 106.905 499.224 106.35 500.271 106.35C499.224 106.35 498.176 106.905 497.128 106.905ZM489.793 38.0795H489.269C489.793 38.0795 490.317 38.0795 490.841 38.0795C489.793 38.0795 489.793 38.0795 489.793 38.0795ZM439.495 39.1895C440.019 39.1895 440.019 39.1895 440.543 39.1895C440.019 39.1895 440.019 39.1895 439.495 39.1895ZM361.43 21.4281C361.43 21.4281 361.43 20.873 361.43 21.4281C361.43 20.873 361.43 21.4281 361.43 21.4281ZM202.678 21.4281H202.154C202.678 21.4281 202.678 21.4281 202.678 21.4281ZM181.197 19.7629C180.673 19.7629 180.149 19.7629 179.101 19.7629C180.149 19.7629 180.673 19.7629 181.197 19.7629ZM187.484 23.0932C186.96 23.0932 186.96 23.0932 187.484 23.0932C186.96 23.0932 186.96 23.0932 187.484 23.0932C186.96 23.0932 187.484 23.0932 187.484 23.0932ZM93.1765 31.4189C93.1765 31.4189 93.7004 31.4189 93.1765 31.4189C93.7004 31.4189 93.7004 31.4189 93.1765 31.4189ZM71.1713 43.0749C71.1713 43.0749 70.6474 43.0749 70.1235 43.0749C70.6474 43.0749 70.6474 43.0749 71.1713 43.0749ZM101.035 110.79C101.035 110.235 101.035 110.235 101.035 110.79C101.559 110.79 101.559 110.79 101.559 110.79C101.559 110.79 101.035 110.235 101.035 110.79ZM407.536 111.346C408.583 111.346 409.107 111.346 409.631 110.79C409.107 110.79 408.583 110.79 407.536 111.346ZM413.299 110.235C413.299 110.235 412.775 110.235 412.251 110.235C412.775 110.235 413.299 110.235 413.299 110.235ZM295.414 8.10698C294.89 7.55193 294.89 7.55193 295.414 8.10698C294.89 7.55193 295.414 7.55193 295.414 8.10698C295.414 7.55193 295.414 7.55193 295.414 8.10698ZM38.6876 88.5886C38.6876 88.5886 38.1636 88.5886 38.6876 88.5886V88.5886ZM55.4534 103.575C55.9773 103.575 55.9773 104.13 55.4534 103.575C55.9773 104.13 55.9773 104.13 55.4534 103.575C55.9773 104.13 55.4534 104.13 55.4534 103.575ZM123.564 120.226C124.088 120.226 124.088 120.226 124.612 120.226C124.088 120.781 124.088 120.781 123.564 120.226C123.564 120.781 123.564 120.781 123.564 120.226ZM162.335 117.451C161.812 117.451 162.335 117.451 162.335 117.451C161.812 117.451 161.812 117.451 162.335 117.451C161.812 117.451 162.335 117.451 162.335 117.451ZM509.702 84.7033C509.702 84.7033 510.226 84.7033 509.702 84.7033C510.226 84.7033 510.226 84.7033 509.702 84.7033C510.226 84.7033 509.702 84.7033 509.702 84.7033ZM460.453 29.1987C459.929 29.1987 459.405 29.1987 459.405 29.7538C459.405 29.7538 459.405 29.1987 460.453 29.1987C459.929 29.1987 459.929 29.1987 460.453 29.1987ZM400.724 8.66202C399.677 8.10698 399.153 7.55193 398.629 8.10698C398.629 8.10698 398.629 8.10698 398.105 7.55193C400.2 8.10698 400.724 8.10698 400.724 8.66202ZM328.422 6.44184C327.898 6.44184 327.898 6.44184 327.374 6.44184C327.898 6.44184 327.898 5.88679 328.422 6.44184C328.422 5.88679 328.422 5.88679 328.422 6.44184ZM-7.94235 66.3868C-7.94235 66.3868 -7.41842 66.3868 -7.94235 66.3868C-7.41842 66.3868 -7.41842 66.3868 -7.94235 66.3868ZM-11.6099 77.4877C-11.6099 78.0428 -11.6099 78.0428 -11.6099 77.4877C-11.6099 78.0428 -11.6099 78.0428 -11.6099 77.4877C-11.6099 78.0428 -11.6099 78.0428 -11.6099 77.4877ZM35.02 88.0336C35.02 88.5886 35.02 88.5886 35.02 89.1437C35.02 88.5886 35.544 88.0336 35.02 88.0336ZM40.2594 115.231C39.7354 115.231 39.7354 115.231 39.7354 115.231H40.2594ZM62.2645 111.901C62.2645 111.346 61.7406 111.346 61.7406 111.346C61.7406 111.346 61.7406 111.901 62.2645 111.901C63.3124 111.901 63.8363 111.901 64.3602 111.901C63.8363 111.901 62.7884 111.901 62.2645 111.901ZM90.5568 120.226C91.0807 120.226 91.0807 120.226 91.6047 120.226C91.6047 120.781 91.0807 120.226 90.5568 120.226ZM118.325 122.446C117.801 122.446 117.801 122.446 118.325 122.446C117.801 122.446 117.801 122.446 118.325 122.446ZM350.427 116.896C350.951 116.896 350.951 116.896 350.427 116.896C350.951 116.896 350.951 116.896 351.475 116.896C351.475 117.451 350.951 116.896 350.427 116.896ZM438.448 114.676C438.448 115.231 438.448 115.231 438.448 114.676C438.448 115.231 438.448 114.676 438.448 114.676ZM478.79 118.561C479.314 118.561 479.314 118.561 479.314 118.561H478.79ZM533.279 88.0336C533.803 88.0336 533.279 87.4785 533.279 88.0336C533.803 88.0336 533.803 88.0336 533.279 88.0336ZM515.465 69.162H515.989C515.465 69.162 515.465 69.7171 515.465 69.162Z" fill="white"/>
</g>
</svg>
