<svg width="112" height="113" viewBox="0 0 112 113" fill="none" xmlns="http://www.w3.org/2000/svg">
<g filter="url(#filter0_d)">
<circle cx="56" cy="52.9438" r="52" fill="#FF3841"/>
</g>
<path d="M55.975 79.5936C41.1806 79.5936 29.1882 67.6011 29.1882 52.8068C29.1882 38.0124 41.1806 26.02 55.975 26.02C70.7694 26.02 82.7618 38.0124 82.7618 52.8068C82.7618 67.6011 70.7694 79.5936 55.975 79.5936ZM55.975 27.9254C42.3014 27.9254 31.0936 39.1332 31.0936 52.8068C31.0936 66.4803 42.3014 77.6882 55.975 77.6882C69.6486 77.6882 80.8564 66.4803 80.8564 52.8068C80.8564 39.1332 69.7607 27.9254 55.975 27.9254Z" fill="white"/>
<path d="M55.975 87.4393C36.9217 87.4393 21.3428 71.9725 21.3428 52.9191C21.3428 33.8658 36.8096 18.3989 55.975 18.3989C75.0284 18.3989 90.4952 33.8658 90.4952 52.9191C90.6073 71.8604 75.1405 87.4393 55.975 87.4393ZM55.975 20.1922C37.9304 20.1922 23.3602 34.8745 23.3602 52.9191C23.3602 70.9638 38.0425 85.6461 55.975 85.6461C74.0197 85.6461 88.5899 70.9638 88.5899 52.9191C88.702 34.7624 74.0197 20.1922 55.975 20.1922Z" fill="white"/>
<path d="M56.9835 71.3008H55.0781V78.698H56.9835V71.3008Z" fill="white"/>
<path d="M56.9835 27.0298H55.0781V34.427H56.9835V27.0298Z" fill="white"/>
<path d="M37.594 51.9116H30.1968V53.817H37.594V51.9116Z" fill="white"/>
<path d="M81.8649 51.9116H74.4678V53.817H81.8649V51.9116Z" fill="white"/>
<path d="M55.9751 57.1791C53.6214 57.1791 51.7161 55.2738 51.7161 52.9201C51.7161 50.5665 53.6214 48.6611 55.9751 48.6611C58.3287 48.6611 60.234 50.5665 60.234 52.9201C60.3461 55.1617 58.4408 57.1791 55.9751 57.1791ZM55.9751 50.4544C54.6301 50.4544 53.6214 51.5751 53.6214 52.808C53.6214 54.1529 54.7422 55.1617 55.9751 55.1617C57.32 55.1617 58.3287 54.0408 58.3287 52.808C58.4408 51.463 57.32 50.4544 55.9751 50.4544Z" fill="white"/>
<path d="M65.0739 33.6922L63.3181 32.9521L56.3966 49.3738L58.1524 50.1138L65.0739 33.6922Z" fill="white"/>
<path d="M68.1736 56.8217L59.4595 53.2573L58.7381 55.0209L67.4523 58.5853L68.1736 56.8217Z" fill="white"/>
<defs>
<filter id="filter0_d" x="0" y="0.943848" width="112" height="112" filterUnits="userSpaceOnUse" color-interpolation-filters="sRGB">
<feFlood flood-opacity="0" result="BackgroundImageFix"/>
<feColorMatrix in="SourceAlpha" type="matrix" values="0 0 0 0 0 0 0 0 0 0 0 0 0 0 0 0 0 0 127 0"/>
<feOffset dy="4"/>
<feGaussianBlur stdDeviation="2"/>
<feColorMatrix type="matrix" values="0 0 0 0 1 0 0 0 0 0.225 0 0 0 0 0.225 0 0 0 0.42 0"/>
<feBlend mode="normal" in2="BackgroundImageFix" result="effect1_dropShadow"/>
<feBlend mode="normal" in="SourceGraphic" in2="effect1_dropShadow" result="shape"/>
</filter>
</defs>
</svg>
