<svg width="112" height="112" viewBox="0 0 112 112" fill="none" xmlns="http://www.w3.org/2000/svg">
<g filter="url(#filter0_d)">
<circle cx="56" cy="52" r="52" fill="#FF3841"/>
<path d="M79.7576 73.1249H77.5819L80.6684 55.3652C80.9214 53.7967 80.6684 52.127 79.8082 50.7609L66.3999 28.1945V26.626C66.3999 22.983 63.4653 20.0483 59.8223 20.0483H40.2918C36.6488 20.0483 33.7141 22.983 33.7141 26.626V59.3118C33.7141 62.9548 36.6488 65.8895 40.2918 65.8895H59.1645C60.3789 69.1277 61.3908 71.8599 61.8968 73.1249H55.7239C55.1674 73.1249 54.712 73.5802 54.712 74.1368V82.7889C54.712 83.3455 55.1674 83.8009 55.7239 83.8009C56.2805 83.8009 56.7359 83.3455 56.7359 82.7889V75.1488H78.6951V82.7889C78.6951 83.3455 79.1505 83.8009 79.707 83.8009C80.2636 83.8009 80.719 83.3455 80.719 82.7889V74.1368C80.7696 73.5802 80.3142 73.1249 79.7576 73.1249ZM40.2918 63.815C37.8125 63.815 35.7886 61.7911 35.7886 59.3118V26.626C35.7886 24.1467 37.8125 22.1228 40.2918 22.1228H59.8223C62.3016 22.1228 64.3255 24.1467 64.3255 26.626V28.4981V50.6091C61.7956 46.7637 58.4562 44.6386 55.8757 44.2844C54.3072 44.082 53.0929 44.4868 52.3845 45.4482C51.8785 46.1565 51.4737 47.4721 52.4857 49.5466C53.953 52.5824 56.3311 58.5529 58.355 63.8656H40.2918V63.815ZM54.4084 48.6358C53.953 47.725 53.8518 46.9661 54.1048 46.6119C54.3072 46.3083 54.9144 46.2071 55.6227 46.3083C57.8996 46.6119 62.1498 49.243 64.4266 55.264C64.5784 55.7194 65.0844 56.023 65.5904 55.9218C66.0964 55.8206 66.4505 55.4158 66.4505 54.9099V32.2423L78.0879 51.8234C78.6445 52.7848 78.8469 53.9485 78.6951 55.0111L75.5075 73.1249H64.1231C63.6677 71.9105 57.2924 54.8087 54.4084 48.6358Z" fill="white"/>
<path d="M60.9355 80.5112C62.0533 80.5112 62.9594 79.605 62.9594 78.4873C62.9594 77.3695 62.0533 76.4634 60.9355 76.4634C59.8177 76.4634 58.9116 77.3695 58.9116 78.4873C58.9116 79.605 59.8177 80.5112 60.9355 80.5112Z" fill="white"/>
<path d="M46.4648 26.0186H40.3425C39.7859 26.0186 39.3306 26.4739 39.3306 27.0305V33.2034C39.3306 33.7599 39.7859 34.2153 40.3425 34.2153H46.5154C47.0719 34.2153 47.5273 33.7599 47.5273 33.2034V27.0305C47.5273 26.4739 47.0719 26.0186 46.4648 26.0186ZM45.4528 32.1408H41.3545V28.0425H45.4528V32.1408Z" fill="white"/>
<path d="M46.4646 36.1885C45.908 36.1885 45.4526 36.6439 45.4526 37.2004V57.2875C45.4526 57.8441 45.908 58.2995 46.4646 58.2995C47.0212 58.2995 47.4766 57.8441 47.4766 57.2875V37.2004C47.5272 36.6439 47.0718 36.1885 46.4646 36.1885Z" fill="white"/>
<path d="M40.3425 36.1885C39.7859 36.1885 39.3306 36.6439 39.3306 37.2004V44.3346C39.3306 44.8912 39.7859 45.3466 40.3425 45.3466C40.8991 45.3466 41.3545 44.8912 41.3545 44.3346V37.2004C41.3545 36.6439 40.8991 36.1885 40.3425 36.1885Z" fill="white"/>
<path d="M40.3425 48.4829C39.7859 48.4829 39.3306 48.9383 39.3306 49.4949V52.8849C39.3306 53.4414 39.7859 53.8968 40.3425 53.8968C40.8991 53.8968 41.3545 53.4414 41.3545 52.8849V49.4949C41.3545 48.9383 40.8991 48.4829 40.3425 48.4829Z" fill="white"/>
</g>
<defs>
<filter id="filter0_d" x="0" y="0" width="112" height="112" filterUnits="userSpaceOnUse" color-interpolation-filters="sRGB">
<feFlood flood-opacity="0" result="BackgroundImageFix"/>
<feColorMatrix in="SourceAlpha" type="matrix" values="0 0 0 0 0 0 0 0 0 0 0 0 0 0 0 0 0 0 127 0"/>
<feOffset dy="4"/>
<feGaussianBlur stdDeviation="2"/>
<feColorMatrix type="matrix" values="0 0 0 0 0.6875 0 0 0 0 0.24349 0 0 0 0 0.24349 0 0 0 0.25 0"/>
<feBlend mode="normal" in2="BackgroundImageFix" result="effect1_dropShadow"/>
<feBlend mode="normal" in="SourceGraphic" in2="effect1_dropShadow" result="shape"/>
</filter>
</defs>
</svg>
