<svg width="90" height="90" viewBox="0 0 90 90" fill="none" xmlns="http://www.w3.org/2000/svg">
<circle cx="45" cy="45" r="45" fill="#FF3841"/>
<path d="M34.269 67.2045C34.8456 66.6279 35.4222 65.763 37.152 65.763C38.8817 65.763 55.6027 65.763 57.3324 65.763C58.918 65.763 67.711 56.9701 68.8641 55.6728C69.8731 54.5196 74.7741 47.3123 76.0714 44.1411C75.2066 42.9879 73.0444 42.1231 70.3056 42.6996C67.711 43.2762 66.2695 45.1501 64.5397 48.4655L57.909 51.925" stroke="white" stroke-width="2" stroke-miterlimit="10"/>
<path d="M42.9178 57.1144C42.9178 57.1144 53.008 57.1144 54.4495 57.1144C60.2153 57.1144 60.2153 49.9071 54.4495 49.9071C53.008 49.9071 50.8458 49.9071 46.8097 49.9071C45.6565 49.9071 43.3502 47.0242 41.4763 47.0242C40.6114 47.0242 36.287 47.0242 34.269 47.0242C32.251 47.0242 29.9446 48.6098 28.5032 49.9071C26.341 52.0693 22.7373 55.6729 22.7373 55.6729" stroke="white" stroke-width="2" stroke-miterlimit="10"/>
<path d="M29.8704 77.3173L37.1072 70.0806L19.7798 52.7532L12.543 59.9899L29.8704 77.3173Z" stroke="white" stroke-width="2" stroke-miterlimit="10"/>
<path d="M19.8545 59.9966L22.7374 62.8795" stroke="white" stroke-width="2" stroke-miterlimit="10"/>
<path d="M50.1252 23.9604C50.1252 23.9604 50.7018 16.1765 54.3055 13.0053C56.756 10.6989 60.2155 11.1314 62.0894 13.2936C63.9633 15.3116 63.675 18.3387 61.0804 20.645C57.3326 23.8162 50.1252 23.9604 50.1252 23.9604Z" stroke="white" stroke-width="2" stroke-miterlimit="10"/>
<path d="M50.1252 23.961C50.1252 23.961 49.981 17.4745 47.0981 14.8798C45.08 13.1501 42.4854 13.4384 41.0439 15.024C39.6025 16.6096 39.8908 19.0601 41.7647 20.7898C44.6476 23.3844 48.1071 23.8169 50.1252 23.961Z" stroke="white" stroke-width="2" stroke-miterlimit="10"/>
<path d="M67.4229 44.1411V32.6094" stroke="white" stroke-width="2" stroke-miterlimit="10"/>
<path d="M32.8274 32.6094V47.024" stroke="white" stroke-width="2" stroke-miterlimit="10"/>
<path d="M54.4494 32.6092H70.3055V23.9604H29.9446V32.6092H45.8007" stroke="white" stroke-width="2" stroke-miterlimit="10"/>
<path d="M45.8008 49.907V23.9607H54.4496V49.907" stroke="white" stroke-width="2" stroke-miterlimit="10"/>
</svg>
