<svg width="55" height="82" viewBox="0 0 55 82" fill="none" xmlns="http://www.w3.org/2000/svg">
<path d="M25.5065 68.3332C23.947 72.1879 21.6945 76.2178 18.9221 78.846C17.8825 75.8674 16.4963 73.064 15.4567 71.4871C12.3378 73.2392 9.39215 74.6409 4.54053 74.8161C15.1101 62.0255 17.0161 51.5127 17.0161 51.5127" stroke="#FED13C" stroke-width="2" stroke-miterlimit="10"/>
<path d="M25.853 56.0683C25.853 56.0683 29.1452 72.0127 36.2494 78.846C37.289 75.8674 38.6752 73.064 39.7148 71.4871C42.8337 73.2392 45.7794 74.6409 50.631 74.8161C40.0614 62.0255 38.1554 51.5127 38.1554 51.5127" stroke="#FED13C" stroke-width="2" stroke-miterlimit="10"/>
<path d="M27.5858 9.63672L32.2641 19.6239L42.3139 21.0256L35.2097 29.2607L36.5959 39.423L27.5858 35.2179L18.4023 39.423L19.7885 29.2607L12.6843 21.0256L22.7341 19.6239L27.5858 9.63672Z" stroke="#FED13C" stroke-width="2" stroke-miterlimit="10" stroke-linejoin="round"/>
<path d="M27.5858 50.8118C40.9832 50.8118 51.8439 39.8294 51.8439 26.2819C51.8439 12.7344 40.9832 1.75195 27.5858 1.75195C14.1884 1.75195 3.32764 12.7344 3.32764 26.2819C3.32764 39.8294 14.1884 50.8118 27.5858 50.8118Z" stroke="#FED13C" stroke-width="2" stroke-miterlimit="10" stroke-linejoin="round"/>
</svg>
