<svg width="107" height="107" viewBox="0 0 107 107" fill="none" xmlns="http://www.w3.org/2000/svg">
<g filter="url(#filter0_d)">
<circle cx="53.5" cy="49.5" r="49.5" fill="#FF3841"/>
</g>
<path d="M72.6831 54.1142C70.7241 43.4378 62.2027 35.1123 51.5264 33.3492L51.8202 31.6841C63.2801 33.5451 72.2913 42.3604 74.3482 53.7224L72.6831 54.1142Z" fill="white"/>
<path d="M82.4778 52.3512C79.7353 37.561 67.9815 26.1011 53.1914 23.6524L53.4852 21.9873C68.961 24.534 81.3024 36.5816 84.1429 52.0573L82.4778 52.3512Z" fill="white"/>
<path d="M65.0432 77.7201C64.2596 77.7201 63.378 77.6221 62.5945 77.3283C57.5991 75.859 52.6038 73.4104 47.4125 69.6883C43.4946 66.9458 40.2624 63.9094 37.5198 60.6771C32.2306 54.3105 28.7045 48.0418 26.9414 41.6752C25.766 37.3655 27.627 33.1537 31.6429 31.1948C32.2306 30.9009 34.3855 29.9215 36.1485 29.1379C37.128 28.6481 38.0095 28.2563 38.3034 28.1584L39.087 27.7666L46.531 43.7321L40.4583 46.5726C41.8295 50.0987 49.9592 61.0689 57.6971 63.5176L58.3827 62.0484C58.3827 62.0484 59.6561 59.3059 60.0478 58.4243L60.4396 57.6407L76.2093 64.9868L74.3482 69.3945C73.0749 72.7247 71.5077 75.957 67.6878 77.1324C66.9042 77.5241 65.9247 77.7201 65.0432 77.7201ZM38.3034 30.0194C37.9116 30.2153 37.4219 30.4112 36.8342 30.705C35.0711 31.4886 33.0142 32.4681 32.4265 32.762C29.0963 34.3291 27.5291 37.7573 28.5086 41.2834C30.2717 47.5521 33.5039 53.429 38.6951 59.6976C41.3397 62.9299 44.4741 65.7704 48.2941 68.415C53.2894 72.0391 58.0888 74.3898 62.8883 75.7611C64.3575 76.1529 65.7288 76.1529 67.198 75.6631C70.3324 74.6837 71.6057 72.0391 72.7811 68.9047L74.0544 65.8683L61.2232 59.8935C60.7334 61.0689 59.8519 62.734 59.8519 62.734L58.5786 65.4766L57.893 65.2807C49.0777 63.0279 39.1849 49.609 38.5972 46.1808L38.4993 45.5931L44.2782 42.9485L38.3034 30.0194Z" fill="white"/>
<defs>
<filter id="filter0_d" x="0" y="0" width="107" height="107" filterUnits="userSpaceOnUse" color-interpolation-filters="sRGB">
<feFlood flood-opacity="0" result="BackgroundImageFix"/>
<feColorMatrix in="SourceAlpha" type="matrix" values="0 0 0 0 0 0 0 0 0 0 0 0 0 0 0 0 0 0 127 0"/>
<feOffset dy="4"/>
<feGaussianBlur stdDeviation="2"/>
<feColorMatrix type="matrix" values="0 0 0 0 1 0 0 0 0 0.225 0 0 0 0 0.225 0 0 0 0.42 0"/>
<feBlend mode="normal" in2="BackgroundImageFix" result="effect1_dropShadow"/>
<feBlend mode="normal" in="SourceGraphic" in2="effect1_dropShadow" result="shape"/>
</filter>
</defs>
</svg>
