<svg width="81" height="76" viewBox="0 0 81 76" fill="none" xmlns="http://www.w3.org/2000/svg">
<g clip-path="url(#clip0)">
<path d="M24.2577 15.5452C27.3681 15.5452 29.4417 12.9543 29.4417 9.67251V7.59978C29.4417 4.31796 27.3681 1.72705 24.2577 1.72705C21.1473 1.72705 19.0737 4.31796 19.0737 7.59978V9.84523C19.0737 12.9543 21.1473 15.5452 24.2577 15.5452Z" stroke="#FED13C" stroke-width="2" stroke-miterlimit="10"/>
<path d="M2.13916 14.3359L15.6176 29.3632V70.8178" stroke="#FED13C" stroke-width="2" stroke-miterlimit="10"/>
<path d="M45.8577 4.31775L29.7873 21.0723C28.7505 22.1087 27.3681 22.6268 25.8129 22.6268H22.1841C20.6289 22.6268 19.2465 22.1087 18.2097 21.0723L1.7937 4.14502" stroke="#FED13C" stroke-width="2" stroke-miterlimit="10"/>
<path d="M32.8977 70.8178V29.3632L46.0305 14.3359" stroke="#FED13C" stroke-width="2" stroke-miterlimit="10"/>
<path d="M24.2578 44.9087V70.8178" stroke="#FED13C" stroke-width="2" stroke-miterlimit="10"/>
<path d="M38.7729 28.3271L48.4498 39.7272V75.9999" stroke="#FED13C" stroke-width="2" stroke-miterlimit="10"/>
<path d="M79.0354 13.9907L62.965 31.0907C61.9282 32.1271 60.5458 32.9907 58.9906 32.9907H55.3618C53.8066 32.9907 52.4242 32.1271 51.3874 31.0907L44.6482 22.9725" stroke="#FED13C" stroke-width="2" stroke-miterlimit="10"/>
<path d="M65.7297 75.9997V39.727L78.8626 24.0088" stroke="#FED13C" stroke-width="2" stroke-miterlimit="10"/>
<path d="M57.0898 53.5454V76" stroke="#FED13C" stroke-width="2" stroke-miterlimit="10"/>
<path d="M57.0898 25.9089C60.2002 25.9089 62.2738 23.318 62.2738 20.0362V17.7907C62.2738 14.5089 60.2002 11.918 57.0898 11.918C53.9794 11.918 51.9058 14.5089 51.9058 17.7907V20.0362C51.9058 23.318 53.9794 25.9089 57.0898 25.9089Z" stroke="#FED13C" stroke-width="2" stroke-miterlimit="10"/>
</g>
<defs>
<clipPath id="clip0">
<rect width="79.8337" height="76" fill="white" transform="translate(0.584229)"/>
</clipPath>
</defs>
</svg>
