<svg width="73" height="71" viewBox="0 0 73 71" fill="none" xmlns="http://www.w3.org/2000/svg">
<path d="M19.8506 62.125H21.603C25.6337 62.125 26.5099 67.45 32.1177 67.45C33.1692 67.45 46.1373 67.45 46.1373 67.45" stroke="#FED13C" stroke-width="2" stroke-miterlimit="10"/>
<path d="M70.6717 42.5998C70.6717 40.6473 69.0945 39.0498 67.1668 39.0498H58.4046C56.4769 39.0498 54.8997 40.6473 54.8997 42.5998V46.1498C54.8997 48.1023 56.4769 49.6998 58.4046 49.6998H67.1668C69.0945 49.6998 70.6717 48.1023 70.6717 46.1498V42.5998Z" stroke="#FED13C" stroke-width="2" stroke-miterlimit="10"/>
<path d="M68.9192 31.9499C68.9192 29.9974 67.342 28.3999 65.4143 28.3999H56.6521C54.7244 28.3999 53.1472 29.9974 53.1472 31.9499V35.4999C53.1472 37.4524 54.7244 39.0499 56.6521 39.0499H65.4143C67.342 39.0499 68.9192 37.4524 68.9192 35.4999V31.9499Z" stroke="#FED13C" stroke-width="2" stroke-miterlimit="10"/>
<path d="M68.9192 53.2497C68.9192 51.2972 67.342 49.6997 65.4143 49.6997H56.6521C54.7244 49.6997 53.1472 51.2972 53.1472 53.2497V56.7997C53.1472 58.7522 54.7244 60.3497 56.6521 60.3497H65.4143C67.342 60.3497 68.9192 58.7522 68.9192 56.7997V53.2497Z" stroke="#FED13C" stroke-width="2" stroke-miterlimit="10"/>
<path d="M65.4143 63.8996C65.4143 61.9471 63.8371 60.3496 61.9095 60.3496H53.1472C51.2195 60.3496 49.6423 61.9471 49.6423 63.8996V65.6746C49.6423 67.6271 51.2195 69.2246 53.1472 69.2246H61.9095C63.8371 69.2246 65.4143 67.6271 65.4143 65.6746V63.8996Z" stroke="#FED13C" stroke-width="2" stroke-miterlimit="10"/>
<path d="M19.8506 28.3999H2.32617V67.4499H19.8506V28.3999Z" stroke="#FED13C" stroke-width="2" stroke-miterlimit="10"/>
<path d="M34.2206 53.2497C42.4571 50.0547 47.7145 42.2447 47.8897 33.7247C47.8897 33.7247 47.8897 25.9147 47.8897 24.8497C47.8897 23.6072 49.6422 20.7672 49.6422 14.9097C49.6422 9.05215 48.5907 6.92215 46.1373 3.72715C43.6839 0.53215 39.1275 1.41965 39.1275 4.61465V7.09965C39.1275 14.1997 36.4988 18.8147 31.9425 24.1397L25.1079 31.9497H21.603" stroke="#FED13C" stroke-width="2" stroke-miterlimit="10"/>
<path d="M11.0884 33.7246V40.8246" stroke="#FED13C" stroke-width="2" stroke-miterlimit="10"/>
</svg>
