<svg width="90" height="90" viewBox="0 0 90 90" fill="none" xmlns="http://www.w3.org/2000/svg">
<circle cx="45" cy="45" r="45" fill="#FF3841"/>
<path d="M45.3237 39.3911C40.0542 39.3911 35.7256 35.1772 35.7256 30.0472C35.7256 24.8255 40.0542 20.6116 45.3237 20.6116C50.5933 20.6116 54.9219 24.8255 54.9219 29.9555C54.9219 35.1772 50.5933 39.3911 45.3237 39.3911ZM45.3237 23.1766C41.4657 23.1766 38.3604 26.1996 38.3604 29.9555C38.3604 33.7114 41.4657 36.7345 45.3237 36.7345C49.1818 36.7345 52.2871 33.7114 52.2871 29.9555C52.2871 26.1996 49.1818 23.1766 45.3237 23.1766Z" fill="white"/>
<path d="M46.6411 12H44.0063V16.947H46.6411V12Z" fill="white"/>
<path d="M46.6411 43.2385H44.0063V48.1855H46.6411V43.2385Z" fill="white"/>
<path d="M63.4849 28.6729H58.4036V31.2378H63.4849V28.6729Z" fill="white"/>
<path d="M32.1497 28.6729H27.0684V31.2378H32.1497V28.6729Z" fill="white"/>
<path d="M59.0744 42.2653L55.4829 38.7659L53.6191 40.5788L57.2106 44.0783L59.0744 42.2653Z" fill="white"/>
<path d="M36.9978 19.4403L33.4058 15.9412L31.5422 17.7545L35.1342 21.2536L36.9978 19.4403Z" fill="white"/>
<path d="M59.8126 18.7324L57.9487 16.9192L54.3567 20.4186L56.2206 22.2318L59.8126 18.7324Z" fill="white"/>
<path d="M36.7664 40.5835L34.9036 38.7695L31.31 42.2669L33.1728 44.0809L36.7664 40.5835Z" fill="white"/>
<path d="M68.0017 63.3923C64.8964 63.3923 62.0734 61.8349 60.4737 59.453C58.7799 61.8349 56.0511 63.3923 52.9458 63.3923C49.8405 63.3923 47.0175 61.8349 45.4178 59.453C43.724 61.8349 40.9951 63.3923 37.8898 63.3923C34.7845 63.3923 31.9615 61.8349 30.3619 59.453C28.6681 61.8349 25.9392 63.3923 22.8339 63.3923C18.6935 63.3923 15.0236 60.6439 13.9885 56.7047L16.5292 56.0634C17.282 58.9033 19.8227 60.8272 22.8339 60.8272C25.8451 60.8272 28.3858 58.9033 29.1386 56.0634C29.3268 55.5137 29.7973 55.0557 30.456 55.0557C31.0206 55.0557 31.5852 55.4221 31.7734 56.0634C32.5261 58.9033 35.0668 60.8272 38.078 60.8272C41.0892 60.8272 43.6299 58.9033 44.3827 56.0634C44.5709 55.5137 45.0414 55.0557 45.7001 55.0557C46.2647 55.0557 46.8293 55.4221 47.0175 56.0634C47.7703 58.9033 50.311 60.8272 53.3222 60.8272C56.3334 60.8272 58.874 58.9033 59.6268 56.0634C59.815 55.5137 60.2855 55.0557 60.9442 55.0557C61.5088 55.0557 62.0734 55.4221 62.2616 56.0634C63.0144 58.9033 65.5551 60.8272 68.5663 60.8272C71.5775 60.8272 74.1182 58.9033 74.871 56.0634L77.4117 56.7047C75.812 60.5523 72.1421 63.3923 68.0017 63.3923Z" fill="white"/>
<path d="M60.3796 75.301C57.2743 75.301 54.4513 73.7437 52.8516 71.362C51.1579 73.7437 48.429 75.301 45.3237 75.301C42.2184 75.301 39.3954 73.7437 37.7957 71.362C36.1019 73.7437 33.373 75.301 30.2677 75.301C26.1273 75.301 22.4575 72.5528 21.4224 68.6138L23.9631 67.9725C24.7159 70.8123 27.2565 72.7361 30.2677 72.7361C33.2789 72.7361 35.8196 70.8123 36.5724 67.9725C36.7606 67.4229 37.2311 66.9648 37.8898 66.9648C38.4544 66.9648 39.019 67.3313 39.2072 67.9725C39.96 70.8123 42.5007 72.7361 45.5119 72.7361C48.5231 72.7361 51.0638 70.8123 51.8166 67.9725C52.0048 67.4229 52.4753 66.9648 53.134 66.9648C53.6985 66.9648 54.2631 67.3313 54.4513 67.9725C55.2041 70.8123 57.7448 72.7361 60.756 72.7361C63.7672 72.7361 66.3079 70.8123 67.0607 67.9725L69.6014 68.6138C68.284 72.5528 64.6141 75.301 60.3796 75.301Z" fill="white"/>
</svg>
