<svg width="90" height="90" viewBox="0 0 90 90" fill="none" xmlns="http://www.w3.org/2000/svg">
<circle cx="45" cy="45" r="45" fill="#0057FF"/>
<path d="M18.7816 53.3154L73.7288 53.3154L73.7288 55.7368L18.7816 55.7367L18.7816 53.3154Z" fill="white"/>
<path d="M44.4131 25.8488L46.3074 24.6431L61.3844 53.6942L59.4901 54.8998L44.4131 25.8488Z" fill="white"/>
<path d="M33.1485 53.6818L48.2429 24.6387L50.1378 25.8438L35.0434 54.8869L33.1485 53.6818Z" fill="white"/>
<path d="M43.0372 55.1634L47.4916 47.1038L51.9747 55.1634L53.814 53.8892L47.4916 42.4846L41.1692 53.8891L43.0372 55.1634Z" fill="white"/>
<path d="M46.2556 60.1328L68.0391 60.1328L68.0391 62.5539L46.2556 62.5539L46.2556 60.1328Z" fill="white"/>
<path d="M30.7084 60.1328L42.0886 60.1328L42.0886 62.5539L30.7084 62.5539L30.7084 60.1328Z" fill="white"/>
<path d="M22.3741 67.5872L32.7485 67.5872L32.7485 70.0083L22.3741 70.0083L22.3741 67.5872Z" fill="white"/>
<path d="M38.697 68.4473L46.2551 68.4473L46.2551 70.8682L38.697 70.8682L38.697 68.4473Z" fill="white"/>
<path d="M50.8822 68.4473L71.8035 68.4473L71.8035 70.8682L50.8822 70.8682L50.8822 68.4473Z" fill="white"/>
<path d="M26.5124 47.8044L28.6965 47.8044L28.6965 54.3033L26.5124 54.3033L26.5124 47.8044Z" fill="white"/>
<path d="M20.2476 49.8432L34.9615 49.8432C35.5362 49.8432 36.0248 49.5246 36.226 49.0149C36.4559 48.5052 36.3697 47.9 35.9961 47.3903L33.6683 44.2684L33.7258 44.2684C34.243 44.2047 34.6741 43.8542 34.8753 43.3764C35.0764 42.8667 35.019 42.2933 34.7316 41.8155L32.7199 38.5661L33.697 38.4706C34.243 38.4069 34.7028 38.0564 34.904 37.5467C35.1052 37.037 34.9902 36.4318 34.6454 35.9539L28.8403 28.4359C28.4667 27.9262 28.1506 27.5439 27.6046 27.5439C27.0585 27.5439 26.7712 27.9262 26.3688 28.4359L20.5637 35.9539C20.1901 36.4318 20.1039 37.0052 20.3051 37.5467C20.5063 38.0564 20.9373 38.4069 21.5121 38.4706L22.4892 38.5661L20.4775 41.8154C20.1901 42.2933 20.1327 42.8667 20.3338 43.3764C20.535 43.8861 20.9661 44.2047 21.4834 44.2684L21.5408 44.2684L19.2131 47.3903C18.8395 47.8681 18.7532 48.4734 18.9831 49.0149C19.213 49.5246 19.6729 49.8432 20.2476 49.8432ZM33.1797 47.4221L22.0294 47.4221L24.156 44.5551C24.5008 44.0772 24.5871 43.5038 24.4146 42.9941C24.2135 42.4844 23.7824 42.134 23.2364 42.0703L22.9777 42.0384L25.0181 38.7254C25.3342 38.2476 25.363 37.6423 25.1618 37.1645C24.9607 36.6548 24.5009 36.3362 23.9836 36.3044L23.2364 36.2406L27.5758 30.6021L31.9153 36.2406L31.1681 36.3044C30.6508 36.3681 30.191 36.6866 29.9898 37.1645C29.7886 37.6742 29.8461 38.2476 30.1335 38.7254L32.1739 42.0384L31.9153 42.0703C31.3692 42.134 30.9382 42.4844 30.737 42.9941C30.5358 43.5038 30.6508 44.1091 30.9956 44.5551L33.1797 47.4221Z" fill="white"/>
<path d="M64.7341 47.8044L66.9182 47.8044L66.9182 54.3033L64.7341 54.3033L64.7341 47.8044Z" fill="white"/>
<path d="M58.4691 49.8432L73.1829 49.8432C73.7577 49.8432 74.2462 49.5246 74.4474 49.0149C74.6773 48.5052 74.5911 47.9 74.2175 47.3903L71.8897 44.2684L71.9472 44.2684C72.4645 44.2047 72.8955 43.8542 73.0967 43.3764C73.2979 42.8667 73.2404 42.2933 72.953 41.8155L70.9414 38.5661L71.9185 38.4706C72.4645 38.4069 72.9243 38.0564 73.1254 37.5467C73.3266 37.037 73.2117 36.4318 72.8668 35.9539L67.0617 28.4359C66.6881 27.9262 66.372 27.5439 65.826 27.5439C65.28 27.5439 64.9639 27.9262 64.5903 28.4359L58.7852 35.9539C58.4116 36.4318 58.3254 37.0052 58.5265 37.5467C58.7277 38.0564 59.1588 38.4069 59.7335 38.4706L60.7106 38.5661L58.699 41.8154C58.4116 42.2933 58.3541 42.8667 58.5553 43.3764C58.7564 43.8861 59.1875 44.2047 59.7048 44.2684L59.7623 44.2684L57.4345 47.3903C57.0609 47.8681 56.9747 48.4734 57.2046 49.0149C57.4345 49.5246 57.8943 49.8432 58.4691 49.8432ZM71.4012 47.4221L60.2508 47.4221L62.3774 44.5551C62.7223 44.0772 62.8085 43.5038 62.6361 42.9941C62.4349 42.4844 62.0038 42.134 61.4578 42.0703L61.1992 42.0384L63.2396 38.7254C63.5557 38.2476 63.5844 37.6423 63.3833 37.1645C63.1821 36.6548 62.7223 36.3362 62.205 36.3044L61.4578 36.2406L65.7973 30.6021L70.1367 36.2406L69.3895 36.3044C68.8722 36.3681 68.4124 36.6866 68.2113 37.1645C68.0101 37.6742 68.0676 38.2476 68.3549 38.7254L70.3953 42.0384L70.1367 42.0703C69.5907 42.134 69.1596 42.4844 68.9584 42.9941C68.7573 43.5038 68.8722 44.1091 69.2171 44.5551L71.4012 47.4221Z" fill="white"/>
<path d="M22.6615 35.094L23.3799 32.8004C20.8797 31.8447 19.1842 29.2325 19.1842 26.3018C19.1842 22.511 21.9717 19.4529 25.3628 19.4529C28.7826 19.4529 31.5415 22.5429 31.5415 26.3018C31.5415 28.022 30.9667 29.6785 29.9034 30.9209L31.5128 32.5455C32.9209 30.8253 33.7256 28.5954 33.7256 26.27C33.7256 21.1412 29.9609 17 25.3628 17C20.736 17 17.0001 21.1731 17.0001 26.27C17.0001 30.2838 19.2704 33.8198 22.6615 35.094Z" fill="white"/>
</svg>
