<svg width="112" height="112" viewBox="0 0 112 112" fill="none" xmlns="http://www.w3.org/2000/svg">
<g filter="url(#filter0_d)">
<circle cx="56" cy="52" r="52" fill="#FF3841"/>
</g>
<path d="M51.5147 70.694L49.8911 70.334L48.3027 77.4967L49.9263 77.8567L51.5147 70.694Z" fill="white"/>
<path d="M85.2919 62.8003H26.5991V64.4633H85.2919V62.8003Z" fill="white"/>
<path d="M82.4551 60.8438H29.436V31.1062C29.436 30.1279 30.2186 29.2476 31.2946 29.2476H80.6944C81.6726 29.2476 82.553 30.0301 82.553 31.1062V60.8438H82.4551ZM31.099 59.1809H80.7922V31.1062C80.7922 31.0083 80.6944 31.0083 80.6944 31.0083H31.2946C31.1968 31.0083 31.1968 31.1062 31.1968 31.1062V59.1809H31.099Z" fill="white"/>
<path d="M28.5556 71.3108C26.9904 71.3108 25.7188 70.0391 25.7188 68.474V28.2694C25.7188 26.7043 26.9904 25.4326 28.5556 25.4326H83.3355C84.9006 25.4326 86.1723 26.7043 86.1723 28.2694V68.474C86.1723 70.0391 84.9006 71.3108 83.3355 71.3108H28.5556ZM28.5556 27.1934C27.9686 27.1934 27.4795 27.6825 27.4795 28.2694V68.474C27.4795 69.0609 27.9686 69.55 28.5556 69.55H83.3355C83.9224 69.55 84.4115 69.0609 84.4115 68.474V28.2694C84.4115 27.6825 83.9224 27.1934 83.3355 27.1934H28.5556Z" fill="white"/>
<path d="M58.8803 66.3213H53.011V67.9843H58.8803V66.3213Z" fill="white"/>
<path d="M63.4819 77.462L61.8943 70.2993L60.2707 70.6592L61.8584 77.8219L63.4819 77.462Z" fill="white"/>
<path d="M66.8036 76.7891H44.9895V78.452H66.8036V76.7891Z" fill="white"/>
<defs>
<filter id="filter0_d" x="0" y="0" width="112" height="112" filterUnits="userSpaceOnUse" color-interpolation-filters="sRGB">
<feFlood flood-opacity="0" result="BackgroundImageFix"/>
<feColorMatrix in="SourceAlpha" type="matrix" values="0 0 0 0 0 0 0 0 0 0 0 0 0 0 0 0 0 0 127 0"/>
<feOffset dy="4"/>
<feGaussianBlur stdDeviation="2"/>
<feColorMatrix type="matrix" values="0 0 0 0 1 0 0 0 0 0.225 0 0 0 0 0.225 0 0 0 0.42 0"/>
<feBlend mode="normal" in2="BackgroundImageFix" result="effect1_dropShadow"/>
<feBlend mode="normal" in="SourceGraphic" in2="effect1_dropShadow" result="shape"/>
</filter>
</defs>
</svg>
