<svg width="101" height="110" fill="none" xmlns="http://www.w3.org/2000/svg"><path d="M70.77 57.293c5.488 2.978 10.51 7.187 15.56 10.863 2.192 1.596 4.375 3.214 6.555 4.818 1.555 1.146 3.88 2.343 4.263 4.486.678 3.842-5.497 6.957-7.905 8.876a872.418 872.418 0 0 1-14.337 11.191c-2.514 1.918-5.791-1.78-3.268-3.686 3.628-2.743 7.238-5.511 10.829-8.303 1.71-1.33 3.41-2.672 5.104-4.013 1.087-.862 4.721-2.974 5.02-4.369.037.611.08 1.22.12 1.838-.972-2.167-4.806-4.104-6.645-5.551a964.087 964.087 0 0 1-5.85-4.656c-3.783-3.029-7.881-5.91-11.25-9.4-1.172-1.23.497-2.804 1.804-2.094Z" fill="#FF1C90"/><path d="M95.971 77.58c-3.754 2.642-9.272 2.908-13.717 3.41-5.388.606-10.815.869-16.231.728-10.353-.27-20.836-1.8-30.745-4.864-8.226-2.547-16.615-6.587-22.328-13.209-5.8-6.716-7.68-15.441-5.728-24.048 2.526-11.095 10.431-20.18 18.323-27.992 2.313-2.293 5.4 1.407 3.296 3.722-7.771 8.56-16.598 17.464-17.378 29.709-.71 11.114 7.165 19.112 16.495 23.752 10.055 5.001 21.662 7.025 32.745 8.071 5.827.55 11.707.69 17.561.49 3.182-.11 6.344-.387 9.514-.7 2.645-.265 5.369-.736 7.98-.144.442.102.584.818.213 1.075Z" fill="#FF1C90"/></svg>