<svg width="123" height="118" fill="none" xmlns="http://www.w3.org/2000/svg"><path d="M19.69 87.607c37.098 2.437 78.334-28.74 63.34-75.198" stroke="#FF1C90" stroke-width="3" stroke-linecap="round"/><path d="M82.726 7.896c1.956 7.916-1.342 31.558-7.791 34.792" stroke="#FF1C90" stroke-width="3" stroke-linecap="round" stroke-linejoin="round"/><path d="M82.389 6.852c.748 8.12 9.77 32.778 16.963 40.06M27.644 99.373c24.695 15.428 64.699 9.198 71.569-28.414" stroke="#FF1C90" stroke-width="3" stroke-linecap="round"/><path d="M100.676 67.733c-1.584 6.187-12.62 21.277-18.269 21.118" stroke="#FF1C90" stroke-width="3" stroke-linecap="round" stroke-linejoin="round"/><path d="M100.83 66.887c-2.493 5.88-5.404 26.237-3.14 33.926M9.7 71.91c20.214 2.675 43.909-12.896 37.383-38.863" stroke="#FF1C90" stroke-width="3" stroke-linecap="round"/><path d="M47.08 30.566c.784 4.403-1.876 17.222-5.523 18.76" stroke="#FF1C90" stroke-width="3" stroke-linecap="round" stroke-linejoin="round"/><path d="M46.933 29.982c.116 4.471 4.162 18.292 7.835 22.537" stroke="#FF1C90" stroke-width="3" stroke-linecap="round"/></svg>