<svg width="70" height="70" viewBox="0 0 70 70" fill="none" xmlns="http://www.w3.org/2000/svg">
<circle cx="35" cy="35" r="33.5" stroke="white" stroke-width="3"/>
<path d="M43.57 49.3337C40.208 48.3387 36.3327 47.2761 32.895 47.2761H30.1782C23.3048 47.2761 14.7278 55.2745 14.3658 55.6143C13.9606 55.9964 13.9414 56.6346 14.3225 57.0408C14.5211 57.2515 14.7882 57.3573 15.0574 57.3573C15.3044 57.3573 15.5524 57.2666 15.747 57.0831C15.8307 57.0055 24.1042 49.2924 30.1782 49.2924H32.895C35.9124 49.2924 39.5345 50.241 42.9984 51.2673C43.5306 51.4276 44.0932 51.1201 44.2504 50.5869C44.4088 50.0525 44.1043 49.4921 43.57 49.3337Z" fill="white"/>
<path d="M63.5098 30.1407C62.9523 30.1084 62.4765 30.5268 62.4401 31.0822C62.4382 31.1165 62.2043 34.5108 60.6659 37.8295C58.7071 42.0546 55.6062 44.2079 51.4538 44.2452C49.6432 44.223 48.0967 44.1383 46.7539 44.0103C54.9318 39.2076 57.2786 22.0404 57.3896 21.1946C57.4611 20.6442 57.072 20.1381 56.5196 20.0655C55.9692 19.992 55.4621 20.3821 55.3895 20.9345C55.3603 21.1574 52.3551 43.2441 42.276 43.2441C42.2236 43.2441 42.1791 43.2653 42.1297 43.2733C41.4372 43.112 40.8152 42.9416 40.2325 42.7733C48.9092 37.8175 49.3185 17.0382 49.3327 16.0381C49.3407 15.4816 48.8951 15.0239 48.3386 15.0168H48.3235C47.7741 15.0168 47.3244 15.4584 47.3164 16.0098C47.3134 16.269 46.8224 41.8186 36.2272 41.8186C36.2211 41.8186 36.216 41.8227 36.2101 41.8227C35.3895 41.6735 34.5658 41.5535 33.7372 41.4618C41.6096 34.8798 39.3574 14.8405 39.2445 13.8898C39.179 13.3364 38.6739 12.9432 38.1245 13.0067C37.572 13.0732 37.1769 13.5742 37.2423 14.1268C37.2494 14.1883 37.9682 20.3952 37.3502 26.8926C36.8038 32.6368 35.0809 39.7642 29.999 41.232C29.9556 41.232 29.9133 41.2279 29.87 41.2279H28.2802C34.1534 32.6831 29.3448 17.4141 29.1219 16.7237C28.9506 16.1934 28.382 15.9061 27.8537 16.0725C27.3234 16.2438 27.0321 16.8115 27.2025 17.3417C27.257 17.5101 32.4951 34.153 25.5694 41.3731C24.9363 41.4851 24.2972 41.6635 23.657 41.8842C27.7419 32.9956 22.2779 21.1876 22.0168 20.6351C21.7799 20.1321 21.1771 19.9163 20.675 20.1533C20.172 20.3912 19.9562 20.9921 20.1942 21.4951C20.2597 21.6342 26.6229 35.3678 20.4159 43.3732C20.1911 43.5002 19.9673 43.6292 19.7455 43.7623C21.4886 36.4676 16.2363 25.2311 15.9681 24.6656C15.7282 24.1636 15.1274 23.9499 14.6254 24.1867C14.1223 24.4256 13.9076 25.0265 14.1455 25.5295C16.1628 29.7828 20.4784 41.736 16.3855 46.0739C15.8996 46.4489 15.4338 46.8229 14.9994 47.1859C15.8532 40.4123 10.1433 32.0248 9.83787 31.5813C9.5213 31.1236 8.89324 31.0097 8.43554 31.3242C7.97784 31.6408 7.86196 32.2689 8.17852 32.7266C8.2632 32.8495 16.5428 45.0145 11.3894 50.5229C11.345 50.5682 11.3147 50.5995 11.2996 50.6166C10.9186 51.0188 10.9356 51.6529 11.3349 52.036C11.5305 52.2235 11.7815 52.3163 12.0325 52.3163C12.2956 52.3163 12.5577 52.2145 12.7553 52.0118C12.7795 51.9866 12.8027 51.9624 12.8269 51.9383C13.3602 51.3869 17.2626 47.431 21.5279 45.0499C21.533 45.0469 21.538 45.0438 21.544 45.0408C23.4312 43.9893 25.388 43.2443 27.1542 43.2443H29.8701C33.086 43.2443 36.2847 43.7081 39.3766 44.6245C41.9241 45.3776 45.1531 46.178 51.3087 46.2597C51.3228 46.2607 51.3349 46.2687 51.349 46.2687C51.4065 46.2687 51.46 46.2626 51.5174 46.2616C51.7936 46.2646 52.0678 46.2687 52.3572 46.2687C52.4963 46.2687 52.6294 46.2395 52.7504 46.1881C63.4505 45.0761 64.4435 31.3537 64.4525 31.2095C64.4876 30.6538 64.0652 30.176 63.5098 30.1407Z" fill="white"/>
</svg>
