<svg width="70" height="70" viewBox="0 0 70 70" fill="none" xmlns="http://www.w3.org/2000/svg">
<circle cx="35" cy="35" r="33.5" stroke="white" stroke-width="3"/>
<path d="M52.4175 34.5488L50.3165 36.6497L48.3858 34.7189L46.3123 36.7923L48.2431 38.7232L46.1693 40.797L44.2385 38.8661L42.165 40.9396L44.0959 42.8704L42.022 44.9443L40.0912 43.0134L38.0177 45.0869L39.9486 47.0178L31.3864 55.5799L28.5624 52.7559L17 64.5L29.8444 66.9167L36.2838 60.4772L33.4599 57.6534L42.0221 49.0913L43.9528 51.022L46.0263 48.9485L44.0955 47.0178L46.1693 44.944L48.1001 46.8748L50.1736 44.8013L48.2427 42.8705L50.3165 40.7967L52.2475 42.7276L54.3209 40.6541L52.39 38.7232L54.491 36.6222L52.4175 34.5488Z" fill="white"/>
<path d="M52.796 18.6252C53.0273 18.0732 53.1489 17.5276 53.1489 17H50.2165C50.2165 17.7005 49.0983 19.4512 46.0978 21.1667C44.2448 22.2261 40.352 24.0035 35.0993 24.0035C31.2218 24.0035 27.2099 22.9971 24.0921 21.2424C21.2682 19.6531 19.9821 17.9292 19.9821 17H17.0497C17.0497 17.5071 17.1537 18.027 17.3532 18.5506L13 21.4924L14.6418 23.9221L18.9653 21.0004C19.595 21.6714 20.3689 22.3244 21.27 22.9396L18.4625 26.9066L20.8561 28.6006L23.8227 24.4089C24.8054 24.8868 25.8383 25.3013 26.9074 25.6484L25.2631 30.298L28.0278 31.2757L29.7531 26.3965C31.0234 26.6551 32.3238 26.8224 33.6329 26.8946V32.0501H36.5653V26.8929C37.825 26.8206 39.0793 26.6562 40.3095 26.4044L42.1273 31.2974L44.8761 30.2763L43.1579 25.651C44.2153 25.305 45.2406 24.8916 46.2205 24.4152L49.1826 28.6006L51.5762 26.9066L48.7784 22.9532C49.6902 22.3402 50.476 21.6932 51.1202 21.0319L55.4198 23.9374L57.0616 21.5077L52.796 18.6252Z" fill="white"/>
</svg>
