<svg width="70" height="70" viewBox="0 0 70 70" fill="none" xmlns="http://www.w3.org/2000/svg">
<circle cx="35" cy="35" r="33.5" stroke="white" stroke-width="3"/>
<path d="M52.4474 39.3947L52.4146 38.9444C51.8874 32.0819 48.6921 27.7799 45.8732 23.9854C43.263 20.4717 41.0086 17.4375 41.0086 12.9604C41.0086 12.6009 40.8073 12.2723 40.488 12.1075C40.1678 11.9417 39.783 11.9689 39.4919 12.1806C35.2583 15.2101 31.726 20.3163 30.492 25.1884C29.6354 28.5804 29.5221 32.3936 29.5062 34.912C25.5965 34.0769 24.7109 28.2283 24.7015 28.1647C24.6575 27.8613 24.4722 27.5973 24.2025 27.4531C23.9301 27.3109 23.6099 27.3005 23.3337 27.4372C23.1287 27.5364 18.3014 29.9894 18.0206 39.7841C18.0009 40.1099 18 40.4357 18 40.7624C18 50.2773 25.7416 58.0189 35.2564 58.0189C44.7713 58.0189 52.5129 50.2773 52.5129 40.7624C52.5129 40.285 52.4802 39.8394 52.4474 39.3947ZM35.2564 56.1015C32.0845 56.1015 29.5043 53.3528 29.5043 49.9739C29.5043 49.8588 29.5034 49.7427 29.5118 49.6004C29.5501 48.1755 29.8207 47.2028 30.1175 46.5558C30.6737 47.7505 31.6688 48.8486 33.2829 48.8486C33.8128 48.8486 34.2416 48.4198 34.2416 47.8899C34.2416 46.5248 34.2698 44.9502 34.6096 43.5289C34.912 42.2679 35.6347 40.9281 36.5504 39.8533C36.9576 41.2483 37.7516 42.3773 38.5268 43.4793C39.6362 45.056 40.7831 46.6859 40.9844 49.4655C40.9965 49.6303 41.0088 49.796 41.0088 49.9739C41.0086 53.3528 38.4284 56.1015 35.2564 56.1015ZM41.3152 54.8489C42.3104 53.4918 42.926 51.8144 42.926 49.9739C42.926 49.7484 42.912 49.5386 42.8839 49.1464C42.6564 46.0166 41.296 44.0823 40.0949 42.3756C39.0716 40.9226 38.1888 39.6672 38.1888 37.8864C38.1888 37.5223 37.9828 37.1899 37.657 37.0279C37.333 36.865 36.9417 36.9016 36.6524 37.1216C34.8137 38.5109 33.2801 40.8496 32.7446 43.0825C32.4712 44.2276 32.3758 45.4662 32.3421 46.4847C31.6773 45.7695 31.4713 44.4438 31.4695 44.426C31.4265 44.118 31.2374 43.8493 30.9612 43.7061C30.6869 43.5638 30.3583 43.56 30.0821 43.7023C29.8405 43.8259 27.7182 45.043 27.5965 49.52C27.588 49.6717 27.5871 49.8233 27.5871 49.974C27.5871 51.8145 28.2028 53.4919 29.1979 54.849C23.7456 52.4946 19.9176 47.0689 19.9176 40.7626C19.9176 40.4752 19.9167 40.1887 19.9363 39.8694C20.1011 34.1228 21.9399 31.273 23.1401 30.0157C23.977 33.0116 26.1697 36.9278 30.4632 36.9278C30.9931 36.9278 31.4219 36.499 31.4219 35.9691C31.4219 32.7606 31.494 29.0532 32.3516 25.6585C33.3252 21.8124 35.9925 17.6594 39.2122 14.8479C39.7468 18.9542 41.9834 21.9651 44.3343 25.1285C47.129 28.8903 50.0182 32.7802 50.5021 39.0792L50.5349 39.5379C50.5649 39.9368 50.5958 40.3347 50.5958 40.7625C50.5955 47.0688 46.7676 52.4946 41.3152 54.8489Z" fill="white"/>
</svg>
