<svg width="70" height="70" viewBox="0 0 70 70" fill="none" xmlns="http://www.w3.org/2000/svg">
<circle cx="35" cy="35" r="33.5" stroke="white" stroke-width="3"/>
<path d="M47.1346 23.605H41.2956C41.093 23.605 40.9036 23.5639 40.9036 23.7654V29.604C40.9036 29.8059 41.093 29.9134 41.2956 29.9134H42.759V34.6071L36.0794 41.1561V21.7496H38.7071C38.7094 21.7496 38.7124 21.7496 38.7124 21.7496C38.9165 21.7496 39.0795 21.4908 39.0795 21.2893C39.0795 21.2158 39.058 21.0992 39.0206 21.0415L35.0619 11.2399C35.0061 11.1026 34.8718 11 34.7239 11C34.5749 11 34.4409 11.0841 34.3858 11.2218L30.4019 21.0596C30.3562 21.1724 30.3694 21.3946 30.4373 21.495C30.5052 21.5957 30.6184 21.75 30.7399 21.75H33.1107V48.0938L26.8023 41.5225V34.7365C27.9156 34.1845 28.5838 33.0553 28.5838 31.7949C28.5838 29.9832 27.0883 28.5096 25.277 28.5096C23.4649 28.5096 22 29.9828 22 31.7949C22 33.0553 22.7206 34.1845 23.8339 34.7365V42.1268C23.8339 42.2204 23.823 42.3162 23.8418 42.4151C23.8498 42.4517 23.8513 42.4864 23.8626 42.5211L23.8705 42.5622C23.8815 42.603 23.8913 42.6441 23.9075 42.6848C23.926 42.7275 23.946 42.7678 23.9686 42.8082L23.9894 42.8452C24.0048 42.8765 24.0203 42.9078 24.0407 42.9372C24.0957 43.0202 24.1576 43.0953 24.2229 43.1602L32.3222 51.2591C31.3254 52.0144 30.7222 53.2051 30.7222 54.4652C30.7222 56.6835 32.5266 58.488 34.7454 58.488C36.9634 58.488 38.7045 56.6835 38.7045 54.4652C38.7045 52.7886 37.5632 51.3138 36.079 50.7158V45.2854L45.1807 36.2463C45.2471 36.1803 45.3422 36.1044 45.3965 36.0218C45.4173 35.9928 45.449 35.9615 45.4652 35.9298L45.4931 35.8924C45.5161 35.8517 45.5425 35.8102 45.5595 35.7687C45.5757 35.7291 45.5897 35.6879 45.6014 35.6468L45.6138 35.6061C45.6255 35.571 45.664 35.5363 45.6719 35.4963C45.6904 35.4012 45.7267 35.305 45.7267 35.2118V29.9134H47.1339C47.3357 29.9134 47.5821 29.8059 47.5821 29.604V23.7654C47.5825 23.5639 47.3365 23.605 47.1346 23.605Z" fill="white"/>
</svg>
