<svg width="70" height="70" viewBox="0 0 70 70" fill="none" xmlns="http://www.w3.org/2000/svg">
<path d="M35.1121 58.2068C33.7776 58.2068 32.4827 57.9452 31.2629 57.4293C30.0854 56.9313 29.028 56.2184 28.1203 55.3106C27.2126 54.4029 26.4998 53.3456 26.0016 52.168C25.4858 50.9484 25.2242 49.6534 25.2242 48.319C25.2242 46.738 25.6069 45.1652 26.3306 43.7707C26.9536 42.5703 27.83 41.4971 28.8818 40.6415V16.7119C28.8819 14.1137 30.9956 12 33.5938 12H36.6304C39.2285 12 41.3423 14.1137 41.3423 16.7119V40.6415C42.3942 41.497 43.2705 42.5702 43.8935 43.7707C44.6174 45.1652 44.9999 46.7381 44.9999 48.319C44.9999 49.6534 44.7384 50.9485 44.2224 52.168C43.7243 53.3456 43.0116 54.4029 42.1038 55.3106C41.1961 56.2184 40.1387 56.9312 38.9611 57.4293C37.7416 57.9452 36.4466 58.2068 35.1121 58.2068ZM33.5938 13.9405C32.0657 13.9405 30.8225 15.1837 30.8225 16.7119V41.1178C30.8225 41.4272 30.6749 41.7181 30.4252 41.9009C28.3837 43.3946 27.1649 45.7939 27.1649 48.3189C27.1649 52.701 30.73 56.2661 35.1122 56.2661C39.4944 56.2661 43.0594 52.7009 43.0594 48.3189C43.0594 45.7939 41.8406 43.3945 39.799 41.9009C39.5493 41.7181 39.4017 41.4272 39.4017 41.1178V16.7119C39.4017 15.1837 38.1585 13.9405 36.6304 13.9405H33.5938Z" fill="white"/>
<path d="M37.1724 42.6497V21.4653C37.1724 20.6243 36.4907 19.9426 35.6498 19.9426H34.5746C33.7337 19.9426 33.052 20.6243 33.052 21.4653V42.6497C30.7359 43.4915 29.0815 45.7121 29.0815 48.3191C29.0815 51.6497 31.7815 54.3498 35.1122 54.3498C38.4429 54.3498 41.1429 51.6497 41.1429 48.3191C41.1428 45.7121 39.4885 43.4915 37.1724 42.6497ZM33.7764 46.4419C33.3254 46.8421 33.0335 47.3686 32.9325 47.9647C32.8795 48.2787 32.8829 48.5947 32.9432 48.9036C33.0204 49.3001 32.7617 49.6841 32.3651 49.7614C32.3179 49.7707 32.2709 49.7752 32.2245 49.7752C31.8815 49.7752 31.5754 49.5328 31.5073 49.1835C31.4133 48.701 31.4076 48.2087 31.4903 47.7206C31.6453 46.8052 32.1125 45.9625 32.8058 45.3476C33.108 45.0796 33.5703 45.1072 33.8384 45.4095C34.1063 45.7117 34.0787 46.1739 33.7764 46.4419Z" fill="white"/>
<path d="M25.2264 19.1009C25.2264 19.5401 24.8703 19.8964 24.4309 19.8964H22.7956C22.3562 19.8964 22 19.5401 22 19.1009V18.2341C22 17.7946 22.3562 17.4385 22.7956 17.4385H24.4309C24.8703 17.4385 25.2264 17.7946 25.2264 18.2341V19.1009Z" fill="white"/>
<path d="M25.2264 24.2869C25.2264 24.7264 24.8703 25.0825 24.4309 25.0825H22.7956C22.3562 25.0825 22 24.7265 22 24.2869V23.4201C22 22.9807 22.3562 22.6245 22.7956 22.6245H24.4309C24.8703 22.6245 25.2264 22.9806 25.2264 23.4201V24.2869Z" fill="white"/>
<path d="M25.2264 29.473C25.2264 29.9124 24.8703 30.2686 24.4309 30.2686H22.7956C22.3562 30.2686 22 29.9125 22 29.473V28.6062C22 28.1669 22.3562 27.8105 22.7956 27.8105H24.4309C24.8703 27.8105 25.2264 28.1668 25.2264 28.6062V29.473Z" fill="white"/>
<path d="M25.2264 34.6593C25.2264 35.0986 24.8703 35.455 24.4309 35.455H22.7956C22.3562 35.455 22 35.0987 22 34.6593V33.7926C22 33.3531 22.3562 32.9971 22.7956 32.9971H24.4309C24.8703 32.9971 25.2264 33.3531 25.2264 33.7926V34.6593Z" fill="white"/>
<path d="M25.2264 39.8453C25.2264 40.2849 24.8703 40.641 24.4309 40.641H22.7956C22.3562 40.641 22 40.2849 22 39.8453V38.9786C22 38.5394 22.3562 38.1831 22.7956 38.1831H24.4309C24.8703 38.1831 25.2264 38.5394 25.2264 38.9786V39.8453Z" fill="white"/>
<circle cx="35" cy="35" r="33.5" stroke="white" stroke-width="3"/>
</svg>
