<svg width="52" height="31" viewBox="0 0 52 31" fill="none" xmlns="http://www.w3.org/2000/svg">
<path d="M13.9672 25.7858H9.66962C9.07655 25.7858 8.59521 25.3044 8.59521 24.7114C8.59521 24.1183 9.07655 23.637 9.66962 23.637H13.9672C14.5603 23.637 15.0416 24.1183 15.0416 24.7114C15.0416 25.3044 14.5603 25.7858 13.9672 25.7858Z" fill="white"/>
<path d="M48.8852 25.7856H46.1992C45.6061 25.7856 45.1248 25.3042 45.1248 24.7112C45.1248 24.1181 45.6061 23.6368 46.1992 23.6368H47.9935L49.4418 15.9182C49.4224 11.9687 46.0488 8.5951 41.9016 8.5951H34.8471L31.4283 23.6368H37.604C38.1971 23.6368 38.6784 24.1181 38.6784 24.7112C38.6784 25.3042 38.1971 25.7856 37.604 25.7856H30.0832C29.7565 25.7856 29.4471 25.6373 29.243 25.3816C29.0388 25.128 28.9615 24.7928 29.0345 24.4748L32.9411 7.28433C33.0528 6.79225 33.4869 6.44629 33.9897 6.44629H41.9016C47.2328 6.44629 51.5712 10.7847 51.5712 16.1159L49.9403 24.9089C49.8458 25.4181 49.4031 25.7856 48.8852 25.7856Z" fill="white"/>
<path d="M41.9018 30.0832C38.9407 30.0832 36.5298 27.6743 36.5298 24.7111C36.5298 21.7479 38.9407 19.3391 41.9018 19.3391C44.8629 19.3391 47.2738 21.7479 47.2738 24.7111C47.2738 27.6743 44.8629 30.0832 41.9018 30.0832ZM41.9018 21.4879C40.1247 21.4879 38.6786 22.9341 38.6786 24.7111C38.6786 26.4882 40.1247 27.9344 41.9018 27.9344C43.6789 27.9344 45.125 26.4882 45.125 24.7111C45.125 22.9341 43.6789 21.4879 41.9018 21.4879Z" fill="white"/>
<path d="M18.2648 30.0832C15.3038 30.0832 12.8928 27.6743 12.8928 24.7111C12.8928 21.7479 15.3038 19.3391 18.2648 19.3391C21.2259 19.3391 23.6369 21.7479 23.6369 24.7111C23.6369 27.6743 21.2259 30.0832 18.2648 30.0832ZM18.2648 21.4879C16.4878 21.4879 15.0416 22.9341 15.0416 24.7111C15.0416 26.4882 16.4878 27.9344 18.2648 27.9344C20.0419 27.9344 21.4881 26.4882 21.4881 24.7111C21.4881 22.9341 20.0419 21.4879 18.2648 21.4879Z" fill="white"/>
<path d="M13.9673 6.44617H5.37201C4.77894 6.44617 4.29761 5.96484 4.29761 5.37177C4.29761 4.7787 4.77894 4.29736 5.37201 4.29736H13.9673C14.5603 4.29736 15.0417 4.7787 15.0417 5.37177C15.0417 5.96484 14.5603 6.44617 13.9673 6.44617Z" fill="white"/>
<path d="M13.9671 12.893H3.22309C2.63002 12.893 2.14868 12.4116 2.14868 11.8185C2.14868 11.2255 2.63002 10.7441 3.22309 10.7441H13.9671C14.5602 10.7441 15.0415 11.2255 15.0415 11.8185C15.0415 12.4116 14.5602 12.893 13.9671 12.893Z" fill="white"/>
<path d="M13.9673 19.339H1.0744C0.481333 19.339 0 18.8577 0 18.2646C0 17.6715 0.481333 17.1902 1.0744 17.1902H13.9673C14.5603 17.1902 15.0417 17.6715 15.0417 18.2646C15.0417 18.8577 14.5603 19.339 13.9673 19.339Z" fill="white"/>
<path d="M30.0833 25.7857H22.5624C21.9693 25.7857 21.488 25.3044 21.488 24.7113C21.488 24.1182 21.9693 23.6369 22.5624 23.6369H29.2259L34.108 2.14881H9.66956C9.07649 2.14881 8.59515 1.66748 8.59515 1.0744C8.59515 0.481333 9.07649 0 9.66956 0H35.4553C35.7819 0 36.0913 0.148268 36.2955 0.403977C36.4996 0.657536 36.577 0.99275 36.5039 1.31077L31.1319 24.9477C31.0201 25.4398 30.5839 25.7857 30.0833 25.7857Z" fill="white"/>
</svg>
