<svg width="65" height="65" viewBox="0 0 65 65" fill="none" xmlns="http://www.w3.org/2000/svg">
<circle cx="32.5" cy="32.5" r="31.5" stroke="#FF1C90" stroke-width="2"/>
<path d="M48.4091 28.6471V23.7278C48.4091 22.0597 47.1153 20.7032 45.4805 20.5716L40.9121 12.5922C40.4888 11.8542 39.8052 11.3268 38.9872 11.1078C38.173 10.8902 37.3217 11.0045 36.5931 11.4286L20.9323 20.546H18.1818C16.427 20.546 15 21.9729 15 23.7278V42.8187C15 44.5735 16.427 46.0005 18.1818 46.0005H45.2273C46.9821 46.0005 48.4091 44.5736 48.4091 42.8187V37.8994C49.333 37.57 50 36.6953 50 35.6596V30.8869C50 29.8512 49.333 28.9765 48.4091 28.6471ZM43.6319 20.546H36.6987L41.8987 17.5186L43.6319 20.546ZM41.1083 16.138L33.5369 20.546H30.3963L40.323 14.7665L41.1083 16.138ZM37.3939 12.8035C37.7536 12.593 38.1738 12.537 38.5755 12.6443C38.9817 12.753 39.3204 13.0156 39.531 13.383L39.5326 13.3859L27.2346 20.546H24.0943L37.3939 12.8035ZM46.8182 42.8187C46.8182 43.6957 46.1043 44.4096 45.2273 44.4096H18.1818C17.3049 44.4096 16.591 43.6957 16.591 42.8187V23.7278C16.591 22.8508 17.3049 22.1369 18.1818 22.1369H45.2273C46.1043 22.1369 46.8182 22.8508 46.8182 23.7278V28.5005H42.0454C39.4136 28.5005 37.2727 30.6414 37.2727 33.2732C37.2727 35.9051 39.4136 38.046 42.0454 38.046H46.8182V42.8187ZM48.4091 35.6596C48.4091 36.0985 48.0526 36.4551 47.6136 36.4551H42.0454C40.2906 36.4551 38.8636 35.0281 38.8636 33.2732C38.8636 31.5184 40.2906 30.0914 42.0454 30.0914H47.6136C48.0525 30.0914 48.4091 30.4479 48.4091 30.8869V35.6596Z" fill="#FF1C90"/>
<path d="M42.0455 31.6824C41.1685 31.6824 40.4546 32.3963 40.4546 33.2733C40.4546 34.1502 41.1685 34.8641 42.0455 34.8641C42.9225 34.8641 43.6364 34.1502 43.6364 33.2733C43.6364 32.3963 42.9225 31.6824 42.0455 31.6824Z" fill="#FF1C90"/>
</svg>
