<svg width="65" height="65" viewBox="0 0 65 65" fill="none" xmlns="http://www.w3.org/2000/svg">
<circle cx="32.5" cy="32.5" r="31.5" stroke="#FF1C90" stroke-width="2"/>
<path d="M49.0442 36.7178C48.5219 36.7178 48.0986 37.1413 48.0986 37.6638V46.0634C48.0968 47.6302 46.8279 48.9 45.2617 48.9015H18.7282C17.162 48.9 15.8931 47.6302 15.8913 46.0634V21.4112C15.8931 19.8448 17.162 18.575 18.7282 18.5732H27.1244C27.6467 18.5732 28.07 18.1497 28.07 17.6272C28.07 17.105 27.6467 16.6812 27.1244 16.6812H18.7282C16.1181 16.6841 14.003 18.8001 14 21.4112V46.0638C14.003 48.6749 16.1181 50.7909 18.7282 50.7938H45.2617C47.8718 50.7909 49.9869 48.6749 49.9899 46.0638V37.6638C49.9899 37.1413 49.5666 36.7178 49.0442 36.7178Z" fill="#FF1C90"/>
<path d="M49.6147 14.2469C47.9529 12.5844 45.2586 12.5844 43.5967 14.2469L26.726 31.1244C26.6103 31.2401 26.5269 31.3834 26.4833 31.5409L24.2647 39.5535C24.1735 39.8821 24.2662 40.2339 24.5071 40.4752C24.7483 40.7161 25.0999 40.8089 25.4283 40.718L33.4378 38.4981C33.5951 38.4545 33.7384 38.371 33.8541 38.2554L50.7244 21.3775C52.3837 19.7138 52.3837 17.0207 50.7244 15.357L49.6147 14.2469ZM28.7864 31.7393L42.5938 17.926L47.0468 22.3808L33.239 36.1941L28.7864 31.7393ZM27.8969 33.5249L31.4545 37.0843L26.5335 38.4483L27.8969 33.5249ZM49.3872 20.0398L48.3843 21.0431L43.931 16.5879L44.9342 15.5846C45.8573 14.6612 47.3541 14.6612 48.2772 15.5846L49.3872 16.6947C50.3088 17.6193 50.3088 19.1156 49.3872 20.0398Z" fill="#FF1C90"/>
</svg>
