<svg width="65" height="65" viewBox="0 0 65 65" fill="none" xmlns="http://www.w3.org/2000/svg">
<circle cx="32.5" cy="32.5" r="31.5" stroke="#FF1C90" stroke-width="2"/>
<path d="M31.8556 43.1843C31.5953 43.4443 31.5953 43.8665 31.8556 44.1269C32.1163 44.3872 32.5382 44.3872 32.7982 44.1269C33.0589 43.8665 33.0589 43.4443 32.7982 43.1843C32.5382 42.9236 32.1163 42.9236 31.8556 43.1843Z" fill="#FF1C90"/>
<path d="M50.3553 41.9411L44.8651 37.2776C44.8397 37.2562 44.8128 37.2364 44.7849 37.2187C43.3445 36.3027 41.4952 36.5056 40.2876 37.7116L37.2942 40.7015C37.0869 40.9089 36.7776 40.9702 36.5064 40.8584C33.1263 39.4617 30.3496 37.3589 28.2533 34.6091C26.6548 32.5123 26.0786 30.8461 26.0026 30.6113C25.9936 30.5611 25.9791 30.5111 25.9588 30.4623C25.8467 30.1914 25.908 29.883 26.1159 29.6759L29.109 26.6851C30.3165 25.4788 30.5194 23.6314 29.6024 22.1926C29.5951 22.1811 29.5875 22.1698 29.5796 22.1585L25.6148 16.6547C24.3673 14.7215 21.6502 14.4295 20.0195 16.0582L19.4201 16.6569C19.4198 16.6575 19.4192 16.6581 19.4187 16.6583L17.2787 18.7961C14.7268 21.3455 14.3093 25.1763 16.0716 29.8751C17.5812 33.9 20.6031 38.305 24.5806 42.2783C28.6522 46.3456 33.1811 49.4202 37.3329 50.9357C41.4424 52.4355 45.8137 52.6203 48.9076 49.5294L50.9259 47.5135C52.5493 45.8916 52.2659 43.1951 50.3553 41.9411ZM43.9691 38.4125L49.4545 43.0721C49.4796 43.0935 49.5064 43.1133 49.5344 43.1311C50.7061 43.8763 50.8835 45.5129 49.903 46.492L49.7533 46.6419L40.3975 39.6445L41.3102 38.7331C42.0234 38.0203 43.1104 37.8914 43.9691 38.4125ZM24.4066 17.4484C24.414 17.46 24.4216 17.4716 24.4295 17.4826L28.3926 22.9844C28.931 23.8453 28.8064 24.9444 28.0864 25.6636L27.202 26.5474L20.8723 17.2492L21.0421 17.0796C22.0265 16.0963 23.6634 16.2822 24.4066 17.4484ZM37.8289 49.5787C33.8709 48.134 29.529 45.1785 25.6032 41.2569C21.7683 37.4264 18.8642 33.2042 17.4255 29.3683C16.3456 26.489 15.6211 22.4948 18.3012 19.8178L19.8314 18.289L26.1611 27.5872L25.0936 28.6541C24.4863 29.2597 24.2953 30.1559 24.5984 30.9538C24.8267 31.8895 25.8769 33.8317 26.9365 35.2629C28.4957 37.3691 31.3258 40.2808 35.9536 42.1934C36.7668 42.5295 37.6942 42.3449 38.3168 41.7233L39.3645 40.6764L48.7203 47.6738L47.885 48.5079C45.012 51.3782 40.8308 50.6744 37.8289 49.5787Z" fill="#FF1C90"/>
<path d="M30.4108 41.4155C29.6392 40.7598 28.3045 39.6321 27.6016 38.9313C25.878 37.2148 24.0696 35.1341 22.9943 33.6308C22.7646 33.3094 22.3094 33.2292 21.9778 33.4521C21.6462 33.6748 21.5637 34.1158 21.7934 34.4372C23.1495 36.3332 25.142 38.5118 26.5543 39.9183C27.2963 40.6583 28.6424 41.796 29.4474 42.4799C29.7502 42.7371 30.2116 42.7089 30.4785 42.4144C30.7444 42.1207 30.7142 41.6732 30.4108 41.4155Z" fill="#FF1C90"/>
</svg>
