<svg width="112" height="112" fill="none" xmlns="http://www.w3.org/2000/svg"><path d="M51.464 2.475c2.356-2.844 6.716-2.844 9.072 0a5.892 5.892 0 0 0 7.69 1.217c3.12-1.976 7.267-.628 8.629 2.804a5.892 5.892 0 0 0 6.936 3.534c3.578-.915 7.106 1.648 7.34 5.334a5.891 5.891 0 0 0 5.505 5.504c3.686.235 6.249 3.763 5.333 7.34a5.893 5.893 0 0 0 3.535 6.937c3.432 1.362 4.78 5.51 2.804 8.63a5.892 5.892 0 0 0 1.217 7.689c2.844 2.356 2.844 6.716 0 9.072a5.892 5.892 0 0 0-1.217 7.69c1.976 3.12.628 7.267-2.804 8.629a5.893 5.893 0 0 0-3.535 6.936c.916 3.578-1.647 7.106-5.332 7.34a5.891 5.891 0 0 0-5.505 5.505c-.235 3.686-3.763 6.249-7.34 5.333a5.893 5.893 0 0 0-6.937 3.535c-1.362 3.432-5.51 4.78-8.63 2.804a5.892 5.892 0 0 0-7.688 1.217c-2.357 2.844-6.717 2.844-9.073 0a5.892 5.892 0 0 0-7.69-1.217c-3.12 1.976-7.267.628-8.629-2.804a5.893 5.893 0 0 0-6.936-3.535c-3.578.916-7.106-1.647-7.34-5.332a5.891 5.891 0 0 0-5.505-5.505c-3.686-.235-6.249-3.763-5.334-7.34a5.892 5.892 0 0 0-3.534-6.937c-3.432-1.362-4.78-5.51-2.804-8.63a5.892 5.892 0 0 0-1.217-7.688c-2.844-2.357-2.844-6.717 0-9.073a5.892 5.892 0 0 0 1.217-7.69c-1.976-3.12-.628-7.267 2.804-8.629a5.892 5.892 0 0 0 3.534-6.936c-.915-3.578 1.648-7.106 5.334-7.34a5.891 5.891 0 0 0 5.504-5.505c.235-3.686 3.763-6.249 7.34-5.334a5.892 5.892 0 0 0 6.937-3.534c1.362-3.432 5.51-4.78 8.63-2.804a5.892 5.892 0 0 0 7.689-1.217Z" fill="#FF1C90"/></svg>