<svg width="30" height="31" viewBox="0 0 30 31" fill="none" xmlns="http://www.w3.org/2000/svg">
<path d="M19.95 15.1338L29.2309 5.85287C30.2564 4.82742 30.2564 3.16492 29.2309 2.14108L27.9937 0.903818C26.9679 -0.121946 25.3054 -0.121946 24.2815 0.903818L15.001 10.1844L5.72005 0.901895C4.69461 -0.123548 3.03211 -0.123548 2.00827 0.901895L0.769083 2.13916C-0.256361 3.16492 -0.256361 4.82742 0.769083 5.85126L10.0516 15.1338L0.771006 24.4144C-0.254759 25.4401 -0.254759 27.1026 0.771006 28.1265L2.00827 29.3637C3.03371 30.3892 4.69621 30.3892 5.72005 29.3637L15.001 20.0828L24.2815 29.3637C25.3073 30.3892 26.9698 30.3892 27.9937 29.3637L29.2309 28.1265C30.2564 27.1007 30.2564 25.4382 29.2309 24.4144L19.95 15.1338Z" fill="#FA0612"/>
</svg>
