<svg width="121" height="27" viewBox="0 0 121 27" fill="none" xmlns="http://www.w3.org/2000/svg">
<path d="M104.055 11.2607L93.5094 2.30664H120.401L106.164 24.4284L104.055 11.2607Z" stroke="black" stroke-linecap="round" stroke-linejoin="round"/>
<path d="M104.581 11.2607L119.873 2.30664" stroke="black"/>
<path d="M73.6144 25.6342L71.3849 19.5984C72.5024 17.6769 73.1168 15.4241 73.0325 13.0153C72.8069 6.57445 67.5051 1.36266 61.1021 1.28601C54.1554 1.2039 48.5355 7.02336 48.8862 14.0746C49.1934 20.2691 54.1962 25.2975 60.3463 25.604C62.6954 25.719 64.9031 25.1606 66.8009 24.1013L73.163 26.1104C73.4512 26.2035 73.7204 25.9188 73.6144 25.6342Z" stroke="black" stroke-miterlimit="10"/>
<path d="M25.8188 5.59639C21.5795 0.404226 14.9447 6.19285 14.3231 6.75516V6.70261C14.3231 6.70261 7.23062 0.0494986 2.78057 5.50179C-0.280617 9.25139 2.28641 14.1098 5.25137 17.5941C9.11362 22.1293 13.7743 25.6267 14.2763 25.9972V26.1285C14.2763 26.1285 19.2621 22.4919 23.3454 17.6913C26.313 14.2044 28.8774 9.34599 25.8188 5.59639Z" stroke="black" stroke-miterlimit="10" stroke-linecap="round" stroke-linejoin="round"/>
</svg>
