<svg width="70" height="71" viewBox="0 0 70 71" fill="none" xmlns="http://www.w3.org/2000/svg">
<path d="M0.650002 35.5C0.650002 54.7558 16.0377 70.35 35 70.35C53.9623 70.35 69.35 54.7558 69.35 35.5C69.35 16.2442 53.9623 0.65 35 0.65C16.0377 0.65 0.650002 16.2442 0.650002 35.5Z" stroke="black" stroke-width="1.3"/>
<path d="M42.0595 36.21L30.4288 24.379C30.0267 23.9699 30.0267 23.3067 30.4288 22.8977C30.831 22.4887 31.4829 22.4887 31.8851 22.8977L44.244 35.4693C44.646 35.8784 44.646 36.5416 44.244 36.9506L31.8851 49.5223C31.4759 49.9242 30.8239 49.9127 30.4288 49.4965C30.0434 49.0905 30.0434 48.4469 30.4288 48.0409L42.0595 36.21Z" fill="black"/>
</svg>
