<svg width="437" height="46" viewBox="0 0 437 46" fill="none" xmlns="http://www.w3.org/2000/svg">
<path d="M365.239 0.674316H236.586C224.214 0.674316 214.184 10.7041 214.184 23.0765V23.0766C214.184 35.449 224.214 45.4788 236.586 45.4788H365.239C377.611 45.4788 387.641 35.449 387.641 23.0765C387.641 10.7041 377.611 0.674316 365.239 0.674316Z" fill="#F3F4F5"/>
<path d="M435.252 23.715C435.941 22.9253 436.286 21.9916 436.286 20.9135C436.286 19.9358 435.928 19.0898 435.215 18.375C434.501 17.6602 433.655 17.303 432.677 17.303H427.469C427.519 17.1276 427.569 16.9772 427.619 16.8519C427.669 16.7265 427.739 16.5885 427.826 16.4381C427.913 16.2876 427.976 16.1747 428.014 16.0997C428.239 15.6737 428.412 15.3225 428.531 15.047C428.65 14.7709 428.769 14.395 428.888 13.9187C429.007 13.4427 429.067 12.9661 429.067 12.4898C429.067 12.1891 429.063 11.9445 429.057 11.7566C429.051 11.5686 429.019 11.2865 428.963 10.9104C428.907 10.5345 428.831 10.2211 428.738 9.97045C428.643 9.71985 428.493 9.43755 428.286 9.12445C428.079 8.81075 427.829 8.55725 427.534 8.36285C427.239 8.16855 426.863 8.00565 426.406 7.87415C425.948 7.74245 425.431 7.67676 424.854 7.67676C424.528 7.67676 424.247 7.79586 424.008 8.03406C423.758 8.28466 423.544 8.59805 423.369 8.97385C423.193 9.34995 423.071 9.67595 423.002 9.95175C422.933 10.2275 422.855 10.61 422.767 11.0987C422.654 11.6254 422.57 12.0043 422.513 12.2362C422.457 12.468 422.347 12.7719 422.184 13.1479C422.021 13.5241 421.827 13.8247 421.601 14.0505C421.188 14.4641 420.555 15.2162 419.702 16.3066C419.088 17.1087 418.455 17.867 417.803 18.5815C417.151 19.2962 416.675 19.6659 416.374 19.691C416.061 19.716 415.791 19.8445 415.566 20.0765C415.34 20.3083 415.227 20.581 415.227 20.8943V32.946C415.227 33.272 415.346 33.551 415.584 33.783C415.823 34.015 416.105 34.137 416.431 34.15C416.869 34.162 417.859 34.438 419.401 34.977C420.366 35.303 421.121 35.55 421.667 35.719C422.212 35.888 422.974 36.07 423.951 36.265C424.929 36.459 425.831 36.556 426.658 36.556H426.978H428.407H429.083C430.751 36.531 431.985 36.042 432.788 35.09C433.514 34.225 433.821 33.091 433.709 31.687C434.198 31.223 434.536 30.634 434.724 29.92C434.937 29.155 434.937 28.422 434.724 27.72C435.3 26.956 435.57 26.097 435.532 25.144C435.534 24.743 435.44 24.267 435.252 23.715Z" fill="#0084FF"/>
<path d="M412.821 19.71H407.406C407.08 19.71 406.798 19.8291 406.56 20.0673C406.322 20.3053 406.203 20.5874 406.203 20.9133V32.947C406.203 33.272 406.322 33.555 406.56 33.793C406.798 34.031 407.08 34.15 407.406 34.15H412.821C413.147 34.15 413.429 34.031 413.667 33.793C413.905 33.555 414.024 33.272 414.024 32.947V20.9133C414.024 20.5874 413.905 20.3054 413.667 20.0673C413.429 19.829 413.147 19.71 412.821 19.71ZM410.659 31.395C410.421 31.627 410.139 31.743 409.813 31.743C409.474 31.743 409.189 31.627 408.957 31.395C408.725 31.163 408.609 30.878 408.609 30.54C408.609 30.214 408.725 29.932 408.957 29.694C409.189 29.456 409.474 29.336 409.813 29.336C410.139 29.336 410.421 29.456 410.659 29.694C410.897 29.932 411.016 30.214 411.016 30.54C411.016 30.878 410.897 31.163 410.659 31.395Z" fill="#0084FF"/>
<path d="M362.678 7.0752C353.877 7.0752 346.677 14.2759 346.677 23.077C346.677 31.878 353.877 39.078 362.678 39.078C371.479 39.078 378.68 31.878 378.68 23.077C378.68 14.2759 371.479 7.0752 362.678 7.0752ZM368.279 16.6762C369.559 16.6762 370.679 17.7963 370.679 19.0764C370.679 20.3565 369.559 21.4766 368.279 21.4766C366.999 21.4766 365.879 20.3565 365.879 19.0764C365.879 17.7963 366.999 16.6762 368.279 16.6762ZM357.078 16.6762C358.358 16.6762 359.478 17.7963 359.478 19.0764C359.478 20.3565 358.358 21.4766 357.078 21.4766C355.798 21.4766 354.678 20.3565 354.678 19.0764C354.678 17.7963 355.798 16.6762 357.078 16.6762ZM362.678 32.678C358.518 32.678 354.998 29.957 353.717 26.277H371.639C370.359 29.957 366.839 32.678 362.678 32.678Z" fill="#0084FF"/>
<path d="M238.731 25.751H233.202L231.961 29.195H230.166L235.205 15.999H236.728L241.776 29.195H239.991L238.731 25.751ZM233.728 24.319H238.214L235.967 18.147L233.728 24.319ZM250.087 29.195C249.99 29.002 249.911 28.658 249.851 28.162C249.072 28.972 248.141 29.377 247.06 29.377C246.093 29.377 245.298 29.105 244.676 28.561C244.06 28.011 243.751 27.316 243.751 26.476C243.751 25.455 244.138 24.664 244.912 24.102C245.691 23.534 246.785 23.25 248.192 23.25H249.824V22.4793C249.824 21.8932 249.649 21.428 249.298 21.0836C248.948 20.7331 248.431 20.5579 247.748 20.5579C247.15 20.5579 246.649 20.7089 246.244 21.0111C245.839 21.3132 245.637 21.6787 245.637 22.1077H243.951C243.951 21.6183 244.123 21.147 244.467 20.6938C244.818 20.2346 245.289 19.8721 245.881 19.6062C246.479 19.3404 247.135 19.2074 247.848 19.2074C248.978 19.2074 249.863 19.4914 250.504 20.0594C251.144 20.6213 251.476 21.3978 251.501 22.3887V26.902C251.501 27.803 251.615 28.519 251.845 29.05V29.195H250.087ZM247.304 27.917C247.83 27.917 248.328 27.781 248.8 27.51C249.271 27.238 249.612 26.884 249.824 26.449V24.437H248.51C246.455 24.437 245.428 25.038 245.428 26.241C245.428 26.766 245.603 27.177 245.954 27.473C246.304 27.769 246.754 27.917 247.304 27.917Z" fill="#9A9A9A"/>
<path d="M181.22 29.182C182.811 29.182 184.173 28.615 185.306 27.483C186.439 26.35 187.005 24.988 187.005 23.397V14.1408C187.005 12.5498 186.439 11.188 185.306 10.055C184.173 8.92227 182.811 8.35547 181.22 8.35547C179.629 8.35547 178.267 8.92227 177.134 10.055C176.001 11.1878 175.435 12.5498 175.435 14.1408V23.397C175.435 24.988 176.002 26.35 177.134 27.483C178.267 28.615 179.629 29.182 181.22 29.182Z" fill="#0084FF"/>
<path d="M191.29 20.2694C191.061 20.0403 190.79 19.9258 190.476 19.9258C190.163 19.9258 189.892 20.0403 189.663 20.2694C189.434 20.4983 189.319 20.7695 189.319 21.0827V23.397C189.319 25.627 188.527 27.534 186.942 29.119C185.357 30.704 183.45 31.496 181.22 31.496C178.99 31.496 177.083 30.704 175.498 29.119C173.913 27.534 173.121 25.627 173.121 23.397V21.0827C173.121 20.7695 173.006 20.4983 172.778 20.2694C172.548 20.0403 172.278 19.9258 171.964 19.9258C171.65 19.9258 171.379 20.0403 171.15 20.2694C170.921 20.4983 170.807 20.7695 170.807 21.0827V23.397C170.807 26.061 171.696 28.378 173.473 30.348C175.251 32.319 177.448 33.448 180.063 33.737V36.124H175.435C175.122 36.124 174.85 36.239 174.621 36.468C174.392 36.697 174.278 36.968 174.278 37.281C174.278 37.594 174.392 37.866 174.621 38.095C174.85 38.324 175.122 38.438 175.435 38.438H187.005C187.318 38.438 187.59 38.324 187.818 38.095C188.048 37.866 188.162 37.594 188.162 37.281C188.162 36.968 188.048 36.697 187.818 36.468C187.59 36.239 187.318 36.124 187.005 36.124H182.377V33.737C184.993 33.448 187.189 32.319 188.967 30.348C190.745 28.378 191.634 26.061 191.634 23.397V21.0827C191.634 20.7695 191.519 20.4986 191.29 20.2694Z" fill="#0084FF"/>
<path d="M135.455 10.2754H114.973C113.559 10.2754 112.413 11.4217 112.413 12.8356V33.9577C112.413 35.3717 113.559 36.518 114.973 36.518H135.455C136.869 36.518 138.016 35.3717 138.016 33.9577V12.8356C138.016 11.4217 136.869 10.2754 135.455 10.2754Z" stroke="#0084FF" stroke-width="2.56026"/>
<path d="M123.427 23.2388C124.791 22.7196 126.292 22.6818 127.68 23.1318L136.171 25.8858C136.902 26.1228 137.421 26.7728 137.491 27.5388L138.143 34.7178C138.246 35.8518 137.346 36.8258 136.207 36.8118L114.243 36.5408C113.219 36.5278 112.385 35.7128 112.348 34.6888L112.142 28.9308C112.113 28.1088 112.61 27.3598 113.378 27.0678L123.427 23.2388Z" fill="#0084FF"/>
<path d="M118.494 18.596C120.085 18.596 121.374 17.3065 121.374 15.7157C121.374 14.125 120.085 12.8354 118.494 12.8354C116.903 12.8354 115.614 14.125 115.614 15.7157C115.614 17.3065 116.903 18.596 118.494 18.596Z" fill="#0084FF"/>
<path d="M84.2559 14.2391C83.4057 13.3891 82.3803 12.964 81.1788 12.964H77.3703L76.5035 10.6519C76.288 10.0966 75.8943 9.61763 75.3216 9.21503C74.7492 8.81273 74.1626 8.61133 73.5618 8.61133H64.8567C64.2559 8.61133 63.6694 8.81273 63.097 9.21503C62.5245 9.61763 62.1308 10.0966 61.9154 10.6519L61.0483 12.964H57.2398C56.0381 12.964 55.0126 13.3891 54.1624 14.2391C53.3124 15.0892 52.8875 16.1149 52.8875 17.3164V32.55C52.8875 33.752 53.3124 34.778 54.1624 35.627C55.0126 36.478 56.0382 36.903 57.2398 36.903H81.1783C82.3798 36.903 83.4054 36.478 84.2556 35.627C85.1056 34.778 85.5307 33.752 85.5307 32.55V17.3164C85.5309 16.1149 85.1057 15.0892 84.2559 14.2391ZM74.5902 30.315C73.0998 31.805 71.3061 32.551 69.2091 32.551C67.112 32.551 65.3186 31.805 63.828 30.315C62.3374 28.824 61.5924 27.03 61.5924 24.934C61.5924 22.8365 62.3376 21.0431 63.828 19.5525C65.3184 18.0619 67.1121 17.3168 69.2091 17.3168C71.3061 17.3168 73.0998 18.0621 74.5902 19.5525C76.0808 21.0429 76.8259 22.8365 76.8259 24.934C76.8259 27.03 76.0808 28.824 74.5902 30.315Z" fill="#0084FF"/>
<path d="M69.2092 20.0366C67.8603 20.0366 66.707 20.5155 65.7492 21.4734C64.7914 22.4312 64.3125 23.584 64.3125 24.934C64.3125 26.282 64.7914 27.435 65.7492 28.393C66.707 29.351 67.8603 29.83 69.2092 29.83C70.5579 29.83 71.7113 29.351 72.6691 28.393C73.6269 27.435 74.1059 26.282 74.1059 24.934C74.1059 23.584 73.6269 22.4313 72.6691 21.4734C71.7114 20.5156 70.5579 20.0366 69.2092 20.0366Z" fill="#0084FF"/>
<path d="M19.6042 21.1565C22.4321 21.1565 24.7247 18.864 24.7247 16.036C24.7247 13.2081 22.4321 10.9155 19.6042 10.9155C16.7762 10.9155 14.4836 13.2081 14.4836 16.036C14.4836 18.864 16.7762 21.1565 19.6042 21.1565Z" fill="#0084FF"/>
<path d="M5.52273 21.1565C8.35071 21.1565 10.6432 18.864 10.6432 16.036C10.6432 13.2081 8.35071 10.9155 5.52273 10.9155C2.69475 10.9155 0.402222 13.2081 0.402222 16.036C0.402222 18.864 2.69475 21.1565 5.52273 21.1565Z" fill="#0084FF"/>
<path d="M19.6042 35.8777C22.4321 35.8777 24.7247 33.5852 24.7247 30.7572C24.7247 27.9293 22.4321 25.6367 19.6042 25.6367C16.7762 25.6367 14.4836 27.9293 14.4836 30.7572C14.4836 33.5852 16.7762 35.8777 19.6042 35.8777Z" fill="#0084FF"/>
<path d="M5.52273 35.8777C8.35071 35.8777 10.6432 33.5852 10.6432 30.7572C10.6432 27.9293 8.35071 25.6367 5.52273 25.6367C2.69475 25.6367 0.402222 27.9293 0.402222 30.7572C0.402222 33.5852 2.69475 35.8777 5.52273 35.8777Z" fill="#0084FF"/>
</svg>
