<svg width="35" height="37" viewBox="0 0 35 37" fill="none" xmlns="http://www.w3.org/2000/svg">
<path d="M33.159 0.425332C32.5097 0.703182 31.8445 0.95482 31.19 1.2117C31.0942 1.2484 30.9824 1.25888 30.876 1.27985C30.8653 1.25364 30.8494 1.22743 30.8387 1.20646C31.2911 0.87094 31.7487 0.540666 32.2011 0.205149C32.1851 0.178937 32.1745 0.152724 32.1585 0.131754C31.4933 0.283786 30.8121 0.383392 30.1735 0.656C30.1628 0.624545 30.1469 0.59309 30.1362 0.566878C30.3119 0.414847 30.4822 0.262816 30.6578 0.116027C30.6525 0.110785 30.6471 0.1003 30.6418 0.0950573C30.2374 0.304755 29.8329 0.519696 29.4231 0.729394C29.4125 0.713667 29.4072 0.697939 29.3965 0.682212C29.7744 0.456787 30.1522 0.231361 30.5301 0.00593557C30.0138 -0.0307616 29.5455 0.105542 29.0825 0.33621C27.5765 1.08588 26.1396 1.94564 24.8251 2.99938C23.4734 4.08456 22.276 5.32178 21.1478 6.62715C18.6412 9.52623 16.3635 12.5826 14.7138 16.0531C14.6712 16.1474 14.6127 16.1999 14.5328 16.2261C14.0858 17.479 13.7931 18.8106 13.064 19.9115C12.8724 20.4358 12.6702 20.96 12.4786 21.4895C11.6059 23.943 10.8449 26.4331 10.185 28.9548C10.1796 28.9705 10.169 28.9862 10.1424 29.0491C10.0519 28.9181 9.97208 28.8185 9.90822 28.7031C9.30686 27.6756 8.71615 26.6376 8.11479 25.6101C7.21541 24.0845 6.31603 22.559 5.41133 21.0387C5.01752 20.3781 4.3523 20.0321 3.71369 20.1684C3.43164 20.2261 3.14426 20.3152 2.89414 20.4515C2.72384 20.5459 2.56419 20.7346 2.49501 20.9128C2.40454 21.1592 2.28214 21.2169 2.04798 21.1802C1.93622 21.1592 1.81914 21.175 1.65417 21.175C1.734 21.3951 1.8085 21.5944 1.86704 21.7936C1.92558 21.9875 1.96283 22.1868 2.00541 22.3807C1.97348 22.3965 1.94687 22.4122 1.91494 22.4279C1.59031 22.0871 1.26036 21.7516 0.935732 21.4109C0.898479 21.4318 0.861227 21.4528 0.823975 21.4685C0.957019 21.867 1.04749 22.2916 1.23375 22.6638C1.82979 23.8434 2.45243 25.0124 3.09105 26.171C4.4747 28.6874 6.0393 31.1094 7.2367 33.7254C7.58261 34.4751 7.82209 35.2772 8.07754 36.0635C8.17865 36.3833 8.34362 36.593 8.64696 36.7293C10.2169 37.4318 12.3882 36.6874 13.1066 35.1461C13.3408 34.6428 13.4153 34.0766 13.5749 33.5419C14.4264 30.6953 15.2247 27.8329 16.1506 25.0124C16.6615 23.4607 17.3001 21.9456 17.9068 20.42C18.1144 19.403 18.5667 18.4699 18.9499 17.5C19.1628 16.9705 19.498 15.9797 20.11 15.6599C20.6635 14.6271 21.217 13.5944 21.7811 12.5669C22.8561 10.6114 24.0694 8.75035 25.5489 7.06228C26.9698 5.44236 28.545 3.9902 30.3225 2.75822C31.456 1.97186 32.6588 1.30606 33.904 0.703182C34.0637 0.629787 34.2021 0.519696 34.4043 0.388635C33.9253 0.173694 33.5475 0.257573 33.159 0.425332Z" fill="#ED2C4F"/>
</svg>
