<svg width="42" height="45" viewBox="0 0 42 45" fill="none" xmlns="http://www.w3.org/2000/svg">
<path d="M40.7257 0.438973C40.0613 0.725735 39.3806 0.985443 38.7107 1.25056C38.6127 1.28844 38.4983 1.29926 38.3894 1.3209C38.3785 1.29385 38.3622 1.26679 38.3513 1.24515C38.8142 0.898873 39.2825 0.558006 39.7454 0.211728C39.7291 0.184675 39.7182 0.157622 39.7019 0.13598C39.0211 0.292887 38.324 0.395689 37.6705 0.677039C37.6596 0.644576 37.6433 0.612112 37.6324 0.585059C37.8121 0.428152 37.9864 0.271245 38.1661 0.119748C38.1607 0.114338 38.1552 0.103517 38.1498 0.098106C37.7359 0.31453 37.322 0.536364 36.9027 0.752787C36.8918 0.736556 36.8863 0.720324 36.8754 0.704092C37.2621 0.471437 37.6488 0.238781 38.0354 0.00612594C37.5072 -0.0317482 37.0279 0.108927 36.5541 0.346993C35.0129 1.12071 33.5425 2.00804 32.1974 3.09557C30.8142 4.21557 29.5888 5.49247 28.4343 6.8397C25.8693 9.83176 23.5384 12.9861 21.8502 16.5679C21.8066 16.6653 21.7467 16.7194 21.665 16.7465C21.2076 18.0396 20.9081 19.4139 20.162 20.5501C19.9659 21.0912 19.759 21.6323 19.5629 22.1787C18.6698 24.7109 17.891 27.2809 17.2157 29.8834C17.2103 29.8996 17.1994 29.9159 17.1722 29.9808C17.0796 29.8455 16.9979 29.7427 16.9326 29.6237C16.3172 28.5632 15.7127 27.4919 15.0973 26.4315C14.1769 24.857 13.2566 23.2825 12.3308 21.7134C11.9278 21.0317 11.247 20.6746 10.5935 20.8153C10.3049 20.8748 10.0108 20.9668 9.75487 21.1074C9.5806 21.2048 9.41722 21.3996 9.34643 21.5836C9.25385 21.8379 9.12859 21.8974 8.88897 21.8595C8.77461 21.8379 8.6548 21.8541 8.48597 21.8541C8.56766 22.0813 8.6439 22.2869 8.70381 22.4925C8.76371 22.6927 8.80184 22.8983 8.8454 23.0985C8.81273 23.1148 8.7855 23.131 8.75282 23.1472C8.42062 22.7955 8.08298 22.4493 7.75078 22.0976C7.71266 22.1192 7.67453 22.1409 7.63641 22.1571C7.77256 22.5683 7.86514 23.0065 8.05575 23.3907C8.66569 24.6081 9.30286 25.8146 9.95637 27.0104C11.3723 29.6075 12.9734 32.1072 14.1987 34.807C14.5527 35.5808 14.7978 36.4086 15.0592 37.2202C15.1626 37.5502 15.3315 37.7666 15.6419 37.9073C17.2484 38.6323 19.4703 37.864 20.2055 36.2733C20.4452 35.7539 20.5214 35.1696 20.6848 34.6177C21.5561 31.6797 22.373 28.7255 23.3206 25.8146C23.8434 24.2131 24.4969 22.6494 25.1177 21.075C25.3301 20.0253 25.793 19.0622 26.1851 18.0613C26.403 17.5148 26.7461 16.4922 27.3723 16.1621C27.9387 15.0963 28.5051 14.0304 29.0824 12.9699C30.1824 10.9518 31.4241 9.03099 32.9381 7.28878C34.3921 5.61691 36.0041 4.11818 37.823 2.84669C38.983 2.0351 40.2138 1.34795 41.4881 0.725735C41.6515 0.649986 41.7931 0.536364 42 0.401099C41.5099 0.179265 41.1232 0.265834 40.7257 0.438973Z" fill="#ED2C4F"/>
<rect x="2" y="12.6909" width="29.6" height="29.6" rx="6" stroke="#ED2C4F" stroke-width="4"/>
</svg>
