<svg width="42" height="43" viewBox="0 0 42 43" fill="none" xmlns="http://www.w3.org/2000/svg">
<path d="M41.1508 21.2996C41.1508 32.6605 32.0952 41.8492 20.9504 41.8492C9.80567 41.8492 0.75 32.6605 0.75 21.2996C0.75 9.93863 9.80567 0.75 20.9504 0.75C32.0952 0.75 41.1508 9.93863 41.1508 21.2996Z" stroke="black" stroke-width="1.5"/>
<path d="M28.8299 23.9712C28.4706 23.9712 28.1795 24.2672 28.1795 24.6324V28.5998C28.1795 28.965 27.8883 29.261 27.5291 29.261H14.5214C14.1622 29.261 13.871 28.965 13.871 28.5998V24.6324C13.871 24.2672 13.5799 23.9712 13.2206 23.9712C12.8614 23.9712 12.5703 24.2672 12.5703 24.6324V28.5998C12.5703 29.6953 13.4438 30.5834 14.5214 30.5834H27.5291C28.6067 30.5834 29.4802 29.6953 29.4802 28.5998V24.6324C29.4802 24.2672 29.1891 23.9712 28.8299 23.9712Z" fill="black"/>
<path d="M24.7223 23.5041C24.4703 23.2567 24.0707 23.2567 23.8187 23.5041L21.6757 25.6815V12.7308C21.6757 12.3656 21.3845 12.0696 21.0253 12.0696C20.666 12.0696 20.3749 12.3656 20.3749 12.7308V25.6815L18.2331 23.5041C17.9748 23.2504 17.563 23.2577 17.3135 23.5204C17.0701 23.7766 17.0701 24.1828 17.3135 24.4391L20.5654 27.7452C20.8191 28.0037 21.2309 28.0043 21.4852 27.7464C21.4856 27.746 21.486 27.7456 21.4864 27.7452L24.7383 24.4391C24.9879 24.1764 24.9807 23.7578 24.7223 23.5041Z" fill="black"/>
</svg>
