<svg width="42" height="43" viewBox="0 0 42 43" fill="none" xmlns="http://www.w3.org/2000/svg">
<path d="M41.1508 21.2996C41.1508 32.6605 32.0952 41.8492 20.9504 41.8492C9.80567 41.8492 0.75 32.6605 0.75 21.2996C0.75 9.93863 9.80567 0.75 20.9504 0.75C32.0952 0.75 41.1508 9.93863 41.1508 21.2996Z" stroke="black" stroke-width="1.5"/>
<path d="M26.2426 27.9006C25.9866 27.9006 25.7788 28.1119 25.7788 28.3721C25.7788 28.6324 25.9866 28.8436 26.2426 28.8436C26.4985 28.8436 26.7063 28.6324 26.7063 28.3721C26.7063 28.1119 26.4985 27.9006 26.2426 27.9006Z" fill="black"/>
<path d="M27.3844 26.3758L25.1802 25.629L24.3889 24.02C25.1018 23.2823 25.5968 22.3063 25.7637 21.2882L25.8624 20.6868H26.7063C27.4735 20.6868 28.0976 20.0523 28.0976 19.2724V16.3021C28.0976 12.4025 24.977 9.22998 21.1414 9.22998C17.2959 9.22998 14.1852 12.3934 14.1852 16.3021V19.2724C14.1852 19.887 14.5729 20.4111 15.1127 20.6057V21.1583C15.1127 21.9382 15.7368 22.5727 16.5039 22.5727H16.9112C17.1122 23.0167 17.3724 23.4279 17.6891 23.7973C17.7547 23.8741 17.8232 23.9485 17.8934 24.0209L17.1025 25.629L14.8983 26.3758C12.3354 27.2447 10.4752 29.9877 10.4752 32.898C10.4752 33.1584 10.6828 33.3695 10.939 33.3695H31.3438C31.5999 33.3695 31.8075 33.1584 31.8075 32.898C31.8075 29.9877 29.9474 27.2447 27.3844 26.3758ZM27.1701 19.2724C27.1701 19.5324 26.962 19.7439 26.7063 19.7439H25.9986C26.1164 18.8155 26.195 17.8277 26.2266 16.8547C26.2275 16.8272 26.2283 16.8006 26.2291 16.7736H27.1701V19.2724ZM15.5764 19.7439C15.3207 19.7439 15.1127 19.5324 15.1127 19.2724V16.7736H16.054C16.0555 16.8228 16.0571 16.8722 16.059 16.9219C16.059 16.9236 16.0591 16.9253 16.0591 16.927C16.0591 16.9271 16.0591 16.9272 16.0591 16.9274C16.0916 17.8737 16.1691 18.836 16.2843 19.7438H15.5764V19.7439ZM16.5039 21.6298C16.2482 21.6298 16.0402 21.4183 16.0402 21.1583V20.6868H16.4204L16.519 21.2884C16.5379 21.4027 16.561 21.5166 16.5878 21.6298H16.5039ZM16.041 15.8306H15.1303C15.3652 12.6708 17.959 10.1729 21.1414 10.1729C24.3096 10.1729 26.9148 12.6704 27.1524 15.8306H26.2418C26.2085 13.2268 24.1229 11.1159 21.5565 11.1159H20.7264C18.16 11.1159 16.0743 13.2268 16.041 15.8306ZM20.7263 12.0588H21.5564C23.6344 12.0588 25.3163 13.7868 25.3151 15.8971C25.3151 16.0455 25.3139 16.1747 25.3115 16.2922C25.3115 16.2937 25.3114 16.2953 25.3114 16.2968L24.7314 16.2126C23.1556 15.9838 21.6677 15.2275 20.5418 14.0828C20.4548 13.9944 20.3369 13.9447 20.2139 13.9447C18.9685 13.9447 17.7763 14.5216 16.9882 15.4963C17.1824 13.5765 18.7787 12.0588 20.7263 12.0588ZM17.5492 21.6298C17.3171 20.8446 17.0514 18.5344 16.9927 17.054L17.6169 16.2079C18.1901 15.4311 19.0819 14.9484 20.0306 14.893C21.2789 16.1007 22.8937 16.8983 24.6002 17.146L25.283 17.2452C25.2373 18.2299 25.1441 19.218 25.0105 20.1268C25.0104 20.127 25.0104 20.1274 25.0103 20.1277C24.9678 20.4199 24.9344 20.6079 24.8488 21.1331C24.6032 22.6307 23.5041 23.985 22.0531 24.3539C21.4559 24.5054 20.8268 24.5054 20.2299 24.3539C19.3239 24.1236 18.4932 23.4863 17.957 22.5727H18.9024C19.0938 23.1215 19.6093 23.5157 20.2139 23.5157H21.1414C21.91 23.5157 22.5326 22.8828 22.5326 22.1013C22.5326 21.3213 21.9085 20.6868 21.1414 20.6868H20.2139C19.5959 20.6868 19.088 21.0927 18.9016 21.6298H17.5492ZM20.1749 25.308C20.493 25.3762 20.8173 25.411 21.1414 25.411C21.3951 25.411 21.6489 25.3894 21.8997 25.3475L21.0803 26.2286L20.1749 25.308ZM20.4427 26.914L18.9718 28.4954C18.5669 27.7074 18.2189 26.8873 17.9336 26.0477L18.4859 24.9245L20.4427 26.914ZM23.7182 24.7648L24.3491 26.0476C24.0633 26.8887 23.7152 27.7091 23.3107 28.4962L21.7364 26.8956L23.7182 24.7648ZM19.7501 22.1013C19.7501 21.841 19.9578 21.6298 20.2139 21.6298H21.1414C21.3971 21.6298 21.6051 21.8413 21.6051 22.1013C21.6051 22.3616 21.3974 22.5727 21.1414 22.5727H20.2139C19.9582 22.5727 19.7501 22.3612 19.7501 22.1013ZM11.4213 32.4266C11.605 30.0909 13.134 27.968 15.1916 27.2704L17.1437 26.609C17.5013 27.6144 17.9444 28.5916 18.4637 29.5199C18.4645 29.5215 18.4654 29.5231 18.4663 29.5246C18.4663 29.5247 18.4663 29.5247 18.4663 29.5247C18.8457 30.2031 19.2727 30.8661 19.7357 31.4954L20.3062 32.4266H11.4213ZM21.1414 32.0063L20.5124 30.9797C20.5054 30.9682 20.4979 30.9571 20.4899 30.9462C20.1144 30.4369 19.7641 29.9043 19.445 29.3591L21.0989 27.581L22.8415 29.3527C22.5203 29.9019 22.1688 30.4367 21.7929 30.9461C21.7702 30.9769 21.8025 30.9284 21.1414 32.0063ZM21.9766 32.4266L22.547 31.4955C23.012 30.8637 23.4421 30.1954 23.8253 29.5091C23.8276 29.5049 23.8298 29.5007 23.8321 29.4965C23.8324 29.496 23.8327 29.4955 23.833 29.495C24.3456 28.5756 24.7841 27.6069 25.1391 26.609L27.0911 27.2704C29.1488 27.968 30.6777 30.0909 30.8615 32.4266H21.9766Z" fill="black"/>
<path d="M29.4678 30.518C29.1579 29.8873 28.7039 29.327 28.155 28.8977C27.952 28.7388 27.6608 28.7774 27.5047 28.9838C27.3485 29.1903 27.3865 29.4862 27.5894 29.645C28.0279 29.9879 28.3904 30.4355 28.638 30.9394C28.7527 31.1727 29.0314 31.2666 29.2601 31.1505C29.4892 31.0341 29.5822 30.7509 29.4678 30.518Z" fill="black"/>
</svg>
