<svg width="42" height="43" viewBox="0 0 42 43" fill="none" xmlns="http://www.w3.org/2000/svg">
<path d="M41.1508 21.2996C41.1508 32.6605 32.0952 41.8492 20.9504 41.8492C9.80567 41.8492 0.75 32.6605 0.75 21.2996C0.75 9.93863 9.80567 0.75 20.9504 0.75C32.0952 0.75 41.1508 9.93863 41.1508 21.2996Z" stroke="black" stroke-width="1.5"/>
<path d="M15.6 25.3999C14.2764 25.3999 13.2 26.4763 13.2 27.7999C13.2 29.1235 14.2764 30.1999 15.6 30.1999C16.9236 30.1999 18 29.1235 18 27.7999C18 26.4763 16.9236 25.3999 15.6 25.3999ZM15.6 29.3999C14.7176 29.3999 14 28.6823 14 27.7999C14 26.9175 14.7176 26.1999 15.6 26.1999C16.4824 26.1999 17.2 26.9175 17.2 27.7999C17.2 28.6823 16.4824 29.3999 15.6 29.3999Z" fill="black"/>
<path d="M29.2 25.3999C27.8764 25.3999 26.8 26.4763 26.8 27.7999C26.8 29.1235 27.8764 30.1999 29.2 30.1999C30.5236 30.1999 31.6 29.1235 31.6 27.7999C31.6 26.4763 30.5236 25.3999 29.2 25.3999ZM29.2 29.3999C28.3176 29.3999 27.6 28.6823 27.6 27.7999C27.6 26.9175 28.3176 26.1999 29.2 26.1999C30.0824 26.1999 30.8 26.9175 30.8 27.7999C30.8 28.6823 30.0824 29.3999 29.2 29.3999Z" fill="black"/>
<path d="M33.9365 23.1835L30.3365 17.5835C30.2629 17.4691 30.1361 17.3999 30 17.3999H25.6001C25.3789 17.3999 25.2001 17.5791 25.2001 17.7999V27.7999C25.2001 28.0211 25.3789 28.1999 25.6001 28.1999H27.2V27.3999H26V18.1999H29.7816L33.2001 23.5175V27.4H31.2V28.1999H33.6C33.8212 28.1999 34 28.0211 34 27.7999V23.3999C34.0001 23.3235 33.9781 23.2479 33.9365 23.1835Z" fill="black"/>
<path d="M27.6 22.6V19.8H30.8V19H27.2C26.9788 19 26.8 19.1792 26.8 19.4V23C26.8 23.2212 26.9788 23.4 27.2 23.4H33.2V22.6H27.6V22.6Z" fill="black"/>
<path d="M25.6 14.6001H10.4C10.1792 14.6001 10 14.7793 10 15.0001V27.8001C10 28.0213 10.1792 28.2001 10.4 28.2001H13.6V27.4001H10.8V15.4001H25.2V27.4001H17.6V28.2001H25.6C25.8212 28.2001 26 28.0213 26 27.8001V15.0001C26 14.7793 25.8212 14.6001 25.6 14.6001Z" fill="black"/>
<path d="M12.8 25.8H10.4V26.6001H12.8V25.8Z" fill="black"/>
<path d="M25.2001 25.8H18.4V26.6001H25.2001V25.8Z" fill="black"/>
<path d="M33.6 25.8H32V26.6001H33.6V25.8Z" fill="black"/>
<path d="M25.6 16.2H11.6V17H25.6V16.2Z" fill="black"/>
<path d="M16 27.4001H15.2V28.2002H16V27.4001Z" fill="black"/>
<path d="M29.6001 27.4001H28.8V28.2002H29.6001V27.4001Z" fill="black"/>
<path d="M17.2 13H11.6V13.8H17.2V13Z" fill="black"/>
<path d="M10.8 13H10V13.8H10.8V13Z" fill="black"/>
</svg>
