<svg width="42" height="43" viewBox="0 0 42 43" fill="none" xmlns="http://www.w3.org/2000/svg">
<path d="M41.1508 21.2996C41.1508 32.6605 32.0952 41.8492 20.9504 41.8492C9.80567 41.8492 0.75 32.6605 0.75 21.2996C0.75 9.93863 9.80567 0.75 20.9504 0.75C32.0952 0.75 41.1508 9.93863 41.1508 21.2996Z" stroke="black" stroke-width="1.5"/>
<path d="M31.0066 9.93994H14.6187C14.3224 9.93994 14.0382 10.0596 13.8286 10.2727C13.6191 10.4857 13.5014 10.7746 13.5014 11.0759V21.2997H10.8942C10.5979 21.2997 10.3137 21.4194 10.1041 21.6324C9.89458 21.8455 9.77686 22.1344 9.77686 22.4357V31.5235C9.77686 31.8248 9.89458 32.1137 10.1041 32.3268C10.3137 32.5398 10.5979 32.6595 10.8942 32.6595H26.5372C26.8335 32.6595 27.1177 32.5398 27.3273 32.3268C27.5368 32.1137 27.6545 31.8248 27.6545 31.5235V28.8729H31.0066C31.3029 28.8729 31.5872 28.7532 31.7967 28.5402C32.0062 28.3271 32.124 28.0382 32.124 27.7369V11.0759C32.124 10.7746 32.0062 10.4857 31.7967 10.2727C31.5872 10.0596 31.3029 9.93994 31.0066 9.93994ZM24.6749 10.6973V18.6987L23.0194 17.5767C22.9582 17.5352 22.8862 17.5131 22.8127 17.5131C22.7391 17.5131 22.6672 17.5352 22.606 17.5767L20.9504 18.6987V10.6973H24.6749ZM26.9096 31.5235C26.9096 31.6239 26.8704 31.7203 26.8005 31.7913C26.7307 31.8623 26.636 31.9022 26.5372 31.9022H10.8942C10.7954 31.9022 10.7007 31.8623 10.6308 31.7913C10.561 31.7203 10.5218 31.6239 10.5218 31.5235V22.4357C10.5218 22.3353 10.561 22.239 10.6308 22.1679C10.7007 22.0969 10.7954 22.057 10.8942 22.057H26.5372C26.636 22.057 26.7307 22.0969 26.8005 22.1679C26.8704 22.239 26.9096 22.3353 26.9096 22.4357V31.5235ZM31.3791 27.7369C31.3791 27.8374 31.3398 27.9337 31.27 28.0047C31.2001 28.0757 31.1054 28.1156 31.0066 28.1156H27.6545V22.4357C27.6545 22.1344 27.5368 21.8455 27.3273 21.6324C27.1177 21.4194 26.8335 21.2997 26.5372 21.2997H14.2463V11.0759C14.2463 10.9755 14.2855 10.8792 14.3554 10.8082C14.4252 10.7372 14.5199 10.6973 14.6187 10.6973H20.2055V19.4064C20.2055 19.475 20.2238 19.5422 20.2584 19.6011C20.2931 19.6599 20.3428 19.708 20.4022 19.7404C20.4617 19.7727 20.5287 19.788 20.596 19.7847C20.6634 19.7814 20.7286 19.7595 20.7847 19.7215L22.8127 18.3462L24.8407 19.7207C24.8967 19.7587 24.9618 19.7806 25.0291 19.7839C25.0964 19.7873 25.1633 19.772 25.2228 19.7398C25.2822 19.7075 25.3319 19.6595 25.3666 19.6008C25.4013 19.5421 25.4197 19.4749 25.4198 19.4064V10.6973H31.0066C31.1054 10.6973 31.2001 10.7372 31.27 10.8082C31.3398 10.8792 31.3791 10.9755 31.3791 11.0759V27.7369Z" fill="black"/>
<path d="M25.7923 24.3281C25.4959 24.3281 25.2117 24.2084 25.0022 23.9954C24.7926 23.7824 24.6749 23.4934 24.6749 23.1921C24.6749 23.0917 24.6357 22.9954 24.5658 22.9244C24.496 22.8534 24.4013 22.8135 24.3025 22.8135H13.1289C13.0301 22.8135 12.9354 22.8534 12.8656 22.9244C12.7957 22.9954 12.7565 23.0917 12.7565 23.1921C12.7565 23.4934 12.6387 23.7824 12.4292 23.9954C12.2197 24.2084 11.9355 24.3281 11.6391 24.3281C11.5403 24.3281 11.4456 24.368 11.3758 24.439C11.3059 24.51 11.2667 24.6063 11.2667 24.7068V29.2507C11.2667 29.3511 11.3059 29.4474 11.3758 29.5184C11.4456 29.5894 11.5403 29.6293 11.6391 29.6293C11.9355 29.6293 12.2197 29.749 12.4292 29.9621C12.6387 30.1751 12.7565 30.464 12.7565 30.7653C12.7565 30.8657 12.7957 30.9621 12.8656 31.0331C12.9354 31.1041 13.0301 31.144 13.1289 31.144H24.3025C24.4013 31.144 24.496 31.1041 24.5658 31.0331C24.6357 30.9621 24.6749 30.8657 24.6749 30.7653C24.6749 30.464 24.7926 30.1751 25.0022 29.9621C25.2117 29.749 25.4959 29.6293 25.7923 29.6293C25.8911 29.6293 25.9858 29.5894 26.0556 29.5184C26.1255 29.4474 26.1647 29.3511 26.1647 29.2507V24.7068C26.1647 24.6063 26.1255 24.51 26.0556 24.439C25.9858 24.368 25.8911 24.3281 25.7923 24.3281ZM25.4198 28.9099C25.0622 28.9847 24.734 29.1645 24.4758 29.4269C24.2177 29.6894 24.0408 30.0231 23.9673 30.3867H13.4641C13.3906 30.0231 13.2137 29.6894 12.9556 29.4269C12.6974 29.1645 12.3692 28.9847 12.0116 28.9099V25.0476C12.3692 24.9728 12.6974 24.793 12.9556 24.5305C13.2137 24.2681 13.3906 23.9344 13.4641 23.5708H23.9673C24.0408 23.9344 24.2177 24.2681 24.4758 24.5305C24.734 24.793 25.0622 24.9728 25.4198 25.0476V28.9099Z" fill="black"/>
<path d="M19.0881 29.2512V28.8029C19.3364 28.7139 19.5458 28.5385 19.6791 28.3077C19.8124 28.0769 19.861 27.8056 19.8164 27.5418C19.7718 27.2781 19.6368 27.0389 19.4354 26.8666C19.2339 26.6943 18.9789 26.6001 18.7157 26.6006C18.642 26.6006 18.57 26.5784 18.5088 26.5368C18.4475 26.4951 18.3998 26.436 18.3716 26.3668C18.3434 26.2976 18.336 26.2215 18.3504 26.148C18.3648 26.0746 18.4002 26.0071 18.4523 25.9542C18.5044 25.9012 18.5708 25.8651 18.643 25.8505C18.7153 25.8359 18.7902 25.8434 18.8582 25.8721C18.9263 25.9007 18.9844 25.9493 19.0254 26.0115C19.0663 26.0738 19.0881 26.147 19.0881 26.2219C19.0881 26.3223 19.1274 26.4187 19.1972 26.4897C19.2671 26.5607 19.3618 26.6006 19.4606 26.6006C19.5594 26.6006 19.6541 26.5607 19.7239 26.4897C19.7938 26.4187 19.833 26.3223 19.833 26.2219C19.8321 25.9878 19.76 25.7597 19.6267 25.5688C19.4933 25.378 19.3052 25.2336 19.0881 25.1556V24.7073C19.0881 24.6068 19.0489 24.5105 18.979 24.4395C18.9092 24.3685 18.8145 24.3286 18.7157 24.3286C18.6169 24.3286 18.5222 24.3685 18.4523 24.4395C18.3825 24.5105 18.3432 24.6068 18.3432 24.7073V25.1556C18.0949 25.2445 17.8856 25.4199 17.7523 25.6507C17.619 25.8815 17.5703 26.1528 17.6149 26.4166C17.6596 26.6804 17.7945 26.9196 17.996 27.0919C18.1975 27.2642 18.4524 27.3584 18.7157 27.3579C18.7893 27.3579 18.8614 27.3801 18.9226 27.4217C18.9839 27.4633 19.0316 27.5224 19.0598 27.5916C19.088 27.6608 19.0953 27.737 19.081 27.8104C19.0666 27.8839 19.0311 27.9513 18.979 28.0043C18.927 28.0573 18.8606 28.0933 18.7883 28.1079C18.7161 28.1225 18.6412 28.115 18.5732 28.0864C18.5051 28.0577 18.4469 28.0092 18.406 27.9469C18.3651 27.8846 18.3432 27.8114 18.3432 27.7365C18.3432 27.6361 18.304 27.5398 18.2341 27.4688C18.1643 27.3978 18.0696 27.3579 17.9708 27.3579C17.872 27.3579 17.7773 27.3978 17.7074 27.4688C17.6376 27.5398 17.5983 27.6361 17.5983 27.7365C17.5993 27.9707 17.6714 28.1988 17.8047 28.3896C17.938 28.5805 18.1261 28.7248 18.3432 28.8029V29.2512C18.3432 29.3516 18.3825 29.4479 18.4523 29.5189C18.5222 29.5899 18.6169 29.6298 18.7157 29.6298C18.8145 29.6298 18.9092 29.5899 18.979 29.5189C19.0489 29.4479 19.0881 29.3516 19.0881 29.2512Z" fill="black"/>
<path d="M22.0678 26.9802C22.0678 26.3062 21.8712 25.6473 21.5029 25.0869C21.1345 24.5264 20.611 24.0896 19.9985 23.8317C19.386 23.5737 18.712 23.5063 18.0618 23.6377C17.4115 23.7692 16.8142 24.0938 16.3454 24.5704C15.8767 25.047 15.5574 25.6543 15.4281 26.3153C15.2987 26.9764 15.3651 27.6616 15.6188 28.2844C15.8725 28.9071 16.3022 29.4393 16.8534 29.8138C17.4047 30.1883 18.0527 30.3881 18.7157 30.3881C19.6044 30.387 20.4564 30.0276 21.0848 29.3888C21.7132 28.7499 22.0667 27.8837 22.0678 26.9802ZM18.7157 29.6308C18.2001 29.6308 17.696 29.4754 17.2673 29.1841C16.8385 28.8929 16.5043 28.4789 16.307 27.9945C16.1097 27.5102 16.0581 26.9773 16.1586 26.4631C16.2592 25.9489 16.5076 25.4766 16.8722 25.1059C17.2368 24.7352 17.7013 24.4828 18.2071 24.3805C18.7128 24.2782 19.237 24.3307 19.7134 24.5314C20.1898 24.732 20.597 25.0717 20.8835 25.5076C21.17 25.9435 21.3229 26.456 21.3229 26.9802C21.3221 27.6829 21.0472 28.3567 20.5584 28.8536C20.0696 29.3505 19.4069 29.63 18.7157 29.6308Z" fill="black"/>
<path d="M23.93 26.5999H23.1851C23.0864 26.5999 22.9916 26.6397 22.9218 26.7108C22.8519 26.7818 22.8127 26.8781 22.8127 26.9785C22.8127 27.0789 22.8519 27.1753 22.9218 27.2463C22.9916 27.3173 23.0864 27.3572 23.1851 27.3572H23.93C24.0288 27.3572 24.1236 27.3173 24.1934 27.2463C24.2633 27.1753 24.3025 27.0789 24.3025 26.9785C24.3025 26.8781 24.2633 26.7818 24.1934 26.7108C24.1236 26.6397 24.0288 26.5999 23.93 26.5999Z" fill="black"/>
<path d="M14.2463 26.5999H13.5014C13.4026 26.5999 13.3078 26.6397 13.238 26.7108C13.1681 26.7818 13.1289 26.8781 13.1289 26.9785C13.1289 27.0789 13.1681 27.1753 13.238 27.2463C13.3078 27.3173 13.4026 27.3572 13.5014 27.3572H14.2463C14.345 27.3572 14.4398 27.3173 14.5096 27.2463C14.5795 27.1753 14.6187 27.0789 14.6187 26.9785C14.6187 26.8781 14.5795 26.7818 14.5096 26.7108C14.4398 26.6397 14.345 26.5999 14.2463 26.5999Z" fill="black"/>
</svg>
