<svg width="173" height="72" viewBox="0 0 173 72" xmlns="http://www.w3.org/2000/svg"><title>1</title><g fill="#F8B5B5" fill-rule="evenodd"><path d="M17.883.71v41.45H8.29V8.408H0V.711h17.883zM42.87 42.87c-3.435 0-6.494-.848-9.178-2.545-2.685-1.698-4.787-4.155-6.307-7.373-1.52-3.217-2.28-7.056-2.28-11.517 0-4.46.76-8.3 2.28-11.517 1.52-3.217 3.622-5.674 6.307-7.372C36.377.85 39.436 0 42.87 0c3.434 0 6.494.849 9.178 2.546 2.684 1.698 4.786 4.155 6.306 7.372 1.52 3.218 2.28 7.057 2.28 11.517 0 4.461-.76 8.3-2.28 11.517-1.52 3.218-3.622 5.675-6.306 7.373-2.684 1.697-5.744 2.546-9.178 2.546zm0-8.112c2.526 0 4.51-1.085 5.95-3.256 1.442-2.171 2.162-5.527 2.162-10.067s-.72-7.895-2.161-10.066c-1.441-2.171-3.425-3.257-5.951-3.257-2.487 0-4.451 1.086-5.892 3.257-1.44 2.171-2.161 5.527-2.161 10.066 0 4.54.72 7.896 2.161 10.067 1.44 2.17 3.405 3.256 5.892 3.256zM97.762.711v6.217L82.366 42.16H71.945L86.807 8.527H73.07v6.75h-8.527V.711h33.219zm32.627 19.659c2.053 1.026 3.622 2.368 4.707 4.026 1.086 1.658 1.629 3.573 1.629 5.744 0 2.566-.73 4.806-2.191 6.72-1.46 1.915-3.514 3.396-6.158 4.442-2.645 1.046-5.705 1.569-9.179 1.569s-6.523-.523-9.148-1.57c-2.625-1.045-4.658-2.526-6.1-4.44-1.44-1.915-2.16-4.155-2.16-6.721 0-2.171.542-4.086 1.628-5.744 1.085-1.658 2.635-3 4.648-4.026-1.54-.948-2.724-2.142-3.553-3.583-.829-1.44-1.243-3.089-1.243-4.944 0-2.408.67-4.5 2.013-6.277 1.342-1.776 3.217-3.148 5.625-4.115C113.315.484 116.08 0 119.197 0c3.158 0 5.951.484 8.38 1.45 2.427.968 4.312 2.34 5.654 4.116 1.342 1.777 2.013 3.869 2.013 6.277 0 1.855-.414 3.503-1.243 4.944-.83 1.441-2.033 2.635-3.612 3.583zM119.197 7.046c-1.934 0-3.483.464-4.648 1.392-1.164.928-1.747 2.2-1.747 3.82 0 1.578.573 2.822 1.717 3.73 1.145.908 2.705 1.362 4.678 1.362 1.974 0 3.553-.454 4.737-1.362 1.185-.908 1.777-2.152 1.777-3.73 0-1.62-.592-2.892-1.777-3.82-1.184-.928-2.763-1.392-4.737-1.392zm0 28.778c2.408 0 4.313-.542 5.714-1.628 1.402-1.086 2.103-2.536 2.103-4.352 0-1.816-.701-3.257-2.103-4.323-1.4-1.066-3.306-1.599-5.714-1.599-2.368 0-4.243.533-5.625 1.6-1.382 1.065-2.072 2.506-2.072 4.322 0 1.855.69 3.316 2.072 4.382 1.382 1.065 3.257 1.598 5.625 1.598zm41.272-18.238c3.632.593 6.415 1.945 8.35 4.057 1.934 2.112 2.901 4.727 2.901 7.845 0 2.409-.632 4.629-1.895 6.662-1.263 2.033-3.188 3.661-5.773 4.885-2.586 1.224-5.754 1.836-9.504 1.836a32.6 32.6 0 0 1-8.616-1.155c-2.822-.77-5.22-1.865-7.194-3.286l3.73-7.343c1.58 1.185 3.405 2.102 5.478 2.754 2.072.651 4.194.977 6.365.977 2.408 0 4.303-.464 5.685-1.392 1.381-.928 2.072-2.24 2.072-3.938 0-3.394-2.585-5.092-7.757-5.092h-4.382V18.06l8.527-9.652H140.81V.711h29.015v6.217l-9.356 10.658zM10.992 64.256H9.168V68H8.032v-3.744H6.208L3.632 68h-1.36l3.024-4.336-2.784-4.08h1.232l2.464 3.696h1.824v-3.696h1.136v3.696h1.824l2.48-3.696h1.232L11.92 63.68 14.944 68h-1.36l-2.592-3.744zm13.2-.112h-7.04c.064.875.4 1.581 1.008 2.12.608.539 1.376.808 2.304.808a3.63 3.63 0 0 0 1.44-.28 3.146 3.146 0 0 0 1.136-.824l.64.736c-.373.448-.84.79-1.4 1.024a4.735 4.735 0 0 1-1.848.352c-.864 0-1.63-.184-2.296-.552A3.98 3.98 0 0 1 16.576 66c-.373-.65-.56-1.387-.56-2.208 0-.821.179-1.557.536-2.208a3.881 3.881 0 0 1 1.472-1.52c.624-.363 1.325-.544 2.104-.544.779 0 1.477.181 2.096.544a3.856 3.856 0 0 1 1.456 1.512c.352.645.528 1.384.528 2.216l-.016.352zm-4.064-3.648c-.81 0-1.49.259-2.04.776s-.861 1.192-.936 2.024h5.968c-.075-.832-.387-1.507-.936-2.024-.55-.517-1.235-.776-2.056-.776zm6.592-.912h1.136v3.728h5.296v-3.728h1.136V68h-1.136v-3.712h-5.296V68H26.72v-8.416zm22.416 0V68H37.52v-8.416h1.136v7.424h4.128v-7.424h1.136v7.424H48v-7.424h1.136zm1.296 7.424v2.832H49.36V68h-1.424v-.992h2.496zm1.952-7.424h1.136v6.688l5.616-6.688h1.008V68h-1.136v-6.688L53.408 68h-1.024v-8.416zm11.008 0h1.136v3.728h5.296v-3.728h1.136V68h-1.136v-3.712h-5.296V68h-1.136v-8.416zm22.144 0l-4.208 9.424c-.341.79-.736 1.35-1.184 1.68-.448.33-.987.496-1.616.496-.405 0-.784-.064-1.136-.192a2.462 2.462 0 0 1-.912-.576l.528-.848c.427.427.939.64 1.536.64.384 0 .712-.107.984-.32.272-.213.525-.576.76-1.088l.368-.816-3.76-8.4h1.184l3.168 7.152 3.168-7.152h1.12zm9.152 4.672h-1.824V68h-1.136v-3.744h-1.824L87.328 68h-1.36l3.024-4.336-2.784-4.08h1.232l2.464 3.696h1.824v-3.696h1.136v3.696h1.824l2.48-3.696H98.4l-2.784 4.096L98.64 68h-1.36l-2.592-3.744zm13.2-.112h-7.04c.064.875.4 1.581 1.008 2.12.608.539 1.376.808 2.304.808a3.63 3.63 0 0 0 1.44-.28 3.146 3.146 0 0 0 1.136-.824l.64.736c-.373.448-.84.79-1.4 1.024a4.735 4.735 0 0 1-1.848.352c-.864 0-1.63-.184-2.296-.552a3.98 3.98 0 0 1-1.56-1.528c-.373-.65-.56-1.387-.56-2.208 0-.821.179-1.557.536-2.208a3.881 3.881 0 0 1 1.472-1.52c.624-.363 1.325-.544 2.104-.544.779 0 1.477.181 2.096.544a3.856 3.856 0 0 1 1.456 1.512c.352.645.528 1.384.528 2.216l-.016.352zm-4.064-3.648c-.81 0-1.49.259-2.04.776s-.861 1.192-.936 2.024h5.968c-.075-.832-.387-1.507-.936-2.024-.55-.517-1.235-.776-2.056-.776zm13.84 3.76h-1.92V68h-1.136v-8.416h1.136v3.696h1.936l2.96-3.696h1.232l-3.312 4.08L122.112 68h-1.344l-3.104-3.744zm13.392-4.672l-4.208 9.424c-.341.79-.736 1.35-1.184 1.68-.448.33-.987.496-1.616.496-.405 0-.784-.064-1.136-.192a2.462 2.462 0 0 1-.912-.576l.528-.848c.427.427.939.64 1.536.64.384 0 .712-.107.984-.32.272-.213.525-.576.76-1.088l.368-.816-3.76-8.4h1.184l3.168 7.152 3.168-7.152h1.12zm9.328 0V68h-1.136v-7.408h-5.28V68h-1.136v-8.416h7.552zm3.232 0h1.136v6.688l5.616-6.688h1.008V68h-1.136v-6.688L144.64 68h-1.024v-8.416zm17.888 0V68h-1.136v-7.408h-4.032l-.112 2.08c-.085 1.75-.288 3.093-.608 4.032-.32.939-.89 1.408-1.712 1.408-.224 0-.496-.043-.816-.128l.08-.976c.192.043.325.064.4.064.437 0 .768-.203.992-.608.224-.405.373-.907.448-1.504.075-.597.139-1.387.192-2.368l.144-3.008h6.16zm3.232 0h1.136v6.688l5.616-6.688h1.008V68h-1.136v-6.688L165.76 68h-1.024v-8.416z"/></g></svg>