<svg width="116" height="116" viewBox="0 0 116 116" xmlns="http://www.w3.org/2000/svg" xmlns:xlink="http://www.w3.org/1999/xlink"><title>np_bath_268678_000000</title><defs><linearGradient x1="98.154%" y1="50%" x2="2.63%" y2="50%" id="b"><stop stop-color="#9B766C" offset="0%"/><stop stop-color="#F4B5A9" offset="44.059%"/><stop stop-color="#A1796F" offset="100%"/></linearGradient><rect id="a" x="8" y="8" width="100" height="100" rx="50"/></defs><g fill="none" fill-rule="evenodd"><rect stroke="#F8B5B5" x=".5" y=".5" width="115" height="115" rx="57.5"/><mask id="c" fill="#fff"><use xlink:href="#a"/></mask><use fill="url(#b)" xlink:href="#a"/><g mask="url(#c)" fill="#FFE9E9" fill-rule="nonzero"><path d="M74.43 56.68c-2 .178-3.354 2.121-2.883 4.005l-.354-1.59c-.354-1.648-1.883-2.826-3.531-2.649-2 .177-3.355 2.12-2.883 4.004l-.354-1.589c-.354-1.649-1.883-2.826-3.532-2.65-2 .178-3.354 2.121-2.883 4.005l-3.177-13.658c-.412-1.767-2.177-2.884-3.943-2.473-1.766.412-2.883 2.178-2.472 3.944l5.71 24.667c.059.354-.355.589-.65.354-1.648-1.766-3.708-4.238-3.765-4.238-1.118-1.355-3.178-1.59-4.532-.472s-1.588 3.179-.471 4.533c.117.177 4.18 5.064 7.651 8.182 4.415 3.944 7.829 5.533 9.478 6.182 1.648.648 3.237.883 4.18.706.942-.235 8.122-1.884 8.122-1.884 1.412-.354 2.589-1.354 3.12-2.709l1-2.532c1.883-4.827 2.237-10.242 1.06-15.484l-1.354-5.947c-.359-1.704-1.89-2.882-3.536-2.707zM49.962 39.98c.746-.181 1.18-.902.996-1.565l-1.306-5.351c-.124-.783-.87-1.203-1.614-1.022-.746.18-1.18.902-.996 1.564l1.306 5.352c.124.721.87 1.142 1.614 1.022zM43.032 43.816c.29.164.637.217.982.164.289-.055.577-.273.808-.547a1.179 1.179 0 0 0-.404-1.64L39.91 39.17c-.577-.33-1.385-.165-1.733.382a1.179 1.179 0 0 0 .404 1.64l4.45 2.625zM44.959 49.037c-.182-.745-.907-1.179-1.572-.995l-5.378 1.305c-.725.187-1.147.932-.968 1.616.182.745.907 1.179 1.572.995l5.378-1.305a1.311 1.311 0 0 0 .968-1.616zM59.042 45.963c.182.745.906 1.179 1.572.995l5.377-1.305c.725-.187 1.147-.932.968-1.616-.182-.745-.907-1.179-1.572-.995l-5.377 1.305c-.727.127-1.15.871-.968 1.616zM56.469 40.978c.271-.059.542-.288.759-.576l2.604-4.495c.327-.577.164-1.382-.379-1.73a1.167 1.167 0 0 0-1.628.404l-2.657 4.495c-.327.576-.164 1.382.379 1.729.271.173.598.232.922.173z"/></g></g></svg>