<svg width="116" height="116" viewBox="0 0 116 116" xmlns="http://www.w3.org/2000/svg" xmlns:xlink="http://www.w3.org/1999/xlink"><title>np_bath_268678_000000</title><defs><linearGradient x1="98.154%" y1="50%" x2="2.63%" y2="50%" id="b"><stop stop-color="#9B766C" offset="0%"/><stop stop-color="#F4B5A9" offset="44.059%"/><stop stop-color="#A1796F" offset="100%"/></linearGradient><rect id="a" x="8" y="8" width="100" height="100" rx="50"/></defs><g fill="none" fill-rule="evenodd"><rect stroke="#F8B5B5" x=".5" y=".5" width="115" height="115" rx="57.5"/><mask id="c" fill="#fff"><use xlink:href="#a"/></mask><use fill="url(#b)" xlink:href="#a"/><g mask="url(#c)" fill="#FFE9E9" fill-rule="nonzero"><path d="M62.903 48.615c1.468.427 2.938 1.223 4.1 2.385a9.303 9.303 0 0 1 2.385 4.099c.306 1.224 1.468 1.957 2.754 1.898h.244c1.714-.063 2.997-1.774 2.51-3.428a15.218 15.218 0 0 0-3.856-6.609 14.876 14.876 0 0 0-6.61-3.855c-1.651-.49-3.365.796-3.427 2.51v.244c-.057 1.286.738 2.45 1.9 2.755z"/><path d="M64.204 39.588a19.103 19.103 0 0 1 9.986 5.175c2.802 2.8 4.567 6.33 5.176 9.982.242 1.339 1.46 2.314 2.802 2.252h.242c1.644-.062 2.802-1.584 2.557-3.165a24.762 24.762 0 0 0-6.76-13.027c-3.716-3.714-8.283-5.966-13.03-6.758-1.584-.305-3.107.913-3.166 2.556v.243c-.122 1.28.792 2.497 2.193 2.742zM84.94 73.488l-11.653-6.055c-1.622-.847-3.666-.424-4.806 1.029l-.481.667C74.246 73.79 80.615 77.122 86.442 79c1.14-1.94.48-4.483-1.502-5.512zM50.499 49.52c1.464-1.142 1.953-3.13 1.037-4.816l-6.104-11.62c-1.037-1.988-3.541-2.649-5.432-1.567 1.831 5.84 5.189 12.223 9.83 18.483l.669-.48z"/><path d="M63.244 72.904c-4.15-2.284-7.34-4.388-11.01-8.052-3.911-3.906-6.017-7.15-8.123-11.18l2.647-2.103C42.245 45.5 38.875 39.13 36.892 33l-5.295 3.545a5.767 5.767 0 0 0-2.587 5.17c.12 2.103.42 4.746.902 6.61 2.167 8.294 7.34 16.889 14.62 24.159 7.281 7.273 15.882 12.44 24.185 14.605 1.866.48 4.512.72 6.68.901 2.105.12 4.09-.84 5.233-2.643L84 80.119c-6.136-1.984-12.514-5.41-18.65-9.978l-2.106 2.763z"/></g></g></svg>