<svg width="116" height="116" viewBox="0 0 116 116" xmlns="http://www.w3.org/2000/svg" xmlns:xlink="http://www.w3.org/1999/xlink"><title>np_bath_268678_000000</title><defs><linearGradient x1="98.154%" y1="50%" x2="2.63%" y2="50%" id="b"><stop stop-color="#9B766C" offset="0%"/><stop stop-color="#F4B5A9" offset="44.059%"/><stop stop-color="#A1796F" offset="100%"/></linearGradient><rect id="a" x="8" y="8" width="100" height="100" rx="50"/></defs><g fill="none" fill-rule="evenodd"><rect stroke="#F8B5B5" x=".5" y=".5" width="115" height="115" rx="57.5"/><mask id="c" fill="#fff"><use xlink:href="#a"/></mask><use fill="url(#b)" xlink:href="#a"/><g mask="url(#c)" fill="#FFE9E9" fill-rule="nonzero"><path d="M30.617 59.078c-2.233 1.177-2.141 2.9.2 3.83l6.94 2.755c2.344.934 5.891.426 7.88-1.13l30.14-23.848c1.982-1.563 2.195-1.331.473.516L52.424 66.785c-1.726 1.843-1.217 4.106 1.136 5.017l.814.317a628.96 628.96 0 0 1 8.522 3.399l7.698 3.144c2.34.953 4.838-.17 5.501-2.612l11.731-43.263c.662-2.441-.624-3.477-2.858-2.303l-54.35 28.594zM50.352 86.984c-.141.405 4.939-6.983 4.939-6.983 1.436-2.083.62-4.569-1.805-5.511l-5.54-2.154c-2.426-.942-3.59.164-2.585 2.466-.004.002 5.138 11.765 4.991 12.182z"/></g></g></svg>