<svg width="116" height="116" viewBox="0 0 116 116" xmlns="http://www.w3.org/2000/svg" xmlns:xlink="http://www.w3.org/1999/xlink"><title>np_bath_268678_000000</title><defs><linearGradient x1="98.154%" y1="50%" x2="2.63%" y2="50%" id="b"><stop stop-color="#9B766C" offset="0%"/><stop stop-color="#F4B5A9" offset="44.059%"/><stop stop-color="#A1796F" offset="100%"/></linearGradient><rect id="a" x="8" y="8" width="100" height="100" rx="50"/></defs><g fill="none" fill-rule="evenodd"><rect stroke="#F8B5B5" x=".5" y=".5" width="115" height="115" rx="57.5"/><mask id="c" fill="#fff"><use xlink:href="#a"/></mask><use fill="url(#b)" xlink:href="#a"/><g mask="url(#c)" fill="#FFE9E9" fill-rule="nonzero"><path d="M44.263 78.699C37.819 75.917 30 76.737 30 76.737V59.411s4.816-.697 8.633-1.897c5.192-1.646 8.445-3.098 14.764-2.278 8.569 1.139 13.072 1.013 13.072 5.06 0 3.161-14.387 1.58-16.015 4.3-1.752 2.91 4.692 6.892 15.703 6.64 10.697-.252 18.83-7.272 19.828-1.516C86.547 73.134 70.848 83 62.34 83c-8.193-.064-11.633-1.455-18.076-4.3v-.001zM84 53.001a6 6 0 1 1-12-.003 6 6 0 0 1 12 .003M71 45a5 5 0 1 1-10.002-.002A5 5 0 0 1 71 45M79 37.5c0 4.667-7 4.667-7 0s7-4.667 7 0"/></g></g></svg>