<svg width="116" height="116" viewBox="0 0 116 116" xmlns="http://www.w3.org/2000/svg" xmlns:xlink="http://www.w3.org/1999/xlink"><title>np_bath_268678_000000</title><defs><linearGradient x1="98.154%" y1="50%" x2="2.63%" y2="50%" id="b"><stop stop-color="#9B766C" offset="0%"/><stop stop-color="#F4B5A9" offset="44.059%"/><stop stop-color="#A1796F" offset="100%"/></linearGradient><rect id="a" x="8" y="8" width="100" height="100" rx="50"/></defs><g fill="none" fill-rule="evenodd"><rect stroke="#F8B5B5" x=".5" y=".5" width="115" height="115" rx="57.5"/><mask id="c" fill="#fff"><use xlink:href="#a"/></mask><use fill="url(#b)" xlink:href="#a"/><g mask="url(#c)" fill="#FFE9E9" fill-rule="nonzero"><path d="M83.52 51.59H39.458c0-18.026-1.133-18.6 4.916-12.464-1.323 1.92-1.134 1.725.19 7.096.188 1.341.944 1.341 2.08.383 10.402-9.972 9.456-8.629 1.512-9.972-1.134-.192-1.323-.192-2.08.766-1.513-1.341-2.27-2.302-3.783-3.643-2.837-2.11-5.863.574-5.674 3.451 0 4.985 0 9.398.189 14.383-3.215 0-6.052.766-6.808 4.41h59c-.567-2.494-2.837-4.41-5.483-4.41h.003zM32 57v3.438C32 67.888 38.043 74 45.406 74h27.188C79.957 74 86 67.887 86 60.438V57H32zm5.067 16c-4.09 0-4.09 6 0 6 3.91 0 3.91-6 0-6zm44.866 0c-3.91 0-3.91 6 0 6 4.09 0 4.09-6 0-6zm-27.27-31.313c-2.245-1.41 1.996-.313 1.247.313-.25 0-.748 0-1.247-.313zm.964 1.082c-2.21-1.474 2.21-.492 1.228.163-.245.164-.737 0-1.228-.163zm1.774 1.878c-1.307-1.328 1.044-.295.522.295 0 .148-.261 0-.522-.295zm2.262 2.052c-2.245-1.355 1.996-.452 1.247.301-.25 0-.748 0-1.247-.301zm-1.036.988c-2.21-1.41 2.21-.313 1.228.313-.245 0-.737 0-1.228-.313zm-1.964-2.065c-2.245-1.262 1.996-.315 1.247.316-.25.158-.748 0-1.247-.316zM54.4 43.77c-1.307-1.474 1.044-.492.522.163 0 .164-.261 0-.522-.163zm-.774-1.122c-2.21-1.328 2.21-.295 1.228.295-.245.148-.737 0-1.228-.295zm3.774 6c-1.307-1.328 1.044-.295.522.295-.13.148-.392 0-.522-.295zm-1.774-1.878c-2.21-1.474 2.21-.492 1.228.163-.245.164-.737 0-1.228-.163zm-1.898-1.082c-2.383-1.41 1.904-.313 1.19.313-.238 0-.714 0-1.19-.313zM52.4 43.622c-1.307-1.262 1.044-.315.522.316 0 .158-.392 0-.522-.316zm-1.774 1.147c-2.21-1.474 2.21-.492 1.228.163-.245.164-.737 0-1.228-.163zm1.774 1.878c-1.307-1.328 1.044-.295.522.295-.13.148-.392 0-.522-.295zm2 1.092c-1.307-1.417 1.044-.472.522.158 0 .157-.261.157-.522-.158zm2.262 1.883c-2.245-1.262 1.996-.315 1.247.316-.25.158-.748 0-1.247-.316zm-3 .065c-2.245-1.41 1.996-.313 1.247.313-.25 0-.748 0-1.247-.313zM51.4 47.622c-1.307-1.262 1.044-.315.522.316 0 .158-.261 0-.522-.316zm-2-1.853c-1.307-1.474 1.044-.492.522.163-.13.164-.392 0-.522-.163zm1.262 3c-2.245-1.474 1.996-.492 1.247.163-.25.164-.748 0-1.247-.163zM48.4 46.687c-1.307-1.41 1.044-.313.522.313 0 0-.261 0-.522-.313z"/></g></g></svg>