<svg width="116" height="116" viewBox="0 0 116 116" xmlns="http://www.w3.org/2000/svg" xmlns:xlink="http://www.w3.org/1999/xlink"><title>np_bath_268678_000000</title><defs><linearGradient x1="98.154%" y1="50%" x2="2.63%" y2="50%" id="b"><stop stop-color="#9B766C" offset="0%"/><stop stop-color="#F4B5A9" offset="44.059%"/><stop stop-color="#A1796F" offset="100%"/></linearGradient><rect id="a" x="8" y="8" width="100" height="100" rx="50"/></defs><g fill="none" fill-rule="evenodd"><rect stroke="#F8B5B5" x=".5" y=".5" width="115" height="115" rx="57.5"/><mask id="c" fill="#fff"><use xlink:href="#a"/></mask><use fill="url(#b)" xlink:href="#a"/><g mask="url(#c)" fill="#FFE9E9" fill-rule="nonzero"><path d="M75.734 70.586c.74-.272 1.266-.94 1.266-1.726 0-1.026-.894-1.86-2-1.86-1.103 0-2 .832-2 1.86 0 .786.526 1.454 1.266 1.726-.402.232-.683.627-.683 1.099 0 .728.634 1.315 1.414 1.315.784 0 1.415-.59 1.415-1.315.005-.472-.276-.867-.678-1.1zM42.734 70.586c.74-.272 1.266-.94 1.266-1.726 0-1.026-.894-1.86-2-1.86-1.103 0-2 .832-2 1.86 0 .786.526 1.454 1.266 1.726-.402.232-.683.627-.683 1.099 0 .728.634 1.315 1.414 1.315.784 0 1.415-.59 1.415-1.315.005-.472-.276-.867-.678-1.1z"/><path d="M79 58.5C79 69.822 69.824 79 58.501 79 47.176 79 38 69.822 38 58.5S47.176 38 58.501 38C69.823 38 79 47.178 79 58.5M52.558 83.026c0-.705.128-1.376.31-2.026A6.217 6.217 0 0 0 49 86.77c0 3.44 2.766 6.23 6.177 6.23 1.968 0 3.691-.948 4.823-2.393-4.12-.05-7.442-3.42-7.442-7.581z"/><path d="M65.164 81c.178.646.306 1.311.306 2.017 0 4.172-3.339 7.554-7.47 7.589C59.133 92.051 60.856 93 62.82 93c3.413 0 6.18-2.791 6.18-6.233A6.233 6.233 0 0 0 65.164 81zM59 37.102c3.176 0 6.185.69 8.9 1.898.06-.409.1-.82.1-1.245C68 32.92 63.97 29 59 29s-9 3.92-9 8.755c0 .425.04.836.1 1.245a21.833 21.833 0 0 1 8.9-1.898z"/></g></g></svg>