<svg width="116" height="116" viewBox="0 0 116 116" xmlns="http://www.w3.org/2000/svg" xmlns:xlink="http://www.w3.org/1999/xlink"><title>np_bath_268678_000000</title><defs><linearGradient x1="98.154%" y1="50%" x2="2.63%" y2="50%" id="b"><stop stop-color="#9B766C" offset="0%"/><stop stop-color="#F4B5A9" offset="44.059%"/><stop stop-color="#A1796F" offset="100%"/></linearGradient><rect id="a" x="8" y="8" width="100" height="100" rx="50"/></defs><g fill="none" fill-rule="evenodd"><rect stroke="#F8B5B5" x=".5" y=".5" width="115" height="115" rx="57.5"/><mask id="c" fill="#fff"><use xlink:href="#a"/></mask><use fill="url(#b)" xlink:href="#a"/><g mask="url(#c)" fill="#FFE9E9" fill-rule="nonzero"><path d="M79 37c-10 .272-18.611 8.143-20 17.915h.278c.278.272.835.544 1.11 1.085 3.612-2.985 7.778-4.342 11.945-4.614C76.501 47.856 79 42.699 79 37zM28 57.423c7.44 7.05 19.011 7.32 27 1.355-.276-.543-.276-1.084-.276-1.627-4.683-.543-8.54-2.44-11.847-5.151-5.235 0-10.745 1.627-14.877 5.423z"/><path d="M37 37c.272 10.137 8.143 18.631 17.915 20v-.274c.272-.275.544-.823 1.085-1.095-2.985-3.562-4.342-7.67-4.614-12.056C47.856 39.74 42.699 37.275 37 37zM58.32 28c-6.76 7.44-7.031 19.011-1.08 27 .541-.276.812-.276 1.351-.276.813-4.683 2.435-8.54 5.409-11.847 0-5.235-1.622-10.745-5.68-14.877zM88 58.32c-7.44-6.76-19.011-7.031-27-1.08.276.541.276.812.276 1.351 4.683.813 8.54 2.435 11.847 5.409 5.235 0 10.745-1.622 14.877-5.68z"/><path d="M78.998 79c-.276-10-7.985-18.611-17.897-20v.278c-.276.278-.552.835-1.101 1.11 2.753 3.612 4.405 7.778 4.68 11.945C68.26 76.501 73.493 79 79 79h-.002zM57.423 88c7.05-7.44 7.32-19.011 1.355-27-.543.276-1.084.276-1.627.276-.543 4.683-2.44 8.54-5.151 11.847 0 5.235 1.627 10.745 5.423 14.877z"/><path d="M37 78.998c10.137-.276 18.631-7.985 20-17.897h-.274c-.275-.276-.823-.552-1.095-1.101-3.562 2.753-7.67 4.405-12.056 4.68C39.74 68.26 37.275 73.493 37 79v-.002z"/></g></g></svg>