<svg width="116" height="116" viewBox="0 0 116 116" xmlns="http://www.w3.org/2000/svg" xmlns:xlink="http://www.w3.org/1999/xlink"><title>np_bath_268678_000000</title><defs><linearGradient x1="98.154%" y1="50%" x2="2.63%" y2="50%" id="b"><stop stop-color="#9B766C" offset="0%"/><stop stop-color="#F4B5A9" offset="44.059%"/><stop stop-color="#A1796F" offset="100%"/></linearGradient><rect id="a" x="8" y="8" width="100" height="100" rx="50"/></defs><g fill="none" fill-rule="evenodd"><rect stroke="#F8B5B5" x=".5" y=".5" width="115" height="115" rx="57.5"/><mask id="c" fill="#fff"><use xlink:href="#a"/></mask><use fill="url(#b)" xlink:href="#a"/><g mask="url(#c)" fill="#FFE9E9" fill-rule="nonzero"><path d="M48.128 29h-.002a.469.469 0 1 0-.369.73l1.848 2.777-.896 1.06a.468.468 0 0 0 0 .605l2.508 2.982-3.118-.371a.469.469 0 0 0-.475.255l-1.14 2.284-.895-1.59a.464.464 0 0 0-.541-.215l-4.091 1.225a.474.474 0 0 0-.333.418l-.102 1.431v.025l-.095 4.542-1.068.229a.467.467 0 0 0-.28.738l1.057 1.405-.998 1.993a.48.48 0 0 0-.014.384l.196.491-3.935.717a.468.468 0 0 0-.362.605l1.17 3.615-1.049 2.29a.472.472 0 0 0 .01.408l2.219 4.343-1.357 1.816a.47.47 0 0 0 .05.622l1.54 1.448-.549 2.19a.47.47 0 0 0 .134.452l2.35 2.25c.06.06.136.1.219.12l6.028 1.393-2.445 4.263a.473.473 0 0 0-.06.214l-.204 5.014a.468.468 0 0 0 .466.488h4.193a.467.467 0 0 0 .388-.209l.82-1.232 5.104 1.799 2.392 1.895a.47.47 0 0 0 .64-.055l.92-1.021a.474.474 0 0 0 .107-.42l-.133-.584 1.685.42 1.61.606a.482.482 0 0 0 .344-.005l4.55-1.884 1.874.535 1.243 1.244a.468.468 0 0 0 .794-.415l-.864-4.708 2.702-1.775a.456.456 0 0 0 .195-.264l.279-.968 1.483.47a.469.469 0 0 0 .607-.467l-.102-2.356a.47.47 0 0 0-.153-.325l-6.807-6.225.483-1.125a.475.475 0 0 0-.042-.445l-1.53-2.297 9.812-4.28a.474.474 0 0 0 .223-.202l.323-.58.682.228.627 1.167a.472.472 0 0 0 .85-.051l1.124-2.866a.466.466 0 0 0-.013-.37l-2.1-4.552.202-5.16a.475.475 0 0 0-.126-.34l-2.295-2.433 1.365-1.94a.473.473 0 0 0 .065-.406l-1.075-3.531a.458.458 0 0 0-.245-.287l-1.756-.834-.502-1.643a.466.466 0 0 0-.5-.328l-1.132.132-2.3-1.92a.465.465 0 0 0-.453-.08l-6.594 2.301a.445.445 0 0 0-.133.073l-1.239.972-1.605-.51.979-1.643a.475.475 0 0 0 .022-.435.463.463 0 0 0-.34-.265l-3.659-.686-1.68-2.16a.453.453 0 0 0-.296-.175l-6.34-1.026c-.028-.005-.06-.005-.09-.005z"/></g></g></svg>