<svg width="116" height="116" viewBox="0 0 116 116" xmlns="http://www.w3.org/2000/svg" xmlns:xlink="http://www.w3.org/1999/xlink"><title>np_bath_268678_000000</title><defs><linearGradient x1="98.154%" y1="50%" x2="2.63%" y2="50%" id="b"><stop stop-color="#9B766C" offset="0%"/><stop stop-color="#F4B5A9" offset="44.059%"/><stop stop-color="#A1796F" offset="100%"/></linearGradient><rect id="a" x="8" y="8" width="100" height="100" rx="50"/></defs><g fill="none" fill-rule="evenodd"><rect stroke="#F8B5B5" x=".5" y=".5" width="115" height="115" rx="57.5"/><mask id="c" fill="#fff"><use xlink:href="#a"/></mask><use fill="url(#b)" xlink:href="#a"/><g mask="url(#c)" fill="#FFE9E9" fill-rule="nonzero"><path d="M50.011 50.066c0-3.492-2.927-6.346-6.505-6.346S37 46.574 37 50.066c0 2.45 1.476 4.499 3.546 5.566v3.905c0 3.2 2.63 5.768 5.917 5.768h8.873v6.728c-2.1 1.068-3.553 3.173-3.553 5.625 0 3.519 2.932 6.342 6.51 6.342 3.58 0 6.508-2.823 6.508-6.342 0-2.452-1.45-4.557-3.55-5.625v-6.728h8.874c3.285 0 5.918-2.568 5.918-5.768v-3.702H79V44.3H67.166v11.534h2.96v3.702H61.25V38.534h5.915L58.296 27 49.42 38.534h5.916v21.003h-8.873v-3.905c2.072-1.067 3.548-3.116 3.548-5.566z"/></g></g></svg>