<svg width="353" height="24" viewBox="0 0 353 24" xmlns="http://www.w3.org/2000/svg"><title>Like, comment, send, collect</title><g fill="none" fill-rule="evenodd"><g stroke="#000" stroke-linecap="round" stroke-linejoin="round" stroke-width="1.5"><path d="M94.14 2.686l-23.012-.152 9.98 7.676zM94.32 3L82.948 23.004l-1.659-12.48z"/></g><path d="M11.9 22l-1.581-1.433C4.706 15.47 1 12.109 1 7.995 1 4.632 3.632 2 6.995 2c1.896 0 3.716.883 4.904 2.272C13.087 2.882 14.907 2 16.804 2c3.362 0 5.994 2.632 5.994 5.995 0 4.114-3.705 7.476-9.318 12.572L11.9 22z" stroke="#C8002A" fill="#C8002A"/><path d="M56.45 16.958l1.55 4.65-4.65-1.55a9.953 9.953 0 0 1-5.35 1.55c-5.523 0-10-4.477-10-10s4.477-10 10-10 10 4.477 10 10a9.953 9.953 0 0 1-1.55 5.35zM336.75 20.389l7.963-6.7 7.537 6.65V1.998a.244.244 0 0 0-.25-.249h-15a.254.254 0 0 0-.25.249v18.39z" stroke="#000" stroke-width="1.5"/></g></svg>