<svg width="32" height="32" viewBox="0 0 32 32" xmlns="http://www.w3.org/2000/svg"><title>check</title><g transform="translate(1 1)" fill="none" fill-rule="evenodd"><circle stroke="#F8B5B5" opacity=".272" cx="15" cy="15" r="15"/><circle fill="#F8B5B5" cx="15" cy="15" r="8"/><path d="M13.159 19.822c.1.114.239.178.382.178.143 0 .28-.064.382-.178l3.918-4.393a.647.647 0 0 0 .159-.43.647.647 0 0 0-.159-.428l-3.917-4.393a.5.5 0 0 0-.765 0 .659.659 0 0 0 0 .857L16.694 15l-3.535 3.965a.645.645 0 0 0-.159.428c0 .161.057.316.159.43z" fill="#FFF" fill-rule="nonzero"/></g></svg>