<svg width="545" height="136" viewBox="0 0 545 136" xmlns="http://www.w3.org/2000/svg"><title>Group 3</title><g fill="none" fill-rule="evenodd"><path d="M48.648 2.051L49 16.534c0 .35-1.41.35-1.41 0-.586-8.292-5.401-13.081-12.917-13.081h-7.164c-7.633 0-9.395 1.401-9.395 7.125v25.579h11.861c8.338 0 11.627-2.453 11.627-8.176 0-.467 1.291-.467 1.291 0 0 4.672-.117 6.54-.117 9.46 0 3.621.235 6.775.235 10.746 0 .467-1.292.467-1.292 0 0-6.774-3.406-9.577-12.096-9.577H18.114v25.462c0 7.008 1.88 8.526 14.21 8.526.352 0 .352 1.402 0 1.402-5.167 0-10.921-.234-18.085-.234-5.167 0-10.1.234-13.975.234-.352 0-.352-1.402 0-1.402 8.69 0 10.217-1.284 10.217-8.059V10.461c0-6.658-1.41-8.06-9.982-8.06C.03 2.402.03 1 .5 1h47.092c.822 0 1.057.35 1.057 1.051zm28.401 8.527v53.494c0 6.307 1.423 7.475 9.603 7.475h12.803c9.247 0 14.581-6.19 16.122-15.534 0-.35 1.423-.234 1.423.233-.593 4.322-1.185 10.98-1.185 16.002 0 1.285-.356 1.752-1.779 1.752h-54.77c-.355 0-.355-1.402 0-1.402 8.655 0 10.077-1.284 10.077-8.059V10.461c0-6.658-1.422-8.06-10.076-8.06-.356 0-.356-1.401 0-1.401 3.793 0 8.654.35 13.87.35C78.709 1.35 83.45 1 87.126 1c.474 0 .474 1.402 0 1.402-8.654 0-10.077 1.518-10.077 8.176zm123.422 63.008c.705 0 .705 1.414 0 1.414-4.35 0-9.288-.471-13.52-.471-4.938 0-8.112.471-12.462.471-.705 0-.705-1.414 0-1.414 8.347 0 9.993-1.885 6.82-8.717L167.67 36.006h-22.102l-10.11 24.033c-4.116 9.66-.471 13.547 9.875 13.547.705 0 .705 1.414 0 1.414-4.703 0-7.76-.471-13.873-.471-5.643 0-8.112.471-12.932.471-.705 0-.705-1.414 0-1.414 6.348 0 9.523-2.945 14.46-14.608L157.795.311c.118-.354 1.411-.471 1.529 0l27.745 58.55c5.525 11.78 8.464 14.725 13.402 14.725zM146 33h20l-10.533-22L146 33zM310.734 1c.355 0 .355 1.415 0 1.415-5.075 0-9.087 2.24-12.038 9.312l-25.02 62.83c-.355.59-2.361.59-2.715 0L255.618 41.08l-13.337 33.478c-.236.59-2.36.59-2.596 0l-29.388-63.774c-2.832-6.365-5.193-8.37-10.031-8.37-.355 0-.355-1.414 0-1.414 3.068 0 6.019.354 9.795.354 6.61 0 10.504-.354 14.045-.354.472 0 .472 1.415 0 1.415-6.137 0-8.616 1.532-5.665 7.898l25.02 53.871 10.623-26.405-12.393-26.995c-2.714-5.894-5.31-8.37-9.795-8.37-.473 0-.473-1.414 0-1.414 2.95 0 5.9.354 9.56.354 4.956 0 7.67-.354 10.15-.354.353 0 .353 1.415 0 1.415-4.958 0-5.194.943-1.89 7.898l8.499 18.271 7.08-17.446c2.48-6.248 1.653-8.723-3.658-8.723-.472 0-.472-1.415 0-1.415 2.479 0 3.54.354 7.672.354 4.366 0 6.373-.354 10.268-.354.354 0 .354 1.415 0 1.415-4.957 0-8.734 2.004-11.685 9.312l-8.143 20.158 14.989 32.3L296.1 11.373c2.36-6.13.236-8.96-8.026-8.96-.472 0-.472-1.414 0-1.414 3.777 0 6.61.354 12.156.354 4.367 0 6.492-.354 10.504-.354zm21.315 9.578v53.494c0 6.307 1.423 7.475 9.603 7.475h12.803c9.247 0 14.581-6.19 16.122-15.534 0-.35 1.423-.234 1.423.233-.593 4.322-1.185 10.98-1.185 16.002 0 1.285-.356 1.752-1.779 1.752h-54.77c-.355 0-.355-1.402 0-1.402 8.655 0 10.077-1.284 10.077-8.059V10.461c0-6.658-1.422-8.06-10.076-8.06-.356 0-.356-1.401 0-1.401 3.793 0 8.654.35 13.87.35 5.572 0 10.314-.35 13.989-.35.474 0 .474 1.402 0 1.402-8.654 0-10.077 1.518-10.077 8.176zm96.552 46.019c.116-.35 1.399-.234 1.399.233-.583 4.088-1.05 10.512-1.05 15.418 0 1.285-.466 1.752-1.748 1.752H378.35c-.467 0-.467-1.402 0-1.402 8.511 0 9.91-1.284 9.91-8.059V10.461c0-6.658-1.399-8.06-9.91-8.06-.467 0-.467-1.401 0-1.401h46.753c.816 0 1.05.35 1.05 1.051l.35 14.483c0 .35-1.4.35-1.4 0-.583-8.292-5.363-13.081-12.825-13.081h-7.112c-7.812 0-9.327 1.401-9.327 7.592v23.827h14.224c7.462 0 10.376-2.453 10.376-8.293 0-.35 1.4-.35 1.4 0 0 4.672-.117 6.658-.117 9.461 0 3.62.233 6.891.233 10.746 0 .467-1.399.467-1.399 0 0-6.775-3.031-9.578-10.843-9.578h-13.874v26.864c0 6.074 1.515 7.475 9.094 7.475h9.327c7.345 0 12.709-5.723 14.34-14.95zm24.378-41.585c0 9.735 8.156 14.426 16.428 19.352C478.029 39.642 487 44.685 487 55.944 487 67.086 478.495 76 462.999 76c-5.593 0-11.069-1.29-16.428-4.105-.816-.47-.932-1.055-1.049-2.228l-1.515-15.951c-.116-.704 1.166-.82 1.399-.235 1.98 9.383 7.922 20.642 20.273 20.642 6.874 0 13.864-3.283 13.864-13.487 0-11.26-8.505-16.303-16.894-21.463-8.389-5.043-16.544-9.97-16.544-20.877C446.105 5.981 457.057 0 467.775 0c4.312 0 9.089.821 13.632 2.815 1.166.469 1.865 1.173 1.865 1.994l.699 13.487c0 .587-1.165.704-1.398 0-.7-6.216-5.243-16.537-16.661-16.537-9.205 0-12.933 6.45-12.933 13.253zm58 0c0 9.735 8.156 14.426 16.428 19.352C536.029 39.642 545 44.685 545 55.944 545 67.086 536.495 76 520.999 76c-5.593 0-11.069-1.29-16.428-4.105-.816-.47-.932-1.055-1.049-2.228l-1.515-15.951c-.116-.704 1.166-.82 1.399-.235 1.98 9.383 7.922 20.642 20.273 20.642 6.874 0 13.864-3.283 13.864-13.487 0-11.26-8.505-16.303-16.894-21.463-8.389-5.043-16.544-9.97-16.544-20.877C504.105 5.981 515.057 0 525.775 0c4.312 0 9.089.821 13.632 2.815 1.166.469 1.865 1.173 1.865 1.994l.699 13.487c0 .587-1.165.704-1.398 0-.7-6.216-5.243-16.537-16.661-16.537-9.205 0-12.933 6.45-12.933 13.253z" fill="#222"/><path d="M449.046 59.007l-.035.017c-.016-.016-.015-.024.003-.024l.032.007zm-.425.316c.225-.113.366-.199.423-.256-.06 0-.18-.03-.359-.09-.18-.12-.39-.21-.63-.27l.27 1.169c.42-.12.6-.18.54-.18-.06.12.12.21.539.27v-.27l.09.09.18.36h.629c.12.6-.09.959-.63 1.079l-.269-.09.09-.27-.72-.09-.269.09.72.09-.09.36-.54-.09.18.18.719.09c.06-.06.15-.06.27 0 .24.06.389.15.449.269l-.45-.18c.06.12.15.21.27.27.06 0 .15.03.27.09h.09l-.09-.54.449.18-.18.72h-.09l-.08-.32c.018.18-.165.736-.549 1.668l-.36-.09c.6-.3.45-.63-.449-.989l.63.09c-.06-.48-.21-.78-.45-.899h-.18c0 .06-.15.51-.449 1.349l.72.09c-.12.06-.33.09-.63.09.06.12.21.21.45.27-.24.06-.39.12-.45.18-.06-.06.03.389.27 1.348.24.06.419.12.539.18.36-.06.42-.3.18-.72-.18-.42-.06-.66.36-.719-.12.3-.15.959-.09 1.978.06 1.019.149 1.588.269 1.708l.809.09-.18.09-.36-.09v.45l-.27-.09.18-.36-.449.09c0 .12-.06.3-.18.54.12.06.21.12.27.18-.3.479-.51.839-.629 1.078-.12-.18-.15-.39-.09-.629.12-.36.27-.57.45-.63l-.27-.18c.3-.958.33-1.528.09-1.708a1 1 0 0 1-.45.09l-.18-.18c0 1.02-.12 1.649-.359 1.889h.45l-.09-.09h.18v.09c-.06.06-.09.24-.09.54l.18-.09c-.06.06-.12.09-.18.09-.06.06-.09.149-.09.269l.18-.09c-.06.06-.12.09-.18.09-.24.72-.57 1.229-.989 1.528l-.09-.09.36-2.877c-.24-.779-.18-1.288.18-1.528-.3-.36-.51-.72-.63-1.08l.09.45-.27.54.27.09-.18.18-.09-.09v.36c.06-.06.15-.09.27-.09v.09h-.27c-.06 1.738-.18 3.656-.359 5.754.18-1.08.51-1.649.989-1.709l.18.27c-.3.3-.45 1.109-.45 2.428-.06 1.198-.3 1.888-.719 2.068-.06-.96-.06-1.799 0-2.518v-.18c-.06.6-.12 1.319-.18 2.158l.09.09-.18.54c0 .12-.03.39-.09.809l.09.09c-.06.839-.15 1.528-.27 2.068.18-.18.36-.3.54-.36-.06.18-.09.72-.09 1.618 0 .72-.21 1.2-.629 1.439l-.18-.09v-.09c-.06.06-.09.15-.09.27l.09-.09.27.18h-.36c0 .06-.03.15-.09.27l.27-.18-.09.27-.18-.09v.18h.36l-.18.539h-.18v-.54l-.09.27c0 .24-.03.39-.09.45l.27.09v.09c-.12-.06-.21-.12-.27-.18 0 .06-.03.21-.089.45a.69.69 0 0 1 .27-.09c0 .958-.15 1.468-.45 1.528 0-.06-.03.15-.09.629h-.09v.45c-.18.899-.27 1.498-.27 1.798-.119.66-.269 1.378-.448 2.158l.539.18v.18h.27c.12-.96.479-2.368 1.078-4.227-.36-.12-.6-.24-.72-.36v-.09c.36 0 .54-.059.54-.179.24 0 .45-.54.63-1.618.06-.18.119-.72.179-1.619.12-.659.24-1.139.36-1.438l.18-.36h-.36l.18.36-.27-.09v-.09l-.18-.36.809.09c-.12-.899.03-1.438.45-1.618l.09.09c-.12-.12-.12-.21 0-.27l-.18-.18.449.09c-.06.06-.12.09-.18.09.12.06.15.15.09.27l.18.09c-1.019 3.896-1.498 5.904-1.438 6.024-.78 1.258-1.049 2.217-.81 2.877.06.18-.119.63-.538 1.348-.36.66-.39 1.08-.09 1.26l.18-.09c-.78 2.157-1.259 3.296-1.438 3.416l-.27-.18.18-.72c.18-.359.33-.718.45-1.078l.448-1.169c-.06-.06-.21-.15-.449-.27-.24-.06-.36-.15-.36-.27-.12.48-.299 1.02-.539 1.619l.72.27-.63-.09-.09-.09c-.18.6-.39 1.199-.629 1.798.24.24.48.51.72.81.179-.36.269-.57.269-.63l.27.09-.18.36c-.12.18-.18.3-.18.36.18.179.54.509 1.078.988l.09-.18.54.54-.09.09c.419.3.749.57.988.809l.45.36-.36-.45h.45c.539.66 1.018 1.139 1.437 1.439.54.479.9.809 1.079.989v-.27c.539.36.899.66 1.078.899-.18-.06-.33-.12-.45-.18-.359-.18-.778-.45-1.257-.81h-.09l-.09.27c-.18-.24-.54-.599-1.078-1.078-.12 0-.33-.09-.63-.27l-.18.18.36.36h.09l.45.449c.419.3.928.63 1.527.989l-.18-.27.54.18-.18.18a45.14 45.14 0 0 0 3.415 1.708l1.168.36.09.09c.3.12.48.18.54.18.12.06.329.15.629.27l.09-.09.628.18.45.179c-.06.06-.15.12-.27.18h.09c1.318.54 2.067.839 2.247.899l-.54.09c.78.24 1.798.36 3.056.36-.18 0-.39.03-.629.09.54.06.959.09 1.258.09l1.888-.18c.479-.06.868-.12 1.168-.18a5.22 5.22 0 0 0 1.599-.47c-.88.45-1.832.816-2.857 1.1l.36-.09c-.06.119-.15.239-.27.359l-.09-.27-.45.09.27-.36v-.09l-.809.18.36.27c-.18.06-.42.12-.72.18l.09.18-.629-.09c-.539.12-.958.21-1.258.27l-.09.09v-.09h-.539v.09l-.988-.09v-.18c-.18-.06-.33-.12-.45-.18h-.18c-.24.12-.868.18-1.887.18l-.36-.45c.36.06.6-.03.72-.27h-.09c-.3-.12-.66-.27-1.079-.45-.06.24-.15.42-.27.54l-.269-.27.18-.449c-.36-.12-.69-.27-.989-.45l-.09.18-.09-.27c-.778-.36-1.347-.629-1.707-.809-.06-.06-.15-.12-.27-.18a.69.69 0 0 0-.27-.09h-.359l-.09-.27c-.3-.119-.718-.329-1.258-.629l-.539-.36-.09-.09c-.18-.059-.45-.209-.809-.449-.3-.18-.539-.33-.719-.45l.18.54h.54c.239.3.569.63.988.99.42.359.719.659.899.898l-.18.09c-1.318-.779-1.947-1.139-1.887-1.079l-1.888-1.258c.18-.24.33-.48.45-.72-.42-.36-.6-.48-.54-.36-.06.12-.06.45 0 .99l-.18-.09c-.598-.6-1.287-1.229-2.066-1.888-.72-.54-1.169-.93-1.348-1.17-.36.66-.51.93-.45.81-.599.6-.779 1.049-.539 1.349.3-.06.03.24-.809.899-.06.06-.18.15-.36.27-.12.06-.209.12-.269.18-.18.12-.36.27-.54.449l-.538.54c-.18.3-.33.479-.45.539-.719.839-1.468 1.438-2.246 1.798-.36.3-.48.42-.36.36-.54.48-1.138.959-1.797 1.438-.66.48-.989.75-.989.81a12.7 12.7 0 0 1-3.415.449 8.754 8.754 0 0 1-3.325-.81l.629-.09c-1.019-.479-1.977-1.168-2.876-2.067-.36-.3-.57-.51-.629-.63-.18-.18-.33-.36-.45-.539l-.269-.54c-.12-.24-.24-.569-.36-.988l-.18-.9a11.592 11.592 0 0 1-.09-3.236c.18-1.02.39-1.948.63-2.787v-.09l.09-.36v.09c.42-1.079.809-1.978 1.168-2.697.72-1.14 1.468-2.008 2.247-2.608 1.078-.66 2.187-1.019 3.325-1.079l.809-.09.719.09.63.18.089-.09.27.09.449.18c.54.18 1.108.39 1.707.63.06-.06.12-.09.18-.09v.18c1.618.599 3.146 1.378 4.584 2.337l.36.18c.478-1.379.928-2.967 1.347-4.766.12-.599.33-1.408.63-2.427.239-1.08.419-1.858.538-2.338.3-1.378.57-2.607.81-3.686v-.18c.179-1.978.329-7.043.449-15.195l-.45.27c.06-1.259.12-2.578.18-3.956.12-1.319.18-2.518.18-3.597a87.77 87.77 0 0 0-.09-6.923c-.12-2.517-.36-4.795-.72-6.833-.179-.84-.389-1.708-.628-2.607 1.138-.12 2.516.15 4.134.809h.18l-.18.09.09.09.719-.18.539.09c-.06-.24.45.36 1.528 1.798l.36 1.259a20.7 20.7 0 0 1 .628 5.035c0 2.038-.33 3.596-.988 4.675-.06.18-.03.39.09.63s.12.419 0 .539l.36-.09c-.48.36-.54.66-.18.9l.18-.18c0 .479.029 1.857.089 4.135 0-.3.09.03.27.99.12.479 0 .778-.36.898l-.36-.18c-.06.18-.15.3-.269.36v-.09c-.483-.193-.752-.289-.806-.288l.023.005zM467 103.385c.242-.124.48-.252.713-.385a7.843 7.843 0 0 1-.713.385zm1-.385c.562-.38 1.1-.897 1.613-1.552.265-.354.636-.943 1.114-1.768.477-.767.875-1.326 1.193-1.68h.08c-.584 1.71-1.565 3.123-2.944 4.243-.337.272-.689.524-1.056.757zm-36.54-14a4.84 4.84 0 0 0-1.653.444l-.092-.09c-.122.06-.214.12-.275.178l.184.09c-.613.59-1.164 1.478-1.653 2.661a15.69 15.69 0 0 0-.919 3.195c-.122 1.36-.03 2.366.276 3.017.122.177.153.266.092.266l.183.178.643.532c.368.414.796.74 1.286.976.98.533 1.898.68 2.755.444.795-.119 1.683-.621 2.663-1.509 1.714-1.36 3.213-3.165 4.499-5.413.061-.236.245-.71.551-1.42-.918-.65-1.47-1.064-1.653-1.242v-.177l-.918-.533.092.444-1.47-.71c-1.224-.65-2.326-1.065-3.305-1.242-.123 0-.306-.03-.551-.089h-.735zm-.911 13.765a9.55 9.55 0 0 1-.549-.118l.157.118v.059l.078.058c.21.04.445.079.706.118l.079-.118.078.118h.55a7.85 7.85 0 0 0 1.96-.53l.392-.235v-.117c-.157.039-.288.058-.392.058a.422.422 0 0 1-.079.236c-.47.313-.967.412-1.49.294h-.314c.157-.118.236-.333.236-.647h-.079c-.157.078-.34.157-.549.235-.209.04-.392.098-.549.177l.079-.118V102a.973.973 0 0 0-.236.118 1.767 1.767 0 0 0-.235.53h.706v.117h-.549zm12.188-5.845c.42-.373.842-.853 1.263-1.44a17.718 17.718 0 0 1-.737-.48h-.105l-.737 1.12.421.16h-.316l-.105-.08c-.14.107-.28.267-.421.48l.21.08c.14.053.316.133.527.24v-.08zM448.355 64c-.079-.314-.04-.549.118-.706.552-.418.67-.732.355-.941-.394-.261-.552-1.046-.473-2.353l-.355.078c0 1.57.04 2.876.118 3.922h.237zm9.717 38.996c-.22-.052-.153-.051.2.004H459l-.364-.085c-.06-.056-.181-.084-.363-.084a2.96 2.96 0 0 1-.546-.17c-.12 0-.303-.028-.545-.085h.09l-.181-.084a29.427 29.427 0 0 1-2.091-.763c-.667-.283-1.424-.593-2.273-.932-1.09-.452-1.636-.707-1.636-.763-.243-.113 0 .056.727.508l-.09.17c.181.056.424.141.727.254v-.085h.363c.121.057.212.113.273.17v.085l.364.17.181-.086v.17c1.03.395 1.94.734 2.728 1.017.658.279 1.228.475 1.709.589zm-31.65-8.091c.07-.572.315-1.207.736-1.905.42-.762.667-1.27.737-1.524.07-.19.105-.349.105-.476-.702.825-1.298 1.841-1.79 3.048L426 95l.421-.095zm16.66-2.842l.09-.063.091.127.09-.127.361.19h-.09l.18.126h.09l.091.064c.06-.085-.06.105-.36.57.18.084.12.063-.181-.064l.18-.063-.27.063c-.241-.127-.452-.232-.632-.316v-.064l-.09.064h-.09l.18-.317a1.29 1.29 0 0 0-.451.19 1.151 1.151 0 0 1-.271-.127c.12-.042.3-.084.541-.126v-.063l.271.063.18-.063c.06.042.211.084.452.126l-.18-.063-.181-.127zm10.558 9.826c.288.37.403.74.346 1.111h-.173c-1.094-.74-1.698-1.333-1.813-1.778l.086-.222.777.556.605.777.172-.444zm-12.307-3.556c0-.074-.037-.185-.11-.333-.223.37-.445.704-.667 1 .074-.074-.112.185-.556.778l.333.11c.074.075.148.112.223.112-.223-.148-.334-.26-.334-.333.37.296.741.222 1.111-.223.074-.074.297-.481.667-1.222-.222 0-.37.037-.444.111h-.223zM455 101.06h.082l.163-.059h.326c.926.314 1.361.47 1.307.47v.06l.326.058c0-.039.055-.059.163-.059l.164.118c.653.118 1.06.177 1.224.177L459 102c-.707-.078-1.497-.255-2.367-.53-.164-.039-.354-.078-.572-.117-.272-.078-.462-.118-.571-.118.217.079.38.177.49.294l-.98-.411v-.06zm-27.444-.446l-.112.097.334.29h.11v-.097l.223.097c.37-.065.63-.097.778-.097l.111-.387h-.444l-.112.29c-.222-.322-.37-.548-.444-.677-.296.194-.481.226-.556.097l.445-.194a1.42 1.42 0 0 0-.889.097l.556.484zM454.125 103c.042 0 .333.26.875.778l-.188.222c-.208 0-.416-.037-.625-.111l-.187-.333.125-.556zM452 98l.01.003.12.12A3.918 3.918 0 0 0 452 98zm0 0c-1.015-.238-1.682-.572-2-1h.383c.82.492 1.36.825 1.617 1zm-2.04-23.481c-.48.641-.8 1.135-.96 1.481.24-1.333.52-2 .84-2l.12.519zm-23.48 20.814c-.24-.166-.36-.277-.36-.333H426v.417c0 .11.04.305.12.583v.083c0 .334.04.64.12.917.16-.056.24-.111.24-.167-.16-.333-.16-.833 0-1.5zm15.52-.788c.182.122.394.273.636.455 0-.06.122-.394.364-1-.06.06-.121.09-.182.09v.183l-.273-.091a.807.807 0 0 1-.363-.091v.09l-.182.364zm10 4.538l.3-.083 1.7.833-.2.167-1.8-.917zm-12.563.329c-.125.196-.27.392-.437.588.125-.078.25-.176.375-.294a4.3 4.3 0 0 0 .625-.588l-.063-.06c-.083 0-.145-.019-.187-.058l-.125.176.063.06h-.063l-.125.117v.118l-.063-.06zM426.4 99c-.08.057-.2.086-.36.086-.08 0-.04.057.12.17v.086h.12c-.16.57-.16.77 0 .599h.72l-.24-.342a1.68 1.68 0 0 1-.36-.599zm23.32-27.04H449V71h.6c-.08.16-.04.28.12.36v.6zm-21.797 29.95l-.615-.82L427 101c.154.242.308.515.462.818h.153V102c.103-.06.231-.06.385 0l-.077-.09zM449.5 70.84c-.067-.08-.233-.2-.5-.36l1-.48-.2.96h-.1l-.2-.12zM447 97.96l-.417-.36c-.11-.16-.305-.36-.583-.6v.48c.167.08.278.24.333.48H447zm-7.28-3.12c.16-.24.24-.4.24-.48-.16-.08-.36-.2-.6-.36l-.36.96.72-.12zM471.48 97l-.48-.182.84-.818.12.09-.48.91zm-46.475 2.014A1.947 1.947 0 0 0 425 99l.005.014zm1.38 1.253A.733.733 0 0 1 426 100c.103.133.154.222.154.267L427 101a4.251 4.251 0 0 1-.308-.467h-.077c0-.044-.025-.089-.077-.133l-.076-.2c.05 0-.026-.044-.231-.133-.052-.045 0 .022.154.2zM442.48 93c-.16.121-.32.303-.48.545 0 .061.12.122.36.182.08-.06.2-.09.36-.09l-.12.09c0 .06-.04.121-.12.182h.12l.12.091v-.364c0-.181.04-.303.12-.363h-.12l-.12.272-.12-.09V93zm-8.12 8.929c0 .047.04-.262.12-.929-.32.238-.4.357-.24.357-.08.095-.16.31-.24.643.16-.048.28-.071.36-.071zm-9.24-5.786c0 .19-.04.262-.12.214l.24.286v.143H425V97h.48a.87.87 0 0 1-.12-.429h-.12l.12-.071v-.143h-.12c.08-.095.08-.19 0-.286l-.12-.071c-.08.095-.12.167-.12.214l.12-.071zM442 91.72c-.389-.32-.694-.56-.917-.72H441l.083.48c.334.16.64.24.917.24zm20 12.64c.125 0 .396-.12.813-.36l.187.36c-.625.08-.958.12-1 .12v-.12zm2.84-1.76c-.16 0-.44.04-.84.12l.24-.48.72-.24-.12.6zM450 73c-.074.56-.407.76-1 .6.37-.32.704-.52 1-.6zm17.8 28.6c-.356.24-.578.36-.667.36H467a4.4 4.4 0 0 0 1-.96.737.737 0 0 1-.2.36v.24zM445.48 94c.24.32.4.64.48.96l-.96-.84.12-.12h.36zm14.832 8.24c-.125 0-.229-.08-.312-.24h.125l.063.12h.375l.312.12H461l-.063.24c-.458-.16-.666-.24-.625-.24zM442.96 91.778c-.4-.297-.72-.556-.96-.778v.222c.16.222.48.482.96.778v-.222zm19.94 10.582c-.4 0-.7-.08-.9-.24.133 0 .467-.04 1-.12l-.1.36zm-13.525-5.64c-.4-.4-.48-.64-.24-.72l.6.6-.36.12zm-17.895 6.88H431c.08-.24.16-.44.24-.6h.24v.6zm23.24-4c-.4-.32-.64-.52-.72-.6l.96.36-.24.24zm-7.672-4.6c.48.444.72.778.72 1-.64-.667-.88-1-.72-1zM447 75.12l.48-.12c0 .32-.12.52-.36.6l-.12-.48zM462.6 103c.24.08.24.2 0 .36-.16.08-.36.08-.6 0l.6-.36zM447 77.72l.24-.72.36.36-.6.36zM448.12 59c-.08.4-.12.68-.12.84.08 0 .2-.28.36-.84h-.24zm-4 37.36c-.08 0 .16.08.72.24-.08-.08-.2-.16-.36-.24l-.36-.36c0 .08-.04.16-.12.24l.12.12zm25.6 4.12l-.72.24.96-.72-.24.48zm-16.36-1L453 99l.96.48h-.6zM450 73c-.074.08-.222.16-.444.24l-.223-.12H449c.148-.08.26-.12.333-.12H450zm9 30l.72.12v.12H459V103zm-8.04-42.76H450l.24-.24h.12l.6.24zM447 76h.36l.12.12-.36.24-.12-.12V76zm0 7l.48.12v.24l-.48-.12V83zm-4.52 11.36c-.16 0-.32-.04-.48-.12l.12-.24.12.12h.36l-.12.12v.12zm5-14.12l-.36.12-.12-.24V80h.24l.24.24zm-3.12-16.64l-.36-.36.36-.24v.6zM444 65h.24v.6h-.12L444 65zm2.36 21.24l-.36-.12.24-.12.6.12-.48.12zM466 103h.84l-.84.24V103zm-22-37l.36.24-.36.24V66zm6 1l.72.12v.12l-.72-.12V67zm10.24 37c.16.08.32.2.48.36l-.72-.24.24-.12zm7.48-3c-.2.04-.44.1-.72.18.28-.04.52-.08.72-.12V101zm-.72.06c.2-.04.36-.06.48-.06-.12.04-.28.08-.48.12v-.06zm-20-24.676c.08-.32.24-.44.48-.36-.08.16-.24.28-.48.36zM459.6 102c-.16.16-.36.24-.6.24l.12-.24h.48zm5 1c-.16.08-.36.2-.6.36l.12-.36h.48zm2.52-2l.36.12-.48.24.12-.36zM449.6 73.24L449 73h.6v.24zM472.72 97c-.32.48-.56.8-.72.96l.6-.96h.12zm-25.6-17l-.12.889.12.111v-1zm2.48-10v.24c-.24-.08-.44-.12-.6-.12l.6-.12zm1.52 30.24c.08 0 .24.04.48.12-.32-.24-.52-.36-.6-.36l.12.24zM450 71.36c.08-.16.2-.28.36-.36l-.12.36H450zm-24.76 25.12c-.08-.16-.12-.32-.12-.48-.08.32-.12.52-.12.6h.12v-.24l.12.12zM450 62h.36v.24h-.12L450 62zm-.04 8.12H449V70l.96.12zm-.72-2.88L449 67h.36v.24h-.12zm-.12 2.76l.24.36c-.24-.08-.36-.2-.36-.36h.12zM448 74.24c.08-.08.2-.16.36-.24 0 .16.04.24.12.24H448zM464 104c.32.08.6.16.84.24h-.24l-.6-.24zm-17-7.76h.48c-.08-.08-.2-.16-.36-.24l-.12.24zm3.24-23l-.24-.12c.08-.08.2-.12.36-.12l-.12.24zm-.88-6L449 67h.36v.24zm0 1L449 68h.36v.24zm-.3 9.72c-.08-.08-.08-.4 0-.96v.96zM451 66.12l.24-.12v.24H451v-.12zm9 37.24l.12-.36.12.36H460zm-9.64-28.12L450 75h.36v.24zM443 93.12c.16-.08.28-.12.36-.12l-.12.24-.24-.12zm-.52 4c-.08.08-.24.04-.48-.12l.48.12zm27.36 3.88c-.24.24-.52.44-.84.6l.84-.6zm-20.48-28.76c-.16-.08-.28-.16-.36-.24l.36.12v.12zm1-12h-.12L450 60l.36.12v.12zm-.32 1.12c-.08-.24-.04-.36.12-.36l-.12.36zm1.32 1.76c-.16 0-.28-.04-.36-.12h.36v.12zM449 71l.48.12v.12L449 71zm.48 3.12H449l.24-.12.24.12zm1.76-6.12v.24l-.24-.12.24-.12zm-1 8.24H450l.24-.24v.24zM465.48 102c-.08.16-.24.24-.48.24l.48-.24zm.12 1.12c-.24 0-.44-.04-.6-.12l.6.12zM445 93l.36.12H445V93zm-5.88-.893V92H439c.038.038.078.073.12.107zM459 102c.06.08.11.16.15.24-.04-.04-.09-.1-.15-.18V102zm.21.24c-.06-.08-.13-.16-.21-.24.08.12.15.22.21.3v-.06zM448.36 77l-.36.12V77h.36zm1 6.12L449 83h.36v.12zM449 59l.36.12H449V59zm16 44c.24 0 .44.04.6.12l-.6-.12zm-3 0c.16 0 .28.08.36.24L462 103zm6.36-2c-.08.16-.2.28-.36.36l.36-.36zM445 88l.24.12H445V88zm6.12-22.76H451l.12-.24v.24zm.12-2L451 63l.24.12v.12zm0-.12c-.08-.08-.16-.12-.24-.12h.24v.12zM449 69h.24l-.24.12V69zm2-3.76l.12-.24v.24H451zm-3.76 22.88c-.08-.08-.16-.12-.24-.12h.24v.12zm-.24-2c.08-.08.2-.12.36-.12l-.36.12zm20 16.12c.08-.08.24-.16.48-.24l-.48.24zm-19.88-13.12H447l.24-.12-.12.12zM466.36 102c-.08.16-.2.24-.36.24l.36-.24zm-17.12-39c-.08.08-.16.12-.24.12l.24-.12zm1.76.12l.12-.12v.12H451zM427 101l.12.12H427V101zm42.15 0c-.06.02-.11.05-.15.09.08 0 .15-.01.21-.03l-.06-.06zm-.15.03c.06-.02.13-.03.21-.03-.04.04-.09.07-.15.09l-.06-.06zM449.09 77a.47.47 0 0 1-.09.12c0-.04.01-.08.03-.12h.06zm-.03-.88c.02-.04.03-.08.03-.12a.47.47 0 0 0-.09.12h.06zm27.069 10.297c4.574-4.904 8.995-11.422 13.264-19.554.549-.957 1.22-1.615 2.012-1.973.793-.36.793.209 0 1.704-3.903 7.654-7.5 13.544-10.794 17.67-3.415 4.186-5.184 6.368-5.306 6.548-1.83 1.854-3.964 2.9-6.403 3.14-3.964.418-6.617-1.855-7.958-6.818-1.16-4.186-1.25-8.102-.275-11.75 3.598-13.454 8.355-19.524 14.27-18.208 2.562.598 4.178 2.571 4.849 5.92v-.09c.122.359.183.688.183.987.183 1.554 0 2.87-.55 3.946-2.134 4.425-5.213 7.744-9.238 9.957l-.275.179c-.06.06-.152.09-.274.09-.732.239-1.433.209-2.104-.09-1.159-.598-1.952-1.226-2.379-1.884a13.702 13.702 0 0 0-.457 2.512c-.366 4.365-.091 7.714.823 10.046.793 1.973 2.379 2.571 4.757 1.794 1.952-.718 3.903-2.093 5.855-4.126zm-1.947-24.972c-.182 0-.334.03-.455.09a.811.811 0 0 0-.363-.09l-.091-.27c.12-.061.272-.151.454-.272.303-.06.485.03.546.271.242.12.485.361.727.723 0-.843-.121-1.445-.364-1.807a1.504 1.504 0 0 0-.454-.09h-.091c-1.091.422-2.121 1.265-3.091 2.529a86.89 86.89 0 0 0-2.727 4.245l.182.09-.091.181-.091-.09v-.18l-.91 1.625.182.09-.09.181-.091-.09v-.09c-.061.12-.122.21-.182.27l.09.18-.181.182v-.09c-.121.3-.212.481-.273.541-.788 1.566-1.394 3.041-1.818 4.426 1.576-.783 3.152-1.987 4.727-3.613.182-.18.273-.301.273-.361l.364-.271c.242-.422.454-.753.636-.994l.09.09c.062-.12.183-.24.365-.36v-.633c.303-.06.424-.09.363-.09l.091.09c.303-.421.576-.813.818-1.174l-.09-.18.181-.723h.273l.09.18v.09l.364-.541c.546-.783.91-1.596 1.091-2.439l.091-.09v-.362c.06-.421.03-.782-.09-1.084h-.273c-.061 0-.091-.09-.091-.27l-.091.18zM470 67c.485-.952.91-1.768 1.273-2.448.727-1.156 1.303-1.667 1.727-1.53-.182.272-.667 1.02-1.455 2.244a.737.737 0 0 1 .364-.102l-.545 1.02-.182-.102c.06-.068.121-.204.182-.408-.122.136-.182.238-.182.306-.546.612-.91.952-1.091 1.02H470zm-3 5.167c-.26.5-.583 1.11-.972 1.833-.13-1.167.194-1.833.972-2v.167zm1-2.378c.542-1.193.875-1.789 1-1.789-.25.632-.52 1.298-.813 2l-.187-.21zm-1 .619c.074 0 .185-.066.333-.197.074-.176.297-.242.667-.198l-.889.987-.111-.592zm0 .425c.148-.11.185-.222.111-.333 0-.111.037-.194.111-.25.074 0 .222-.028.445-.083.148-.111.259-.167.333-.167l-.667 1h-.11l-.223-.167zm5-7.449c.24-.32.52-.44.84-.36.08-.08-.12.2-.6.84l-.24-.36v-.12zm-2 4.47c.24-.64.56-.92.96-.84l-.72.84H470zm-3.84 21.881c-.16-.56-.2-.8-.12-.72h.24l.24.24v.36l-.36.12zm-.785-.775c-.4-.48-.48-.8-.24-.96l.24.36v.6zM472.6 63l.12.24-.36.36-.36-.24h.12l.48-.36zm-6.3 26.36c-.4 0-.4-.12 0-.36l.24.24-.12.12h-.12zm7.82-26l-.12-.12c.16-.32.32-.32.48 0l-.36.12zm-4.88 4.12l-.24-.12.12-.36.24.12-.12.36zm.88 21.52l.24.12-.36.36v-.24l.12-.24zm-2.88 1.12c0 .16-.04.24-.12.24l-.12.12V90l.24.12zm.04.12c-.08.08-.16.12-.24.12-.08-.08-.04-.16.12-.24l.12-.12v.24zm6.84-28.21c0-.08.08 0 .24.24h-.24l-.12-.12.12-.12zM471 66h.36l-.24.24L471 66zm-.76 1.12l-.24.24V67l.24.12zm1.76-3.06c.08-.08.2-.08.36 0l-.24.12-.12-.12zm2.24-.06l.24.12H474l.24-.12zm.76-2.52V61h.12l-.12.48zm0 1l.12-.48h.12l-.24.48zm-.88 1.52l.24.24-.36-.12.12-.12zM467 90l.12.12-.12.24V90zm7-28l.12.12-.12.12V62zm-4 5.12c.08-.08.2-.12.36-.12l-.36.12zm-1 1.12c0-.08.04-.16.12-.24l-.12.24zm2.06-3.12c-.08.16-.08.12 0-.12v.12zm33.745 14.217c-.12.12-.239.21-.358.27v.269l.358.269c-.239.06-.358.12-.358.18v1.884c.179-.06.387-.18.626-.36l-.358.09.358-.179c-.12-.598-.03-.957.268-1.077 0 .18-.03.509-.09.987 4.233-2.99 7.154-5.592 8.764-7.806.656-.837 1.222-1.136 1.699-.897.477.3.358.927-.358 1.884-2.027 2.752-5.365 5.952-10.015 9.6h-.09v1.347c.12-.12.329-.18.627-.18l.089-.18v-.897c.12.06.209.09.268.09v1.256c-.179.12-.298.18-.357.18-.06 0-.269.15-.626.448.06 1.077.119 1.705.179 1.884h.536l-.09.18-.268-.09-.09.987-.178-.09.179-.717h-.358c0 .18-.03.359-.09.538v.628l-.178-.18c.179-1.555.238-2.571.179-3.05l-.268.27v.179h-.09v-.18c-.06.06-.12.09-.179.09l-.09.09c-.059 1.555-.148 2.542-.267 2.96l.357-.09c0 .12-.03.42-.09.898.06-.359.27-.658.627-.897 0 .12.06.21.179.269a233.834 233.834 0 0 0-.626 2.422c-.06-.299-.12-.538-.18-.717l-.089.09v-.09c-.178.897-.357 1.615-.536 2.153 0 .12-.03.479-.09 1.077l.09.359c0 .06-.03.18-.09.359a115.768 115.768 0 0 1-.715 6.55c.06-.18.15-.3.268-.36 0 .18.06.3.18.36h-.448c-.536 4.186-1.192 8.104-1.967 11.753l.626.18c.179-1.974.447-3.14.805-3.5l.268.27c-.06.299-.239 1.166-.537 2.601a43.245 43.245 0 0 1-.715 3.32l-.447 1.795c0 .18-.179.777-.537 1.794-.476 1.376-.894 2.393-1.251 3.05-.716 1.197-1.252 2.214-1.61 3.051-.656 1.436-1.103 2.483-1.341 3.14-.12.42-.626 1.077-1.52 1.975-.716 1.016-1.49 1.854-2.325 2.512l-.18.18.448-.18c-.239.12-.507.269-.805.448-.12.12-.447.3-.984.539-.655.239-1.132.389-1.43.448h-.09c-2.92.718-5.216-.269-6.885-2.96-3.458-5.623-4.382-11.605-2.772-17.945 1.192-4.606 4.054-10.08 8.584-16.42 2.623-3.648 5.395-6.908 8.316-9.78a41.241 41.241 0 0 1 3.398-3.05c.12-1.854.209-3.649.269-5.383-3.339 6.4-6.826 8.254-10.463 5.563-2.682-1.974-4.322-4.726-4.918-8.255-.596-3.17-.268-6.43.984-9.78 1.311-3.29 3.19-5.832 5.633-7.626 2.683-1.914 5.574-2.542 8.674-1.885 1.252.3 1.61.958 1.073 1.974-.536.957-1.37 1.316-2.504 1.077-2.503-.598-4.709.688-6.617 3.858-1.728 2.692-2.593 5.563-2.593 8.614-.06 2.033.239 4.187.894 6.46.835 2.93 1.938 3.648 3.309 2.153 4.173-4.486 6.379-10.169 6.617-17.047v-1.526c0-.717.387-1.166 1.162-1.346.716-.179 1.401-.06 2.057.36h1.163v.179h.268c.06.24.09.807.09 1.705.059 1.076.089 2.003.089 2.781.119 2.452.119 3.738 0 3.858l-.269-.18c0 .36-.06.599-.178.718v-.179a1.04 1.04 0 0 0-.269-.18v.898c.06.06.15.12.269.18v-.629h.089l.09.897c.297-.06.476-.09.536-.09.06 1.197-.12 1.975-.537 2.333l-.178-.09.089-.627h-.358v.269h.18l-.09.718-.18-.09v.449h.448c.06-.18.149-.21.268-.09.12.06.209.21.269.448l-.269-.179c0 .24.06.419.18.538.059 0 .118.03.178.09.06.18-.03 1.436-.268 3.768l-.269-.18c.418-.777.298-1.465-.357-2.063l.447.18c-.06-1.017-.179-1.675-.358-1.974l-.179.18a8.9 8.9 0 0 1-.09 1.255v1.615h.359zm-10.342 43.746c1.758-4.97 3.135-11.065 4.13-18.284.528-4.32.968-9.053 1.32-14.201-.411.236-.645.384-.704.443l-.352-.443h.528a2.78 2.78 0 0 1 .527-.71c0-.119.03-.267.088-.444V89c-1.758 1.48-3.223 2.929-4.395 4.35-7.558 8.757-11.425 18.194-11.601 28.313-.059 3.017.527 6.094 1.758 9.23.351.415.79.8 1.318 1.154l.352.355c.117 0 .234.06.351.178.352.296.557.503.616.621-.586 0-1.202-.207-1.846-.621.351.65.703 1.065 1.054 1.242v-.088l.616.266c.586 0 1.142-.355 1.67-1.065 1.289-1.598 2.812-4.882 4.57-9.852zm6.537-5.51a96.669 96.669 0 0 1-.91 3.666h.092l-.182.376v-.094a153.446 153.446 0 0 1-1 3.479c.182-.188.333-.533.455-1.034.12-.25.272-.627.454-1.128.182-.627.273-1.003.273-1.129.545-1.567.879-2.695 1-3.384.303-1.504.576-2.601.818-3.29l-.182-.095.091-.188-.09-.752c0 .188-.152.846-.455 1.974h.09l.091.282-.272.188v-.094c-.182.878-.273 1.285-.273 1.223zm2.917-13.21A342.575 342.575 0 0 0 503 108c.111-.97.194-1.667.25-2.09.111-.85.222-1.516.333-2 .111-.607.25-.91.417-.91l-.083 1.364zM505.556 95c-.075-.157-.223-.294-.445-.412-.296.157 0-.039.889-.588l-.222 1h-.222zM505 98c0-.125.04-.437.12-.938l.36-.062c0 .167.04.292.12.375 0 .208-.04.396-.12.563L505 98zm-7-6.23a.86.86 0 0 0 .1-.693c.267-.154.567-.077.9.23l-.8.693-.2-.23zm-4.889 6.03a1.502 1.502 0 0 1-.111-.5c.074-.133.111-.233.111-.3.519.133.815.2.889.2-.37.533-.63.8-.778.8v-.7l-.11.5zm-3.993 4.836c0-.06.274-.606.823-1.636H490l-.059.364A77.592 77.592 0 0 0 489 103l.118-.364zM506 76.263V75l.36.21-.12 1.79h-.12l-.12-.737zM504.84 99c-.16.844-.44 1.154-.84.929.32-.563.6-.873.84-.929zm-9-5l.12.333-.72.667v-.333l-.24-.111.84-.556zm7.64 14v.174c-.16.812-.32 1.42-.48 1.826 0-.29.16-.957.48-2zm3.24-35.4l-.72.12.12-.72h.12l.48.6zM498 92.12a.6.6 0 0 1 .72 0c.08 0-.12.16-.6.48l-.12-.48zm6 10.24c.08-.08.2-.16.36-.24l.48-.12c-.08.24-.24.44-.48.6l-.12-.24H504zm-.4 7.64c-.08.08-.2.12-.36.12.08.32.08.6 0 .84-.16-.32-.2-.56-.12-.72L503 110h.6zm-1.6 4.96c.16-.32.28-.6.36-.84L502 114v.96zM492.48 100h.12l-.48.72-.12-.24.48-.48zm12.64-7l.6.24-.72.12.12-.36zm-.64 8.48l-.48-.36.48-.12v.48zM506 87h.48v.36l-.48-.24V87zm1-9l.24.12v.48h-.12L507 78zm-1.4 15.36c-.24-.08-.44-.12-.6-.12l.6-.24v.36zM498.48 92l.12.12c-.24.16-.44.24-.6.24l.48-.36zm7.76-20.52h-.12L506 71l.24.12v.36zM506 97.6c0-.24.08-.44.24-.6l-.12.6H506zm0-8.48l.36-.12v.36l-.36-.24zm-.88 1.88c-.08.24-.12.48-.12.72l.12-.12V91zm-.12 10.48c.08-.24.2-.4.36-.48l-.24.48H505zm0 2.52l.24.12-.12.36-.12-.48zm-5 19.12l.24-.12-.12.48-.12-.36zm6-47.16c0-.56.04-.88.12-.96l-.12.96zm1.24 3.4c-.08-.08-.16-.2-.24-.36l.24.12v.24zm-2.12 16.36c-.08-.16-.12-.4-.12-.72l.12.48v.24zm.12-6.36l-.24-.24.24-.12v.36zm-.24-3l.24-.12L505 86v.36zm.36 9.88L505 96h.36v.24zm-1 7H504l.12-.24.24.24zm.88-14.76L505 88l.24.12v.36zM497 132.36V132l.24.12-.24.24zm10.24-52.12c-.08 0-.16-.08-.24-.24h.24v.24zm-15 17.76l.12.12-.36.24.24-.36zm5-9.88l-.24.12V88l.24.12zM493 135.36l.48-.36-.48.48v-.12zm14.24-56.12L507 79h.24v.24zm-2 10L505 89h.24v.24zm-.24 2h.12V91H505v.24zm.24 8.24L505 99l.24.24v.24zm-.24 8l.24-.48-.12.48H505zm-2 1.76V109l.24.24H503zM504 63c.08.08.16.12.24.12V63H504zm3 15.36l.12-.36v.36H507zm-9 51c.16-.16.32-.28.48-.36l-.48.36zm7.12-36.24l-.12.12V93l.12.12zm-4.06 24.12c-.08-.16-.08-.24 0-.24v.24zm2.06-7.12H503V110l.12.12zM505.24 98c-.08.08-.16.12-.24.12l.24-.12zm15.794-44a.163.163 0 0 0-.034.03c0-.017.003-.027.01-.03h.024zm.03 0c.02-.008.077.06.172.203.238.06.417.09.537.09 0-.12.03-.18.09-.18.238.18.417.3.536.36.418 0 .746.03.984.09l-.179.27c.656.362.865.903.627 1.624.238-.782-1.074-.24-3.937 1.623-.18.18-.358.42-.537.72-.239.361-.388.662-.448.902l-.537.541c-.06.06-.119.09-.178.09-.12.361-.21.752-.269 1.172-.12.301-.209.662-.268 1.082.06.481.149.932.268 1.353A4.03 4.03 0 0 0 519 65.923l-.448.27c-.238-.24-.387-.36-.447-.36.239.54.567 1.052.984 1.533l.18.18v-.09c.059.12.119.21.178.27.537.481 1.193.932 1.969 1.353h.268l.09.18c.298.12.954.39 1.968.811l-.09-.18c.12.06.24.15.359.27.238.06.477.15.715.27.836.362 1.551.752 2.148 1.173l.179.18c2.983-2.344 8.023-4.477 15.122-6.4.954-.241 1.55-.241 1.79 0 .178.24-.299.48-1.432.72-2.386.601-5.011 1.593-7.874 2.976-2.923 1.382-4.355 2.374-4.295 2.975 0 .06-.03.15-.09.27l.09-.27-.18.18a.683.683 0 0 1-.268.09c0 .24.06.511.18.812l-.896.54c.06 0 .15.03.269.09h.268l.09.181v.09c.12-.12.268-.18.447-.18v-.721c.18.18.477.33.895.45l-.09.09c-.298.18-.656.421-1.073.722.835 1.563 1.252 2.494 1.252 2.795l.09.36c.179 0 .477.09.895.27 0 .542.208 2.134.626 4.779l.179-.36.179.09c0 1.682-.268 3.456-.805 5.319 0 .36-.03.721-.09 1.082l.269.09c-.12.12-.269.36-.448.721-.06.36-.149.691-.268.992h.09l-.09.63h-.18c-.059.181-.059.241 0 .181h.09c0 .12-.09.27-.268.45-.835 2.766-2.088 4.75-3.758 5.951.06.06.09.12.09.18l-.359.09-.358.181v.09h-.179c-.417.24-.805.42-1.163.541-1.55.42-3.4.06-5.547-1.082-2.088-1.082-3.55-2.374-4.385-3.876-2.088-3.487-1.55-7.544 1.61-12.172 1.85-2.704 4.147-5.289 6.89-7.753-.656-.42-1.73-.992-3.22-1.713-1.552-.721-2.685-1.322-3.4-1.803-1.552-.902-2.775-2.284-3.67-4.147-1.014-1.924-1.312-3.727-.894-5.41 1.073-4.387 3.31-6.641 6.71-6.761.299 0 .657.03 1.074.09.095-.143.133-.21.115-.202h-.018zm-2.258 30.26c.061.062-.03.062-.275 0-.122.307-.213.49-.274.552.183.183.488.275.916.275-.978 1.836-1.344 3.427-1.1 4.773.184 1.53 1.039 2.784 2.565 3.763-.06-.061.306.153 1.1.643.916.367 1.343.52 1.282.459.367.122.703.214 1.008.275 1.16-.428 2.138-1.53 2.932-3.304 2.137-4.59 2.595-8.843 1.374-12.759A11.01 11.01 0 0 0 526.868 76c-1.466 1.407-2.412 2.295-2.84 2.662l-.366-.092v-.184c.122-.06.55-.49 1.282-1.285l-.183-.091a20.23 20.23 0 0 1-.825.367c-.305.183-.58.306-.824.367.061-.061.092-.122.092-.184-.245.306-.459.582-.642.826.061.123.061.215 0 .276v-.276a5.364 5.364 0 0 0-.458.551l.183-.092c-.06.062-.122.092-.183.092-.488.612-.946 1.193-1.374 1.744l.366.184-.091.092v.091l-.275-.275a22.927 22.927 0 0 0-1.924 3.029h.183l-.183.459zm.194 1.528c.432-.822.957-1.676 1.574-2.562-.123 0-.216-.032-.278-.095.185-.063.309-.063.37 0 .371-.57.803-1.107 1.297-1.613.556-.506 1.018-.854 1.389-1.044-.062-.063-.093-.158-.093-.284V80l.741.19-.833.949c-1.235 1.518-1.852 2.308-1.852 2.372l-1.019 1.233c-.555.949-.802 1.36-.74 1.234l-.556-.19zm14.937-4.504a33.763 33.763 0 0 1-.602 8.716l-.335-.095c.625-3.031.848-6 .67-8.905l.267.284zm-15.328 6.22c.232-.353.348-.735.348-1.146.057-1.056.057-1.496 0-1.32a12.94 12.94 0 0 0-.696 1.673 6.612 6.612 0 0 0-.261 1.144c.058.118.087.5.087 1.145l.348-.176c-.058-.176 0-.616.174-1.32zM526.579 75l-.105.095c-.281-.063-.772.381-1.474 1.334.14.127.246.317.316.571.28-.254.842-.794 1.684-1.619l-.421-.381zm7.229 6c-.24-1.152-.509-2.152-.808-3h.359c.598 1.394.778 2.394.538 3h-.09zm-16.457 9.714c.018.038.049.134.093.286.297-.127.482-.286.556-.476-.222-.127-.37-.476-.444-1.048A1.869 1.869 0 0 1 517 89c0 .317.037.635.111.952.074.127.148.286.222.477l.111.095.112.19h-.205zm.668.31H518c0-.032.006-.032.02 0zM518 92.111c.148.296.333.593.556.889a.986.986 0 0 0 .444-.111c-.074-.222-.111-.37-.111-.445l-.556-.444c-.074 0-.185.037-.333.111zm14.08-.378c-.16-.266-.08-.51.24-.733.08.311.16.511.24.6l-.36.4-.12-.067v-.2zM530.72 94c0 .121.04.333.12.636l-.48.364-.36-.182.36-.273.36-.545zm-10.56-25.4c-.16-.16-.2-.36-.12-.6.32.16.6.32.84.48l-.24.12h-.48zm12.08 20.52l.48-.12-.24.72-.48-.12.24-.48zM520 94.36l.12.12c.32-.08.4-.12.24-.12l.24-.36h-.48l-.12.36zm12.03-18.343c-.02-.023-.03-.023-.03 0h.03zM532 76h.33l.24.96-.24-.36c-.17-.343-.281-.543-.33-.6zm-7.556.8c.149-.2.334-.467.556-.8-.444.4-.778.733-1 1l.444-.2zm4.028-3.337a1.058 1.058 0 0 1-.112-.463l-.36.24v.12l.12.12v.12c.246-.123.374-.175.383-.156l-.031.019zM519.48 67c-.08.32-.24.44-.48.36l.12-.24.12-.12h.24zm-.36-.28c-.08-.24-.12-.48-.12-.72.16.24.28.4.36.48l-.24.24zm3.48 13.88l-.6-.12.36-.48-.12.24.36.36zm-.6-.6c.4 0 .64.12.72.36L522 80zm10 10l.36.12-.12.36L532 90zm-12 3.12l.36.36-.12-.48-.24.12zm0-25.76l.24-.36c0 .16-.04.36-.12.6l-.12-.24zm2.24 26.88l.12-.24c-.08 0-.2.04-.36.12l.24.12zm1.24-15.12l-.48.24.36-.36.12.12zM519 93c.08.08.16.12.24.12l.24-.12H519zm12-17.52l.12-.48c.08.16.12.28.12.36.08.08.16.12.24.12-.08 0-.16-.04-.24-.12l-.12-.12-.12.24zM518 90c.16 0 .32.04.48.12L518 90zm12.12-18c0 .08-.04.16-.12.24l.12-.24z" fill="#F8B5B5"/><path d="M87.134 103.081v4.25h5.546v.988h-5.546v4.588H86v-10.814h7.354v.988h-6.22zm10.862-.988h1.133v10.814h-1.133v-10.814zm15.887 0v10.814h-.935l-6.894-8.775v8.775h-1.134v-10.814h.935l6.91 8.775v-8.775h1.118zm5.79 0h1.135v10.814h-1.134v-10.814zM129.556 113c-.796 0-1.56-.129-2.29-.386-.73-.258-1.295-.598-1.693-1.02l.444-.88c.389.39.904.708 1.548.95a5.612 5.612 0 0 0 1.991.363c.96 0 1.68-.178 2.16-.533.48-.356.72-.817.72-1.383 0-.433-.13-.778-.39-1.035a2.634 2.634 0 0 0-.958-.595 15.386 15.386 0 0 0-1.578-.456c-.806-.206-1.45-.404-1.93-.595a3.17 3.17 0 0 1-1.233-.872c-.342-.392-.513-.922-.513-1.592 0-.546.143-1.043.429-1.49.285-.449.725-.807 1.317-1.074.592-.268 1.328-.402 2.206-.402.613 0 1.213.085 1.8.255.588.17 1.096.404 1.525.703l-.383.911a5.25 5.25 0 0 0-1.44-.672 5.333 5.333 0 0 0-1.502-.224c-.94 0-1.647.183-2.122.549-.475.365-.712.837-.712 1.413 0 .433.13.78.39 1.043.261.263.588.464.981.603.393.139.922.29 1.586.456.786.195 1.422.388 1.907.579.485.19.896.479 1.233.865.337.386.506.909.506 1.568 0 .546-.146 1.043-.437 1.491-.29.448-.738.803-1.34 1.066-.603.263-1.343.394-2.222.394zm17.726-10.907v10.814h-1.119v-4.99h-6.71v4.99h-1.133v-10.814h1.133v4.82h6.71v-4.82h1.119zm5.79 0h1.135v10.814h-1.134v-10.814zm15.888 0v10.814h-.935l-6.894-8.775v8.775h-1.133v-10.814h.934l6.91 8.775v-8.775h1.118zm13.344 5.407h1.088v4.125c-.5.443-1.093.783-1.778 1.02a6.556 6.556 0 0 1-2.16.355c-1.072 0-2.037-.237-2.895-.71a5.221 5.221 0 0 1-2.023-1.97c-.49-.84-.735-1.78-.735-2.82 0-1.04.245-1.98.735-2.82a5.221 5.221 0 0 1 2.023-1.97c.858-.473 1.828-.71 2.91-.71.818 0 1.568.131 2.253.394a4.474 4.474 0 0 1 1.73 1.166l-.704.727c-.848-.845-1.925-1.267-3.232-1.267-.869 0-1.652.193-2.352.579a4.24 4.24 0 0 0-1.647 1.607c-.398.685-.597 1.45-.597 2.294 0 .845.199 1.607.597 2.287.398.68.945 1.215 1.64 1.606.694.392 1.475.587 2.343.587 1.103 0 2.038-.278 2.804-.834V107.5zm14.983-4.419h-3.769v-.988h8.671v.988h-3.768v9.826h-1.134v-9.826zM210.829 113c-1.062 0-2.025-.24-2.888-.718a5.223 5.223 0 0 1-2.022-1.97c-.485-.834-.728-1.772-.728-2.812 0-1.04.243-1.978.728-2.812a5.223 5.223 0 0 1 2.022-1.97c.863-.479 1.826-.718 2.888-.718 1.062 0 2.02.237 2.873.71a5.236 5.236 0 0 1 2.014 1.97c.49.84.736 1.78.736 2.82 0 1.04-.246 1.98-.736 2.82a5.236 5.236 0 0 1-2.014 1.97c-.853.473-1.81.71-2.873.71zm0-1.02c.848 0 1.614-.193 2.298-.579a4.175 4.175 0 0 0 1.609-1.607c.388-.685.582-1.45.582-2.294 0-.845-.194-1.61-.582-2.294a4.175 4.175 0 0 0-1.609-1.607c-.684-.386-1.45-.58-2.298-.58-.848 0-1.616.194-2.306.58-.689.386-1.23.922-1.624 1.607-.393.685-.59 1.45-.59 2.294 0 .845.197 1.61.59 2.294.394.685.935 1.22 1.624 1.607.69.386 1.458.58 2.306.58zm14.784 1.02c-1.389 0-2.472-.402-3.248-1.205-.776-.803-1.164-1.972-1.164-3.507v-6.195h1.134v6.149c0 1.256.28 2.193.842 2.811.562.618 1.374.927 2.436.927 1.072 0 1.89-.309 2.451-.927.562-.618.843-1.555.843-2.811v-6.15h1.103v6.196c0 1.535-.386 2.704-1.157 3.507-.77.803-1.85 1.205-3.24 1.205zm14.769 0c-1.062 0-2.02-.237-2.873-.71a5.181 5.181 0 0 1-2.007-1.97c-.485-.84-.727-1.78-.727-2.82 0-1.04.242-1.98.727-2.82a5.167 5.167 0 0 1 2.015-1.97c.858-.473 1.818-.71 2.88-.71.797 0 1.532.134 2.206.402.674.267 1.246.659 1.716 1.174l-.72.726c-.838-.855-1.895-1.282-3.171-1.282a4.63 4.63 0 0 0-2.314.587 4.27 4.27 0 0 0-1.631 1.606c-.393.68-.59 1.442-.59 2.287s.197 1.607.59 2.287a4.27 4.27 0 0 0 1.631 1.606 4.63 4.63 0 0 0 2.314.587c1.287 0 2.344-.432 3.171-1.297l.72.726a4.636 4.636 0 0 1-1.723 1.182c-.68.273-1.418.409-2.214.409zM258 102.093v10.814h-1.118v-4.99h-6.71v4.99h-1.134v-10.814h1.133v4.82h6.71v-4.82H258z" fill="#222"/><path d="M3.385 108H59.7" stroke="#222" stroke-width="2" stroke-linecap="square"/></g></svg>