<svg width="188" height="47" viewBox="0 0 188 47" xmlns="http://www.w3.org/2000/svg"><title>Group 12</title><g fill="none" fill-rule="evenodd"><path d="M16.781.702l.122 4.955c0 .12-.486.12-.486 0-.203-2.838-1.864-4.476-4.456-4.476H9.489c-2.633 0-3.24.48-3.24 2.438v8.75h4.091c2.876 0 4.01-.839 4.01-2.797 0-.16.446-.16.446 0 0 1.599-.04 2.238-.04 3.237 0 1.239.08 2.318.08 3.676 0 .16-.445.16-.445 0 0-2.317-1.175-3.276-4.172-3.276h-3.97v8.71c0 2.398.648 2.917 4.901 2.917.122 0 .122.48 0 .48-1.782 0-3.767-.08-6.238-.08-1.783 0-3.484.08-4.82.08-.122 0-.122-.48 0-.48 2.997 0 3.524-.44 3.524-2.757V3.58C3.616 1.3 3.129.822.172.822c-.162 0-.162-.48 0-.48h16.245c.283 0 .364.12.364.36zm9.797 2.917v18.3c0 2.158.491 2.558 3.313 2.558h4.416c3.19 0 5.03-2.118 5.562-5.315 0-.12.49-.08.49.08-.204 1.479-.408 3.756-.408 5.474 0 .44-.123.6-.614.6H20.444c-.122 0-.122-.48 0-.48 2.986 0 3.476-.44 3.476-2.757V3.58c0-2.278-.49-2.757-3.476-2.757-.122 0-.122-.48 0-.48 1.309 0 2.986.12 4.785.12 1.922 0 3.558-.12 4.825-.12.164 0 .164.48 0 .48-2.985 0-3.476.52-3.476 2.797zm42.575 21.555c.244 0 .244.484 0 .484-1.5 0-3.203-.161-4.663-.161-1.704 0-2.799.16-4.3.16-.242 0-.242-.483 0-.483 2.88 0 3.448-.645 2.353-2.982l-4.704-9.874h-7.624l-3.488 8.222c-1.42 3.304-.162 4.634 3.406 4.634.244 0 .244.484 0 .484-1.622 0-2.676-.161-4.785-.161-1.947 0-2.798.16-4.46.16-.244 0-.244-.483 0-.483 2.189 0 3.284-1.007 4.987-4.997L54.432.107c.04-.122.487-.162.527 0l9.571 20.03c1.906 4.03 2.92 5.037 4.623 5.037zM50.363 11.29h6.9l-3.634-7.526-3.266 7.526zM107.19.342c.122 0 .122.484 0 .484-1.75 0-3.135.766-4.153 3.186l-8.63 21.495c-.123.201-.815.201-.937 0l-5.293-11.453-4.6 11.453c-.081.201-.814.201-.896 0L72.543 3.689c-.977-2.177-1.791-2.863-3.46-2.863-.123 0-.123-.484 0-.484 1.058 0 2.076.121 3.379.121 2.28 0 3.623-.12 4.844-.12.163 0 .163.483 0 .483-2.117 0-2.972.524-1.954 2.702l8.631 18.43 3.664-9.034-4.275-9.235C82.436 1.673 81.54.826 79.993.826c-.163 0-.163-.484 0-.484 1.018 0 2.036.121 3.298.121 1.71 0 2.646-.12 3.501-.12.122 0 .122.483 0 .483-1.71 0-1.791.323-.651 2.702l2.931 6.25 2.443-5.968c.855-2.137.57-2.984-1.262-2.984-.163 0-.163-.484 0-.484.855 0 1.221.121 2.646.121 1.506 0 2.199-.12 3.542-.12.122 0 .122.483 0 .483-1.71 0-3.013.686-4.03 3.186l-2.81 6.896 5.17 11.05 7.37-18.067c.814-2.097.081-3.065-2.769-3.065-.162 0-.162-.484 0-.484 1.303 0 2.28.121 4.194.121 1.506 0 2.239-.12 3.623-.12zm7.353 3.277v18.3c0 2.158.49 2.558 3.312 2.558h4.417c3.19 0 5.03-2.118 5.561-5.315 0-.12.49-.08.49.08-.204 1.479-.408 3.756-.408 5.474 0 .44-.123.6-.613.6h-18.893c-.123 0-.123-.48 0-.48 2.985 0 3.476-.44 3.476-2.757V3.58c0-2.278-.491-2.757-3.476-2.757-.123 0-.123-.48 0-.48 1.308 0 2.985.12 4.784.12 1.922 0 3.558-.12 4.826-.12.163 0 .163.48 0 .48-2.986 0-3.476.52-3.476 2.797zm33.306 15.743c.04-.12.482-.08.482.08-.2 1.399-.362 3.596-.362 5.274 0 .44-.16.6-.603.6h-16.852c-.16 0-.16-.48 0-.48 2.936 0 3.419-.44 3.419-2.757V3.58c0-2.278-.483-2.757-3.419-2.757-.16 0-.16-.48 0-.48h16.128c.282 0 .362.12.362.36l.12 4.955c0 .12-.482.12-.482 0-.201-2.838-1.85-4.476-4.424-4.476h-2.453c-2.695 0-3.218.48-3.218 2.597v8.152h4.907c2.574 0 3.58-.84 3.58-2.837 0-.12.482-.12.482 0 0 1.598-.04 2.277-.04 3.236 0 1.24.08 2.358.08 3.677 0 .16-.482.16-.482 0 0-2.318-1.046-3.277-3.74-3.277h-4.787v9.19c0 2.078.523 2.558 3.137 2.558h3.218c2.534 0 4.384-1.958 4.947-5.115zm8.409-14.226c0 3.33 2.813 4.935 5.667 6.62 2.974 1.806 6.069 3.531 6.069 7.383 0 3.812-2.934 6.861-8.28 6.861-1.929 0-3.818-.441-5.667-1.404-.28-.16-.321-.361-.361-.763l-.523-5.456c-.04-.241.402-.281.483-.08.683 3.21 2.732 7.061 6.993 7.061 2.371 0 4.782-1.123 4.782-4.614 0-3.852-2.933-5.577-5.827-7.343-2.894-1.725-5.707-3.41-5.707-7.142 0-4.213 3.778-6.259 7.475-6.259 1.487 0 3.135.28 4.702.963.402.16.644.401.644.682l.24 4.614c0 .2-.401.241-.482 0-.24-2.126-1.808-5.657-5.747-5.657-3.175 0-4.461 2.207-4.461 4.534zm20.007 0c0 3.33 2.814 4.935 5.667 6.62 2.974 1.806 6.069 3.531 6.069 7.383 0 3.812-2.934 6.861-8.28 6.861-1.928 0-3.817-.441-5.666-1.404-.282-.16-.322-.361-.362-.763l-.522-5.456c-.04-.241.401-.281.482-.08.683 3.21 2.733 7.061 6.993 7.061 2.371 0 4.783-1.123 4.783-4.614 0-3.852-2.934-5.577-5.828-7.343-2.894-1.725-5.707-3.41-5.707-7.142 0-4.213 3.778-6.259 7.475-6.259 1.488 0 3.135.28 4.703.963.402.16.643.401.643.682l.241 4.614c0 .2-.402.241-.482 0-.241-2.126-1.809-5.657-5.748-5.657-3.175 0-4.46 2.207-4.46 4.534z" fill="#222"/><path d="M155.04 20.288a3.542 3.542 0 0 1-.011.006c-.006-.005-.005-.008 0-.008l.012.002zm-.147.11a.683.683 0 0 0 .147-.09.51.51 0 0 1-.125-.03.693.693 0 0 0-.218-.094l.094.406c.145-.042.208-.063.187-.063-.02.042.041.073.187.094v-.094l.031.031.063.125h.218c.042.208-.031.333-.218.375l-.094-.032.031-.093-.25-.031-.093.03.25.032-.032.125-.187-.031.063.062.25.031c.02-.02.051-.02.093 0 .083.02.135.052.156.094l-.156-.063c.02.042.052.073.093.094.021 0 .052.01.094.031h.031l-.031-.187.156.062-.062.25h-.032l-.027-.11c.006.061-.058.254-.191.578l-.125-.031c.208-.104.156-.219-.156-.344l.219.032c-.021-.167-.073-.27-.156-.312h-.063c0 .02-.052.176-.156.468l.25.03a.535.535 0 0 1-.219.032c.021.042.073.073.156.094-.083.02-.135.041-.156.062-.02-.02.01.135.094.468.083.02.146.041.187.062.125-.02.146-.104.063-.25-.063-.145-.021-.228.124-.249-.041.104-.052.333-.03.686.02.354.051.551.093.593l.28.031-.062.031-.125-.03v.155l-.093-.031.062-.125-.156.031c0 .042-.02.104-.062.188.041.02.073.041.093.062a5.063 5.063 0 0 0-.218.374.262.262 0 0 1-.031-.218c.041-.125.093-.198.156-.218l-.094-.063c.104-.333.115-.53.031-.592a.347.347 0 0 1-.156.03l-.062-.062c0 .354-.042.572-.125.655h.156l-.031-.03h.062v.03c-.02.021-.03.084-.03.188l.062-.032c-.021.021-.042.032-.063.032-.02.02-.031.052-.031.093l.062-.031c-.02.02-.041.031-.062.031-.083.25-.198.426-.343.53l-.031-.03.124-.999c-.083-.27-.062-.447.063-.53a1.168 1.168 0 0 1-.218-.375l.03.156-.093.188.094.03-.063.063-.03-.031v.125c.02-.021.051-.031.093-.031v.03h-.094c-.02.604-.062 1.27-.125 1.997.063-.374.177-.572.343-.593l.063.094c-.104.104-.156.385-.156.842-.02.416-.104.655-.25.718a6.09 6.09 0 0 1 0-.874v-.062c-.02.208-.041.457-.062.749l.031.03-.062.188c0 .041-.01.135-.031.28l.03.032c-.02.29-.051.53-.093.717a.491.491 0 0 1 .187-.125c-.02.063-.03.25-.03.562 0 .25-.074.416-.22.5l-.062-.032v-.031c-.02.02-.03.052-.03.093l.03-.03.094.061h-.125a.24.24 0 0 1-.031.094l.094-.062-.032.093-.062-.031v.062h.125l-.063.188h-.062v-.188l-.031.094c0 .083-.01.135-.031.156l.093.031v.031a.363.363 0 0 1-.093-.062c0 .02-.01.073-.032.156a.24.24 0 0 1 .094-.031c0 .332-.052.51-.156.53 0-.02-.01.052-.031.218h-.031v.156c-.063.312-.094.52-.094.624-.042.229-.094.479-.156.749l.187.062v.063h.094c.041-.333.166-.822.374-1.466a.677.677 0 0 1-.25-.125v-.031c.125 0 .188-.021.188-.063.083 0 .156-.187.218-.561.02-.063.042-.25.063-.562a2.83 2.83 0 0 1 .124-.499l.063-.125h-.125l.062.125-.093-.031v-.031l-.063-.125.281.031c-.041-.312.01-.499.156-.561l.031.03c-.041-.04-.041-.072 0-.093l-.062-.062.156.031c-.02.02-.042.031-.063.031.042.021.052.052.032.094l.062.031c-.353 1.352-.52 2.048-.5 2.09-.27.437-.363.77-.28.998.021.063-.041.219-.187.468-.125.229-.135.374-.031.437l.062-.031c-.27.748-.437 1.143-.499 1.185l-.093-.062.062-.25c.062-.125.114-.25.156-.374l.156-.406a.722.722 0 0 0-.156-.093c-.083-.021-.125-.052-.125-.094a4.424 4.424 0 0 1-.187.562l.25.093-.219-.031-.031-.031a7.422 7.422 0 0 1-.218.624c.083.083.166.176.25.28a.987.987 0 0 0 .093-.218l.093.031-.062.125c-.042.062-.062.104-.062.125.062.062.187.176.374.343l.031-.063.187.188-.031.03c.146.105.26.198.343.282l.156.124-.125-.156h.156c.187.23.354.395.5.5.187.166.311.28.374.343v-.094c.187.125.312.229.374.312a1.21 1.21 0 0 1-.156-.062 2.972 2.972 0 0 1-.437-.281h-.03l-.032.093a3.044 3.044 0 0 0-.374-.374c-.042 0-.115-.031-.219-.094l-.062.063.125.125h.03l.157.156c.145.104.322.218.53.343l-.062-.094.187.063-.062.062c.332.187.727.385 1.185.593l.406.124.03.032a.869.869 0 0 0 .188.062c.041.02.114.052.218.094l.031-.032.219.063.156.062a.363.363 0 0 1-.094.063h.031c.458.187.718.29.78.311l-.187.032c.27.083.624.124 1.06.124a.917.917 0 0 0-.218.032c.188.02.333.03.437.03l.655-.062c.167-.02.302-.041.406-.062.19-.024.376-.078.555-.163a5.218 5.218 0 0 1-.992.381l.125-.03a.489.489 0 0 1-.094.124l-.031-.094-.156.032.094-.125v-.031l-.281.062.125.094c-.063.02-.146.041-.25.062l.031.062-.218-.03c-.187.04-.333.072-.437.093l-.031.03v-.03h-.187v.03l-.343-.03v-.063a1.21 1.21 0 0 1-.156-.062h-.063c-.083.042-.301.062-.655.062l-.125-.156c.125.021.208-.01.25-.093h-.031a17.008 17.008 0 0 1-.375-.156.396.396 0 0 1-.093.187l-.094-.094.063-.156a1.724 1.724 0 0 1-.343-.156l-.032.063-.03-.094c-.271-.124-.469-.218-.594-.28a.363.363 0 0 0-.093-.063.24.24 0 0 0-.094-.031h-.125l-.03-.094a4.17 4.17 0 0 1-.437-.218l-.188-.125-.03-.03a1.368 1.368 0 0 1-.282-.157 6.458 6.458 0 0 1-.25-.156l.063.187h.187c.084.104.198.219.344.343.145.125.25.23.312.312l-.063.032c-.457-.27-.676-.396-.655-.375l-.655-.436c.062-.084.114-.167.156-.25-.146-.125-.208-.166-.187-.125-.021.042-.021.156 0 .343l-.063-.03a11.76 11.76 0 0 0-.717-.656c-.25-.187-.406-.322-.468-.405a4.138 4.138 0 0 1-.156.28c-.208.208-.27.364-.187.468.104-.02.01.083-.28.312a.93.93 0 0 1-.126.094.363.363 0 0 0-.093.062 1.24 1.24 0 0 0-.187.156l-.188.187c-.062.104-.114.167-.156.187-.25.292-.51.5-.78.624-.124.104-.166.146-.124.125a8.187 8.187 0 0 1-.624.5c-.229.165-.343.26-.343.28a4.41 4.41 0 0 1-1.186.156 3.04 3.04 0 0 1-1.154-.28l.218-.032a3.559 3.559 0 0 1-.998-.718c-.125-.104-.197-.176-.218-.218a1.24 1.24 0 0 1-.156-.187l-.094-.187a2.058 2.058 0 0 1-.124-.343l-.063-.312a4.02 4.02 0 0 1-.031-1.123c.062-.354.135-.676.218-.967v-.031l.032-.125v.031c.145-.374.28-.686.405-.936.25-.395.51-.696.78-.904a2.44 2.44 0 0 1 1.154-.375l.28-.03.25.03.219.063.031-.032.094.032.156.062c.187.062.384.135.592.218.021-.02.042-.03.063-.03v.062a7.646 7.646 0 0 1 1.59.81l.125.063c.167-.478.323-1.03.468-1.653.042-.208.115-.489.219-.842.083-.375.145-.645.187-.812.104-.478.197-.904.28-1.278v-.063c.063-.686.115-2.443.157-5.272l-.156.094.062-1.372c.042-.458.062-.874.062-1.248.021-.832.01-1.633-.03-2.402a18.887 18.887 0 0 0-.25-2.37 18.816 18.816 0 0 0-.219-.905c.395-.042.874.052 1.435.28h.063l-.063.032.031.03.25-.062.187.032c-.02-.084.156.124.53.623l.125.437c.146.582.219 1.165.219 1.747 0 .707-.115 1.248-.344 1.622-.02.062-.01.135.032.218.041.084.041.146 0 .188l.124-.032c-.166.125-.187.23-.062.312l.062-.062c0 .166.01.645.032 1.435 0-.104.03.01.093.343.042.166 0 .27-.125.312l-.124-.063c-.021.063-.052.104-.094.125v-.031c-.168-.067-.26-.1-.28-.1l.008.002zm6.38 15.287zm.347-.134c.195-.132.382-.311.56-.539a6.8 6.8 0 0 0 .386-.613c.166-.266.304-.46.415-.583h.027a3.181 3.181 0 0 1-1.022 1.472 3.92 3.92 0 0 1-.366.263zm-12.683-4.857a1.68 1.68 0 0 0-.574.154l-.032-.031a.372.372 0 0 0-.096.062l.064.03c-.212.206-.404.513-.574.924-.148.37-.255.739-.318 1.108-.043.472-.011.821.095 1.047.043.062.053.092.032.092l.064.062.223.185c.127.143.276.256.446.338.34.185.659.236.956.154.277-.04.585-.215.925-.523.595-.472 1.115-1.098 1.562-1.878.02-.082.085-.246.19-.493a7.066 7.066 0 0 1-.573-.43v-.062l-.319-.185.032.154-.51-.246c-.425-.226-.807-.37-1.147-.431a.9.9 0 0 1-.191-.031h-.255zm-.317 4.775a3.316 3.316 0 0 1-.19-.04l.054.04v.02l.027.021c.073.014.155.027.245.041l.028-.04.027.04h.19c.218-.027.445-.088.681-.184l.136-.081v-.041a.582.582 0 0 1-.136.02c0 .028-.009.055-.027.082a.644.644 0 0 1-.517.102h-.11c.055-.04.082-.116.082-.225h-.027a1.999 1.999 0 0 1-.19.082.723.723 0 0 0-.191.061l.027-.04v-.123a.338.338 0 0 0-.081.04.613.613 0 0 0-.082.185h.245v.04h-.19zm4.23-2.027c.147-.13.293-.296.44-.5a6.15 6.15 0 0 1-.257-.166h-.036l-.256.388.146.056h-.11l-.036-.028a.67.67 0 0 0-.146.166l.073.028c.049.019.11.046.183.083v-.027zm1.95-11.422c-.027-.108-.013-.19.042-.244.192-.146.233-.254.123-.327-.137-.09-.192-.363-.164-.816l-.123.027c0 .544.013.998.04 1.36h.083zm3.374 13.53c-.077-.019-.053-.018.07.001h.252l-.126-.03c-.021-.019-.063-.029-.127-.029a1.028 1.028 0 0 1-.189-.059.921.921 0 0 1-.19-.029h.032l-.063-.03c-.19-.058-.431-.146-.726-.264a41.612 41.612 0 0 0-.788-.323c-.38-.157-.568-.245-.568-.265-.085-.04 0 .02.252.176l-.032.06c.064.019.148.048.253.087v-.029h.126a.37.37 0 0 1 .095.059v.03l.126.058.063-.03v.06c.358.137.673.254.947.352.228.097.426.165.593.205zm-10.987-2.808c.025-.198.11-.418.256-.66.146-.265.232-.44.256-.529a.498.498 0 0 0 .037-.165c-.244.286-.451.639-.622 1.057l-.073.33.146-.033zm5.784-.985l.031-.022.031.044.032-.044.125.066h-.031l.062.043h.032l.031.022c.02-.029-.02.037-.125.198.062.03.042.022-.063-.022l.063-.022-.094.022a5.327 5.327 0 0 0-.22-.11v-.022l-.03.022h-.032l.063-.11a.448.448 0 0 0-.157.066.4.4 0 0 1-.094-.044c.042-.014.104-.029.188-.043v-.022l.094.022.063-.022c.02.014.073.029.156.044l-.063-.022-.062-.044zm3.664 3.409c.1.128.14.257.12.385h-.06c-.38-.257-.589-.463-.629-.617l.03-.077.27.193.21.27.06-.154zm-4.271-1.234a.296.296 0 0 0-.039-.116 4.062 4.062 0 0 1-.231.347c.025-.025-.039.065-.193.27l.116.039c.025.025.051.038.077.038-.077-.051-.116-.09-.116-.115.129.102.257.077.386-.078.025-.025.102-.167.231-.424-.077 0-.129.013-.154.039h-.077zm4.743.946h.029l.056-.02h.114c.32.108.472.162.453.162v.02l.113.021c0-.013.02-.02.057-.02l.057.04c.227.041.368.062.425.062l.085.061a4.367 4.367 0 0 1-.822-.184 3.574 3.574 0 0 0-.198-.04.855.855 0 0 0-.199-.041.423.423 0 0 1 .17.102l-.34-.143v-.02zm-9.526-.155l-.038.033.115.101h.039v-.033l.077.033c.129-.022.219-.033.27-.033l.039-.135h-.155l-.038.101a4.074 4.074 0 0 1-.154-.235c-.103.067-.168.078-.193.034l.154-.068a.493.493 0 0 0-.309.034l.193.168zm9.223.828c.014 0 .115.09.303.27l-.065.077a.644.644 0 0 1-.217-.039l-.065-.115.044-.193zm-.738-1.735l.004.001.041.042a1.36 1.36 0 0 0-.045-.043zm0 0c-.352-.082-.584-.198-.694-.347h.133c.285.171.472.287.561.347zm-.708-8.146a3.254 3.254 0 0 0-.333.514c.083-.463.18-.694.291-.694l.042.18zm-8.15 7.221c-.083-.058-.125-.096-.125-.115h-.042v.144c0 .039.014.106.042.202v.03c0 .115.014.221.042.317.055-.019.083-.038.083-.057-.056-.116-.056-.29 0-.52zm5.387-.273c.063.042.137.094.22.158 0-.022.043-.137.127-.347-.02.02-.042.031-.063.031v.063l-.095-.031a.28.28 0 0 1-.126-.032v.032l-.063.126zm3.471 1.574l.104-.029.59.29-.07.057-.624-.318zm-4.36.114a1.86 1.86 0 0 1-.152.204.852.852 0 0 0 .13-.102c.072-.054.145-.122.217-.204l-.022-.02c-.029 0-.05-.007-.065-.02l-.043.06.021.02h-.021l-.044.042v.04l-.021-.02zm-4.526-.143a.216.216 0 0 1-.125.03c-.028 0-.014.02.042.06v.029h.042c-.056.198-.056.267 0 .208h.25l-.084-.119a.583.583 0 0 1-.125-.208zm8.095-9.381h-.25v-.333h.208c-.028.055-.014.097.042.125v.208zm-7.566 10.39l-.214-.283-.107-.032c.054.084.107.179.16.284h.054v.063c.036-.02.08-.02.134 0l-.027-.031zm7.49-10.779a.795.795 0 0 0-.174-.124l.347-.167-.07.333h-.034l-.07-.042zm-.868 9.41l-.145-.125a1.245 1.245 0 0 0-.203-.209v.167c.058.028.097.083.116.166h.232zm-2.527-1.083c.055-.083.083-.139.083-.167a2.038 2.038 0 0 1-.208-.124l-.125.333.25-.042zm11.024.75l-.167-.064.292-.284.041.032-.166.315zm-16.132.698a.676.676 0 0 0-.002-.005l.002.005zm.479.435a.254.254 0 0 1-.134-.093c.036.046.054.077.054.093l.293.254a1.475 1.475 0 0 1-.106-.162h-.027c0-.015-.009-.03-.027-.046l-.026-.07c.017 0-.01-.015-.08-.046-.018-.015 0 .008.053.07zm5.587-2.521a.761.761 0 0 0-.167.189c0 .02.042.042.125.063.028-.021.07-.032.125-.032l-.042.032c0 .021-.014.042-.041.063h.041l.042.032v-.127c0-.063.014-.105.042-.126h-.042l-.042.095-.041-.032v-.157zm-2.819 3.097c0 .017.014-.09.042-.322-.111.083-.14.124-.084.124a.621.621 0 0 0-.083.223.487.487 0 0 1 .125-.025zm-3.207-2.007c0 .066-.014.09-.042.074l.084.1v.049h-.084v.074h.167a.302.302 0 0 1-.042-.148h-.041l.041-.025v-.05h-.041c.027-.033.027-.066 0-.099l-.042-.025c-.028.033-.042.058-.042.075l.042-.025zm5.859-1.534a6.723 6.723 0 0 0-.318-.25h-.03l.03.166a.744.744 0 0 0 .318.084zm6.942 4.385c.044 0 .138-.042.282-.125l.065.125a9.555 9.555 0 0 1-.347.041v-.041zm.986-.61c-.056 0-.153.013-.292.04l.084-.166.25-.083-.042.208zm-5.151-10.27c-.026.194-.142.264-.347.208a.936.936 0 0 1 .347-.208zm6.178 9.922c-.123.084-.2.125-.231.125h-.046c.123-.083.239-.194.347-.333a.256.256 0 0 1-.07.125v.083zm-7.747-2.636a.938.938 0 0 1 .167.333l-.334-.292.042-.041h.125zm5.148 2.858c-.043 0-.08-.027-.108-.083h.043l.022.042h.13l.109.041h.043l-.022.084c-.159-.056-.231-.084-.217-.084zm-6.023-3.63a4.05 4.05 0 0 1-.333-.27v.078c.056.077.167.167.333.27v-.077zm6.922 3.672c-.14 0-.243-.028-.313-.083.046 0 .162-.014.347-.042l-.034.125zm-4.695-1.957c-.139-.139-.167-.222-.083-.25l.208.209-.125.041zm-6.212 2.387h-.166c.028-.083.055-.152.083-.208h.083v.208zm8.067-1.388a4.455 4.455 0 0 1-.25-.208l.334.125-.084.083zm-2.663-1.595c.167.154.25.27.25.346-.222-.23-.305-.346-.25-.346zm-.016-6.898l.166-.041c0 .11-.041.18-.125.208l-.041-.167zm5.414 9.673c.084.028.084.07 0 .125-.055.028-.125.028-.208 0l.208-.125zm-5.414-8.77l.083-.25.125.125-.208.124zm.388-6.495a1.753 1.753 0 0 0-.041.291c.027 0 .07-.097.125-.291h-.084zm-1.388 12.961c-.028 0 .055.028.25.084a.485.485 0 0 0-.125-.084l-.125-.125c0 .028-.014.056-.042.084l.042.041zm8.886 1.43l-.25.083.333-.25-.083.167zm-5.679-.347l-.125-.167.333.167h-.208zm-1.166-9.187a.409.409 0 0 1-.154.083l-.078-.042h-.115a.28.28 0 0 1 .115-.041h.232zm3.124 10.408l.25.042v.041h-.25v-.083zm-2.79-14.835h-.334l.083-.083h.042l.208.083zm-1.375 5.468h.125l.041.041-.125.084-.041-.042v-.083zm0 2.428l.166.042v.083l-.166-.041v-.084zm-1.57 3.941a.37.37 0 0 1-.166-.041l.042-.083.041.041h.125l-.041.042v.041zm1.736-4.898l-.125.041-.041-.083v-.042h.083l.083.084zm-1.083-5.773l-.125-.125.125-.084v.209zm-.125.485h.084v.209h-.042l-.042-.209zm.82 7.37l-.126-.042.084-.042.208.042-.167.041zm6.817 5.814h.291l-.291.083v-.083zm-7.637-12.837l.125.084-.125.083v-.167zm2.083.347l.25.042v.041l-.25-.041v-.042zm3.554 12.837c.056.028.111.07.167.125l-.25-.083.083-.042zm2.597-1.04c-.07.013-.153.034-.25.062a4.66 4.66 0 0 0 .25-.042v-.02zm-.25.02a.896.896 0 0 1 .166-.02 1.441 1.441 0 0 1-.166.04v-.02zm-6.942-8.561c.027-.111.083-.153.166-.125-.028.056-.083.097-.166.125zm4.373 8.887a.283.283 0 0 1-.208.083l.042-.083h.166zm1.736.347c-.056.028-.125.07-.209.125l.042-.125h.167zm.874-.694l.125.042-.166.083.041-.125zm-6.08-9.63l-.21-.084h.21v.083zm8.024 8.242a2.48 2.48 0 0 1-.25.333l.209-.333h.041zm-8.886-5.898l-.041.309.041.038v-.347zm.861-3.469v.083a.686.686 0 0 0-.208-.041l.208-.042zm.528 10.491c.027 0 .083.014.166.042-.11-.083-.18-.125-.208-.125l.042.083zm-.39-10.02a.272.272 0 0 1 .126-.124l-.042.125h-.083zm-8.593 8.716a.37.37 0 0 1-.042-.167c-.028.111-.042.18-.042.209h.042v-.084l.042.042zm8.594-11.962h.125v.083h-.042l-.083-.083zm-.014 2.817h-.333v-.042l.333.042zm-.25-1l-.083-.083h.125v.083h-.042zm-.042.958l.084.125c-.084-.028-.125-.07-.125-.125h.041zm-.388 1.471a.485.485 0 0 1 .125-.083c0 .055.014.083.041.083h-.166zm5.553 10.325c.111.028.209.055.292.083h-.083l-.209-.083zm-5.9-2.692h.166a.485.485 0 0 0-.125-.084l-.041.084zm1.124-7.98l-.083-.042c.028-.027.07-.041.125-.041l-.042.083zm-.305-2.082l-.125-.083h.125v.083zm0 .347l-.125-.083h.125v.083zm-.104 3.373c-.028-.028-.028-.14 0-.333v.333zm.673-4.108l.083-.042v.084h-.083v-.042zm3.124 12.92l.042-.125.041.125h-.083zm-3.346-9.756l-.125-.083h.125v.083zm-2.555 6.203a.32.32 0 0 1 .125-.041l-.042.083-.083-.042zm-.18 1.388c-.028.028-.084.014-.167-.042l.167.042zm9.497 1.346c-.084.083-.181.153-.292.208l.292-.208zm-7.11-9.978a.485.485 0 0 1-.124-.083l.125.042v.041zm.348-4.163h-.042l-.083-.083.125.041v.042zm-.111.388c-.028-.083-.014-.124.041-.124l-.041.124zm.458.611c-.056 0-.097-.014-.125-.042h.125v.042zm-.82 2.734l.167.042v.041l-.166-.083zm.167 1.082h-.166l.083-.041.083.041zm.611-2.123v.083l-.083-.041.083-.042zm-.347 2.859h-.083l.083-.083v.083zm5.29 8.937c-.028.056-.083.083-.166.083l.166-.083zm.042.389a.464.464 0 0 1-.208-.042l.208.042zm-7.15-3.511l.124.041h-.125v-.041zm-2.042-.31v-.037h-.041a.474.474 0 0 0 .041.037zm6.9 3.432c.022.028.039.056.053.083a.608.608 0 0 1-.052-.062v-.02zm.074.083a.782.782 0 0 0-.073-.083c.028.042.052.076.073.104v-.02zm-3.766-8.756l-.125.041v-.041h.125zm.347 2.123l-.125-.042h.125v.042zm-.125-8.368l.125.041h-.125v-.041zm5.554 15.265c.083 0 .152.014.208.042l-.208-.042zm-1.042 0c.056 0 .097.028.125.083l-.125-.083zm2.208-.694a.272.272 0 0 1-.125.125l.125-.125zm-8.109-4.51l.084.042h-.084v-.042zm2.125-7.896h-.042l.042-.084v.084zm.041-.694l-.083-.084.083.042v.042zm0-.042c-.027-.028-.055-.042-.083-.042h.083v.042zm-.777 2.04h.083l-.083.042v-.042zm.694-1.304l.042-.084v.084h-.042zm-1.305 7.938c-.028-.028-.056-.042-.083-.042h.083v.042zm-.083-.694c.027-.028.069-.042.125-.042l-.125.042zm6.942 5.592a.452.452 0 0 1 .166-.083l-.166.083zm-6.9-4.551h-.042l.083-.042-.042.042zm6.678 4.468c-.028.056-.07.083-.125.083l.125-.083zm-5.943-13.53c-.028.027-.055.041-.083.041l.083-.042zm.611.041l.042-.042v.042h-.042zm-8.33 13.142l.041.042h-.042v-.042zm14.63 0a.13.13 0 0 0-.052.031.23.23 0 0 0 .073-.01l-.021-.02zm-.052.01a.23.23 0 0 1 .073-.01.13.13 0 0 1-.052.031l-.021-.02zm-6.911-8.336a.163.163 0 0 1-.031.041c0-.014.003-.028.01-.041h.021zm-.01-.306a.092.092 0 0 0 .01-.041.163.163 0 0 0-.031.041h.02zm9.395 3.573c1.588-1.702 3.123-3.963 4.604-6.784.191-.332.424-.56.699-.685.275-.124.275.073 0 .591-1.355 2.656-2.604 4.7-3.747 6.13-1.185 1.453-1.8 2.21-1.841 2.272-.635.644-1.376 1.007-2.223 1.09-1.376.145-2.297-.643-2.763-2.365-.402-1.453-.433-2.812-.095-4.077 1.25-4.668 2.9-6.774 4.954-6.317.889.207 1.45.892 1.682 2.054v-.031c.043.124.064.238.064.342.063.54 0 .996-.19 1.37-.741 1.534-1.81 2.686-3.208 3.453l-.095.063c-.021.02-.053.03-.095.03a.985.985 0 0 1-.73-.03c-.403-.208-.678-.426-.826-.654a4.752 4.752 0 0 0-.159.871c-.127 1.515-.031 2.677.286 3.486.275.684.826.892 1.651.622.678-.249 1.355-.726 2.032-1.431zm-.675-8.664a.353.353 0 0 0-.158.031.282.282 0 0 0-.126-.031l-.032-.094c.042-.02.095-.052.158-.094.105-.02.168.01.19.094a.712.712 0 0 1 .252.25c0-.292-.042-.5-.127-.626a.522.522 0 0 0-.157-.031h-.032c-.379.146-.736.438-1.073.877-.315.46-.63.95-.947 1.473l.064.031-.032.063-.032-.031v-.063l-.315.564.063.031-.031.063-.032-.031v-.032a.364.364 0 0 1-.063.094l.031.063-.063.063v-.032a.72.72 0 0 1-.094.188 9.882 9.882 0 0 0-.631 1.536c.546-.272 1.093-.69 1.64-1.254.063-.062.095-.104.095-.125l.126-.094c.084-.146.158-.261.221-.345l.032.032a.356.356 0 0 1 .126-.126v-.22c.105-.02.147-.03.126-.03l.032.03c.105-.145.2-.281.284-.406l-.032-.063.063-.25h.095l.031.062v.031l.127-.188c.189-.271.315-.553.378-.846l.032-.031v-.126a.724.724 0 0 0-.032-.376h-.094c-.021 0-.032-.031-.032-.094l-.031.063zm-1.452 1.927c.168-.33.316-.613.442-.85.252-.4.452-.577.6-.53a80.48 80.48 0 0 0-.506.779.256.256 0 0 1 .127-.036l-.19.354-.063-.035a.403.403 0 0 0 .063-.142c-.042.047-.063.083-.063.106-.19.213-.315.33-.378.354h-.032zm-1.041 1.793c-.09.173-.203.385-.338.636-.045-.405.068-.636.338-.694v.058zm.347-.825c.188-.414.304-.62.347-.62-.087.218-.18.45-.282.693l-.065-.073zm-.347.215c.025 0 .064-.023.115-.069.026-.06.103-.084.232-.068l-.309.342-.038-.205zm0 .147c.051-.038.064-.077.038-.115 0-.039.013-.068.039-.087.026 0 .077-.01.154-.03.052-.038.09-.057.116-.057l-.232.347h-.038l-.077-.058zm1.735-2.584c.084-.111.18-.153.292-.125.028-.028-.042.07-.208.291l-.084-.125v-.041zm-.694 1.55c.083-.222.194-.319.333-.291l-.25.291h-.083zm-1.333 7.592c-.055-.194-.07-.278-.041-.25h.083l.083.083v.125l-.125.042zm-.272-.269c-.14-.167-.167-.278-.084-.333l.084.125v.208zm2.508-9.007l.041.084-.125.125-.125-.084h.042l.167-.125zm-2.187 9.146c-.14 0-.14-.042 0-.125l.083.083-.042.042h-.041zm2.714-9.02l-.042-.042c.056-.111.112-.111.167 0l-.125.041zm-1.694 1.429l-.083-.042.042-.125.083.042-.042.125zm.306 7.466l.083.042-.125.124v-.083l.042-.083zm-1 .388c0 .056-.014.084-.042.084l-.041.041v-.166l.083.041zm.014.042c-.028.028-.056.042-.083.042-.028-.028-.014-.056.041-.084l.042-.041v.083zm2.374-9.787c0-.028.028 0 .083.083h-.083l-.042-.041.042-.042zm-1.083 1.377h.125l-.083.084-.042-.084zm-.264.389l-.083.083v-.125l.083.042zm.611-1.062c.028-.028.07-.028.125 0l-.083.042-.042-.042zm.778-.02l.083.041h-.167l.084-.042zm.264-.875v-.166h.041l-.041.166zm0 .347l.041-.166h.042l-.083.166zm-.306.527l.083.084-.125-.042.042-.042zm-2.471 9.02l.041.042-.041.084v-.125zm2.43-9.713l.041.041-.042.042v-.083zm-1.389 1.776c.028-.028.07-.042.125-.042l-.125.042zm-.347.388c0-.027.014-.055.042-.083l-.042.083zm.715-1.082c-.028.055-.028.042 0-.042v.042zm11.713 4.933a.486.486 0 0 1-.124.093v.093l.124.094c-.083.02-.124.041-.124.062v.654a.807.807 0 0 0 .217-.125l-.124.031.124-.062c-.041-.207-.01-.332.093-.374 0 .063-.01.177-.03.343 1.468-1.038 2.482-1.94 3.04-2.708.229-.29.425-.395.59-.312.166.104.125.322-.123.654-.704.955-1.863 2.065-3.477 3.33h-.03v.468c.04-.042.113-.062.216-.062l.031-.063v-.311c.042.02.073.031.094.031v.436c-.062.041-.104.062-.125.062-.02 0-.093.052-.217.156.02.373.042.591.062.654h.186l-.03.062-.094-.031-.03.342-.063-.031.062-.25h-.124a.59.59 0 0 1-.03.188v.218l-.063-.063c.062-.54.083-.892.062-1.058l-.093.093v.063h-.031v-.063c-.02.021-.041.031-.062.031l-.031.032c-.02.54-.052.882-.093 1.027l.124-.031c0 .041-.01.145-.031.311a.462.462 0 0 1 .217-.311c0 .041.02.072.062.093-.103.394-.176.675-.217.84a2.159 2.159 0 0 0-.062-.248l-.031.03v-.03c-.062.31-.124.56-.186.747 0 .041-.01.166-.031.373l.03.125a.51.51 0 0 1-.03.124 40.146 40.146 0 0 1-.249 2.273c.02-.063.052-.104.093-.125 0 .062.021.104.062.125h-.155a50.634 50.634 0 0 1-.683 4.077l.218.063c.062-.685.155-1.09.279-1.214l.093.093c-.02.104-.083.405-.186.903-.083.456-.166.84-.248 1.152l-.156.622c0 .062-.062.27-.186.623-.165.477-.31.83-.434 1.058a9.148 9.148 0 0 0-.56 1.058c-.227.498-.382.862-.465 1.09-.041.145-.217.373-.527.685a4.106 4.106 0 0 1-.807.871l-.062.063.155-.063a4.213 4.213 0 0 0-.28.156c-.04.041-.155.104-.341.187a3.899 3.899 0 0 1-.497.155h-.03c-1.015.25-1.811-.093-2.39-1.027-1.2-1.95-1.521-4.026-.963-6.226.414-1.598 1.407-3.496 2.98-5.696a26.116 26.116 0 0 1 2.886-3.393c.373-.374.766-.726 1.18-1.058.041-.644.072-1.266.093-1.868-1.159 2.22-2.37 2.864-3.631 1.93-.932-.685-1.5-1.64-1.708-2.864-.206-1.1-.093-2.23.342-3.393.455-1.141 1.107-2.023 1.955-2.646.931-.664 1.935-.882 3.011-.654.435.104.559.332.372.685-.186.332-.475.457-.869.374-.869-.208-1.634.238-2.296 1.338-.6.934-.9 1.93-.9 2.989-.021.705.082 1.452.31 2.24.29 1.018.672 1.267 1.148.748 1.449-1.557 2.214-3.528 2.297-5.914v-.53c0-.249.135-.404.404-.467a.88.88 0 0 1 .713.125h.404v.062h.093c.02.083.031.28.031.592.02.373.031.695.031.965.042.85.042 1.297 0 1.338l-.093-.062c0 .124-.02.207-.062.249v-.062a.361.361 0 0 0-.093-.063v.312c.02.02.052.041.093.062v-.218h.031l.031.311c.104-.02.166-.03.186-.03.021.414-.041.684-.186.809l-.062-.032.031-.218h-.124v.094h.062l-.031.249-.062-.031v.155h.155c.02-.062.052-.072.093-.03.042.02.073.072.093.155l-.093-.062c0 .083.02.145.062.186.02 0 .042.01.062.032.021.062-.01.498-.093 1.307l-.093-.062c.145-.27.104-.509-.124-.716l.155.062c-.02-.353-.062-.581-.124-.685l-.062.062c0 .146-.01.291-.031.436v.56h.124zm-3.59 15.177c.61-1.725 1.088-3.84 1.434-6.344.183-1.499.336-3.14.458-4.927a1.868 1.868 0 0 0-.244.154l-.122-.154h.183a.964.964 0 0 1 .183-.246.51.51 0 0 1 .03-.154v-.154a11.935 11.935 0 0 0-1.525 1.509c-2.624 3.038-3.966 6.312-4.027 9.823-.02 1.047.183 2.114.61 3.202.122.144.275.277.458.4l.122.124c.04 0 .081.02.122.061.122.103.193.175.213.216-.203 0-.417-.072-.64-.216.122.226.244.37.366.432v-.031l.213.092c.204 0 .397-.123.58-.37.447-.554.976-1.693 1.586-3.417zm2.27-1.912c-.127.543-.232.968-.316 1.272h.031l-.063.13v-.032c-.126.456-.242.859-.347 1.207.063-.066.116-.185.158-.36.042-.086.095-.217.158-.39.063-.218.094-.348.094-.392.19-.544.305-.935.347-1.174.106-.522.2-.903.284-1.142l-.063-.032.032-.066-.032-.26c0 .065-.052.293-.157.684h.031l.032.098-.095.065v-.032c-.063.304-.095.446-.095.424zm1.012-4.583c-.135.526-.241.946-.318 1.262.038-.337.067-.579.086-.726.039-.294.078-.525.116-.694.039-.21.087-.315.145-.315l-.03.473zm.569-3.248a.333.333 0 0 0-.155-.143c-.102.054 0-.014.309-.204l-.077.347h-.077zm-.193 1.04c0-.043.014-.151.041-.325l.125-.022c0 .058.014.102.042.13a.445.445 0 0 1-.042.196l-.166.021zm-2.43-2.161a.298.298 0 0 0 .035-.24c.092-.054.196-.027.312.08l-.278.24-.069-.08zm-1.697 2.092a.52.52 0 0 1-.038-.174.248.248 0 0 0 .038-.104c.18.047.283.07.309.07-.129.185-.219.277-.27.277v-.243l-.039.174zm-1.386 1.678c0-.021.095-.21.286-.568h.02l-.02.126c-.136.232-.245.42-.327.568l.04-.126zm5.86-9.15v-.438l.125.073-.042.62h-.041l-.042-.255zm-.403 7.888c-.055.293-.152.4-.291.323.11-.196.208-.303.291-.323zm-3.124-1.734l.042.115-.25.232v-.116l-.083-.039.291-.192zm2.652 4.857v.06a3.905 3.905 0 0 1-.166.634c0-.101.055-.332.166-.694zm1.125-12.282l-.25.042.042-.25h.041l.167.208zm-3.027 6.772a.208.208 0 0 1 .25 0c.028 0-.042.056-.208.167l-.042-.167zm2.083 3.553a.485.485 0 0 1 .125-.083l.166-.042a.401.401 0 0 1-.166.208l-.042-.083h-.083zm-.14 2.65c-.027.028-.069.042-.124.042a.518.518 0 0 1 0 .292c-.056-.111-.07-.195-.042-.25l-.041-.083h.208zm-.555 1.721c.056-.11.098-.208.125-.291l-.125-.042v.333zm-3.304-5.19h.042l-.167.25-.042-.083.167-.167zm4.387-2.428l.209.083-.25.042.041-.125zm-.222 2.942l-.166-.125.166-.042v.167zM174.81 30h.167v.125l-.167-.083V30zm.347-3.122l.083.041v.167h-.041l-.042-.208zm-.486 5.329a.686.686 0 0 0-.208-.042l.208-.083v.125zm-2.471-.472l.041.041a.405.405 0 0 1-.208.084l.167-.125zm2.693-7.12h-.041l-.042-.166.083.042v.125zm-.083 9.063c0-.084.028-.153.083-.209l-.041.209h-.042zm0-2.942l.125-.042v.125l-.125-.083zm-.306.652a.785.785 0 0 0-.041.25l.041-.042v-.208zm-.041 3.636c.028-.084.07-.14.125-.167l-.084.167h-.041zm0 .874l.083.042-.042.124-.041-.166zm-1.736 6.633l.084-.041-.042.166-.042-.125zm2.083-16.361c0-.194.014-.306.042-.333l-.042.333zm.43 1.18a.484.484 0 0 1-.083-.126l.083.042v.083zm-.736 5.675a.58.58 0 0 1-.041-.25l.041.167v.083zm.042-2.206l-.083-.083.083-.042v.125zm-.083-1.041l.083-.042-.083-.083v.125zm.125 3.428l-.125-.084h.125v.084zm-.347 2.428h-.125l.041-.083.084.083zm.305-5.12l-.083-.167.083.042v.124zm-2.86 15.223v-.125l.083.042-.083.083zm3.554-18.082c-.027 0-.055-.028-.083-.084h.083v.084zm-5.206 6.161l.041.042-.125.083.084-.125zm1.735-3.427l-.083.041v-.083l.083.042zm-1.471 16.389l.166-.125-.166.167v-.042zm4.942-19.47l-.083-.084h.083v.084zm-.694 3.47l-.083-.084h.083v.083zm-.083.693h.041v-.083h-.041v.083zm.083 2.859l-.083-.167.083.084v.083zm-.083 2.775l.083-.166-.042.166h-.041zm-.694.61v-.082l.083.083h-.083zm.347-16.042c.027.028.055.042.083.042v-.042h-.083zm1.041 5.33l.042-.125v.124h-.042zm-3.124 17.693a.653.653 0 0 1 .167-.125l-.167.125zm2.471-12.573l-.041.042v-.083l.041.041zm-1.409 8.368c-.028-.055-.028-.083 0-.083v.083zm.715-2.47h-.041v-.041l.041.041zm.736-4.205c-.028.028-.055.042-.083.042l.083-.042zm5.482-15.265a.057.057 0 0 0-.011.01c0-.006 0-.009.003-.01h.008zm.01 0c.008-.003.027.02.06.07.083.021.145.032.187.032 0-.042.01-.063.03-.063.084.063.146.104.187.125.145 0 .259.01.342.032l-.062.093c.227.125.3.313.217.563.083-.27-.373-.083-1.367.563a1.299 1.299 0 0 0-.186.25c-.083.126-.134.23-.155.313l-.187.188c-.02.02-.04.031-.062.031-.041.125-.072.261-.093.407-.041.104-.072.23-.093.375.02.167.052.324.093.47.062.27.187.5.373.688l-.155.093c-.083-.083-.135-.125-.156-.125.083.188.197.365.342.532l.062.063v-.032c.02.042.041.073.062.094.187.167.414.323.683.47h.094l.03.062c.104.042.332.135.684.281l-.031-.062c.041.02.083.052.124.094.083.02.166.052.249.094.29.125.538.26.745.406l.062.063c1.035-.814 2.785-1.554 5.25-2.221.33-.083.537-.083.62 0 .062.083-.103.167-.497.25-.828.209-1.739.553-2.733 1.032-1.014.48-1.511.824-1.49 1.033 0 .02-.011.052-.032.093l.031-.093-.062.062a.237.237 0 0 1-.093.031c0 .084.02.178.062.282l-.31.188c.02 0 .051.01.093.03h.093l.031.063v.032a.21.21 0 0 1 .155-.063v-.25a.718.718 0 0 0 .31.156l-.03.032a5.768 5.768 0 0 0-.373.25c.29.542.435.865.435.97l.031.125c.062 0 .166.03.31.093 0 .188.073.74.218 1.658l.062-.125.062.031c0 .584-.093 1.2-.28 1.846 0 .125-.01.25-.03.375l.093.031a1.053 1.053 0 0 0-.155.25c-.021.126-.052.24-.094.345h.031l-.03.219h-.063c-.02.062-.02.083 0 .062h.031c0 .042-.03.094-.093.157-.29.959-.725 1.647-1.304 2.064.02.02.03.042.03.063l-.124.03-.124.063v.032h-.062c-.145.083-.28.146-.404.187-.538.146-1.18.021-1.925-.375-.725-.375-1.232-.824-1.522-1.345-.725-1.21-.539-2.617.559-4.223.642-.938 1.439-1.835 2.391-2.69-.227-.146-.6-.344-1.118-.594-.538-.25-.931-.459-1.18-.625-.538-.313-.963-.793-1.273-1.44-.352-.667-.456-1.292-.31-1.876.372-1.522 1.148-2.304 2.328-2.346.104 0 .228.01.373.031.033-.05.046-.073.04-.07h-.006zm-.783 10.499c.021.02-.01.02-.095 0a.734.734 0 0 1-.096.19c.064.064.17.096.318.096-.339.637-.466 1.19-.381 1.656.063.531.36.966.89 1.306-.021-.021.106.053.382.223.318.127.466.18.445.159.127.042.244.074.35.096.402-.15.742-.531 1.017-1.147.742-1.592.901-3.068.477-4.426a3.819 3.819 0 0 0-.509-1.02c-.508.489-.837.797-.985.924l-.128-.032v-.063c.043-.022.191-.17.446-.446l-.064-.032a7.024 7.024 0 0 1-.286.127 1.082 1.082 0 0 1-.286.128c.02-.022.031-.043.031-.064-.084.106-.159.202-.222.287.021.042.021.074 0 .095v-.095a1.861 1.861 0 0 0-.16.19l.064-.031c-.02.021-.042.032-.063.032-.17.212-.329.414-.477.605l.127.063-.032.032v.032l-.095-.095c-.255.34-.477.69-.668 1.05h.064l-.064.16zm.067.53c.15-.286.332-.582.547-.89-.043 0-.075-.01-.097-.032.065-.022.107-.022.129 0 .128-.198.278-.384.45-.56.193-.175.353-.296.482-.362-.022-.022-.032-.055-.032-.099v-.066l.257.066-.29.33c-.428.526-.642.8-.642.822l-.354.428c-.193.33-.278.472-.257.428l-.193-.066zm5.185-1.563a11.708 11.708 0 0 1-.209 3.024l-.116-.033c.217-1.052.294-2.082.232-3.09l.093.099zm-5.32 2.158a.708.708 0 0 0 .12-.398c.02-.366.02-.519 0-.458-.1.204-.18.397-.241.58-.04.123-.07.255-.09.398.02.04.03.173.03.397l.12-.061c-.02-.061 0-.214.06-.458zm2.766-4.338l-.037.033c-.097-.022-.267.132-.511.462.049.044.085.11.11.199.097-.088.292-.276.584-.562l-.146-.132zm2.51 2.081a8.144 8.144 0 0 0-.281-1.04h.124c.208.483.27.83.187 1.04h-.03zm-5.713 3.37a.943.943 0 0 1 .032.1c.103-.044.167-.1.193-.165-.077-.045-.128-.166-.154-.364a.649.649 0 0 1-.193-.165c0 .11.013.22.039.33.025.044.051.1.077.166l.038.033.039.066h-.071zm.232.108h-.007c0-.011.002-.011.007 0zm-.007.377c.052.103.116.206.193.309a.342.342 0 0 0 .154-.039.63.63 0 0 1-.038-.154l-.193-.154a.296.296 0 0 0-.116.038zm4.887-.13c-.055-.093-.027-.178.084-.255a.557.557 0 0 0 .083.208l-.125.139-.042-.023v-.07zm-.472.786c0 .042.014.115.042.22l-.167.127-.125-.064.125-.094.125-.19zm-3.665-8.813c-.056-.055-.07-.125-.042-.208.111.056.209.111.292.167l-.083.041h-.167zm4.193 7.12l.167-.042-.084.25-.166-.042.083-.166zm-4.249 1.817l.042.042c.111-.028.139-.042.083-.042l.084-.124h-.167l-.042.124zm4.176-6.363c-.007-.008-.01-.008-.01 0h.01zm-.01-.006h.114l.084.333-.084-.125a1.57 1.57 0 0 0-.114-.208zm-2.623.277c.052-.07.116-.162.193-.277a3.62 3.62 0 0 0-.347.347l.154-.07zm1.398-1.158a.367.367 0 0 1-.039-.16l-.125.083v.042l.042.041v.042c.085-.043.13-.06.133-.054l-.011.006zm-3.121-2.242c-.028.111-.083.153-.167.125l.042-.083.042-.042h.083zm-.125-.097a.785.785 0 0 1-.042-.25c.056.084.098.14.125.167l-.083.083zm1.208 4.816l-.208-.042.125-.167-.042.084.125.125zm-.208-.209c.138 0 .222.042.25.125l-.25-.125zm3.47 3.47l.126.041-.042.125-.083-.166zm-4.165 1.082l.125.125-.041-.166-.084.041zm0-8.937l.084-.125a.685.685 0 0 1-.042.208l-.042-.083zm.778 9.326l.042-.083a.32.32 0 0 0-.125.041l.083.042zm.43-5.246l-.166.083.125-.125.041.042zm-1.555 4.816c.028.027.056.041.084.041l.083-.041h-.167zm4.166-6.079l.041-.166a.32.32 0 0 1 .042.125c.028.027.055.041.083.041-.028 0-.055-.014-.083-.041l-.042-.042-.041.083zm-4.513 5.038a.37.37 0 0 1 .167.041l-.167-.041zm4.207-6.245c0 .028-.014.055-.042.083l.042-.083z" fill="#F8B5B5"/></g></svg>