<svg width="32" height="32" viewBox="0 0 32 32" xmlns="http://www.w3.org/2000/svg"><title>check</title><g transform="translate(1 1)" fill="none" fill-rule="evenodd"><circle stroke="#F8B5B5" opacity=".272" cx="15" cy="15" r="15"/><path d="M11.746 20.168c-.812 0-1.535-.2-2.17-.602-.635-.401-1.132-.982-1.491-1.743-.36-.76-.539-1.668-.539-2.723s.18-1.962.539-2.723c.36-.76.856-1.342 1.491-1.743.635-.401 1.358-.602 2.17-.602.812 0 1.535.2 2.17.602.635.401 1.132.982 1.491 1.743.36.76.539 1.668.539 2.723s-.18 1.962-.539 2.723c-.36.76-.856 1.342-1.491 1.743-.635.401-1.358.602-2.17.602zm0-1.918c.597 0 1.066-.257 1.407-.77.34-.513.511-1.307.511-2.38s-.17-1.867-.511-2.38c-.34-.513-.81-.77-1.407-.77-.588 0-1.052.257-1.393.77-.34.513-.511 1.307-.511 2.38s.17 1.867.511 2.38c.34.513.805.77 1.393.77zm9.086-8.05V20h-2.268v-7.98h-1.96V10.2h4.228z" fill="#F8B5B5"/></g></svg>