<svg width="32" height="32" viewBox="0 0 32 32" xmlns="http://www.w3.org/2000/svg"><title>check</title><g transform="translate(1 1)" fill="none" fill-rule="evenodd"><circle stroke="#F8B5B5" opacity=".272" cx="15" cy="15" r="15"/><path d="M10.746 20.168c-.812 0-1.535-.2-2.17-.602-.635-.401-1.132-.982-1.491-1.743-.36-.76-.539-1.668-.539-2.723s.18-1.962.539-2.723c.36-.76.856-1.342 1.491-1.743.635-.401 1.358-.602 2.17-.602.812 0 1.535.2 2.17.602.635.401 1.132.982 1.491 1.743.36.76.539 1.668.539 2.723s-.18 1.962-.539 2.723c-.36.76-.856 1.342-1.491 1.743-.635.401-1.358.602-2.17.602zm0-1.918c.597 0 1.066-.257 1.407-.77.34-.513.511-1.307.511-2.38s-.17-1.867-.511-2.38c-.34-.513-.81-.77-1.407-.77-.588 0-1.052.257-1.393.77-.34.513-.511 1.307-.511 2.38s.17 1.867.511 2.38c.34.513.805.77 1.393.77zm12.628-.098V20h-7.406v-1.47l3.78-3.57c.401-.383.672-.712.812-.987s.21-.548.21-.819c0-.392-.133-.693-.399-.903-.266-.21-.656-.315-1.169-.315-.43 0-.817.082-1.162.245a2.225 2.225 0 0 0-.868.735l-1.652-1.064c.383-.57.91-1.015 1.582-1.337.672-.322 1.442-.483 2.31-.483.728 0 1.365.119 1.911.357s.97.574 1.274 1.008c.303.434.455.945.455 1.533 0 .532-.112 1.031-.336 1.498-.224.467-.658.999-1.302 1.596l-2.254 2.128h4.214z" fill="#F8B5B5"/></g></svg>