<svg width="32" height="32" viewBox="0 0 32 32" xmlns="http://www.w3.org/2000/svg"><title>check</title><g transform="translate(1 1)" fill="none" fill-rule="evenodd"><circle stroke="#F8B5B5" opacity=".272" cx="15" cy="15" r="15"/><path d="M10.746 20.168c-.812 0-1.535-.2-2.17-.602-.635-.401-1.132-.982-1.491-1.743-.36-.76-.539-1.668-.539-2.723s.18-1.962.539-2.723c.36-.76.856-1.342 1.491-1.743.635-.401 1.358-.602 2.17-.602.812 0 1.535.2 2.17.602.635.401 1.132.982 1.491 1.743.36.76.539 1.668.539 2.723s-.18 1.962-.539 2.723c-.36.76-.856 1.342-1.491 1.743-.635.401-1.358.602-2.17.602zm0-1.918c.597 0 1.066-.257 1.407-.77.34-.513.511-1.307.511-2.38s-.17-1.867-.511-2.38c-.34-.513-.81-.77-1.407-.77-.588 0-1.052.257-1.393.77-.34.513-.511 1.307-.511 2.38s.17 1.867.511 2.38c.34.513.805.77 1.393.77zm9.884-4.06c.859.14 1.517.46 1.974.959.457.5.686 1.118.686 1.855 0 .57-.15 1.094-.448 1.575-.299.48-.754.866-1.365 1.155-.611.29-1.36.434-2.247.434-.69 0-1.37-.091-2.037-.273-.667-.182-1.234-.441-1.701-.777l.882-1.736c.373.28.805.497 1.295.651.49.154.992.231 1.505.231.57 0 1.017-.11 1.344-.329.327-.22.49-.53.49-.931 0-.803-.611-1.204-1.834-1.204h-1.036v-1.498l2.016-2.282h-4.172V10.2h6.86v1.47l-2.212 2.52z" fill="#F8B5B5"/></g></svg>